<?xml version="1.0" standalone="no"?>
<!DOCTYPE svg PUBLIC "-//W3C//DTD SVG 1.1//EN" "http://www.w3.org/Graphics/SVG/1.1/DTD/svg11.dtd" >
<svg xmlns="http://www.w3.org/2000/svg">
<metadata></metadata>
<defs>
<font id="nanookregular" horiz-adv-x="720" >
<font-face units-per-em="2048" ascent="1638" descent="-410" />
<missing-glyph horiz-adv-x="819" />
<glyph horiz-adv-x="0" />
<glyph horiz-adv-x="682" />
<glyph horiz-adv-x="0" />
<glyph horiz-adv-x="0" />
<glyph unicode="&#xd;" horiz-adv-x="819" />
<glyph unicode=" "  horiz-adv-x="819" />
<glyph unicode="&#x09;" horiz-adv-x="819" />
<glyph unicode="&#xa0;" horiz-adv-x="819" />
<glyph unicode="'" horiz-adv-x="460" d="M61 1425q41 12 77.5 40.5t58 62t37 70t14.5 64.5t-10 44l-50 66q0 46 34 78t71 32q43 0 74.5 -34.5t31.5 -75.5q0 -59 -19 -122t-54.5 -122.5t-95.5 -107t-134 -68.5z" />
<glyph unicode="(" horiz-adv-x="739" d="M82 616q0 158 27 304t73 259t107 206.5t129.5 154.5t140 94t139.5 33l-34 -86q-31 0 -74.5 -29.5t-93.5 -83.5t-98 -139.5t-87.5 -188t-63.5 -240t-24 -284.5q0 -146 25 -281.5t65 -236.5t88.5 -185t98 -137t92 -81.5t70.5 -28.5l36 -86q-50 0 -106.5 20.5t-116.5 64 t-116.5 104.5t-107 148t-88 189.5t-59.5 234t-22 275.5z" />
<glyph unicode=")" horiz-adv-x="739" d="M41 -420l37 86q28 0 70.5 28.5t91.5 81.5t98 137t88.5 185t64.5 236.5t25 281.5q0 175 -34 335.5t-86 271.5t-113 194.5t-115 123.5t-92 40l-35 86q68 0 139.5 -33t140 -94t129.5 -154.5t107 -206.5t73 -259t27 -304q0 -144 -22 -275.5t-59.5 -234t-88 -189.5t-107 -148 t-116.5 -104.5t-116.5 -64t-106.5 -20.5z" />
<glyph unicode="," horiz-adv-x="399" d="M0 -213q41 12 77.5 40.5t58 62t36.5 70t14 64.5t-10 44l-49 65q0 47 33.5 79t70.5 32q43 0 75 -35t32 -76q0 -59 -19 -122t-54.5 -122.5t-95.5 -107t-134 -68.5z" />
<glyph unicode="-" d="M82 344q0 35 3.5 68.5t17 78.5t36 78t64.5 56.5t98 23.5h100q75 0 114.5 27.5t39.5 62.5l84 37q0 -29 -2.5 -56t-9.5 -64.5t-22 -68t-38 -58t-60 -43t-85 -15.5h-105q-76 0 -113.5 -27.5t-37.5 -62.5z" />
<glyph unicode="." horiz-adv-x="337" d="M66 0v244h210v-244h-210z" />
<glyph unicode="A" horiz-adv-x="1353" d="M41 0v80l143 104l416 1714h137l457 -1726l119 -92v-80h-414v80l123 90l-168 649h-383l-152 -637l136 -102v-80h-414zM516 1008h289l-150 581z" />
<glyph unicode="B" horiz-adv-x="1183" d="M82 0v80l139 104v1516l-139 104v80h457q189 0 310.5 -109.5t121.5 -285.5q0 -60 -18 -115t-43.5 -91t-51 -63t-43.5 -39l-18 -12q50 -11 101 -37.5t103 -75t92 -111t65.5 -152.5t25.5 -193q0 -125 -43 -234.5t-120.5 -190.5t-194.5 -128t-257 -47h-487zM360 184l5 -4h223 q90 0 172 26t148.5 75.5t106.5 131t40 183.5t-39 187.5t-102.5 140t-141.5 84.5t-158 30h-254v-854zM360 1243h199q128 0 203.5 68t75.5 178q0 106 -74.5 170.5t-202.5 64.5h-201v-481z" />
<glyph unicode="C" horiz-adv-x="1314" d="M82 932q0 223 49.5 406t136.5 305t205 188.5t256 66.5q51 0 103.5 -12t91.5 -29t70.5 -34t47.5 -29l17 -12l49 102h80v-440h-80q-5 11 -14.5 29t-44 64.5t-75 82.5t-108.5 65t-143 29q-99 0 -188.5 -52.5t-160 -148.5t-112 -246.5t-41.5 -332.5q0 -187 46 -339 t122.5 -246.5t169.5 -144.5t193 -50q77 0 152.5 35.5t131.5 92t92 130.5t39 149l99 39q9 -30 9 -64q0 -12 -1 -24q-4 -48 -15 -100t-36.5 -104.5t-57 -101.5t-76.5 -92t-95.5 -74.5t-113.5 -50t-130 -18.5q-133 0 -253.5 66.5t-213 187t-147 304.5t-54.5 403z" />
<glyph unicode="D" horiz-adv-x="1394" d="M82 0v80l139 104v1516l-139 104v80h487q344 0 544 -249.5t200 -694.5q0 -441 -199.5 -690.5t-542.5 -249.5h-489zM360 184h211q269 0 432.5 200t163.5 556q0 359 -163 559.5t-435 200.5h-209v-1516z" />
<glyph unicode="E" horiz-adv-x="1091" d="M82 0v80l139 104v1516l-139 104v80h844l47 -285h-80l-59 105h-474v-696h474l-62 -189h-412v-635l5 -4l532 2l61 103h78l-47 -285h-907z" />
<glyph unicode="F" horiz-adv-x="931" d="M82 0v80l139 104v1516l-139 104v80h844l47 -285h-80l-59 105h-474v-696h474l-62 -189h-412v-635l140 -104v-80h-418z" />
<glyph unicode="G" horiz-adv-x="1437" d="M72 932q0 223 49.5 406t136.5 305t205 188.5t256 66.5q51 0 103.5 -12t91.5 -29t70.5 -34t47.5 -29l17 -12l49 102h80v-440h-80q-5 11 -14.5 29t-44 64.5t-75 82.5t-108.5 65t-143 29q-99 0 -188.5 -52.5t-160 -148.5t-112 -246.5t-41.5 -332.5q0 -150 32.5 -279.5 t87.5 -219.5t127 -155t149.5 -95.5t156.5 -30.5q112 0 200 59t139 156.5t77 212t26 237.5h-344l64 189h420v-205q0 -87 -12.5 -177t-39 -185.5t-73.5 -178.5t-109 -149t-152.5 -104t-197.5 -38t-208.5 41.5t-188.5 124t-152.5 196.5t-103 268.5t-37.5 330.5z" />
<glyph unicode="H" horiz-adv-x="1437" d="M82 0v80l139 104v1516l-139 104v80h414v-80l-136 -104v-692h721v692q1 0 -34 26l-70 52l-35 26v80h414v-80l-135 -104v-1516l135 -104v-80h-414v80l139 104v635h-721v-635l136 -104v-80h-414z" />
<glyph unicode="I" horiz-adv-x="577" d="M82 0v80l139 104v1516l-139 104v80h414v-80l-136 -104v-1516l136 -104v-80h-414z" />
<glyph unicode="J" horiz-adv-x="987" d="M12 442q3 53 15 86l77 33q-1 -20 -1 -40q0 -145 71 -249q81 -118 213 -118q57 0 106 18t92.5 58t68 113.5t24.5 174.5v1182l-139 104v80h413v-80l-135 -104v-1227q0 -118 -32.5 -215.5t-88 -159.5t-126 -95.5t-148.5 -33.5q-96 0 -172 32.5t-120.5 84.5t-73.5 114.5 t-38 125.5q-6 50 -6 92v24z" />
<glyph unicode="K" horiz-adv-x="1318" d="M82 0v80l139 104v1516l-139 104v80h418v-80l-140 -104v-735l580 735l-139 104v80h416v-80l-682 -846l182 -505q27 -75 44 -117t37.5 -82t39.5 -58t43.5 -29t56.5 -11q70 0 124 68q39 50 39 101q0 19 -5 37l78 33q10 -2 18 -44.5t8 -102.5q0 -29 -9.5 -64t-32.5 -73.5 t-56 -69.5t-84.5 -51.5t-112.5 -20.5q-119 0 -191 96.5t-136 301.5l-148 462l-70 -73v-572l134 -102v-82h-412z" />
<glyph unicode="L" horiz-adv-x="1036" d="M82 0v80l139 104v1516l-139 104v80h414v-80l-136 -104v-1514h537l61 99h78l-47 -285h-907z" />
<glyph unicode="M" horiz-adv-x="1908" d="M41 0v80l125 96l2 1708h154l639 -1653l636 1653h152v-1712l119 -92v-80h-414v80l123 90v1274l-580 -1471h-114l-578 1489v-1286l121 -96v-80h-385z" />
<glyph unicode="N" horiz-adv-x="1417" d="M82 0v80l139 104v1700h139l721 -1470v1286q1 0 -34 26l-70 52l-35 26v80h414v-80l-135 -104v-1700h-140l-721 1468v-1284l136 -104v-80h-414z" />
<glyph unicode="O" horiz-adv-x="1447" d="M82 938q0 220 50 402.5t136.5 303.5t202.5 187.5t248 66.5q138 0 256 -66.5t205 -188.5t136.5 -305t49.5 -406q0 -221 -49.5 -403.5t-135.5 -303.5t-202 -187.5t-250 -66.5q-136 0 -254 66t-205.5 187t-137.5 305.5t-50 408.5zM223 938q0 -190 42.5 -343t114 -247.5 t160.5 -144t187 -49.5t186.5 50t158.5 144.5t111.5 246t41.5 339.5q0 147 -27 273.5t-74 218.5t-110.5 157.5t-137 98t-151.5 32.5q-77 0 -150 -32.5t-136.5 -98t-111.5 -156.5t-76 -217.5t-28 -271.5z" />
<glyph unicode="P" horiz-adv-x="1200" d="M61 0v80l140 104v1516l-140 104v80h592q131 0 234.5 -46t165.5 -122.5t94.5 -169.5t32.5 -194q0 -102 -32 -195t-94 -170t-165.5 -122.5t-235.5 -45.5h-313v-635l133 -102v-82h-412zM340 997h326q102 0 179.5 35t119.5 90.5t62 113t20 114.5q0 47 -11.5 93.5t-40 94.5 t-71 84t-109 59t-149.5 23h-326v-707z" />
<glyph unicode="Q" horiz-adv-x="1447" d="M82 932q0 223 49.5 406t136.5 305t205 188.5t256 66.5q132 0 248 -66.5t202.5 -187.5t136.5 -303.5t50 -402.5q0 -210 -44 -385.5t-122 -296t-183 -193t-229 -88.5q0 -17 2.5 -37t12 -49.5t24.5 -52t44.5 -39t68.5 -16.5q49 0 86.5 18.5t57.5 48.5t30 61t10 62l72 31 q14 -37 14 -90q0 -46 -16 -96t-47 -97t-85.5 -77.5t-121.5 -30.5q-66 0 -121.5 30.5t-89.5 76.5t-53.5 89.5t-26.5 81.5l-12 88q-119 19 -220 93.5t-175.5 194.5t-117 291.5t-42.5 375.5zM221 934q0 -188 41.5 -339.5t112 -246t159.5 -144.5t187 -50t186.5 49.5t159 144 t112.5 247t42 343.5q0 181 -42 330.5t-112 245.5t-159 148t-185 52q-99 0 -188.5 -52.5t-160 -148.5t-112 -246.5t-41.5 -332.5z" />
<glyph unicode="R" horiz-adv-x="1261" d="M82 0v80l139 104v1516l-139 104v80h592q105 0 193 -30t148.5 -81.5t103 -120t62 -144.5t19.5 -156q0 -101 -30.5 -193.5t-90.5 -168.5t-160 -122.5t-227 -48.5h-45l135 -379q17 -48 25 -70t23 -59.5t25.5 -55t27.5 -41t33 -34t38 -18.5t47 -8q68 0 122 70q39 51 39 101 q0 19 -5 37l78 33q6 -1 12 -19.5t10.5 -53t4.5 -74.5q0 -38 -18.5 -84.5t-52 -90.5t-89.5 -74t-121 -30q-127 0 -203 95.5t-137 289.5l-145 465h-136v-635l134 -102v-82h-412zM360 997h326q102 0 179.5 35t119.5 90.5t62 113t20 114.5q0 47 -11.5 93.5t-40 94.5t-71 84 t-109 59t-149.5 23h-326v-707z" />
<glyph unicode="S" horiz-adv-x="1019" d="M47 408q0 30 4 62t8 48l4 17l78 32q-2 -18 -2 -38q0 -31 5 -63q8 -53 33 -108.5t64.5 -99.5t104.5 -72t146 -28q152 0 238.5 84.5t86.5 208.5q0 210 -182 335l-275 187q-160 109 -221 218.5t-61 256.5q0 110 49 214t134 170t181 66q55 0 103.5 -11.5t78.5 -28.5t52.5 -34 t31.5 -28l9 -12l51 100h78v-440h-80q-2 11 -7.5 29t-29 64.5t-55 82.5t-90.5 65t-131 29q-108 0 -178 -76.5t-70 -173.5q0 -48 11.5 -88t28 -69t49.5 -61.5t62 -54.5t80 -58l260 -183q262 -184 262 -489q0 -99 -30 -186t-86.5 -155t-147.5 -107.5t-205 -39.5 q-97 0 -182.5 42t-140.5 107t-87 140.5t-32 145.5z" />
<glyph unicode="T" horiz-adv-x="1392" d="M0 1597l47 287h1299l47 -287h-80l-60 105h-487v-1518l135 -104v-80h-414v80l140 104v1518h-488l-59 -105h-80z" />
<glyph unicode="U" horiz-adv-x="1402" d="M41 1804v80h414v-80l-138 -104v-1174q0 -76 22.5 -139t59 -105.5t83.5 -72t95.5 -42.5t96.5 -13q135 0 229 86.5t94 222.5v1237q1 0 -33.5 26t-69.5 52l-34 26v80h414v-80l-137 -104v-813q0 -125 -1 -300t-1 -278q2 -69 21 -105t71 -36q27 0 47 8t29.5 20t15.5 24t7 20 l1 8l76 31q0 -64 -20.5 -126t-67 -107.5t-109.5 -45.5q-33 0 -63 14.5t-49 35.5t-34 42.5t-22 35.5l-6 15q-5 -7 -14 -18.5t-41.5 -40.5t-70.5 -51.5t-100.5 -41t-131.5 -18.5q-220 0 -358 151t-138 388v1188z" />
<glyph unicode="V" horiz-adv-x="1271" d="M0 1819v79h414v-79l-123 -90l360 -1473l342 1460l-135 103v79h414v-79l-144 -105l-415 -1714h-138l-456 1726z" />
<glyph unicode="W" horiz-adv-x="1826" d="M0 1804v80h414v-80l-123 -90l313 -1286l266 1233h115l303 -1239l279 1288l-125 94v80h385v-80l-131 -98l-359 -1706h-120l-314 1241l-250 -1241h-118l-416 1712z" />
<glyph unicode="X" horiz-adv-x="1357" d="M41 1804v80h416v-80l-119 -92l340 -645l350 645l-127 92v80h416v-80l-121 -92l-444 -778l452 -766l113 -88v-80h-416v80l123 90l-348 645l-340 -645l121 -90v-80h-414v80l121 92l436 770l-436 770z" />
<glyph unicode="Y" horiz-adv-x="1275" d="M0 1804v80h416v-80l-119 -92l344 -788l346 788l-127 92v80h416v-80l-121 -92l-446 -958v-570l135 -104v-80h-414v80l139 104v570l-446 958z" />
<glyph unicode="Z" horiz-adv-x="1183" d="M61 82l852 1638h-632l-60 -121h-78v285h979v-80l-858 -1618l135 41q16 5 40 5q40 0 101 -14q97 -22 208.5 -51.5t169.5 -29.5q39 0 66.5 8.5t39 21t17.5 25t6 20.5v9l77 31q0 -59 -20.5 -124t-52.5 -97q-37 -37 -70 -49q-26 -10 -72 -10q-11 0 -24 1q-53 0 -170 28.5 t-219 51.5q-71 16 -108 16q-16 0 -26 -3l-219 -66z" />
<glyph unicode="`" horiz-adv-x="1705" d="M703 1596q8 56 63 65q10 2 20 2h78q1 -10 4.5 -27.5t25.5 -67.5t56 -96t104.5 -101t162.5 -93l-54 -84q-266 87 -392 235q-78 93 -68 167z" />
<glyph unicode="a" horiz-adv-x="1026" d="M82 256q0 126 85 214.5t179 88.5h252l20 21l3 75q0 78 -61.5 130.5t-143.5 52.5q-54 0 -94 -17t-61 -44.5t-30.5 -55.5t-9.5 -57l-86 -37q-12 24 -12 106q0 109 87.5 200t211.5 91q88 0 156 -28.5t105.5 -74.5t56 -96t18.5 -102v-354q0 -110 19.5 -156.5t70.5 -46.5 q26 0 46 8.5t30 20.5t16 24t7 21l1 8l78 33q0 -110 -56.5 -195.5t-138.5 -85.5q-34 0 -64.5 14t-50.5 33.5t-35 39.5t-21 34l-7 14q-3 -7 -10 -17.5t-32 -38.5t-56 -49.5t-84 -39t-113 -17.5q-39 0 -85.5 19t-89.5 53.5t-72 90t-29 120.5zM229 254q0 -41 40.5 -70.5 t103.5 -29.5q68 0 117 17t72.5 44.5t33.5 53t10 50.5v121l-223 -41q-82 -14 -118 -53t-36 -92z" />
<glyph unicode="b" horiz-adv-x="1208" d="M-63 1698v186h401v-981l18 -16q5 5 15 14t41.5 32t64.5 40.5t82.5 32t97.5 14.5q139 0 253.5 -70t178.5 -189t64 -259q0 -121 -40.5 -222.5t-109 -168t-157 -103.5t-184.5 -37q-59 0 -114 16t-91.5 39t-65 46t-41.5 39l-14 16l-113 -127h-98l72 248v1450h-260zM332 500 q0 -155 95.5 -250.5t236.5 -95.5q153 0 248.5 106t95.5 242q0 51 -20.5 106.5t-60.5 107.5t-111.5 86t-160.5 34q-138 0 -230.5 -101t-92.5 -235z" />
<glyph unicode="c" horiz-adv-x="1089" d="M59 489q0 230 148.5 380.5t363.5 150.5q44 0 84 -9.5t65 -22.5t44 -26t27 -22l8 -10l51 78h80v-412h-80q-1 5 -2.5 13.5t-9.5 33.5t-20 47.5t-34.5 50.5t-51 48t-72 33.5t-95.5 13.5q-169 0 -267.5 -91.5t-98.5 -252.5q0 -150 99.5 -244t264.5 -94q136 0 236 75t100 166 l78 31q8 -6 8 -61q0 -69 -28.5 -138t-80.5 -126.5t-135 -93.5t-182 -36q-129 0 -243 65t-185.5 185.5t-71.5 267.5z" />
<glyph unicode="d" horiz-adv-x="1316" d="M70 496q0 101 30 188t79 147.5t112.5 104t130.5 64t133 20.5q53 0 104.5 -13.5t87.5 -33t64 -38.5t41 -33l14 -13l19 16v793h-269v184h388l22 -16v-1504q0 -30 0.5 -46t3 -43t8 -42t15 -31.5t25.5 -24t38 -7.5q27 0 47 8t30 20t16 24t7 20l1 8l75 31q0 -64 -20.5 -126 t-66.5 -107.5t-109 -45.5q-31 0 -60 14.5t-48.5 35t-35 41.5t-22.5 35l-8 15q-5 -7 -15.5 -18.5t-45.5 -40.5t-73.5 -51.5t-98.5 -41t-122 -18.5q-99 0 -189 37t-158.5 103.5t-109 166.5t-40.5 218zM215 496q0 -153 104.5 -247.5t245.5 -94.5q135 0 230.5 92.5t95.5 242.5 q0 152 -91 249.5t-251 97.5q-84 0 -160 -42t-125 -121t-49 -177z" />
<glyph unicode="e" horiz-adv-x="1089" d="M82 489q0 117 42.5 218t112 168.5t158.5 106t183 38.5q52 0 105.5 -13.5t106 -43t93.5 -72t66.5 -106.5t25.5 -140q0 -33 -4.5 -65.5t-9.5 -49.5l-5 -16h-735q-1 -14 -1 -28q0 -60 17 -110q21 -62 57 -102.5t84.5 -68t97.5 -39.5t97 -12q154 0 251.5 75.5t97.5 165.5 l77 31l3 2q6 -2 6 -63q0 -69 -30 -138t-84 -126.5t-138 -93.5t-183 -36q-125 0 -236.5 63.5t-183 184t-71.5 270.5zM248 643l588 33q0 15 -16.5 40t-47.5 53t-87.5 47.5t-125.5 19.5q-90 0 -180.5 -49.5t-130.5 -143.5z" />
<glyph unicode="f" horiz-adv-x="768" d="M92 0v80l139 104v635h-139l64 189h75v542q0 60 19 118t55 107t96.5 79t135.5 30q81 0 144 -49.5t93.5 -122.5t30.5 -153q0 -36 -2 -68.5t-4 -46.5l-2 -14l-78 30q0 5 -0.5 14t-5 34t-11 48t-21 51.5t-33.5 48.5t-49.5 34t-68.5 14q-31 0 -55 -8t-49 -29.5t-39 -69 t-14 -116.5v-473h327l-61 -189h-266v-635l135 -104v-80h-416z" />
<glyph unicode="g" horiz-adv-x="1007" d="M55 188q0 59 34 113.5t79 93.5q-57 97 -57 221q0 169 109 286.5t274 117.5q170 0 280 -129q25 11 46.5 35.5t30.5 43.5l9 19l76 31q0 -83 -24 -146t-72 -88q32 -82 32 -170q0 -170 -106.5 -286.5t-271.5 -116.5q-147 0 -252 94q-47 -28 -47 -92q0 -43 24.5 -69t75.5 -27 h6q34 0 100 11q72 11 138 11q180 0 311 -146t131 -349q0 -128 -60.5 -238.5t-168.5 -177t-238 -66.5q-122 0 -227.5 66.5t-166.5 177.5t-61 238q0 60 14 114t34.5 88.5t41 61t34.5 38.5l14 11q-60 28 -101 89.5t-41 139.5zM193 -352q0 -126 98 -213.5t231 -87.5 q124 0 225 88.5t101 212.5q0 139 -96 228q-87 82 -204 82q-12 0 -24 -1l-202 -14q-5 -4 -14 -11t-31 -33.5t-39 -58t-31 -83.5t-14 -109zM250 616q0 -91 73.5 -153t170.5 -62q96 0 168.5 62t72.5 153q0 92 -73 158t-168 66q-96 0 -170 -66t-74 -158zM375 100l2 -2z" />
<glyph unicode="h" horiz-adv-x="1245" d="M0 1698v186h389l21 -18v-1008q4 7 11 17.5t30.5 38.5t50 49.5t69 39t86.5 17.5q173 0 279 -112.5t106 -276.5v-447l136 -104v-80h-412v80l139 104v420q0 111 -69 168t-166 57q-102 0 -180 -79.5t-78 -231.5v-334l135 -104v-80h-414v80l139 104l-2 1514h-270z" />
<glyph unicode="i" horiz-adv-x="532" d="M41 823h178v-639l-139 -104v-80h412v80l-136 104v803l-16 21h-299v-185zM168 1327q0 39 28.5 73t65.5 34t65.5 -34t28.5 -73t-28.5 -72.5t-65.5 -33.5t-65.5 33.5t-28.5 72.5z" />
<glyph unicode="j" horiz-adv-x="477" d="M-174 -195q0 -54 18 -108.5t51 -102t87.5 -77t121.5 -29.5q77 0 135.5 31.5t91 83.5t48.5 110.5t16 122.5v1151l-16 21h-299v-185h178v-942q0 -213 -156 -213q-41 0 -73.5 15t-52 39.5t-34 54t-21 58.5t-10 53.5t-3.5 39.5v15l-78 -31q-4 -5 -4 -107zM207 1327 q0 39 28.5 73t65.5 34t65.5 -34t28.5 -73t-28.5 -72.5t-65.5 -33.5t-65.5 33.5t-28.5 72.5z" />
<glyph unicode="k" horiz-adv-x="1077" d="M-82 1698v186h389l21 -18v-1221l247 207l-94 76v80h412v-80l-483 -408l159 -221q109 -152 215 -152q58 0 108 35q48 36 70 86q13 30 13 57q0 19 -6 37l78 33q4 2 11 -18.5t13 -55.5t6 -67q0 -45 -20 -94.5t-55 -91.5t-90 -69.5t-117 -27.5q-58 0 -107 17.5t-85 49.5 t-57 58t-44 62l-176 278h2v-252l135 -104v-80h-416v80l139 104v1514h-268z" />
<glyph unicode="l" horiz-adv-x="544" d="M-41 1700v184h389l21 -18v-1682l135 -104v-80h-416v80l139 104v1516h-268z" />
<glyph unicode="m" horiz-adv-x="1814" d="M63 823v185h256l17 -21l18 -129q4 7 10.5 17.5t31.5 38.5t54 49.5t76 39t99 17.5q103 0 184.5 -43t132.5 -119q5 7 15 19.5t39.5 39.5t63.5 48t86.5 38t108.5 17q173 0 279 -112.5t106 -276.5v-447l136 -104v-80h-412v80l139 104v420q0 111 -69 168t-166 57 q-39 0 -72.5 -6t-68 -23t-59 -43.5t-40.5 -72t-18 -104.5v-396l135 -104v-80h-412v80l139 104v420q0 111 -69 168t-166 57q-102 0 -180 -79.5t-78 -231.5v-334l135 -104v-80h-412v80l140 104v639h-179z" />
<glyph unicode="n" horiz-adv-x="1204" d="M82 823v185h256l16 -21l19 -129q4 7 10.5 17.5t31.5 38.5t53.5 49.5t75.5 39t99 17.5q173 0 279 -112.5t106 -276.5v-447l135 -104v-80h-411v80l139 104v420q0 111 -69.5 168t-166.5 57q-102 0 -180 -79.5t-78 -231.5v-334l135 -104v-80h-411v80l139 104v639h-178z" />
<glyph unicode="o" horiz-adv-x="1124" d="M82 492q0 112 40 211.5t106.5 168t154 108.5t180.5 40q85 0 170.5 -40t154 -107.5t111.5 -166.5t43 -208q0 -116 -42.5 -217t-111.5 -167.5t-155 -104.5t-174 -38q-87 0 -172 38.5t-153 105.5t-110 166t-42 211zM221 494q0 -102 50.5 -181.5t126.5 -119t161 -39.5 q84 0 160 40t127 120.5t51 183.5q0 150 -103 244t-233 94q-135 0 -237.5 -94t-102.5 -248z" />
<glyph unicode="p" horiz-adv-x="1193" d="M0 823v185h254l18 -21l15 -160q5 8 15.5 21t45.5 46t73.5 58.5t100 46.5t125.5 21q94 0 182.5 -38.5t156 -106t108.5 -167t41 -214.5q0 -122 -44 -224t-115 -165.5t-156 -98.5t-171 -35q-65 0 -122.5 16t-94 39t-63.5 46t-39 39l-11 16v-459l132 -102v-78h-412v78 l139 104v1153h-178zM313 494q0 -147 94 -243.5t238 -96.5q147 0 245.5 103.5t98.5 236.5q0 138 -97.5 240t-242.5 102q-146 0 -241 -96t-95 -246z" />
<glyph unicode="q" horiz-adv-x="1191" d="M51 489q0 118 41 219t109.5 168.5t157.5 105.5t184 38q56 0 110 -16.5t92 -39.5t68 -46t45 -40l14 -16l60 146h76v-1338l139 -104v-78h-412v78l131 102v455q-5 -6 -14.5 -16.5t-41 -36.5t-66 -46t-87.5 -36.5t-108 -16.5q-101 0 -192 38t-158.5 105t-107.5 165t-40 210z M197 494q0 -141 101 -240.5t249 -99.5q142 0 233.5 97t91.5 243q0 152 -95 247t-236 95q-103 0 -183.5 -50.5t-120.5 -127.5t-40 -164z" />
<glyph unicode="r" horiz-adv-x="858" d="M61 823v185h256l17 -21l14 -113l127 134q11 -6 29.5 -16t72.5 -26t103 -16q42 0 86.5 17.5t67.5 34.5l24 18q-6 -52 -16.5 -98t-17.5 -66l-7 -20q-49 -28 -102 -40q-44 -10 -80 -11q-7 1 -14 1q-41 2 -75 8t-52 14l-19 7l-98 -102v-529l135 -104v-80h-412v80l140 104v639 h-179z" />
<glyph unicode="s" horiz-adv-x="835" d="M82 274q0 26 2 46t4 27l2 7l74 25q0 -110 68.5 -173t193.5 -63q107 0 156 41t49 99q0 48 -37.5 84t-106.5 51l-161 37q-61 14 -105 45t-67 71.5t-33 81.5t-10 84q0 70 29 133t92 106.5t149 43.5q37 0 69.5 -8t52.5 -19.5t35 -23t21 -19.5l6 -8l25 66h80v-334h-68 q-1 8 -3.5 20.5t-17 45t-35.5 57t-63.5 45t-97.5 20.5q-76 0 -111.5 -36.5t-35.5 -86.5q0 -97 114 -121l150 -32q130 -29 191 -111t61 -186q0 -47 -19.5 -99t-57.5 -102t-106 -82.5t-153 -32.5q-80 0 -146.5 31t-106.5 78t-61.5 97.5t-21.5 94.5z" />
<glyph unicode="t" horiz-adv-x="808" d="M20 819l64 189h78v401h139v-401h328l-62 -189h-266v-483q0 -89 44 -141t114 -52q71 0 124.5 53t53.5 138l72 31q14 -27 14 -105q0 -48 -19 -98t-52 -92.5t-84 -69.5t-109 -27q-64 0 -121 27t-94.5 69.5t-59.5 93.5t-22 99v557h-142z" />
<glyph unicode="u" horiz-adv-x="1253" d="M41 823v185h299l16 -21v-555q0 -78 21 -134t58 -84.5t77 -41t88 -12.5q60 0 106 20.5t72.5 51.5t43.5 74t22.5 81.5t5.5 79.5v356h-178v185h299l16 -21v-659q0 -160 90 -160q27 0 47 8t30 20t16 24t7 20l1 8l75 31q0 -30 -8 -70.5t-27.5 -90.5t-62.5 -84t-102 -34 q-30 0 -58.5 12.5t-48.5 30t-36 34.5t-24 29l-7 13q-3 -6 -9 -16t-30 -35t-52.5 -44t-78 -35t-105.5 -16q-160 0 -272.5 97t-112.5 252v501h-178z" />
<glyph unicode="v" horiz-adv-x="1110" d="M-31 928v80h412v-80l-107 -64l301 -653l275 616l-127 101v80h412v-80l-140 -105l-354 -823h-147l-390 823z" />
<glyph unicode="w" horiz-adv-x="1566" d="M-61 928v80h305v-144l319 -669l113 258l-174 370l-135 105v80h411v-80l-106 -64l315 -669l303 632l-127 101v80h412v-80l-139 -105l-389 -823h-148l-139 285l-137 -285h-148l-401 823z" />
<glyph unicode="x" horiz-adv-x="1128" d="M61 0v82l414 418l-414 428v80h332v-80l-71 -37l241 -295l256 281l-84 51v80h332v-80l-424 -420l424 -428v-80h-332v80l74 49l-248 285l-256 -281l88 -53v-80h-332z" />
<glyph unicode="y" horiz-adv-x="1101" d="M-37 -215q0 23 3.5 47t9 42t11.5 32.5t11.5 21.5t7.5 6l66 -53q-8 -23 -8 -47q0 -23 7 -46q15 -50 57.5 -85t100.5 -35q39 0 70 14t53 41t35.5 52.5t28.5 62.5l114 283l-362 702l-135 105v80h411v-80l-94 -64l262 -545l207 508l-127 101v80h412v-80l-139 -105l-449 -1099 q-17 -42 -41.5 -80t-60 -75t-86.5 -59t-109 -22q-62 0 -113 29.5t-81 75t-46 95.5t-16 97z" />
<glyph unicode="z" horiz-adv-x="987" d="M61 82l625 762h-405l-60 -121h-78v285h789v-80l-615 -750l76 37q18 11 43 10q15 0 33 -3q48 -10 87.5 -29t98 -37.5t105.5 -18.5q39 0 66.5 8.5t39 21t17.5 25t6 20.5v9l78 31q0 -58 -21 -123.5t-53 -97.5q-37 -37 -70 -49q-26 -10 -72 -10q-11 0 -24 1q-54 0 -140 24.5 t-157 44.5q-50 14 -81 13q-12 0 -21 -2l-185 -53z" />
<glyph unicode="&#xad;" d="M82 344q0 35 3.5 68.5t17 78.5t36 78t64.5 56.5t98 23.5h100q75 0 114.5 27.5t39.5 62.5l84 37q0 -29 -2.5 -56t-9.5 -64.5t-22 -68t-38 -58t-60 -43t-85 -15.5h-105q-76 0 -113.5 -27.5t-37.5 -62.5z" />
<glyph unicode="&#xb4;" horiz-adv-x="1705" d="M621 1278q67 28 123 64.5t91.5 72t62.5 72.5t40.5 68t22 55.5t10.5 38.5l2 14h78q65 0 80 -55q19 -67 -50 -159q-105 -141 -343 -232q-31 -12 -64 -23z" />
<glyph unicode="&#xc0;" horiz-adv-x="1353" d="M41 0v80l143 104l416 1714h137l457 -1726l119 -92v-80h-414v80l123 90l-168 649h-383l-152 -637l136 -102v-80h-414zM452 2417q8 56 63 65l20 2h77q1 -10 4.5 -27.5t25.5 -67.5t56 -96t104.5 -101t162.5 -93l-54 -84q-266 87 -391 235q-79 93 -68 167zM516 1008h289 l-150 581z" />
<glyph unicode="&#xc1;" horiz-adv-x="1353" d="M41 0v80l143 104l416 1714h137l457 -1726l119 -92v-80h-414v80l123 90l-168 649h-383l-152 -637l136 -102v-80h-414zM377 2101q67 28 123 64.5t91.5 72t62.5 72.5t40.5 68t22 55.5t10.5 38.5l2 14h78q65 0 80 -55q19 -67 -50 -159q-105 -141 -343 -232l-64 -23zM516 1008 h289l-150 581z" />
<glyph unicode="&#xc8;" horiz-adv-x="1091" d="M82 0v80l139 104v1516l-139 104v80h844l47 -285h-80l-59 105h-474v-696h474l-62 -189h-412v-635l5 -4l532 2l61 103h78l-47 -285h-907zM308 2421q8 56 63 65l20 2h78q0 -5 1.5 -14.5t10.5 -38t22.5 -56.5t40.5 -67t62.5 -73t91.5 -71t123 -65l-53 -84q-266 87 -392 235 q-78 93 -68 167z" />
<glyph unicode="&#xc9;" horiz-adv-x="1091" d="M82 0v80l139 104v1516l-139 104v80h844l47 -285h-80l-59 105h-474v-696h474l-62 -189h-412v-635l5 -4l532 2l61 103h78l-47 -285h-907zM264 2101q67 28 123 64.5t91.5 72t62.5 72.5t40.5 68t22 55.5t10.5 38.5l2 14h78q65 0 80 -55q19 -67 -50 -159q-105 -141 -343 -232 l-64 -23z" />
<glyph unicode="&#xe0;" horiz-adv-x="1026" d="M82 256q0 126 85 214.5t179 88.5h252l20 21l3 75q0 78 -61.5 130.5t-143.5 52.5q-54 0 -94 -17t-61 -44.5t-30.5 -55.5t-9.5 -57l-86 -37q-12 24 -12 106q0 109 87.5 200t211.5 91q88 0 156 -28.5t105.5 -74.5t56 -96t18.5 -102v-354q0 -110 19.5 -156.5t70.5 -46.5 q26 0 46 8.5t30 20.5t16 24t7 21l1 8l78 33q0 -110 -56.5 -195.5t-138.5 -85.5q-34 0 -64.5 14t-50.5 33.5t-35 39.5t-21 34l-7 14q-3 -7 -10 -17.5t-32 -38.5t-56 -49.5t-84 -39t-113 -17.5q-39 0 -85.5 19t-89.5 53.5t-72 90t-29 120.5zM216 1596q8 56 63 65q10 2 20 2h78 q0 -5 1.5 -14.5t10.5 -38t22.5 -56.5t40.5 -67t62.5 -73t91.5 -71t123 -65l-53 -84q-266 87 -392 235q-78 93 -68 167zM229 254q0 -41 40.5 -70.5t103.5 -29.5q68 0 117 17t72.5 44.5t33.5 53t10 50.5v121l-223 -41q-82 -14 -118 -53t-36 -92z" />
<glyph unicode="&#xe1;" horiz-adv-x="1026" d="M82 256q0 126 85 214.5t179 88.5h252l20 21l3 75q0 78 -61.5 130.5t-143.5 52.5q-54 0 -94 -17t-61 -44.5t-30.5 -55.5t-9.5 -57l-86 -37q-12 24 -12 106q0 109 87.5 200t211.5 91q88 0 156 -28.5t105.5 -74.5t56 -96t18.5 -102v-354q0 -110 19.5 -156.5t70.5 -46.5 q26 0 46 8.5t30 20.5t16 24t7 21l1 8l78 33q0 -110 -56.5 -195.5t-138.5 -85.5q-34 0 -64.5 14t-50.5 33.5t-35 39.5t-21 34l-7 14q-3 -7 -10 -17.5t-32 -38.5t-56 -49.5t-84 -39t-113 -17.5q-39 0 -85.5 19t-89.5 53.5t-72 90t-29 120.5zM156 1278q67 28 123 64.5t91.5 72 t62.5 72.5t40.5 68t22 55.5t10.5 38.5l2 14h78q65 0 80 -55q19 -67 -50 -159q-105 -141 -343 -232q-31 -12 -64 -23zM229 254q0 -41 40.5 -70.5t103.5 -29.5q68 0 117 17t72.5 44.5t33.5 53t10 50.5v121l-223 -41q-82 -14 -118 -53t-36 -92z" />
<glyph unicode="&#xe8;" horiz-adv-x="1089" d="M82 489q0 117 42.5 218t112 168.5t158.5 106t183 38.5q52 0 105.5 -13.5t106 -43t93.5 -72t66.5 -106.5t25.5 -140q0 -33 -4.5 -65.5t-9.5 -49.5l-5 -16h-735q-5 -75 16 -137.5t57 -103t84.5 -68t97.5 -39.5t97 -12q154 0 251.5 75.5t97.5 165.5l77 31l3 2q6 -2 6 -63 q0 -69 -30 -138t-84 -126.5t-138 -93.5t-183 -36q-125 0 -236.5 63.5t-183 184t-71.5 270.5zM248 643l588 33q0 15 -16.5 40t-47.5 53t-87.5 47.5t-125.5 19.5q-90 0 -180.5 -49.5t-130.5 -143.5zM302 1596q8 56 63 65q10 2 20 2h78q0 -5 1.5 -14.5t10.5 -38t22.5 -56.5 t40.5 -67t62.5 -73t91.5 -71t123 -65l-53 -84q-266 87 -392 235q-78 93 -68 167z" />
<glyph unicode="&#xe9;" horiz-adv-x="1089" d="M82 489q0 117 42.5 218t112 168.5t158.5 106t183 38.5q52 0 105.5 -13.5t106 -43t93.5 -72t66.5 -106.5t25.5 -140q0 -33 -4.5 -65.5t-9.5 -49.5l-5 -16h-735q-5 -75 16 -137.5t57 -103t84.5 -68t97.5 -39.5t97 -12q154 0 251.5 75.5t97.5 165.5l77 31l3 2q6 -2 6 -63 q0 -69 -30 -138t-84 -126.5t-138 -93.5t-183 -36q-125 0 -236.5 63.5t-183 184t-71.5 270.5zM248 643l588 33q0 15 -16.5 40t-47.5 53t-87.5 47.5t-125.5 19.5q-90 0 -180.5 -49.5t-130.5 -143.5zM299 1278q67 28 123 64.5t91.5 72t62.5 72.5t40.5 68t22 55.5t10.5 38.5 l2 14h78q65 0 80 -55q19 -67 -50 -159q-105 -141 -343 -232l-64 -23z" />
<glyph unicode="&#x2000;" horiz-adv-x="1244" />
<glyph unicode="&#x2001;" horiz-adv-x="2488" />
<glyph unicode="&#x2002;" horiz-adv-x="1244" />
<glyph unicode="&#x2003;" horiz-adv-x="2488" />
<glyph unicode="&#x2004;" horiz-adv-x="829" />
<glyph unicode="&#x2005;" horiz-adv-x="622" />
<glyph unicode="&#x2006;" horiz-adv-x="414" />
<glyph unicode="&#x2007;" horiz-adv-x="414" />
<glyph unicode="&#x2008;" horiz-adv-x="311" />
<glyph unicode="&#x2009;" horiz-adv-x="497" />
<glyph unicode="&#x200a;" horiz-adv-x="138" />
<glyph unicode="&#x2010;" d="M82 344q0 35 3.5 68.5t17 78.5t36 78t64.5 56.5t98 23.5h100q75 0 114.5 27.5t39.5 62.5l84 37q0 -29 -2.5 -56t-9.5 -64.5t-22 -68t-38 -58t-60 -43t-85 -15.5h-105q-76 0 -113.5 -27.5t-37.5 -62.5z" />
<glyph unicode="&#x2011;" d="M82 344q0 35 3.5 68.5t17 78.5t36 78t64.5 56.5t98 23.5h100q75 0 114.5 27.5t39.5 62.5l84 37q0 -29 -2.5 -56t-9.5 -64.5t-22 -68t-38 -58t-60 -43t-85 -15.5h-105q-76 0 -113.5 -27.5t-37.5 -62.5z" />
<glyph unicode="&#x2012;" d="M82 344q0 35 3.5 68.5t17 78.5t36 78t64.5 56.5t98 23.5h100q75 0 114.5 27.5t39.5 62.5l84 37q0 -29 -2.5 -56t-9.5 -64.5t-22 -68t-38 -58t-60 -43t-85 -15.5h-105q-76 0 -113.5 -27.5t-37.5 -62.5z" />
<glyph unicode="&#x2013;" horiz-adv-x="1187" d="M82 344q0 35 6.5 68.5t31.5 78.5t66 78t118.5 56.5t180.5 23.5h183q138 0 211 27.5t73 62.5l154 37q0 -29 -4.5 -56t-17.5 -64.5t-40.5 -68t-70 -58t-110.5 -43t-156 -15.5h-193q-140 0 -209 -27.5t-69 -62.5z" />
<glyph unicode="&#x2014;" horiz-adv-x="1476" d="M82 344q0 35 3.5 68.5t17 78.5t36 78t64.5 56.5t98 23.5h856q75 0 114.5 27.5t39.5 62.5l84 37q0 -29 -2.5 -56t-9.5 -64.5t-22 -68t-38 -58t-60 -43t-85 -15.5h-861q-76 0 -113.5 -27.5t-37.5 -62.5z" />
<glyph unicode="&#x202f;" horiz-adv-x="497" />
<glyph unicode="&#x205f;" horiz-adv-x="622" />
<glyph unicode="&#x25fc;" horiz-adv-x="1003" d="M0 0v1004h1004v-1004h-1004z" />
</font>
</defs>
</svg>
