<svg enable-background="new 0 0 168 168" height="168" viewBox="0 0 168 168" width="168" xmlns="http://www.w3.org/2000/svg"><path d="m84 168c46.4 0 84-37.6 84-84s-37.6-84-84-84-84 37.6-84 84 37.6 84 84 84z" fill="#fc4b60"/><path d="m70.5 104.6c-13.4-13.6-18.6-35-9.8-52.6 8.2-16.4 25.2-27.6 43.9-26.4 19.4 1.3 37.3 14.7 42 34 4.8 19.8-3 39.3-19.9 50.7-2 1.4-2.5 3.6-1.5 5.8 1.3 2.6 2.6 5.3 3.9 7.9.8 1.7 1.6 3.3 2.4 5 .4.8 1.1 1.3.1 1-5-1.7-10-3.5-15.1-5.2-15.1-5.4-33.9-9.3-46-20.2z" fill="#fc4b60"/><path d="m66.7 109.3c14.6 13.3 37.8 17.9 56.2 24.3 5.4 1.9 15.2 6.2 17.3-2.3 1.2-5-3.3-12.3-6.3-17.7 16.7-13 25.7-34.7 19.6-55.7-6.1-20.8-24.3-37-46.3-38.5-21.7-1.4-44.1 10.7-52.3 31.5-8.1 20.5-3.8 42.7 11.8 58.4zm5.6-5.9c-13-13.1-18-33.7-9.4-50.7 7.9-15.8 24.3-26.6 42.3-25.4 18.7 1.2 35.9 14.2 40.5 32.7 4.7 19.1-2.9 37.9-19.1 48.8-2 1.3-2.4 3.5-1.4 5.6 1.2 2.6 2.5 5.1 3.7 7.7.8 1.6 1.6 3.2 2.3 4.8.4.8 1.1 1.3.1 1-4.8-1.7-9.7-3.4-14.5-5.1-14.7-5.1-32.8-8.8-44.5-19.4z" fill="#12224c"/><path d="m60.4 137.4c-4.8 2.4-9.6 4.9-14.4 7.3-.9.5-.3-.1 0-1 .6-1.8 1.2-3.6 1.8-5.4.9-2.8 1.9-5.7 2.8-8.5.8-2.3 0-4.5-2.3-5.6-18.5-9.1-29-27.7-26.8-48.2 2-20 18.2-35.9 37.5-39.8 18.7-3.8 37.2 5.2 47.7 20.5 11.3 16.5 9 38.7-2.7 54.2-10.6 12.6-29 19.1-43.6 26.5z" fill="#fc4b60"/><path d="m112.2 55.4c-10.9-19.5-34.7-28.5-56-24.2-21.7 4.4-37.5 22.9-40.8 44.4-3.3 21.6 8.6 42 26.9 52.6-2.3 5.7-5.8 13.5-3.9 18.3 3.2 8.2 12.3 2.6 17.4 0 17.4-8.8 39.8-16.5 52.5-31.6 13.3-17.6 14.6-40.2 3.9-59.5zm-51.8 79.7c-4.6 2.3-9.1 4.6-13.7 7-.9.5-.3-.1 0-1 .6-1.7 1.1-3.4 1.7-5.1.9-2.7 1.8-5.4 2.7-8.1.7-2.2 0-4.3-2.1-5.3-17.6-8.7-27.6-26.3-25.5-45.8 2-19 17.4-34.1 35.7-37.9 17.7-3.6 35.3 4.9 45.3 19.5 10.7 15.7 8.6 36.8-2.6 51.5-10.1 12-27.6 18.1-41.5 25.2z" fill="#12224c"/></svg>