<svg enable-background="new 0 0 168 168" viewBox="0 0 168 168" xmlns="http://www.w3.org/2000/svg"><path d="m24.6 24.4c-32.8 32.8-32.8 86.1 0 119 32.8 32.8 85.9 32.8 118.7 0s32.8-85.9 0-118.7c-32.8-32.9-85.8-32.9-118.7-.3z" fill="#353535"/><path d="m101.1 38.2c4.2 2 7.3 4.6 9.4 7.8 2.1 3.3 3.1 6.8 3.1 10.6 0 3.6-.6 6.6-1.8 9.1s-2.7 4.5-4.4 6-4 3.3-6.9 5.3c-3.5 2.3-6 4.5-7.7 6.4s-2.5 4.5-2.5 7.6v4h-17v-4.6c0-4 .6-7.4 1.9-10.1 1.3-2.8 2.8-5 4.6-6.6s4-3.4 6.7-5.2c2.8-1.8 4.8-3.4 6-4.8 1.3-1.4 1.9-3.2 1.9-5.3 0-2.7-.9-4.7-2.7-6.2-1.8-1.4-4.2-2.1-7.3-2.1-5.9 0-11.2 2.7-15.9 8.2l-12-9.2c3.8-4.4 8.1-7.8 13-10.1s10.4-3.5 16.6-3.5c5.8-.2 10.9.8 15 2.7zm-11.3 72.3c2.2 2.2 3.3 4.8 3.3 7.8s-1.1 5.7-3.3 7.9-4.8 3.3-7.9 3.3-5.7-1.1-7.9-3.2c-2.1-2.2-3.2-4.8-3.2-7.9 0-3 1.1-5.6 3.2-7.8s4.7-3.3 7.9-3.3 5.7 1 7.9 3.2z" fill="#ebebeb"/></svg>