<svg enable-background="new 0 0 168 168" height="168" viewBox="0 0 168 168" width="168" xmlns="http://www.w3.org/2000/svg"><path d="m0 0h168v168h-168z" fill="#ffc832"/><g fill="none" stroke="#fc4b60" stroke-miterlimit="10" stroke-width="5.6693"><path d="m71.4 154 82.6-82.6v-17l-99.6 99.6z"/><path d="m88.3 154 65.7-65.7v-16.9l-82.6 82.6z"/><path d="m54.4 154 99.6-99.6v-16.9l-116.5 116.5z"/><path d="m105.2 154 48.8-48.8v-16.9l-65.7 65.7z"/><path d="m122.2 154 31.8-31.8v-17l-48.8 48.8z"/><path d="m154 154v-14.9l-14.9 14.9z"/><path d="m139.1 154 14.9-14.9v-16.9l-31.8 31.8z"/><path d="m14 42v16.9l44.9-44.9h-16.9z"/><path d="m37.5 154 116.5-116.5v-17l-133.5 133.5z"/><path d="m14 92.8 78.8-78.8h-16.9l-61.9 61.9z"/><path d="m14 75.9 61.9-61.9h-17l-44.9 44.9z"/><path d="m14 14v11l11-11z"/><path d="m25 14-11 11v17l28-28z"/><path d="m14 154h6.5l133.5-133.5v-6.5h-10.4l-129.6 129.6z"/><path d="m14 143.6 129.6-129.6h-16.9l-112.7 112.7z"/><path d="m14 109.7 95.7-95.7h-16.9l-78.8 78.8z"/><path d="m14 126.7 112.7-112.7h-17l-95.7 95.7z"/></g></svg>