<svg enable-background="new 0 0 168 168" viewBox="0 0 168 168" xmlns="http://www.w3.org/2000/svg"><path d="m49.7 0-49.7 49.7v118.3h168v-168z" fill="#ffbe32"/><g fill="#ff3e51"><path d="m50 50h-50.2l50.2-49.8z"/><path d="m139 92-35 33.5-42-52-30 56.8-18-49.6v73.3h140v-38.5z"/><path d="m130.8 41.2-3.1-5.2 8.5-1.4z"/><path d="m125 33.2-5.2-2.9 6.6-5.5z"/><path d="m116 29.2h-6l3-8z"/><path d="m106.2 30.2-5.2 3.1-1.4-8.5z"/><path d="m98.2 36-2.9 5.2-5.5-6.6z"/><path d="m94.2 45 .1 6-8.1-3z"/><path d="m95.2 54.8 3.1 5.2-8.5 1.4z"/><path d="m101 62.8 5.2 2.9-6.6 5.5z"/><path d="m110 66.8 6-.1-3 8.1z"/><path d="m119.8 65.8 5.2-3.1 1.4 8.5z"/><path d="m127.8 60 2.9-5.2 5.5 6.6z"/><path d="m131.8 51-.1-6 8.1 3z"/><circle cx="113" cy="48" r="15.2"/></g></svg>