<svg enable-background="new 0 0 168 168" viewBox="0 0 168 168" xmlns="http://www.w3.org/2000/svg"><path d="m0 0h168v168h-168z" fill="#ffbe32"/><path d="m43 62h-20v44h20l34 28v-100z" fill="#1d327f"/><g fill="none" stroke="#ff3e51" stroke-miterlimit="10" stroke-width="6"><path d="m94 107.8c3.1-1.3 5.9-3.2 8.2-5.5s4.2-5.1 5.5-8.2 2-6.5 2-10-.7-7-2-10c-1.3-3.1-3.2-5.9-5.5-8.2s-5.1-4.2-8.2-5.5"/><path d="m99.6 120.9c4.8-2 9.1-5 12.7-8.6s6.5-7.9 8.6-12.7c2-4.8 3.1-10 3.1-15.6s-1.1-10.8-3.1-15.6-5-9.1-8.6-12.7-7.9-6.5-12.7-8.6"/><path d="m105.4 134.7c6.6-2.8 12.5-6.8 17.5-11.8s9-10.9 11.8-17.5 4.3-13.8 4.3-21.4-1.5-14.8-4.3-21.4-6.8-12.5-11.8-17.5-10.9-9-17.5-11.8"/></g></svg>