<?xml version="1.0" encoding="utf-8"?>
<!-- Generator: Adobe Illustrator 21.1.0, SVG Export Plug-In . SVG Version: 6.00 Build 0)  -->
<svg version="1.1" xmlns="http://www.w3.org/2000/svg" xmlns:xlink="http://www.w3.org/1999/xlink" x="0px" y="0px"
	 viewBox="0 0 168 168" style="enable-background:new 0 0 168 168;" xml:space="preserve">
<style type="text/css">
	.st0{fill:#FF3E51;}
	.st1{fill:#09227C;}
	.st2{fill:none;stroke:#09227C;stroke-width:10;stroke-miterlimit:10;}
	.st3{fill:#FFFFFF;}
	.st4{fill:none;stroke:#09227C;stroke-width:2;stroke-miterlimit:10;}
	.st5{fill:#1B2F81;}
	.st6{fill:none;stroke:#09227C;stroke-width:6;stroke-miterlimit:10;}
	.st7{clip-path:url(#SVGID_8_);}
	.st8{fill:#09227C;stroke:#FFFFFF;stroke-width:6;stroke-miterlimit:10;}
	.st9{fill:#FF3E51;stroke:#1B2F81;stroke-width:10;stroke-miterlimit:10;}
	.st10{clip-path:url(#SVGID_10_);}
	.st11{fill:none;stroke:#09227C;stroke-width:4;stroke-miterlimit:10;}
	.st12{clip-path:url(#SVGID_14_);}
	.st13{fill:none;stroke:#1B2F81;stroke-width:4;stroke-miterlimit:10;}
	.st14{fill:none;stroke:#FFFFFF;stroke-width:5;stroke-miterlimit:10;}
	.st15{fill:#333333;}
	.st16{fill:#969696;}
	.st17{fill:#FCFCFA;}
	.st18{clip-path:url(#SVGID_16_);}
	.st19{fill:#FFBE32;}
	.st20{fill:#1D327F;}
	.st21{fill:#353535;}
	.st22{fill:#5AC5B9;}
	.st23{fill:#FFFFFF;stroke:#000000;stroke-miterlimit:10;}
	.st24{clip-path:url(#SVGID_17_);}
	.st25{fill:#FFFFFF;stroke:#1B2F81;stroke-width:12;stroke-linejoin:round;stroke-miterlimit:10;}
	.st26{fill:#FFFFFF;stroke:#1B2F81;stroke-width:10;stroke-linejoin:round;stroke-miterlimit:10;}
	.st27{fill:#D19833;}
	.st28{fill:#CC334A;}
	.st29{fill:#12224C;}
	.st30{fill:#47998D;}
	.st31{fill:#232323;}
	.st32{fill:#E5E5E5;}
	.st33{fill:#FFD892;}
	.st34{fill:#FF808C;}
	.st35{fill:#BEC6E5;}
	.st36{fill:#A5E5DA;}
	.st37{fill:#EBEBEB;}
	.st38{fill:#293275;}
	.st39{opacity:0.9;fill:#FFBE32;}
	.st40{fill:none;stroke:#FFFFFF;stroke-width:12;stroke-miterlimit:10;}
	.st41{fill:none;}
	.st42{fill:none;stroke:#FF3E51;stroke-width:6;stroke-miterlimit:10;}
	.st43{fill:#48C2B5;}
	.st44{fill:#FFFFFF;stroke:#1B2F81;stroke-width:10;stroke-miterlimit:10;}
	.st45{clip-path:url(#SVGID_19_);}
	.st46{fill:none;stroke:#FFBE32;stroke-width:10;stroke-miterlimit:10;}
	.st47{clip-path:url(#SVGID_21_);}
	.st48{fill:none;stroke:#1B2F81;stroke-width:10;stroke-linejoin:round;stroke-miterlimit:10;}
	.st49{clip-path:url(#SVGID_23_);}
	.st50{clip-path:url(#SVGID_25_);}
	.st51{clip-path:url(#SVGID_27_);}
	.st52{clip-path:url(#SVGID_29_);}
	.st53{fill:#FFFFFF;stroke:#1B2F81;stroke-width:15;stroke-linejoin:round;stroke-miterlimit:10;}
	.st54{fill:#FF3E51;stroke:#1B2F81;stroke-width:12;stroke-miterlimit:10;}
	.st55{fill:none;stroke:#FF3E51;stroke-width:20;stroke-miterlimit:10;}
	.st56{clip-path:url(#SVGID_31_);}
	.st57{clip-path:url(#SVGID_33_);}
	.st58{fill:none;stroke:#1B2F81;stroke-width:12;stroke-linejoin:round;stroke-miterlimit:10;}
	.st59{clip-path:url(#SVGID_35_);}
	.st60{clip-path:url(#SVGID_37_);}
	.st61{clip-path:url(#SVGID_39_);}
	.st62{clip-path:url(#SVGID_41_);}
	.st63{clip-path:url(#SVGID_43_);}
	.st64{clip-path:url(#SVGID_45_);}
	.st65{clip-path:url(#SVGID_46_);}
	.st66{fill:none;stroke:#FFFFFF;stroke-width:10;stroke-miterlimit:10;}
	.st67{fill:none;stroke:#353535;stroke-width:10;stroke-miterlimit:10;}
	.st68{fill:#FF3E51;stroke:#FFBE32;stroke-width:10;stroke-miterlimit:10;}
	.st69{clip-path:url(#SVGID_47_);}
	.st70{fill:#FFBE32;stroke:#FFBE32;stroke-width:10;stroke-miterlimit:10;}
	.st71{fill:#FFFFFF;stroke:#FFBE32;stroke-width:10;stroke-miterlimit:10;}
	.st72{clip-path:url(#SVGID_48_);}
	.st73{fill:#FFFFFF;stroke:#1B2F81;stroke-width:15;stroke-miterlimit:10;}
	.st74{clip-path:url(#SVGID_50_);}
	.st75{clip-path:url(#SVGID_52_);}
	.st76{fill:none;stroke:#FFBE32;stroke-width:10;stroke-linejoin:round;stroke-miterlimit:10;}
	.st77{fill:#FFBE32;stroke:#FFBE32;stroke-width:10;stroke-linejoin:round;stroke-miterlimit:10;}
	.st78{clip-path:url(#SVGID_54_);}
	.st79{clip-path:url(#SVGID_56_);}
	.st80{clip-path:url(#SVGID_58_);}
	.st81{clip-path:url(#SVGID_60_);}
	.st82{clip-path:url(#SVGID_62_);}
	.st83{clip-path:url(#SVGID_64_);}
	.st84{fill:#FCFCFA;stroke:#EBEBEB;stroke-width:6;stroke-miterlimit:10;}
	.st85{fill:#C3C3C3;}
	.st86{fill:none;stroke:#FF3E51;stroke-width:5;stroke-miterlimit:10;}
	.st87{opacity:0.9;}
	.st88{clip-path:url(#SVGID_70_);}
	.st89{opacity:0.3;}
	.st90{fill:#0A997F;}
	.st91{clip-path:url(#SVGID_71_);}
	.st92{clip-path:url(#SVGID_72_);}
</style>
<g id="archive">
</g>
<g id="fond_1_">
</g>
<g id="contenu">
	<g>
		<path class="st21" d="M24.6,24.4c-32.8,32.8-32.8,86.1,0,119c32.8,32.8,85.9,32.8,118.7,0c32.8-32.8,32.8-85.9,0-118.7
			C110.5-8.2,57.5-8.2,24.6,24.4z"/>
		<g>
			<path class="st37" d="M101.1,38.2c4.2,2,7.3,4.6,9.4,7.8c2.1,3.3,3.1,6.8,3.1,10.6c0,3.6-0.6,6.6-1.8,9.1c-1.2,2.5-2.7,4.5-4.4,6
				c-1.7,1.5-4,3.3-6.9,5.3c-3.5,2.3-6,4.5-7.7,6.4s-2.5,4.5-2.5,7.6V95h-17v-4.6c0-4,0.6-7.4,1.9-10.1c1.3-2.8,2.8-5,4.6-6.6
				c1.8-1.6,4-3.4,6.7-5.2c2.8-1.8,4.8-3.4,6-4.8c1.3-1.4,1.9-3.2,1.9-5.3c0-2.7-0.9-4.7-2.7-6.2c-1.8-1.4-4.2-2.1-7.3-2.1
				c-5.9,0-11.2,2.7-15.9,8.2l-12-9.2c3.8-4.4,8.1-7.8,13-10.1c4.9-2.3,10.4-3.5,16.6-3.5C91.9,35.3,97,36.3,101.1,38.2z
				 M89.8,110.5c2.2,2.2,3.3,4.8,3.3,7.8c0,3-1.1,5.7-3.3,7.9c-2.2,2.2-4.8,3.3-7.9,3.3s-5.7-1.1-7.9-3.2c-2.1-2.2-3.2-4.8-3.2-7.9
				c0-3,1.1-5.6,3.2-7.8c2.1-2.2,4.7-3.3,7.9-3.3S87.6,108.3,89.8,110.5z"/>
		</g>
	</g>
</g>
<g id="Calque_3">
</g>
<g id="Calque_5">
</g>
</svg>
