<?xml version="1.0" encoding="utf-8"?>
<!-- Generator: Adobe Illustrator 20.1.0, SVG Export Plug-In . SVG Version: 6.00 Build 0)  -->
<svg version="1.1" xmlns="http://www.w3.org/2000/svg" xmlns:xlink="http://www.w3.org/1999/xlink" x="0px" y="0px"
	 viewBox="0 0 515 168" style="enable-background:new 0 0 515 168;" xml:space="preserve">
<g id="archive">
</g>
<g id="fond_1_">
</g>
<g id="contenu">
	<g>
		<rect x="288.3" y="29" style="fill:#5AC5B9;" width="37.6" height="108.7"/>
		<circle style="fill:#5AC5B9;" cx="375.1" cy="101.1" r="37.6"/>
		<path style="fill:#5AC5B9;" d="M488.3,74.5c-14.7-14.7-38.5-14.7-53.2,0c-14.7,14.7-14.7,38.5,0,53.2L488.3,74.5z"/>
		<rect x="52" y="29" style="fill:#5AC5B9;" width="37.6" height="108.7"/>
		<circle style="fill:#5AC5B9;" cx="145.3" cy="101.1" r="37.6"/>
		<path style="fill:#5AC5B9;" d="M435.1,74.5c-14.7,14.7-14.7,38.5,0,53.2c14.7,14.7,38.5,14.7,53.2,0L435.1,74.5z"/>
	</g>
	<g style="opacity:0.9;">
		<circle style="fill:#FFBE32;" cx="288.3" cy="100.6" r="37.6"/>
		<circle style="fill:#FFBE32;" cx="52" cy="100.6" r="37.6"/>
		<circle style="fill:#FFBE32;" cx="375.1" cy="100.6" r="18.7"/>
		<circle style="fill:#FFBE32;" cx="145.3" cy="100.6" r="18.7"/>
		<circle style="fill:#FFBE32;" cx="215.9" cy="101.7" r="18.7"/>
		<circle style="fill:#FFBE32;" cx="461.2" cy="100.6" r="18.7"/>
	</g>
</g>
<g id="Calque_3">
</g>
<g id="Calque_5">
</g>
</svg>
