<?xml version="1.0" encoding="utf-8"?>
<!-- Generator: Adobe Illustrator 20.1.0, SVG Export Plug-In . SVG Version: 6.00 Build 0)  -->
<svg version="1.1" xmlns="http://www.w3.org/2000/svg" xmlns:xlink="http://www.w3.org/1999/xlink" x="0px" y="0px"
	 viewBox="0 0 168 168" style="enable-background:new 0 0 168 168;" xml:space="preserve">
<style type="text/css">
	.st0{fill:#FF3E51;}
	.st1{fill:#09227C;}
	.st2{fill:none;stroke:#09227C;stroke-width:10;stroke-miterlimit:10;}
	.st3{fill:#FFFFFF;}
	.st4{fill:none;stroke:#09227C;stroke-width:2;stroke-miterlimit:10;}
	.st5{fill:#0E2173;}
	.st6{fill:none;stroke:#09227C;stroke-width:6;stroke-miterlimit:10;}
	.st7{clip-path:url(#SVGID_6_);}
	.st8{fill:#09227C;stroke:#FFFFFF;stroke-width:6;stroke-miterlimit:10;}
	.st9{fill:#FF3E51;stroke:#0E2173;stroke-width:10;stroke-miterlimit:10;}
	.st10{clip-path:url(#SVGID_8_);}
	.st11{fill:none;stroke:#09227C;stroke-width:4;stroke-miterlimit:10;}
	.st12{clip-path:url(#SVGID_12_);}
	.st13{fill:none;stroke:#0E2173;stroke-width:4;stroke-miterlimit:10;}
	.st14{fill:none;stroke:#FFFFFF;stroke-width:5;stroke-miterlimit:10;}
	.st15{fill:#353535;}
	.st16{fill:#FFFFFF;stroke:#000000;stroke-miterlimit:10;}
	.st17{clip-path:url(#SVGID_13_);}
	.st18{fill:#FFFFFF;stroke:#0E2173;stroke-width:12;stroke-linejoin:round;stroke-miterlimit:10;}
	.st19{fill:#FFFFFF;stroke:#0E2173;stroke-width:10;stroke-linejoin:round;stroke-miterlimit:10;}
	.st20{fill:#4BC0B4;}
	.st21{fill:#FFBE32;}
	.st22{fill:#4DC4B8;}
	.st23{fill:#E5E5E5;}
	.st24{fill:#FFD892;}
	.st25{fill:#FF808C;}
	.st26{fill:#BEC6E5;}
	.st27{fill:#A5E5DA;}
	.st28{fill:#293275;}
	.st29{opacity:0.9;}
	.st30{fill:#40BEB3;}
	.st31{fill:none;stroke:#FFFFFF;stroke-width:8;stroke-miterlimit:10;}
	.st32{fill:none;}
	.st33{fill:none;stroke:#FF3E51;stroke-width:6;stroke-miterlimit:10;}
	.st34{fill:#48C2B5;}
	.st35{fill:#FFFFFF;stroke:#0E2173;stroke-width:10;stroke-miterlimit:10;}
	.st36{clip-path:url(#SVGID_15_);}
	.st37{fill:none;stroke:#FFBE32;stroke-width:10;stroke-miterlimit:10;}
	.st38{clip-path:url(#SVGID_17_);}
	.st39{fill:none;stroke:#0E2173;stroke-width:10;stroke-linejoin:round;stroke-miterlimit:10;}
	.st40{clip-path:url(#SVGID_19_);}
	.st41{clip-path:url(#SVGID_21_);}
	.st42{clip-path:url(#SVGID_23_);}
	.st43{clip-path:url(#SVGID_25_);}
	.st44{fill:#FFFFFF;stroke:#0E2173;stroke-width:15;stroke-linejoin:round;stroke-miterlimit:10;}
	.st45{fill:#FF3E51;stroke:#0E2173;stroke-width:12;stroke-miterlimit:10;}
	.st46{fill:none;stroke:#FF3E51;stroke-width:20;stroke-miterlimit:10;}
	.st47{clip-path:url(#SVGID_27_);}
	.st48{clip-path:url(#SVGID_29_);}
	.st49{fill:none;stroke:#0E2173;stroke-width:12;stroke-linejoin:round;stroke-miterlimit:10;}
	.st50{clip-path:url(#SVGID_31_);}
	.st51{clip-path:url(#SVGID_33_);}
	.st52{clip-path:url(#SVGID_35_);}
	.st53{clip-path:url(#SVGID_37_);}
	.st54{clip-path:url(#SVGID_39_);}
	.st55{clip-path:url(#SVGID_41_);}
	.st56{clip-path:url(#SVGID_42_);}
	.st57{fill:none;stroke:#FFFFFF;stroke-width:10;stroke-miterlimit:10;}
	.st58{fill:#FF3E51;stroke:#FFBE32;stroke-width:10;stroke-miterlimit:10;}
	.st59{clip-path:url(#SVGID_43_);}
	.st60{fill:#FFBE32;stroke:#FFBE32;stroke-width:10;stroke-miterlimit:10;}
	.st61{fill:#FFFFFF;stroke:#FFBE32;stroke-width:10;stroke-miterlimit:10;}
	.st62{clip-path:url(#SVGID_44_);}
	.st63{fill:#FFFFFF;stroke:#0E2173;stroke-width:15;stroke-miterlimit:10;}
	.st64{clip-path:url(#SVGID_46_);}
	.st65{clip-path:url(#SVGID_48_);}
	.st66{fill:none;stroke:#FFBE32;stroke-width:10;stroke-linejoin:round;stroke-miterlimit:10;}
	.st67{fill:#FFBE32;stroke:#FFBE32;stroke-width:10;stroke-linejoin:round;stroke-miterlimit:10;}
	.st68{clip-path:url(#SVGID_50_);}
	.st69{clip-path:url(#SVGID_52_);}
	.st70{clip-path:url(#SVGID_54_);}
	.st71{clip-path:url(#SVGID_56_);}
	.st72{opacity:0.6;}
	.st73{clip-path:url(#SVGID_58_);}
	.st74{clip-path:url(#SVGID_60_);}
	.st75{fill:#40CEBF;}
	.st76{fill:#4AD1B7;}
	.st77{fill:#FBB148;}
</style>
<g id="archive">
</g>
<g id="Calque_1">
	<g>
		<rect class="st21" width="168" height="168"/>
		<g>
			<polygon class="st5" points="43,62 23,62 23,62 23,106 23,106 43,106 77,134 77,34 			"/>
		</g>
		<path class="st33" d="M94,107.8c3.1-1.3,5.9-3.2,8.2-5.5c2.3-2.3,4.2-5.1,5.5-8.2c1.3-3.1,2-6.5,2-10s-0.7-7-2-10
			c-1.3-3.1-3.2-5.9-5.5-8.2c-2.3-2.3-5.1-4.2-8.2-5.5"/>
		<path class="st33" d="M99.6,120.9c4.8-2,9.1-5,12.7-8.6c3.6-3.6,6.5-7.9,8.6-12.7c2-4.8,3.1-10,3.1-15.6s-1.1-10.8-3.1-15.6
			c-2-4.8-5-9.1-8.6-12.7c-3.6-3.6-7.9-6.5-12.7-8.6"/>
		<path class="st33" d="M105.4,134.7c6.6-2.8,12.5-6.8,17.5-11.8c5-5,9-10.9,11.8-17.5c2.8-6.6,4.3-13.8,4.3-21.4
			c0-7.6-1.5-14.8-4.3-21.4s-6.8-12.5-11.8-17.5c-5-5-10.9-9-17.5-11.8"/>
	</g>
</g>
<g id="Calque_3">
</g>
</svg>
