<?xml version="1.0" encoding="utf-8"?>
<!-- Generator: Adobe Illustrator 20.1.0, SVG Export Plug-In . SVG Version: 6.00 Build 0)  -->
<svg version="1.1" xmlns="http://www.w3.org/2000/svg" xmlns:xlink="http://www.w3.org/1999/xlink" x="0px" y="0px"
	 viewBox="0 0 168 168" style="enable-background:new 0 0 168 168;" xml:space="preserve">
<g id="archive">
</g>
<g id="fond_1_">
</g>
<g id="contenu">
	<g>
		<g id="fond_3_">
			<path style="fill:#FFBE32;" d="M84,168c46.3,0,84-37.6,84-83.9C168,37.9,130.6,0,84,0S0,37.6,0,83.9C0,130.1,37.7,168,84,168z"/>
		</g>
		<g id="flc_1_">
			<g>
				<path style="fill:#1D327F;" d="M107.7,103.8c-2.7-4.3-6.2-7.3-11-8.9c0,0-3.8-1.9-13.5-1.9s-13.5,1.9-13.5,1.9
					c-4.8,1.6-8.3,4.6-11,8.9c-1.1,1.6-1.6,5.1-1.9,7c0,0.5,0,1.1,0,1.6v3.2v-2.2c0,3.5,2.4,6.5,5.4,6.5h41.7c3,0,5.4-3,5.4-6.5v2.2
					v-3.2c0-0.5,0-1.1,0-1.6C109.6,109.1,109,105.6,107.7,103.8 M68.7,69.1c0,8.1,5.1,20.2,14.8,20.2c9.4,0,14.8-12.1,14.8-20.2
					c0-8.1-6.5-14.8-14.8-14.8S68.7,60.7,68.7,69.1"/>
				<g>
					<path style="fill:#293275;" d="M67,91.4c-2.4-3-5.1-5.1-8.9-6.2c0,0-3.5-1.9-12.4-1.9c-8.9,0-12.4,1.9-12.4,1.9
						c-4.6,1.6-7.8,4-10.5,8.3c-1.1,1.6-1.6,4.8-1.6,6.5c0,0.5,0,1.1,0,1.6v0.5c0,3.2,2.2,5.9,5.1,5.9h25c0.3-2.2,1.1-4.3,1.9-5.6
						C56.8,97,61.1,93.3,67,91.4z"/>
					<path style="fill:#1D327F;" d="M45.8,79.6c8.9,0,13.7-11.3,13.7-18.8c0-7.5-6.2-13.7-13.7-13.7C38.2,47,32,53.2,32,60.7
						C31.8,68.3,36.6,79.6,45.8,79.6z"/>
				</g>
				<g>
					<path style="fill:#293275;" d="M99.6,91.4c2.4-3,5.1-5.1,8.9-6.2c0,0,3.5-1.9,12.4-1.9c8.9,0,12.4,1.9,12.4,1.9
						c4.6,1.6,7.8,4,10.5,8.3c1.1,1.6,1.6,4.8,1.6,6.5c0,0.5,0,1.1,0,1.6v0.5c0,3.2-2.2,5.9-5.1,5.9h-25c-0.3-2.2-1.1-4.3-1.9-5.6
						C109.8,97,105.5,93.3,99.6,91.4z"/>
					<path style="fill:#1D327F;" d="M121.2,79.6c-8.9,0-13.7-11.3-13.7-18.8c0-7.5,6.2-13.7,13.7-13.7c7.5,0,13.7,6.2,13.7,13.7
						C134.9,68.3,130,79.6,121.2,79.6z"/>
				</g>
			</g>
		</g>
	</g>
</g>
<g id="Calque_3">
</g>
<g id="Calque_5">
</g>
</svg>
