<?xml version="1.0" encoding="utf-8"?>
<!-- Generator: Adobe Illustrator 22.0.0, SVG Export Plug-In . SVG Version: 6.00 Build 0)  -->
<svg version="1.1" xmlns="http://www.w3.org/2000/svg" xmlns:xlink="http://www.w3.org/1999/xlink" x="0px" y="0px"
	 viewBox="0 0 515 168" style="enable-background:new 0 0 515 168;" xml:space="preserve">
<style type="text/css">
	.st0{fill:#FFFFFF;stroke:#000000;stroke-miterlimit:10;}
	.st1{fill:#333333;}
	.st2{fill:#969696;}
	.st3{fill:#FCFCFA;}
	.st4{fill:#FFBE32;}
	.st5{fill:#FF3E51;}
	.st6{fill:#1B2F81;}
	.st7{fill:#57C4B9;}
	.st8{fill:#353535;}
	.st9{fill:#D19833;}
	.st10{fill:#CC334A;}
	.st11{fill:#12224C;}
	.st12{fill:#47998D;}
	.st13{fill:#232323;}
	.st14{fill:#E5E5E5;}
	.st15{fill:#FFD892;}
	.st16{fill:#FF808C;}
	.st17{fill:#BEC6E5;}
	.st18{fill:#A5E5DA;}
	.st19{fill:#EBEBEB;}
	.st20{fill:#293275;}
	.st21{opacity:0.9;fill:#FFBE32;}
	.st22{fill:none;stroke:#FFFFFF;stroke-width:12;stroke-miterlimit:10;}
	.st23{fill:none;}
	.st24{fill:none;stroke:#FF3E51;stroke-width:6;stroke-miterlimit:10;}
	.st25{fill:#48C2B5;}
	.st26{fill:#FF3E51;stroke:#1B2F81;stroke-width:10;stroke-miterlimit:10;}
	.st27{fill:#FFFFFF;}
	.st28{fill:#FFFFFF;stroke:#1B2F81;stroke-width:10;stroke-miterlimit:10;}
	.st29{fill:none;stroke:#FFBE32;stroke-width:10;stroke-miterlimit:10;}
	.st30{fill:#FCFCFA;stroke:#EBEBEB;stroke-width:6;stroke-miterlimit:10;}
	.st31{fill:#C3C3C3;}
	.st32{fill:none;stroke:#FF3E51;stroke-width:5;stroke-miterlimit:10;}
	.st33{opacity:0.9;}
	.st34{clip-path:url(#SVGID_2_);}
	.st35{opacity:0.3;}
	.st36{fill:#0A997F;}
	.st37{clip-path:url(#SVGID_3_);}
	.st38{clip-path:url(#SVGID_4_);}
</style>
<g id="archive">
</g>
<g id="fond_1_">
</g>
<g id="contenu">
	<polygon class="st7" points="288.3,29 325.9,29 325.9,100.6 288.3,137.7 	"/>
	
		<ellipse transform="matrix(0.4927 -0.8702 0.8702 0.4927 102.2979 377.7576)" class="st7" cx="375.1" cy="101.1" rx="37.6" ry="37.6"/>
	<path class="st7" d="M488.3,74.5c-14.7-14.7-38.5-14.7-53.2,0c-14.7,14.7-14.7,38.5,0,53.2L488.3,74.5z"/>
	<polygon class="st7" points="52,29 89.6,29 89.6,100.6 52,137.7 	"/>
	<circle class="st7" cx="145.3" cy="101.1" r="37.6"/>
	<path class="st7" d="M435.1,74.5c-14.7,14.7-14.7,38.5,0,53.2c14.7,14.7,38.5,14.7,53.2,0L435.1,74.5z"/>
	
		<ellipse transform="matrix(0.9665 -0.2567 0.2567 0.9665 -16.1696 77.357)" class="st4" cx="288.3" cy="100.6" rx="37.6" ry="37.6"/>
	<path class="st4" d="M52,63c20.8,0,37.6,16.8,37.6,37.6S72.8,138.2,52,138.2c-20.8,0-37.6-16.8-37.6-37.6S31.2,63,52,63z"/>
	<circle class="st4" cx="375.1" cy="100.6" r="18.7"/>
	<circle class="st4" cx="145.3" cy="100.6" r="18.7"/>
	<circle class="st4" cx="215.9" cy="101.7" r="18.7"/>
	<circle class="st4" cx="461.2" cy="100.6" r="18.7"/>
</g>
<g id="Calque_3">
</g>
<g id="Calque_5">
</g>
</svg>
