<svg xmlns="http://www.w3.org/2000/svg" viewBox="0 0 168 168">
  <g id="Calque_6" data-name="Calque 6">
    <g>
      <polygon points="144 142 114 142 114 122 124 122 124 112 144 112 144 142" style="fill: #878787"/>
      <rect x="69" y="122" width="30" height="20" style="fill: #878787"/>
      <polygon points="54 142 24 142 24 112 44 112 44 122 54 122 54 142" style="fill: #878787"/>
      <rect x="24" y="67" width="20" height="30" style="fill: #878787"/>
      <polygon points="44 52 24 52 24 22 54 22 54 42 44 42 44 52" style="fill: #878787"/>
      <rect x="69" y="22" width="30" height="20" style="fill: #878787"/>
      <polygon points="144 52 124 52 124 42 114 42 114 22 144 22 144 52" style="fill: #878787"/>
      <rect x="124" y="67" width="20" height="30" style="fill: #878787"/>
    </g>
  </g>
</svg>
