<?xml version="1.0" standalone="no"?>
<!DOCTYPE svg PUBLIC "-//W3C//DTD SVG 1.1//EN" "http://www.w3.org/Graphics/SVG/1.1/DTD/svg11.dtd" >
<svg xmlns="http://www.w3.org/2000/svg">
<metadata></metadata>
<defs>
<font id="sharebold" horiz-adv-x="470" >
<font-face units-per-em="1000" ascent="808" descent="-192" />
<missing-glyph horiz-adv-x="280" />
<glyph unicode="&#xfb01;" horiz-adv-x="543" d="M25 387v113h65v40q0 98 40 133.5t131 35.5q83 0 180 -18v-113q-87 17 -155 17q-38 0 -50.5 -9t-12.5 -37v-49h255v-500h-133v387h-122v-387h-133v387h-65z" />
<glyph unicode="&#xfb02;" horiz-adv-x="570" d="M25 387v113h65v40q0 98 40 133.5t131 35.5q41 0 84 -9h133v-547q0 -25 6.5 -34t24.5 -9q16 0 36 4v-111q-37 -8 -91 -8q-61 0 -85 36t-24 117v239h-122v-387h-133v387h-65zM223 500h122v90q-32 5 -59 5q-38 0 -50.5 -9t-12.5 -37v-49z" />
<glyph horiz-adv-x="0" />
<glyph horiz-adv-x="0" />
<glyph horiz-adv-x="333" />
<glyph unicode="&#xd;" horiz-adv-x="280" />
<glyph unicode=" "  horiz-adv-x="280" />
<glyph unicode="&#x09;" horiz-adv-x="280" />
<glyph unicode="&#xa0;" horiz-adv-x="280" />
<glyph unicode="!" horiz-adv-x="270" d="M60 0v130h150v-130h-150zM67 228v472h135v-472h-135z" />
<glyph unicode="&#x22;" horiz-adv-x="420" d="M40 590v110h145v-110l-30 -157h-85zM235 590v110h145v-110l-30 -157h-85z" />
<glyph unicode="#" horiz-adv-x="496" d="M15 170l10 115h60l12 140h-60l10 115h60l14 160h127l-14 -160h60l14 160h127l-14 -160h60l-10 -115h-60l-12 -140h60l-10 -115h-60l-15 -170h-127l15 170h-60l-15 -170h-127l15 170h-60zM212 285h60l12 140h-60z" />
<glyph unicode="$" d="M52 482q0 145 125 182v116h125v-104q51 -3 94 -14v-118q-64 15 -124 15q-41 0 -61 -13.5t-20 -52.5q0 -36 16 -56t55 -28q77 -16 116.5 -61.5t39.5 -139.5q0 -91 -29 -138.5t-87 -64.5v-115h-125v103q-68 2 -114 14v119q58 -15 119 -15q53 0 75 20.5t22 66.5q0 82 -80 98 q-147 31 -147 186z" />
<glyph unicode="%" horiz-adv-x="916" d="M65 500q0 104 33.5 156.5t123.5 52.5t123.5 -52.5t33.5 -156.5q0 -105 -33.5 -161t-123.5 -56t-123.5 56t-33.5 161zM174 496q0 -75 9 -99.5t39 -24.5t39 24.5t9 99.5q0 76 -9.5 100t-38.5 24q-30 0 -39 -23.5t-9 -100.5zM277 0l245 700h118l-245 -700h-118zM537 208 q0 104 33.5 156.5t123.5 52.5t123.5 -52.5t33.5 -156.5q0 -105 -33.5 -161t-123.5 -56t-123.5 56t-33.5 161zM646 204q0 -75 9 -99.5t39 -24.5t39 24.5t9 99.5q0 76 -9.5 100t-38.5 24q-30 0 -39 -23.5t-9 -100.5z" />
<glyph unicode="&#x26;" horiz-adv-x="515" d="M45 214q0 80 17.5 123.5t62.5 61.5q-67 40 -67 125q0 106 43.5 145t138.5 39q35 0 82.5 -5t57.5 -8v-113q-11 3 -51.5 8t-60.5 5q-44 0 -59.5 -13.5t-15.5 -51.5q0 -48 16 -64.5t63 -16.5h228v-113h-73v-327q-101 -19 -197 -19q-100 0 -142.5 52t-42.5 172zM181 204 q0 -52 14.5 -76.5t51.5 -24.5q32 0 53 7v226h-43q-44 0 -60 -27t-16 -105z" />
<glyph unicode="'" horiz-adv-x="225" d="M40 590v110h145v-110l-30 -157h-85z" />
<glyph unicode="(" horiz-adv-x="325" d="M40 350q0 280 127 470h113q-60 -101 -82.5 -209.5t-22.5 -260.5t22.5 -260.5t82.5 -209.5h-113q-127 190 -127 470z" />
<glyph unicode=")" horiz-adv-x="325" d="M45 -120q60 101 82.5 209.5t22.5 260.5t-22.5 260.5t-82.5 209.5h113q127 -190 127 -470t-127 -470h-113z" />
<glyph unicode="*" horiz-adv-x="525" d="M40 520l42 122l130 -57q-2 22 -8 73t-8 72h134l-15 -145q22 8 67.5 27.5t64.5 26.5l38 -121l-134 -22q15 -18 49 -60t48 -58l-106 -74l-80 137q-14 -22 -42 -71t-40 -68l-104 78l99 114q-26 6 -74.5 15t-60.5 11z" />
<glyph unicode="+" horiz-adv-x="560" d="M69 245v115h150v158h122v-158h150v-115h-150v-158h-122v158h-150z" />
<glyph unicode="," horiz-adv-x="250" d="M10 -150l40 150v130h150v-130l-92 -150h-98z" />
<glyph unicode="-" horiz-adv-x="495" d="M75 245v115h345v-115h-345z" />
<glyph unicode="." horiz-adv-x="250" d="M50 0v130h150v-130h-150z" />
<glyph unicode="/" horiz-adv-x="325" d="M-20 -110l236 920h129l-236 -920h-129z" />
<glyph unicode="0" d="M35 358q0 77 4 127.5t16 96.5t34 72t58 40.5t88 14.5t88 -14.5t58 -40.5t34 -72t16 -96.5t4 -127.5q0 -79 -4.5 -133t-17 -101.5t-34.5 -74.5t-57.5 -42.5t-86.5 -15.5t-86.5 15.5t-57.5 42.5t-34.5 74.5t-17 101.5t-4.5 133zM168 353q0 -59 0.5 -93t3 -66t6.5 -47 t12 -27t18.5 -15t26.5 -3t26.5 3t18.5 15t12 27t6.5 47t3 66t0.5 93q0 58 -0.5 91t-3 64.5t-6.5 46t-12 26t-18.5 14.5t-26.5 3t-26.5 -3t-18.5 -15t-12 -26.5t-6.5 -45.5t-3 -64.5t-0.5 -90.5z" />
<glyph unicode="1" d="M59 528v122l117 50h143v-587h96v-113h-346v113h117v465z" />
<glyph unicode="2" d="M51 0v126l140 190q49 63 61.5 98.5t12.5 94.5q0 47 -18.5 67t-64.5 20q-33 0 -113 -18v114q93 17 127 17q115 0 158 -50t43 -159q0 -72 -12.5 -112t-59.5 -103l-125 -171h200v-114h-349z" />
<glyph unicode="3" d="M60 8v111q82 -17 125 -17q37 0 58 25t21 71q0 60 -18 85.5t-63 25.5h-77v109h67q80 0 80 95q0 43 -16.5 64t-53.5 21q-36 0 -118 -17v111q94 17 131 17q100 0 145 -44t45 -155q0 -50 -18 -89t-57 -52q87 -17 87 -161q0 -217 -197 -217q-65 0 -141 17z" />
<glyph unicode="4" d="M50 156v126l94 418h129l-96 -431h66l22 188h113v-188h60v-113h-60v-156h-135v156h-193z" />
<glyph unicode="5" d="M60 8v112q77 -17 129 -17q80 0 80 110q0 74 -20 98t-63 24h-116v365h313v-113h-180v-146h5q108 0 151.5 -48t43.5 -170q0 -127 -51 -179.5t-142 -52.5q-65 0 -150 17z" />
<glyph unicode="6" d="M39 355q0 138 28.5 216.5t80 108t138.5 29.5q59 0 105 -12v-112q-61 14 -109 14q-57 0 -80.5 -35t-27.5 -131q45 26 91 26q97 0 133.5 -57t36.5 -187q0 -120 -56 -172t-147 -52q-67 0 -107 29.5t-63 111t-23 223.5zM172 334q0 -102 8 -153.5t20.5 -65.5t38.5 -14 q35 0 49 26.5t14 98.5q0 66 -14 95.5t-47 29.5t-69 -17z" />
<glyph unicode="7" d="M45 583v117h345v-137l-157 -563h-139l164 583h-213z" />
<glyph unicode="8" d="M27 209q0 116 89 149q-33 14 -54 58.5t-21 89.5q0 112 49 157.5t145 45.5t145 -45.5t49 -157.5q0 -37 -19.5 -75.5t-58.5 -56.5q46 -11 69 -57.5t23 -107.5q0 -109 -49 -163.5t-159 -54.5t-159 54.5t-49 163.5zM160 199q0 -56 16.5 -77.5t58.5 -21.5t58.5 21.5t16.5 77.5 q0 66 -19 90.5t-90 24.5q-25 -16 -33 -37.5t-8 -77.5zM172 515q0 -53 17 -75.5t75 -22.5q34 21 34 98q0 50 -12.5 68.5t-48.5 18.5q-33 0 -49 -20t-16 -67z" />
<glyph unicode="9" d="M28 485q0 224 203 224q50 0 83.5 -14t59.5 -52t38 -108t12 -177q0 -93 -10 -159t-28 -106.5t-48.5 -63t-64.5 -30.5t-84 -8q-61 0 -107 12v112q61 -14 111 -14q52 0 72 31.5t24 134.5q-42 -26 -91 -26q-95 0 -132.5 61t-37.5 183zM161 474q0 -66 14 -95.5t47 -29.5 q37 0 69 17q0 109 -8.5 160.5t-20.5 62t-38 10.5q-33 0 -48 -27t-15 -98z" />
<glyph unicode=":" horiz-adv-x="250" d="M50 0v130h150v-130h-150zM50 370v130h150v-130h-150z" />
<glyph unicode=";" horiz-adv-x="250" d="M10 -150l40 150v130h150v-130l-92 -150h-98zM50 370v130h150v-130h-150z" />
<glyph unicode="&#x3c;" horiz-adv-x="550" d="M75 251v163l400 169v-131l-299 -116l299 -117v-133z" />
<glyph unicode="=" horiz-adv-x="550" d="M75 145v115h400v-115h-400zM75 345v115h400v-115h-400z" />
<glyph unicode="&#x3e;" horiz-adv-x="550" d="M75 86v133l299 117l-299 116v131l400 -169v-163z" />
<glyph unicode="?" horiz-adv-x="380" d="M30 580v113q69 16 127 16q104 0 148.5 -36.5t44.5 -144.5q0 -48 -11 -76.5t-42 -65.5l-73 -88v-70h-135v109l80 98q28 35 37 51t9 40q0 40 -14.5 54.5t-65.5 14.5q-43 0 -105 -15zM82 0v130h150v-130h-150z" />
<glyph unicode="@" horiz-adv-x="843" d="M75 345q0 208 77.5 286t270.5 78q99 0 160 -12t105 -46t62 -94t18 -156q0 -64 -6 -110t-22 -88.5t-50 -64.5t-85 -22q-38 0 -68.5 20.5t-42.5 64.5q-36 -57 -111 -57q-65 0 -99.5 39.5t-34.5 151.5q0 66 14.5 109.5t44 64t61.5 28t79 7.5q69 0 129 -14v-289q0 -30 26 -30 q24 0 29 27.5t5 162.5q0 49 -2 77.5t-11 53t-21 35.5t-39 19.5t-57.5 10t-83.5 1.5q-71 0 -111 -9.5t-65 -38.5t-33 -75.5t-8 -129.5q0 -81 7.5 -126.5t32 -73t61 -35.5t102.5 -8q67 0 132 7v-110q-70 -8 -132 -8q-197 0 -265.5 73.5t-68.5 280.5zM369 345q0 -58 9 -79 t36 -21q21 0 32.5 12t13.5 24t2 31v129q-20 5 -47 5q-46 0 -46 -101z" />
<glyph unicode="A" horiz-adv-x="545" d="M15 0l160 700h202l153 -700h-141l-32 163h-167l-32 -163h-143zM213 281h122l-62 331z" />
<glyph unicode="B" horiz-adv-x="547" d="M70 0v700q116 9 182 9q121 0 171 -44t50 -146q0 -117 -89 -142q45 -5 76.5 -46t31.5 -116q0 -129 -58 -176.5t-166 -47.5q-37 0 -86.5 2t-80.5 5zM207 114q35 -3 72 -3q74 0 74 103q0 98 -86 98h-60v-198zM207 424h53q42 0 60 20t18 66q0 38 -17 59t-47 21l-67 -4v-162z " />
<glyph unicode="C" horiz-adv-x="433" d="M50 361q0 112 14 182t47 105.5t72 47t102 11.5q20 0 58 -5t50 -9v-121q-62 15 -121 15q-32 0 -48 -14.5t-25.5 -65.5t-9.5 -153q0 -103 8.5 -155t25 -69t49.5 -17q58 0 121 15v-120q-55 -15 -121 -15q-61 0 -100 15t-68 55t-41.5 112.5t-12.5 185.5z" />
<glyph unicode="D" horiz-adv-x="546" d="M70 0v700q121 10 177 10q65 0 107.5 -13.5t76.5 -50t49.5 -106.5t15.5 -179q0 -146 -28 -228.5t-77.5 -112.5t-131.5 -30q-32 0 -79 2.5t-78 5.5zM207 115q19 -4 61 -4q48 0 68.5 51.5t20.5 191.5q0 105 -10.5 157t-27 65t-50.5 13l-62 -4v-470z" />
<glyph unicode="E" horiz-adv-x="478" d="M70 0v700h358v-108h-221v-177h196v-107h-196v-200h221v-108h-358z" />
<glyph unicode="F" horiz-adv-x="483" d="M85 0v700h358v-108h-221v-187h196v-108h-196v-297h-137z" />
<glyph unicode="G" horiz-adv-x="510" d="M50 361q0 109 16 178.5t51 106.5t79 50t111 13q50 0 127 -17v-118q-79 15 -137 15q-44 0 -66 -18t-32 -67.5t-10 -149.5q0 -148 18.5 -195.5t72.5 -47.5q29 0 42 1v158h-64v118h197v-379q-95 -18 -172 -18q-88 0 -136.5 30.5t-72.5 110.5t-24 229z" />
<glyph unicode="H" horiz-adv-x="570" d="M70 0v700h137v-289h156v289h137v-700h-137v297h-156v-297h-137z" />
<glyph unicode="I" horiz-adv-x="347" d="M35 0v106h70v488h-70v106h277v-106h-70v-488h70v-106h-277z" />
<glyph unicode="J" horiz-adv-x="416" d="M30 4v119q56 -10 106 -10q46 0 62 30.5t16 110.5v328h-142v118h279v-439q0 -156 -41.5 -213.5t-157.5 -57.5q-58 0 -122 14z" />
<glyph unicode="K" horiz-adv-x="547" d="M70 0v700h137v-242l161 242h154l-209 -304l214 -396h-158l-142 275l-20 -31v-244h-137z" />
<glyph unicode="L" horiz-adv-x="420" d="M70 0v700h137v-584h203v-116h-340z" />
<glyph unicode="M" horiz-adv-x="666" d="M70 0v700h208l59 -269l60 269h199v-700h-124v599l-86 -364h-104l-90 364v-599h-122z" />
<glyph unicode="N" horiz-adv-x="592" d="M70 0v700h199l134 -573v573h119v-700h-199l-132 562v-562h-121z" />
<glyph unicode="O" horiz-adv-x="568" d="M50 358q0 188 48.5 270t185.5 82t185.5 -82t48.5 -270q0 -99 -9 -162t-33.5 -112.5t-71.5 -71.5t-120 -22t-120 22t-71.5 71.5t-33.5 112.5t-9 162zM189 353q0 -149 20.5 -202t74.5 -53t74.5 53t20.5 202q0 150 -20 199.5t-75 49.5t-75 -49.5t-20 -199.5z" />
<glyph unicode="P" horiz-adv-x="520" d="M70 0v700q101 10 184 10q130 0 180.5 -57t50.5 -176q0 -128 -54 -182t-167 -54h-57v-241h-137zM207 359h63q35 0 55.5 30t20.5 81q0 61 -16.5 90.5t-57.5 29.5q-19 0 -35.5 -1.5t-22.5 -2.5l-7 -2v-225z" />
<glyph unicode="Q" horiz-adv-x="568" d="M50 358q0 188 48.5 270t185.5 82t185.5 -82t48.5 -270q0 -136 -22 -217t-77 -118l99 -23v-124l-270 116q-50 4 -85 22t-57 46t-34.5 74t-17 98t-4.5 126zM189 353q0 -149 20.5 -202t74.5 -53t74.5 53t20.5 202q0 150 -20 199.5t-75 49.5t-75 -49.5t-20 -199.5z" />
<glyph unicode="R" horiz-adv-x="533" d="M70 0v700q101 10 184 10q125 0 174.5 -53t49.5 -169q0 -153 -95 -201l125 -287h-155l-106 264h-40v-264h-137zM207 382h63q32 0 50.5 25.5t18.5 73.5q0 60 -14.5 84.5t-56.5 24.5l-61 -6v-202z" />
<glyph unicode="S" horiz-adv-x="424" d="M25 506q0 108 59.5 154.5t178.5 46.5q70 0 124 -15v-118q-64 15 -134 15q-89 0 -89 -72q0 -47 15.5 -64t63.5 -27q79 -16 120 -64.5t41 -153.5q0 -68 -16.5 -112.5t-50 -66t-71 -29t-93.5 -7.5q-85 0 -142 15v119q62 -16 132 -16q102 0 102 87q0 52 -20.5 75t-64.5 32 q-83 17 -119 64.5t-36 136.5z" />
<glyph unicode="T" horiz-adv-x="445" d="M10 579v121h425v-121h-144v-579h-137v579h-144z" />
<glyph unicode="U" horiz-adv-x="555" d="M65 215v485h137v-504q0 -85 76 -85q75 0 75 85v504h137v-485q0 -120 -53 -171t-159 -51t-159.5 51t-53.5 171z" />
<glyph unicode="V" horiz-adv-x="542" d="M25 700h144l105 -602l109 602h134l-141 -700h-211z" />
<glyph unicode="W" horiz-adv-x="628" d="M45 700h122l27 -593l71 298h114l63 -298l28 593h113l-34 -700h-193l-42 235l-50 -235h-185z" />
<glyph unicode="X" horiz-adv-x="525" d="M15 0l180 363l-160 337h152l82 -207l85 207h149l-167 -336l174 -364h-155l-92 232l-99 -232h-149z" />
<glyph unicode="Y" horiz-adv-x="531" d="M10 700h148l111 -270l111 270h141l-187 -392v-308h-140v308z" />
<glyph unicode="Z" horiz-adv-x="466" d="M35 0v133l250 448h-227v119h373v-133l-249 -448h239v-119h-386z" />
<glyph unicode="[" horiz-adv-x="330" d="M70 -120v940h220v-115h-90v-705h90v-120h-220z" />
<glyph unicode="\" horiz-adv-x="325" d="M-20 810h129l236 -920h-129z" />
<glyph unicode="]" horiz-adv-x="330" d="M40 0h90v705h-90v115h220v-940h-220v120z" />
<glyph unicode="^" horiz-adv-x="497" d="M30 420l134 340h174l129 -340h-151l-65 240l-83 -240h-138z" />
<glyph unicode="_" horiz-adv-x="510" d="M3 -50h504v-120h-504v120z" />
<glyph unicode="`" horiz-adv-x="313" d="M25 715h159l104 -135h-111z" />
<glyph unicode="a" horiz-adv-x="509" d="M45 151q0 88 53.5 127.5t158.5 39.5h45v21q0 60 -67 60q-74 0 -154 -24v114q67 20 154 20q63 0 103 -10t61 -34t28.5 -54.5t7.5 -80.5v-198q0 -32 39 -32v-100h-58q-63 0 -86 41q-40 -50 -132 -50q-153 0 -153 160zM180 158q0 -55 56 -55q36 0 51 22.5t15 49.5v45h-50 q-72 0 -72 -62z" />
<glyph unicode="b" horiz-adv-x="517" d="M65 5v695h133v-226q47 35 106 35q85 0 124 -51t39 -176q0 -164 -52.5 -227.5t-184.5 -63.5q-61 0 -165 14zM198 107q28 -2 41 -2q56 0 74.5 32.5t18.5 134.5q0 74 -13.5 98.5t-49.5 24.5q-31 0 -51 -23t-20 -52v-213z" />
<glyph unicode="c" horiz-adv-x="407" d="M50 260q0 131 51 190t152 59q56 0 114 -14v-117q-65 14 -108 14q-38 0 -55 -31t-17 -121q0 -73 17 -102.5t53 -29.5q29 0 110 14v-116q-53 -15 -115 -15q-53 0 -87 10t-62 38.5t-40.5 82.5t-12.5 138z" />
<glyph unicode="d" horiz-adv-x="524" d="M50 237q0 151 55.5 211.5t184.5 60.5q7 0 19 -0.5t17 -0.5v192h133v-700h-108l-10 41q-53 -50 -125 -50q-88 0 -127 53t-39 193zM185 228q0 -73 14.5 -98t51.5 -25q32 0 53.5 23.5t21.5 51.5v212q-5 0 -14.5 1t-17 1.5t-13.5 0.5q-54 0 -75 -33.5t-21 -133.5z" />
<glyph unicode="e" horiz-adv-x="489" d="M50 250q0 135 52 197t153 62q108 0 148.5 -55t40.5 -169v-84h-259q3 -56 20.5 -76t62.5 -20q66 0 139 15v-112q-60 -17 -139 -17q-59 0 -96 9.5t-66.5 36.5t-42.5 79t-13 134zM186 299h130v26q0 74 -63 74q-32 0 -47.5 -22t-19.5 -78z" />
<glyph unicode="f" horiz-adv-x="341" d="M25 387v113h65v40q0 98 35.5 133.5t115.5 35.5q50 0 110 -12v-113q-46 11 -85 11q-43 0 -43 -46v-49h109v-113h-109v-387h-133v387h-65z" />
<glyph unicode="g" horiz-adv-x="548" d="M45 334q0 45 13.5 77.5t34.5 51t53 29t62 14t69 3.5q49 0 87 -12l164 7v-102l-64 4q14 -36 14 -80q0 -88 -56 -129.5t-170 -41.5q-32 0 -59 3q-6 -12 -6 -29q0 -6 2 -16q64 6 118 6q95 0 142 -36.5t47 -124.5q0 -39 -13 -66.5t-33 -43.5t-51.5 -25.5t-62 -12t-71.5 -2.5 q-36 0 -100.5 6t-93.5 11v108q96 -17 200 -17q50 0 69 10.5t19 34.5q0 45 -61 45q-93 0 -181 -11q-18 16 -32.5 46.5t-14.5 66.5q0 52 26 87q-51 43 -51 139zM178 326q0 -65 74 -65q49 0 71 14.5t22 58.5q0 37 -17 52t-61 15q-52 0 -70.5 -16.5t-18.5 -58.5z" />
<glyph unicode="h" horiz-adv-x="524" d="M65 0v700h133v-225q45 34 104 34q98 0 130 -45t32 -154v-310h-133v313q0 47 -13.5 64t-42.5 17q-36 0 -55.5 -20.5t-21.5 -49.5v-324h-133z" />
<glyph unicode="i" horiz-adv-x="263" d="M60 585v115h143v-115h-143zM65 0v500h133v-500h-133z" />
<glyph unicode="j" horiz-adv-x="263" d="M-45 -60q25 -3 63 -3q27 0 37 9.5t10 35.5v518h133v-513q0 -93 -36 -128.5t-122 -35.5q-40 0 -85 5v112zM60 585v115h143v-115h-143z" />
<glyph unicode="k" horiz-adv-x="495" d="M65 0v700h133v-350l120 150h152l-169 -200l179 -300h-153l-108 207l-21 -27v-180h-133z" />
<glyph unicode="l" horiz-adv-x="290" d="M65 148v552h133v-547q0 -25 6.5 -34t24.5 -9q16 0 36 4v-111q-37 -8 -91 -8q-61 0 -85 36t-24 117z" />
<glyph unicode="m" horiz-adv-x="750" d="M65 0v500h108l8 -37q48 46 111 46q89 0 123 -51q49 51 123 51q94 0 123 -45.5t29 -153.5v-310h-133v313q0 48 -10.5 64.5t-35.5 16.5q-32 0 -48.5 -20.5t-18.5 -49.5v-324h-133v313q0 48 -10.5 64.5t-35.5 16.5q-33 0 -50 -22.5t-17 -52.5v-319h-133z" />
<glyph unicode="n" horiz-adv-x="524" d="M65 0v500h108l9 -39q51 48 120 48q98 0 130 -45t32 -154v-310h-133v313q0 47 -13.5 64t-42.5 17q-36 0 -55.5 -20.5t-21.5 -49.5v-324h-133z" />
<glyph unicode="o" horiz-adv-x="530" d="M50 260q0 128 51 187.5t163 59.5t164 -59.5t52 -187.5q0 -151 -52 -209t-164 -58t-163 58t-51 209zM186 245q0 -84 16 -114t62 -30t63 30.5t17 113.5q0 87 -17.5 120.5t-62.5 33.5t-61.5 -33t-16.5 -121z" />
<glyph unicode="p" horiz-adv-x="519" d="M65 -170v670h108l10 -41q50 50 123 50q85 0 124 -51t39 -176q0 -163 -52 -227t-183 -64q-24 0 -36 1v-162h-133zM198 107q28 -2 43 -2q56 0 74.5 32.5t18.5 134.5q0 74 -13.5 98.5t-49.5 24.5q-32 0 -52.5 -23t-20.5 -52v-213z" />
<glyph unicode="q" horiz-adv-x="524" d="M50 237q0 152 54 212t182 60q83 0 173 -14v-665h-133v200q-49 -39 -113 -39q-87 0 -125 53t-38 193zM185 228q0 -74 13.5 -98.5t49.5 -24.5q31 0 53.5 22.5t24.5 49.5v215q-2 0 -21.5 1.5t-27.5 1.5q-54 0 -73 -33t-19 -134z" />
<glyph unicode="r" horiz-adv-x="353" d="M65 0v500h108l10 -45q46 54 104 54q23 0 46 -5v-132q-25 6 -50 6q-45 0 -65 -41.5t-20 -103.5v-233h-133z" />
<glyph unicode="s" horiz-adv-x="425" d="M45 353q0 83 50 119.5t158 36.5q47 0 115 -17v-114q-63 19 -119 19q-37 0 -53 -9t-16 -32q0 -32 65 -42q76 -12 108 -52t32 -111q0 -87 -52.5 -123.5t-148.5 -36.5q-75 0 -137 16v114q78 -18 119 -18q82 0 82 42q0 24 -13 35.5t-50 18.5q-75 13 -107.5 50.5t-32.5 103.5z " />
<glyph unicode="t" horiz-adv-x="348" d="M20 385v115h65v120h133v-120h100v-115h-100v-235q0 -24 10 -34.5t32 -10.5q29 0 63 9v-111q-39 -12 -105 -12q-77 0 -105 43.5t-28 120.5v230h-65z" />
<glyph unicode="u" horiz-adv-x="518" d="M60 186v314h133v-318q0 -47 13.5 -61.5t42.5 -14.5q35 0 53 22.5t18 52.5v319h133v-500h-108l-9 39q-50 -48 -119 -48q-90 0 -123.5 46t-33.5 149z" />
<glyph unicode="v" horiz-adv-x="492" d="M20 499h139l89 -404l90 404h134l-129 -500h-193z" />
<glyph unicode="w" horiz-adv-x="642" d="M15 500h133l47 -382l73 292h118l68 -292l48 382h125l-77 -500h-175l-54 246l-59 -246h-170z" />
<glyph unicode="x" horiz-adv-x="505" d="M25 0l149 260l-133 240h153l61 -119l61 119h146l-136 -228l154 -272h-154l-75 151l-79 -151h-147z" />
<glyph unicode="y" horiz-adv-x="493" d="M20 500h142l97 -389l85 389h129l-128 -542q-32 -135 -142 -135q-60 0 -90 5v113q24 -3 49 -3q41 0 49 44l3 18h-34z" />
<glyph unicode="z" horiz-adv-x="418" d="M30 0v111l207 282h-187v107h338v-120l-206 -273h196v-107h-348z" />
<glyph unicode="{" horiz-adv-x="345" d="M30 280v140q32 0 54 20.5t22 63.5v166q0 80 38 118.5t101 38.5q30 0 55 -5v-108q-18 3 -28 3q-38 0 -38 -37v-196q0 -60 -28 -94t-67 -40q39 -6 67 -40t28 -94v-196q0 -37 38 -37q10 0 28 3v-108q-25 -5 -55 -5q-63 0 -101 38.5t-38 118.5v166q0 43 -22 63.5t-54 20.5z " />
<glyph unicode="|" horiz-adv-x="310" d="M90 -110v920h130v-920h-130z" />
<glyph unicode="}" horiz-adv-x="345" d="M45 -14q18 -3 28 -3q38 0 38 37v196q0 60 28 94t67 40q-39 6 -67 40t-28 94v196q0 37 -38 37q-10 0 -28 -3v108q25 5 55 5q63 0 101 -38.5t38 -118.5v-166q0 -43 22 -63.5t54 -20.5v-140q-32 0 -54 -20.5t-22 -63.5v-166q0 -80 -38 -118.5t-101 -38.5q-30 0 -55 5v108z " />
<glyph unicode="~" horiz-adv-x="510" d="M75 236v118q58 35 104 35q27 0 81 -19.5t80 -19.5q45 0 95 34v-118q-53 -35 -104 -35q-28 0 -79.5 20.5t-79.5 20.5q-44 0 -97 -36z" />
<glyph unicode="&#xa1;" horiz-adv-x="270" d="M60 370v130h150v-130h-150zM68 -200v472h135v-472h-135z" />
<glyph unicode="&#xa2;" d="M74 259q0 212 143 243v98h125v-97q36 -6 49 -9v-117q-65 14 -108 14q-38 0 -55 -31t-17 -121q0 -73 17 -102.5t53 -29.5q29 0 110 14v-116q-15 -4 -49 -10v-105h-125v104q-74 11 -108.5 69t-34.5 196z" />
<glyph unicode="&#xa3;" d="M51 0v113h65v197h-65v113h65v26q0 154 39.5 206t149.5 52q53 0 111 -9v-115q-50 9 -79 9q-57 0 -70.5 -22.5t-13.5 -113.5v-33h103v-113h-103v-197h173v-113h-375z" />
<glyph unicode="&#xa4;" horiz-adv-x="570" d="M13 113l72 72q-20 47 -20 115q0 65 21 114l-73 73l85 85l66 -66q51 31 121 31q68 0 121 -31l66 66l85 -85l-68 -68q26 -52 26 -119q0 -66 -26 -120l68 -67l-85 -85l-65 64q-50 -29 -122 -29q-73 0 -123 29l-64 -64zM187 300q0 -59 25 -94.5t73 -35.5t73 36t25 94t-25 94 t-73 36t-73 -35.5t-25 -94.5z" />
<glyph unicode="&#xa5;" d="M10 700h143l85 -223l84 223h138l-145 -330h94v-105h-106v-45h106v-105h-106v-115h-140v115h-104v105h104v45h-104v105h92z" />
<glyph unicode="&#xa6;" horiz-adv-x="310" d="M90 -110v360h130v-360h-130zM90 450v360h130v-360h-130z" />
<glyph unicode="&#xa7;" d="M58 345q0 63 59 107q-45 40 -45 101q0 83 49.5 119.5t157.5 36.5q44 0 112 -17v-114q-63 19 -116 19q-37 0 -52.5 -9t-15.5 -32q0 -28 61 -42q79 -18 109.5 -51.5t30.5 -107.5q0 -61 -60 -103q46 -42 46 -105q0 -83 -49.5 -119.5t-157.5 -36.5q-44 0 -112 17v114 q63 -19 116 -19q37 0 52.5 9t15.5 32q0 28 -61 42q-78 18 -109 53t-31 106zM191 355q0 -28 11 -41t38 -20q35 18 35 51q0 29 -10.5 41.5t-38.5 18.5q-35 -15 -35 -50z" />
<glyph unicode="&#xa8;" horiz-adv-x="380" d="M25 560v115h130v-115h-130zM225 560v115h130v-115h-130z" />
<glyph unicode="&#xa9;" horiz-adv-x="810" d="M70 350q0 175 79.5 267t260.5 92q180 0 255 -91.5t75 -267.5q0 -177 -74.5 -268t-255.5 -91q-183 0 -261.5 90.5t-78.5 268.5zM187 350q0 -72 8.5 -116.5t32 -79.5t68 -50t114.5 -15t113 15t65 51t28.5 79t6.5 116t-6.5 116t-28.5 79t-65 51t-113 15q-71 0 -115 -15 t-68 -49.5t-32 -79.5t-8 -117zM294 356q0 80 13.5 121.5t39 55t72.5 13.5q41 0 70 -8v-73q-27 6 -53 6q-25 0 -34 -6t-14 -30t-5 -83q0 -60 5.5 -85.5t15 -31.5t33.5 -6t52 6v-73q-32 -8 -76 -8q-66 0 -92.5 41.5t-26.5 160.5z" />
<glyph unicode="&#xaa;" horiz-adv-x="431" d="M55 442q0 62 43.5 92t112.5 30h31v10q0 48 -50 48q-54 0 -109 -15v85q47 15 121 15q81 0 113.5 -36t32.5 -108v-134q0 -24 26 -24v-79h-51q-15 0 -31 9.5t-22 30.5q-26 -45 -105 -45q-48 0 -80 27.5t-32 93.5zM62 0v115h301v-115h-301zM163 447q0 -16 10 -27t29 -11 q36 0 40 39v42h-25q-54 0 -54 -43z" />
<glyph unicode="&#xab;" horiz-adv-x="465" d="M50 299l87 207h108l-61 -207l61 -207h-108zM220 299l87 207h108l-61 -207l61 -207h-108z" />
<glyph unicode="&#xac;" horiz-adv-x="575" d="M60 245v115h455v-254h-120v139h-335z" />
<glyph unicode="&#xad;" horiz-adv-x="495" d="M75 245v115h345v-115h-345z" />
<glyph unicode="&#xae;" horiz-adv-x="810" d="M70 350q0 175 79.5 267t260.5 92q180 0 255 -91.5t75 -267.5q0 -177 -74.5 -268t-255.5 -91q-183 0 -261.5 90.5t-78.5 268.5zM187 350q0 -72 8.5 -116.5t32 -79.5t68 -50t114.5 -15t113 15t65 51t28.5 79t6.5 116t-6.5 116t-28.5 79t-65 51t-113 15q-71 0 -115 -15 t-68 -49.5t-32 -79.5t-8 -117zM300 159v385q60 4 106 4q66 0 93 -30t27 -89q0 -82 -52 -110l75 -160h-93l-61 147h-12v-147h-83zM383 378h10q28 0 38 9t10 40t-7.5 41t-33.5 10l-17 -2v-98z" />
<glyph unicode="&#xaf;" horiz-adv-x="345" d="M25 591v109h295v-109h-295z" />
<glyph unicode="&#xb0;" horiz-adv-x="383" d="M20 541q0 166 171 166q172 0 172 -166q0 -84 -43.5 -127.5t-128.5 -43.5q-171 0 -171 171zM133 542q0 -78 58 -78t58 78q0 73 -58 73t-58 -73z" />
<glyph unicode="&#xb1;" horiz-adv-x="550" d="M69 245v115h150v158h122v-158h150v-115h-150v-88h-122v88h-150zM75 0v115h410v-115h-410z" />
<glyph unicode="&#xb2;" horiz-adv-x="410" d="M57 205v104l102 124q33 36 43 61t10 63q0 53 -60 53q-29 0 -82 -11v97q2 0 14 2t25.5 4t31 3.5t31.5 1.5q74 0 114.5 -41.5t40.5 -115.5q0 -83 -48 -140l-90 -107h144v-98h-276z" />
<glyph unicode="&#xb3;" horiz-adv-x="410" d="M69 209v94q54 -12 84 -12q63 0 63 62q0 71 -65 71h-43v91h36q38 0 51 14.5t13 41.5q0 43 -54 43q-28 0 -81 -12v94q44 11 101 11q83 0 115.5 -33t32.5 -108q0 -30 -17 -57.5t-46 -36.5q31 -8 51.5 -39.5t20.5 -71.5q0 -90 -40 -126.5t-113 -36.5q-58 0 -109 11z" />
<glyph unicode="&#xb4;" horiz-adv-x="313" d="M25 580l104 135h159l-152 -135h-111z" />
<glyph unicode="&#xb5;" horiz-adv-x="523" d="M65 -170v670h133v-318q0 -47 13.5 -61.5t42.5 -14.5q35 0 53 22.5t18 52.5v319h133v-500h-108l-9 39q-50 -48 -119 -48q-5 0 -13 0.5t-11 0.5v-162h-133z" />
<glyph unicode="&#xb6;" horiz-adv-x="555" d="M40 533q0 176 169 176q29 0 60 -2.5t47 -4.5l17 -2v-107q-49 9 -84 9q-49 0 -67 -15t-18 -56q0 -38 15.5 -53.5t48.5 -15.5h105v-462h-126v354h-19q-148 0 -148 179zM377 0v700h123v-700h-123z" />
<glyph unicode="&#xb7;" horiz-adv-x="250" d="M50 244v130h150v-130h-150z" />
<glyph unicode="&#xb8;" horiz-adv-x="336" d="M65 -127q32 -5 54 -5q23 0 31.5 5t8.5 18t-17.5 18t-65.5 5l22 136h96l-11 -69q43 -5 64.5 -30t21.5 -64q0 -109 -128 -109q-38 0 -76 8v87z" />
<glyph unicode="&#xb9;" horiz-adv-x="410" d="M69 558v104l83 38h123v-395h67v-100h-265v100h83v292z" />
<glyph unicode="&#xba;" horiz-adv-x="434" d="M55 522q0 97 38 142t124 45t124 -45t38 -142q0 -114 -38.5 -158.5t-123.5 -44.5t-123.5 44.5t-38.5 158.5zM58 0v115h314v-115h-314zM165 512q0 -57 11.5 -82t40.5 -25t40.5 25t11.5 82q0 65 -11 88t-41 23t-41 -22t-11 -89z" />
<glyph unicode="&#xbb;" horiz-adv-x="465" d="M50 92l61 207l-61 207h108l87 -207l-87 -207h-108zM220 92l61 207l-61 207h108l87 -207l-87 -207h-108z" />
<glyph unicode="&#xbc;" horiz-adv-x="875" d="M44 558v104l83 38h123v-395h67v-100h-265v100h83v292zM231 -100l310 910h119l-310 -910h-119zM512 117v104l71 274h109l-72 -284h38l11 113h101v-113l45 -6v-88h-45v-117h-114v117h-144z" />
<glyph unicode="&#xbd;" horiz-adv-x="875" d="M44 558v104l83 38h123v-395h67v-100h-265v100h83v292zM236 -100l310 910h119l-310 -910h-119zM574 0v104l102 124q33 36 43 61t10 63q0 53 -60 53q-29 0 -82 -11v97q2 0 14 2t25.5 4t31 3.5t31.5 1.5q74 0 114.5 -41.5t40.5 -115.5q0 -83 -48 -140l-90 -107h144v-98h-276 z" />
<glyph unicode="&#xbe;" horiz-adv-x="875" d="M61 209v94q54 -12 84 -12q63 0 63 62q0 71 -65 71h-43v91h36q38 0 51 14.5t13 41.5q0 43 -54 43q-28 0 -81 -12v94q44 11 101 11q83 0 115.5 -33t32.5 -108q0 -30 -17 -57.5t-46 -36.5q31 -8 51.5 -39.5t20.5 -71.5q0 -90 -40 -126.5t-113 -36.5q-58 0 -109 11zM220 -100 l310 910h119l-310 -910h-119zM505 117v104l71 274h109l-72 -284h38l11 113h101v-113h45v-94h-45v-117h-114v117h-144z" />
<glyph unicode="&#xbf;" horiz-adv-x="380" d="M30 -28q0 48 11.5 76.5t41.5 65.5l73 88v70h135v-109l-80 -98q-28 -34 -37 -50.5t-9 -40.5q0 -40 14.5 -54.5t65.5 -14.5q43 0 105 15v-113q-69 -16 -127 -16q-104 0 -148.5 36.5t-44.5 144.5zM148 370v130h150v-130h-150z" />
<glyph unicode="&#xc0;" horiz-adv-x="545" d="M15 0l160 700h202l153 -700h-141l-32 163h-167l-32 -163h-143zM95 841h161l104 -115h-113zM213 281h122l-62 331z" />
<glyph unicode="&#xc1;" horiz-adv-x="545" d="M15 0l160 700h202l153 -700h-141l-32 163h-167l-32 -163h-143zM164 726l104 115h161l-152 -115h-113zM213 281h122l-62 331z" />
<glyph unicode="&#xc2;" horiz-adv-x="545" d="M15 0l160 700h202l153 -700h-141l-32 163h-167l-32 -163h-143zM93 730l110 115h152l111 -115h-147l-40 61l-40 -61h-146zM213 281h122l-62 331z" />
<glyph unicode="&#xc3;" horiz-adv-x="545" d="M15 0l160 700h202l153 -700h-141l-32 163h-167l-32 -163h-143zM116 723v104q40 33 96 33q25 0 75.5 -19.5t68.5 -19.5q49 0 90 36v-104q-34 -33 -96 -33q-26 0 -74.5 19.5t-69.5 19.5q-50 0 -90 -36zM213 281h122l-62 331z" />
<glyph unicode="&#xc4;" horiz-adv-x="545" d="M15 0l160 700h202l153 -700h-141l-32 163h-167l-32 -163h-143zM111 730v115h130v-115h-130zM213 281h122l-62 331zM311 730v115h130v-115h-130z" />
<glyph unicode="&#xc5;" horiz-adv-x="545" d="M15 0l158 694q-13 26 -13 69q0 122 116 122t116 -122q0 -41 -14 -69l152 -694h-141l-32 163h-167l-32 -163h-143zM213 281h122l-62 331zM248 764q0 -27 5.5 -38t22.5 -11q16 0 22 11.5t6 37.5q0 27 -5.5 38t-22.5 11t-22.5 -11t-5.5 -38z" />
<glyph unicode="&#xc6;" horiz-adv-x="781" d="M15 0l210 700h486v-108h-267l26 -177h233v-107h-217l30 -200h215v-108h-348l-19 163h-164l-46 -163h-139zM232 281h118l-35 299z" />
<glyph unicode="&#xc7;" horiz-adv-x="433" d="M50 361q0 112 14 182t47 105.5t72 47t102 11.5q20 0 58 -5t50 -9v-121q-62 15 -121 15q-32 0 -48 -14.5t-25.5 -65.5t-9.5 -153q0 -103 8.5 -155t25 -69t49.5 -17q58 0 121 15v-120q-23 -7 -92 -13l-2 -14q43 -5 64.5 -30t21.5 -64q0 -109 -128 -109q-38 0 -76 8v87 q32 -5 54 -5q23 0 31.5 5t8.5 18t-17.5 18t-65.5 5l13 85q-55 10 -88 46t-50 112.5t-17 203.5z" />
<glyph unicode="&#xc8;" horiz-adv-x="478" d="M70 0v700h358v-108h-221v-177h196v-107h-196v-200h221v-108h-358zM97 841h161l104 -115h-113z" />
<glyph unicode="&#xc9;" horiz-adv-x="478" d="M70 0v700h358v-108h-221v-177h196v-107h-196v-200h221v-108h-358zM149 726l104 115h161l-152 -115h-113z" />
<glyph unicode="&#xca;" horiz-adv-x="478" d="M63 730l110 115h152l111 -115h-147l-40 61l-40 -61h-146zM70 0v700h358v-108h-221v-177h196v-107h-196v-200h221v-108h-358z" />
<glyph unicode="&#xcb;" horiz-adv-x="478" d="M70 0v700h358v-108h-221v-177h196v-107h-196v-200h221v-108h-358zM85 720v115h130v-115h-130zM285 720v115h130v-115h-130z" />
<glyph unicode="&#xcc;" horiz-adv-x="347" d="M24 841h161l104 -115h-113zM35 0v106h70v488h-70v106h277v-106h-70v-488h70v-106h-277z" />
<glyph unicode="&#xcd;" horiz-adv-x="347" d="M35 0v106h70v488h-70v106h277v-106h-70v-488h70v-106h-277zM55 726l104 115h161l-152 -115h-113z" />
<glyph unicode="&#xce;" horiz-adv-x="347" d="M-13 730l110 115h152l111 -115h-147l-40 61l-40 -61h-146zM35 0v106h70v488h-70v106h277v-106h-70v-488h70v-106h-277z" />
<glyph unicode="&#xcf;" horiz-adv-x="347" d="M9 720v115h130v-115h-130zM35 0v106h70v488h-70v106h277v-106h-70v-488h70v-106h-277zM209 720v115h130v-115h-130z" />
<glyph unicode="&#xd0;" horiz-adv-x="561" d="M30 325v115h55v260q121 10 177 10q65 0 107.5 -13.5t76.5 -50t49.5 -106.5t15.5 -179q0 -146 -28 -228.5t-77.5 -112.5t-131.5 -30q-32 0 -79 2.5t-79 5.5l-31 2v325h-55zM222 115q19 -4 61 -4q48 0 68.5 51.5t20.5 191.5q0 105 -10.5 157t-27 65t-50.5 13l-62 -4v-145 h83v-115h-83v-210z" />
<glyph unicode="&#xd1;" horiz-adv-x="592" d="M70 0v700h199l134 -573v573h119v-700h-199l-132 562v-562h-121zM134 723v104q40 33 96 33q25 0 75.5 -19.5t68.5 -19.5q49 0 90 36v-104q-34 -33 -96 -33q-26 0 -74.5 19.5t-69.5 19.5q-50 0 -90 -36z" />
<glyph unicode="&#xd2;" horiz-adv-x="568" d="M50 358q0 188 48.5 270t185.5 82t185.5 -82t48.5 -270q0 -99 -9 -162t-33.5 -112.5t-71.5 -71.5t-120 -22t-120 22t-71.5 71.5t-33.5 112.5t-9 162zM101 841h161l104 -115h-113zM189 353q0 -149 20.5 -202t74.5 -53t74.5 53t20.5 202q0 150 -20 199.5t-75 49.5t-75 -49.5 t-20 -199.5z" />
<glyph unicode="&#xd3;" horiz-adv-x="568" d="M50 358q0 188 48.5 270t185.5 82t185.5 -82t48.5 -270q0 -99 -9 -162t-33.5 -112.5t-71.5 -71.5t-120 -22t-120 22t-71.5 71.5t-33.5 112.5t-9 162zM189 353q0 -149 20.5 -202t74.5 -53t74.5 53t20.5 202q0 150 -20 199.5t-75 49.5t-75 -49.5t-20 -199.5zM196 726 l104 115h161l-152 -115h-113z" />
<glyph unicode="&#xd4;" horiz-adv-x="568" d="M50 358q0 188 48.5 270t185.5 82t185.5 -82t48.5 -270q0 -99 -9 -162t-33.5 -112.5t-71.5 -71.5t-120 -22t-120 22t-71.5 71.5t-33.5 112.5t-9 162zM98 730l110 115h152l111 -115h-147l-40 61l-40 -61h-146zM189 353q0 -149 20.5 -202t74.5 -53t74.5 53t20.5 202 q0 150 -20 199.5t-75 49.5t-75 -49.5t-20 -199.5z" />
<glyph unicode="&#xd5;" horiz-adv-x="568" d="M50 358q0 188 48.5 270t185.5 82t185.5 -82t48.5 -270q0 -99 -9 -162t-33.5 -112.5t-71.5 -71.5t-120 -22t-120 22t-71.5 71.5t-33.5 112.5t-9 162zM118 723v104q40 33 96 33q24 0 74.5 -19.5t69.5 -19.5q49 0 90 36v-104q-34 -33 -96 -33q-26 0 -74.5 19.5t-69.5 19.5 q-50 0 -90 -36zM189 353q0 -149 20.5 -202t74.5 -53t74.5 53t20.5 202q0 150 -20 199.5t-75 49.5t-75 -49.5t-20 -199.5z" />
<glyph unicode="&#xd6;" horiz-adv-x="568" d="M50 358q0 188 48.5 270t185.5 82t185.5 -82t48.5 -270q0 -99 -9 -162t-33.5 -112.5t-71.5 -71.5t-120 -22t-120 22t-71.5 71.5t-33.5 112.5t-9 162zM119 730v115h130v-115h-130zM189 353q0 -149 20.5 -202t74.5 -53t74.5 53t20.5 202q0 150 -20 199.5t-75 49.5t-75 -49.5 t-20 -199.5zM319 730v115h130v-115h-130z" />
<glyph unicode="&#xd7;" horiz-adv-x="570" d="M83 183l117 117l-117 117l85 85l117 -117l117 117l85 -85l-117 -117l117 -117l-85 -85l-117 117l-117 -117z" />
<glyph unicode="&#xd8;" horiz-adv-x="548" d="M55 358q0 188 48.5 270t185.5 82q28 0 58 -5l28 86h100l-39 -121q49 -38 68 -113t19 -199q0 -99 -9 -162t-33.5 -112.5t-71.5 -71.5t-120 -22q-33 0 -70 7l-28 -88h-100l41 128q-45 40 -61 116.5t-16 204.5zM194 353q0 -72 4 -113l115 359q-12 3 -24 3q-55 0 -75 -49.5 t-20 -199.5zM254 104q12 -6 35 -6q54 0 74.5 53t20.5 202q0 83 -6 136z" />
<glyph unicode="&#xd9;" horiz-adv-x="555" d="M65 215v485h137v-504q0 -85 76 -85q75 0 75 85v504h137v-485q0 -120 -53 -171t-159 -51t-159.5 51t-53.5 171zM91 841h161l104 -115h-113z" />
<glyph unicode="&#xda;" horiz-adv-x="555" d="M65 215v485h137v-504q0 -85 76 -85q75 0 75 85v504h137v-485q0 -120 -53 -171t-159 -51t-159.5 51t-53.5 171zM201 726l104 115h161l-152 -115h-113z" />
<glyph unicode="&#xdb;" horiz-adv-x="555" d="M65 215v485h137v-504q0 -85 76 -85q75 0 75 85v504h137v-485q0 -120 -53 -171t-159 -51t-159.5 51t-53.5 171zM90 730l110 115h152l111 -115h-147l-40 61l-40 -61h-146z" />
<glyph unicode="&#xdc;" horiz-adv-x="555" d="M65 215v485h137v-504q0 -85 76 -85q75 0 75 85v504h137v-485q0 -120 -53 -171t-159 -51t-159.5 51t-53.5 171zM111 730v115h130v-115h-130zM311 730v115h130v-115h-130z" />
<glyph unicode="&#xdd;" horiz-adv-x="531" d="M10 700h148l111 -270l111 270h141l-187 -392v-308h-140v308zM196 726l104 115h161l-152 -115h-113z" />
<glyph unicode="&#xde;" horiz-adv-x="530" d="M70 0v700h137v-108q8 0 23.5 0.5t23.5 0.5q130 0 180.5 -57t50.5 -176q0 -128 -54 -182t-167 -54h-57v-124h-137zM207 242h63q35 0 55.5 30t20.5 81q0 61 -16.5 90.5t-57.5 29.5q-19 0 -35.5 -1.5t-22.5 -3.5l-7 -1v-225z" />
<glyph unicode="&#xdf;" horiz-adv-x="537" d="M65 0v503q0 206 197 206q86 0 136 -40.5t50 -111.5q0 -62 -16 -144q-52 0 -72 -9.5t-20 -34.5q0 -12 8 -19t26 -15q57 -23 87.5 -60t30.5 -109q0 -52 -14 -87.5t-40 -54t-55.5 -26t-67.5 -7.5q-47 0 -92 9v114q33 -11 65 -11q67 0 67 58q0 29 -15 46t-48 32 q-43 20 -62 49.5t-19 81.5q0 50 29.5 84.5t78.5 41.5q9 20 9 41q0 30 -14.5 45t-51.5 15q-35 0 -49 -20t-14 -67v-510h-134z" />
<glyph unicode="&#xe0;" horiz-adv-x="509" d="M45 151q0 88 53.5 127.5t158.5 39.5h45v21q0 60 -67 60q-74 0 -154 -24v114q67 20 154 20q63 0 103 -10t61 -34t28.5 -54.5t7.5 -80.5v-198q0 -32 39 -32v-100h-58q-63 0 -86 41q-40 -50 -132 -50q-153 0 -153 160zM102 715h159l104 -135h-111zM180 158q0 -55 56 -55 q36 0 51 22.5t15 49.5v45h-50q-72 0 -72 -62z" />
<glyph unicode="&#xe1;" horiz-adv-x="509" d="M45 151q0 88 53.5 127.5t158.5 39.5h45v21q0 60 -67 60q-74 0 -154 -24v114q67 20 154 20q63 0 103 -10t61 -34t28.5 -54.5t7.5 -80.5v-198q0 -32 39 -32v-100h-58q-63 0 -86 41q-40 -50 -132 -50q-153 0 -153 160zM180 158q0 -55 56 -55q36 0 51 22.5t15 49.5v45h-50 q-72 0 -72 -62zM181 580l104 135h159l-152 -135h-111z" />
<glyph unicode="&#xe2;" horiz-adv-x="509" d="M45 151q0 88 53.5 127.5t158.5 39.5h45v21q0 60 -67 60q-74 0 -154 -24v114q67 20 154 20q63 0 103 -10t61 -34t28.5 -54.5t7.5 -80.5v-198q0 -32 39 -32v-100h-58q-63 0 -86 41q-40 -50 -132 -50q-153 0 -153 160zM59 580l122 135h148l123 -135h-147l-50 74l-50 -74 h-146zM180 158q0 -55 56 -55q36 0 51 22.5t15 49.5v45h-50q-72 0 -72 -62z" />
<glyph unicode="&#xe3;" horiz-adv-x="509" d="M45 151q0 88 53.5 127.5t158.5 39.5h45v21q0 60 -67 60q-74 0 -154 -24v114q67 20 154 20q63 0 103 -10t61 -34t28.5 -54.5t7.5 -80.5v-198q0 -32 39 -32v-100h-58q-63 0 -86 41q-40 -50 -132 -50q-153 0 -153 160zM94 583v104q40 33 96 33q24 0 75 -19.5t69 -19.5 q49 0 90 36v-104q-34 -33 -96 -33q-26 0 -74.5 19.5t-69.5 19.5q-50 0 -90 -36zM180 158q0 -55 56 -55q36 0 51 22.5t15 49.5v45h-50q-72 0 -72 -62z" />
<glyph unicode="&#xe4;" horiz-adv-x="509" d="M45 151q0 88 53.5 127.5t158.5 39.5h45v21q0 60 -67 60q-74 0 -154 -24v114q67 20 154 20q63 0 103 -10t61 -34t28.5 -54.5t7.5 -80.5v-198q0 -32 39 -32v-100h-58q-63 0 -86 41q-40 -50 -132 -50q-153 0 -153 160zM93 560v115h130v-115h-130zM180 158q0 -55 56 -55 q36 0 51 22.5t15 49.5v45h-50q-72 0 -72 -62zM293 560v115h130v-115h-130z" />
<glyph unicode="&#xe5;" horiz-adv-x="509" d="M45 151q0 88 53.5 127.5t158.5 39.5h45v21q0 60 -67 60q-74 0 -154 -24v114q67 20 154 20q63 0 103 -10t61 -34t28.5 -54.5t7.5 -80.5v-198q0 -32 39 -32v-100h-58q-63 0 -86 41q-40 -50 -132 -50q-153 0 -153 160zM135 645q0 122 116 122t116 -122t-116 -122t-116 122z M180 158q0 -55 56 -55q36 0 51 22.5t15 49.5v45h-50q-72 0 -72 -62zM223 646q0 -27 5.5 -38t22.5 -11q16 0 22 11.5t6 37.5q0 27 -5.5 38t-22.5 11t-22.5 -11t-5.5 -38z" />
<glyph unicode="&#xe6;" horiz-adv-x="741" d="M50 148q0 87 52.5 123t159.5 36h45v32q0 60 -67 60q-74 0 -154 -24v114q67 20 154 20q107 0 150 -35q45 35 122 35q108 0 148.5 -55t40.5 -169v-76h-260q2 -61 19.5 -82.5t64.5 -21.5q67 0 139 15v-112q-60 -17 -139 -17q-67 0 -107.5 13t-63.5 49q-44 -62 -151 -62 q-72 0 -112.5 35.5t-40.5 121.5zM185 155q0 -52 56 -52q36 0 51 22.5t15 49.5v34h-50q-72 0 -72 -54zM443 307h130v18q0 74 -63 74q-31 0 -46.5 -20.5t-20.5 -71.5z" />
<glyph unicode="&#xe7;" horiz-adv-x="407" d="M50 260q0 131 51 190t152 59q56 0 114 -14v-117q-65 14 -108 14q-38 0 -55 -31t-17 -121q0 -73 17 -102.5t53 -29.5q29 0 110 14v-116q-45 -11 -86 -14l-2 -11q43 -5 64.5 -30t21.5 -64q0 -109 -128 -109q-38 0 -76 8v87q32 -5 54 -5q23 0 31.5 5t8.5 18t-17.5 18 t-65.5 5l13 82q-70 13 -102.5 71t-32.5 193z" />
<glyph unicode="&#xe8;" horiz-adv-x="489" d="M50 250q0 135 52 197t153 62q108 0 148.5 -55t40.5 -169v-84h-259q3 -56 20.5 -76t62.5 -20q66 0 139 15v-112q-60 -17 -139 -17q-59 0 -96 9.5t-66.5 36.5t-42.5 79t-13 134zM96 715h159l104 -135h-111zM186 299h130v26q0 74 -63 74q-32 0 -47.5 -22t-19.5 -78z" />
<glyph unicode="&#xe9;" horiz-adv-x="489" d="M50 250q0 135 52 197t153 62q108 0 148.5 -55t40.5 -169v-84h-259q3 -56 20.5 -76t62.5 -20q66 0 139 15v-112q-60 -17 -139 -17q-59 0 -96 9.5t-66.5 36.5t-42.5 79t-13 134zM162 580l104 135h159l-152 -135h-111zM186 299h130v26q0 74 -63 74q-32 0 -47.5 -22 t-19.5 -78z" />
<glyph unicode="&#xea;" horiz-adv-x="489" d="M50 250q0 135 52 197t153 62q108 0 148.5 -55t40.5 -169v-84h-259q3 -56 20.5 -76t62.5 -20q66 0 139 15v-112q-60 -17 -139 -17q-59 0 -96 9.5t-66.5 36.5t-42.5 79t-13 134zM51 580l122 135h148l123 -135h-147l-50 74l-50 -74h-146zM186 299h130v26q0 74 -63 74 q-32 0 -47.5 -22t-19.5 -78z" />
<glyph unicode="&#xeb;" horiz-adv-x="489" d="M50 250q0 135 52 197t153 62q108 0 148.5 -55t40.5 -169v-84h-259q3 -56 20.5 -76t62.5 -20q66 0 139 15v-112q-60 -17 -139 -17q-59 0 -96 9.5t-66.5 36.5t-42.5 79t-13 134zM89 560v115h130v-115h-130zM186 299h130v26q0 74 -63 74q-32 0 -47.5 -22t-19.5 -78zM289 560 v115h130v-115h-130z" />
<glyph unicode="&#xec;" horiz-adv-x="263" d="M-39 715h159l104 -135h-111zM65 0v500h133v-500h-133z" />
<glyph unicode="&#xed;" horiz-adv-x="263" d="M36 580l104 135h159l-152 -135h-111zM65 0v500h133v-500h-133z" />
<glyph unicode="&#xee;" horiz-adv-x="263" d="M-65 580l122 135h148l123 -135h-147l-50 74l-50 -74h-146zM65 0v500h133v-500h-133z" />
<glyph unicode="&#xef;" horiz-adv-x="263" d="M-33 560v115h130v-115h-130zM65 0v500h133v-500h-133zM167 560v115h130v-115h-130z" />
<glyph unicode="&#xf0;" horiz-adv-x="508" d="M50 210q0 127 39 193t134 66q47 0 91 -21q-11 74 -44 110l-23 -42h-107l43 79q-27 2 -86 2v112q96 0 144 -8l27 49h107l-42 -77q60 -31 90 -104.5t30 -207.5q0 -211 -49 -290.5t-168 -79.5q-31 0 -60.5 9.5t-59.5 32t-48 68.5t-18 109zM183 221q0 -71 15 -95.5t51 -24.5 q25 0 39 15.5t23 70.5t9 159q-39 15 -73 15q-64 0 -64 -140z" />
<glyph unicode="&#xf1;" horiz-adv-x="524" d="M65 0v500h108l9 -39q51 48 120 48q98 0 130 -45t32 -154v-310h-133v313q0 47 -13.5 64t-42.5 17q-36 0 -55.5 -20.5t-21.5 -49.5v-324h-133zM117 583v104q40 33 96 33q25 0 75 -19.5t69 -19.5q49 0 90 36v-104q-34 -33 -96 -33q-26 0 -74.5 19.5t-69.5 19.5 q-50 0 -90 -36z" />
<glyph unicode="&#xf2;" horiz-adv-x="530" d="M50 260q0 128 51 187.5t163 59.5t164 -59.5t52 -187.5q0 -151 -52 -209t-164 -58t-163 58t-51 209zM96 715h159l104 -135h-111zM186 245q0 -84 16 -114t62 -30t63 30.5t17 113.5q0 87 -17.5 120.5t-62.5 33.5t-61.5 -33t-16.5 -121z" />
<glyph unicode="&#xf3;" horiz-adv-x="530" d="M50 260q0 128 51 187.5t163 59.5t164 -59.5t52 -187.5q0 -151 -52 -209t-164 -58t-163 58t-51 209zM170 580l104 135h159l-152 -135h-111zM186 245q0 -84 16 -114t62 -30t63 30.5t17 113.5q0 87 -17.5 120.5t-62.5 33.5t-61.5 -33t-16.5 -121z" />
<glyph unicode="&#xf4;" horiz-adv-x="530" d="M50 260q0 128 51 187.5t163 59.5t164 -59.5t52 -187.5q0 -151 -52 -209t-164 -58t-163 58t-51 209zM69 580l122 135h148l123 -135h-147l-50 74l-50 -74h-146zM186 245q0 -84 16 -114t62 -30t63 30.5t17 113.5q0 87 -17.5 120.5t-62.5 33.5t-61.5 -33t-16.5 -121z" />
<glyph unicode="&#xf5;" horiz-adv-x="530" d="M50 260q0 128 51 187.5t163 59.5t164 -59.5t52 -187.5q0 -151 -52 -209t-164 -58t-163 58t-51 209zM100 583v104q40 33 96 33q24 0 75 -19.5t69 -19.5q49 0 90 36v-104q-34 -33 -96 -33q-26 0 -74.5 19.5t-69.5 19.5q-50 0 -90 -36zM186 245q0 -84 16 -114t62 -30 t63 30.5t17 113.5q0 87 -17.5 120.5t-62.5 33.5t-61.5 -33t-16.5 -121z" />
<glyph unicode="&#xf6;" horiz-adv-x="530" d="M50 260q0 128 51 187.5t163 59.5t164 -59.5t52 -187.5q0 -151 -52 -209t-164 -58t-163 58t-51 209zM103 560v115h130v-115h-130zM186 245q0 -84 16 -114t62 -30t63 30.5t17 113.5q0 87 -17.5 120.5t-62.5 33.5t-61.5 -33t-16.5 -121zM303 560v115h130v-115h-130z" />
<glyph unicode="&#xf7;" horiz-adv-x="550" d="M70 245v115h410v-115h-410zM200 45v130h150v-130h-150zM200 430v130h150v-130h-150z" />
<glyph unicode="&#xf8;" horiz-adv-x="530" d="M50 260q0 128 51 187.5t163 59.5q31 0 52 -4l33 86h94l-44 -116q81 -54 81 -213q0 -151 -52 -209t-164 -58q-26 0 -49 3l-32 -85h-95l43 113q-81 52 -81 236zM186 245q0 -41 3 -70l86 223q-3 1 -11 1q-45 0 -61.5 -33t-16.5 -121zM256 101h8q46 0 63 30.5t17 113.5 q0 47 -4 74z" />
<glyph unicode="&#xf9;" horiz-adv-x="518" d="M60 186v314h133v-318q0 -47 13.5 -61.5t42.5 -14.5q35 0 53 22.5t18 52.5v319h133v-500h-108l-9 39q-50 -48 -119 -48q-90 0 -123.5 46t-33.5 149zM70 715h159l104 -135h-111z" />
<glyph unicode="&#xfa;" horiz-adv-x="518" d="M60 186v314h133v-318q0 -47 13.5 -61.5t42.5 -14.5q35 0 53 22.5t18 52.5v319h133v-500h-108l-9 39q-50 -48 -119 -48q-90 0 -123.5 46t-33.5 149zM150 580l104 135h159l-152 -135h-111z" />
<glyph unicode="&#xfb;" horiz-adv-x="518" d="M60 186v314h133v-318q0 -47 13.5 -61.5t42.5 -14.5q35 0 53 22.5t18 52.5v319h133v-500h-108l-9 39q-50 -48 -119 -48q-90 0 -123.5 46t-33.5 149zM60 580l122 135h148l123 -135h-147l-50 74l-50 -74h-146z" />
<glyph unicode="&#xfc;" horiz-adv-x="518" d="M60 186v314h133v-318q0 -47 13.5 -61.5t42.5 -14.5q35 0 53 22.5t18 52.5v319h133v-500h-108l-9 39q-50 -48 -119 -48q-90 0 -123.5 46t-33.5 149zM92 560v115h130v-115h-130zM292 560v115h130v-115h-130z" />
<glyph unicode="&#xfd;" horiz-adv-x="493" d="M20 500h142l97 -389l85 389h129l-128 -542q-32 -135 -142 -135q-60 0 -90 5v113q24 -3 49 -3q41 0 49 44l3 18h-34zM173 580l104 135h159l-152 -135h-111z" />
<glyph unicode="&#xfe;" horiz-adv-x="519" d="M65 -170v870h133v-228q46 37 108 37q85 0 124 -51t39 -176q0 -163 -52 -227t-183 -64q-17 0 -36 1v-162h-133zM198 108q26 -3 43 -3q29 0 46 6.5t28 25.5t15 50.5t4 84.5q0 51 -6 77t-19 36t-38 10q-21 0 -38 -11.5t-26 -28.5t-9 -35v-212z" />
<glyph unicode="&#xff;" horiz-adv-x="493" d="M20 500h142l97 -389l85 389h129l-128 -542q-32 -135 -142 -135q-60 0 -90 5v113q24 -3 49 -3q41 0 49 44l3 18h-34zM79 560v115h130v-115h-130zM279 560v115h130v-115h-130z" />
<glyph unicode="&#x152;" horiz-adv-x="795" d="M50 358q0 188 48.5 270t185.5 82q44 0 84 -10h377v-108h-257q24 -62 29 -177h203v-107h-203q-3 -133 -30 -200h258v-108h-377q-40 -10 -84 -10q-73 0 -120 22t-71.5 71.5t-33.5 112.5t-9 162zM189 353q0 -149 20.5 -202t74.5 -53t74.5 53t20.5 202q0 150 -20 199.5 t-75 49.5t-75 -49.5t-20 -199.5z" />
<glyph unicode="&#x153;" horiz-adv-x="779" d="M50 260q0 128 51 187.5t163 59.5q91 0 146 -50q52 52 135 52q108 0 148.5 -55t40.5 -169v-84h-259q3 -56 20.5 -76t62.5 -20q66 0 139 15v-112q-60 -17 -139 -17q-108 0 -154 45q-49 -43 -140 -43q-112 0 -163 58t-51 209zM186 245q0 -84 16 -114t62 -30t63 30.5 t17 113.5q0 87 -17.5 120.5t-62.5 33.5t-61.5 -33t-16.5 -121zM476 299h130v26q0 74 -63 74q-32 0 -47.5 -22t-19.5 -78z" />
<glyph unicode="&#x178;" horiz-adv-x="531" d="M10 700h148l111 -270l111 270h141l-187 -392v-308h-140v308zM104 720v115h130v-115h-130zM304 720v115h130v-115h-130z" />
<glyph unicode="&#x2c6;" horiz-adv-x="433" d="M20 580l122 135h148l123 -135h-147l-50 74l-50 -74h-146z" />
<glyph unicode="&#x2dc;" horiz-adv-x="380" d="M25 583v104q40 33 96 33q25 0 75 -19.5t69 -19.5q49 0 90 36v-104q-34 -33 -96 -33q-26 0 -74.5 19.5t-69.5 19.5q-50 0 -90 -36z" />
<glyph unicode="&#x2000;" horiz-adv-x="442" />
<glyph unicode="&#x2001;" horiz-adv-x="885" />
<glyph unicode="&#x2002;" horiz-adv-x="442" />
<glyph unicode="&#x2003;" horiz-adv-x="885" />
<glyph unicode="&#x2004;" horiz-adv-x="295" />
<glyph unicode="&#x2005;" horiz-adv-x="221" />
<glyph unicode="&#x2006;" horiz-adv-x="147" />
<glyph unicode="&#x2007;" horiz-adv-x="147" />
<glyph unicode="&#x2008;" horiz-adv-x="110" />
<glyph unicode="&#x2009;" horiz-adv-x="177" />
<glyph unicode="&#x200a;" horiz-adv-x="49" />
<glyph unicode="&#x2010;" horiz-adv-x="495" d="M75 245v115h345v-115h-345z" />
<glyph unicode="&#x2011;" horiz-adv-x="495" d="M75 245v115h345v-115h-345z" />
<glyph unicode="&#x2012;" horiz-adv-x="495" d="M75 245v115h345v-115h-345z" />
<glyph unicode="&#x2013;" horiz-adv-x="550" d="M75 245v115h400v-115h-400z" />
<glyph unicode="&#x2014;" horiz-adv-x="605" d="M55 245v115h495v-115h-495z" />
<glyph unicode="&#x2018;" horiz-adv-x="235" d="M40 432v110l70 157h95l-30 -157v-110h-135z" />
<glyph unicode="&#x2019;" horiz-adv-x="235" d="M30 433l30 157v110h135v-110l-70 -157h-95z" />
<glyph unicode="&#x201a;" horiz-adv-x="235" d="M30 -157l30 157v110h135v-110l-70 -157h-95z" />
<glyph unicode="&#x201c;" horiz-adv-x="405" d="M40 432v110l70 157h95l-30 -157v-110h-135zM210 432v110l70 157h95l-30 -157v-110h-135z" />
<glyph unicode="&#x201d;" horiz-adv-x="395" d="M30 433l30 157v110h135v-110l-70 -157h-95zM200 433l30 157v110h135v-110l-70 -157h-95z" />
<glyph unicode="&#x201e;" horiz-adv-x="395" d="M30 -157l30 157v110h135v-110l-70 -157h-95zM200 -157l30 157v110h135v-110l-70 -157h-95z" />
<glyph unicode="&#x2022;" horiz-adv-x="305" d="M50 215v195h205v-195h-205z" />
<glyph unicode="&#x2026;" horiz-adv-x="750" d="M50 0v130h150v-130h-150zM300 0v130h150v-130h-150zM550 0v130h150v-130h-150z" />
<glyph unicode="&#x202f;" horiz-adv-x="177" />
<glyph unicode="&#x2039;" horiz-adv-x="295" d="M50 299l87 207h108l-61 -207l61 -207h-108z" />
<glyph unicode="&#x203a;" horiz-adv-x="295" d="M50 92l61 207l-61 207h108l87 -207l-87 -207h-108z" />
<glyph unicode="&#x205f;" horiz-adv-x="221" />
<glyph unicode="&#x20ac;" d="M25 232l20 93h53v67h-73l20 93h58q7 71 22.5 116t43.5 68.5t62 31.5t86 8q20 0 59 -5t51 -9l-24 -116q-50 10 -99 10q-31 0 -45.5 -20.5t-19.5 -83.5h148l-19 -93h-133v-67h120l-18 -93h-98q6 -72 23 -96.5t52 -24.5q50 0 113 15v-120q-55 -15 -113 -15 q-102 0 -150.5 50.5t-60.5 190.5h-78z" />
<glyph unicode="&#x2122;" horiz-adv-x="810" d="M30 609v91h477l40 -195l36 195h172v-506h-104v418l-60 -251h-98l-54 251v-418h-105v415h-90v-415h-108v415h-106z" />
<glyph unicode="&#xe000;" horiz-adv-x="500" d="M0 0v500h500v-500h-500z" />
</font>
</defs>
</svg>
