<svg enable-background="new 0 0 168 168" viewBox="0 0 168 168" xmlns="http://www.w3.org/2000/svg">
<path d="m84 168c46.4 0 84-37.6 84-84s-37.6-84-84-84-84 37.6-84 84 37.6 84 84 84z" fill="#1d327f"/>
<g fill="#ff3e51">
<path d="m42 42h21.6v21h-21.6z"/>
<path d="m73.2 42h21.6v21h-21.6z"/>
<path d="m104.4 42h21.6v21h-21.6z"/>
<path d="m42 73.5h21.6v21h-21.6z"/>
<path d="m73.2 73.5h21.6v21h-21.6z"/>
<path d="m104.4 73.5h21.6v21h-21.6z"/>
<path d="m42 105h21.6v21h-21.6z"/>
<path d="m73.2 105h21.6v21h-21.6z"/>
<path d="m104.4 105h21.6v21h-21.6z"/>
</g>
</svg>