<?xml version="1.0" standalone="no"?>
<!DOCTYPE svg PUBLIC "-//W3C//DTD SVG 1.1//EN" "http://www.w3.org/Graphics/SVG/1.1/DTD/svg11.dtd" >
<svg xmlns="http://www.w3.org/2000/svg">
<metadata></metadata>
<defs>
<font id="nanookbold" horiz-adv-x="864" >
<font-face units-per-em="2048" ascent="1638" descent="-410" />
<missing-glyph horiz-adv-x="983" />
<glyph horiz-adv-x="0" />
<glyph horiz-adv-x="682" />
<glyph horiz-adv-x="0" />
<glyph horiz-adv-x="0" />
<glyph unicode="&#xd;" horiz-adv-x="983" />
<glyph unicode=" "  horiz-adv-x="983" />
<glyph unicode="&#x09;" horiz-adv-x="983" />
<glyph unicode="&#xa0;" horiz-adv-x="983" />
<glyph unicode="!" horiz-adv-x="552" d="M82 145l172 -172h45l172 172v45l-172 170h-45l-172 -170v-45zM164 1634v248h229v-248l-65 -1110h-101z" />
<glyph unicode="&#x22;" horiz-adv-x="921" d="M82 1690v45l151 149h46l151 -149v-45q-36 -36 -62.5 -85t-39 -92.5t-19 -82t-7.5 -61.5l-1 -23h-100q0 9 -0.5 25t-7 61t-18 86t-36 90t-57.5 82zM492 1690v45l151 149h45l152 -149v-45q-36 -36 -62.5 -85t-39 -92.5t-19 -82t-7.5 -61.5l-1 -23h-101q0 9 -0.5 25t-7 61 t-17.5 86t-35.5 90t-57.5 82z" />
<glyph unicode="$" horiz-adv-x="1204" d="M61 565q0 28 6.5 54.5t12.5 38.5l6 12l104 -31q-6 -42 3 -90t34.5 -97.5t64 -92t95 -75t123.5 -44.5v663l-195 101q-243 137 -243 446q0 71 30.5 147t84.5 142.5t139 110.5t184 48v136h125v-148q50 -11 98 -30.5t71 -33.5l23 -14l74 76h133v-493h-133q-4 7 -12.5 19.5 t-35.5 45.5t-56 62t-73.5 59.5t-88.5 46.5v-541l211 -106q297 -149 297 -461q0 -93 -30.5 -182.5t-89.5 -168t-159.5 -130.5t-228.5 -60v-120h-125v125q-86 10 -156.5 42.5t-118.5 80.5t-83 104.5t-54 120.5t-28 122t-9 115zM303 1432q0 -98 44 -157.5t163 -127.5v491 q-89 -12 -148 -74t-59 -132zM635 236q128 13 202 93.5t74 176.5t-40.5 164t-147.5 123l-88 45v-602z" />
<glyph unicode="%" horiz-adv-x="1777" d="M61 922q0 -162 119 -280t281 -118t280.5 118t118.5 280q0 163 -115.5 281t-283.5 118q-163 0 -281.5 -118t-118.5 -281zM186 922q0 109 81.5 190.5t191.5 81.5t191 -81t81 -191q0 -112 -80.5 -191.5t-191.5 -79.5q-110 0 -191.5 80.5t-81.5 190.5zM483 -219l686 1540 l115 -51l-686 -1540zM918 127q0 -162 118.5 -279.5t280.5 -117.5t280.5 117.5t118.5 279.5q0 163 -115.5 281t-283.5 118q-163 0 -281 -118t-118 -281zM1042 127q0 109 81.5 190.5t191.5 81.5t191 -81t81 -191q0 -112 -80.5 -191t-191.5 -79t-192 80t-81 190z" />
<glyph unicode="&#x26;" horiz-adv-x="1685" d="M82 602q0 72 16 140.5t42 121t57 99t62.5 78.5t57.5 56t42 35l16 11q-6 7 -15.5 20t-34 54t-43 83t-34 102t-15.5 116q0 163 118 271.5t286 108.5q175 0 291 -117.5t116 -269.5q0 -79 -36.5 -155t-88 -128.5t-103 -93.5t-88.5 -61l-36 -20l434 -574q2 3 6 7.5t16 21 t22.5 34.5t25.5 47t25.5 59.5t23 71t16 81.5t6 92t-6.5 102l102 33q21 -38 33 -110q17 -102 10.5 -193t-29 -168.5t-46.5 -134t-43 -88.5l-19 -31q2 -4 7 -11.5t20.5 -26t32.5 -33t43 -26t52 -11.5q49 0 68.5 25.5t19.5 72.5l99 35q12 -18 13 -56.5t-12 -84.5t-38 -88 t-74 -70.5t-113 -28.5q-66 0 -138 39.5t-128 101.5q-7 -7 -19 -18t-53 -40t-85 -51.5t-111 -40.5t-135 -18q-188 0 -334 84.5t-223.5 227t-77.5 317.5zM326 592q0 -105 56.5 -188.5t146.5 -127t192 -43.5q46 0 89 10.5t71 25.5t50 30.5t32 26.5l10 10l-475 608 q-7 -5 -18.5 -14.5t-41 -43t-52.5 -71t-41.5 -98t-18.5 -125.5zM475 1499q0 -62 24 -126t48 -97l24 -33q9 4 25 12t56 33t70.5 52t55.5 66.5t25 78.5q0 72 -49 120t-117 48q-73 0 -117.5 -40t-44.5 -114z" />
<glyph unicode="'" horiz-adv-x="512" d="M82 1690v45l151 149h46l151 -149v-45q-36 -36 -62.5 -85t-39 -92.5t-19 -82t-7.5 -61.5l-1 -23h-100q0 9 -0.5 25t-7 61t-18 86t-36 90t-57.5 82z" />
<glyph unicode="(" horiz-adv-x="937" d="M61 623q0 185 50.5 353t135 291t190.5 214t219.5 136.5t220.5 45.5l-37 -100q-29 0 -72.5 -22.5t-95 -67t-104.5 -105t-103 -142.5t-88.5 -173t-62 -203t-23.5 -227q0 -118 24 -232t64 -205.5t90.5 -173t104.5 -140.5t105 -102.5t93 -65t68 -21.5l37 -101 q-92 0 -188.5 34.5t-187 97t-171 156.5t-140 206.5t-94.5 254t-35 292.5z" />
<glyph unicode=")" horiz-adv-x="937" d="M61 -418l37 101q26 0 68 21.5t93 65t105 102.5t104.5 140.5t90.5 173t64 205.5t24 232q0 115 -23.5 227t-62 203t-88.5 173t-103 142.5t-104.5 105t-95 67t-72.5 22.5l-37 100q107 0 220.5 -45.5t219.5 -136.5t190.5 -214t135 -291t50.5 -353q0 -151 -35 -292.5 t-94.5 -254t-140 -206.5t-171 -156.5t-187 -97t-188.5 -34.5z" />
<glyph unicode="*" horiz-adv-x="925" d="M82 936v123l285 -21l-242 211l88 88l209 -239l-21 280h125l-20 -282l209 239l88 -88l-242 -209l283 21v-125l-281 20l240 -206l-88 -89l-209 240l20 -283h-125l21 283l-211 -240l-86 86l240 211z" />
<glyph unicode="+" horiz-adv-x="1089" d="M41 440v125h442v443h125v-443h441v-125h-441v-440h-125v440h-442z" />
<glyph unicode="," horiz-adv-x="602" d="M0 -145l86 65q38 -37 89 -10q50 28 64 91q19 83 -46 165v45l172 170h45l172 -170v-45q-3 -5 -28.5 -42.5t-36.5 -53.5t-39 -54.5t-46.5 -59t-47.5 -53t-53.5 -50.5t-54 -37.5t-58.5 -28t-58 -8.5q-49 0 -89 19t-55 38z" />
<glyph unicode="-" d="M66 303q0 389 301 389h98q215 0 215 109l102 33q0 -33 -2 -64t-10 -71.5t-20 -74t-34.5 -67.5t-52.5 -58t-74.5 -38.5t-99.5 -14.5h-106q-215 0 -215 -108z" />
<glyph unicode="." horiz-adv-x="552" d="M82 145v45l172 170h45l172 -170v-45l-172 -172h-45z" />
<glyph unicode="/" horiz-adv-x="876" d="M76 -219l686 1540l115 -51l-687 -1540z" />
<glyph unicode="0" horiz-adv-x="1134" d="M41 498q0 143 70.5 264t191.5 191.5t264 70.5t264.5 -70.5t192 -191.5t70.5 -264t-70.5 -264.5t-192 -192t-264.5 -70.5t-264 70.5t-191.5 192t-70.5 264.5zM166 498q0 -166 116.5 -283t282.5 -117t283 117t117 283t-117 282.5t-283 116.5t-282.5 -116.5t-116.5 -282.5z " />
<glyph unicode="1" horiz-adv-x="745" d="M41 797q41 0 80.5 21.5t67 52.5t49.5 62.5t32 52.5l11 22h231v-750l152 -127v-131h-547v131l151 127v483q-5 -5 -16.5 -11.5t-56.5 -18t-101 -11.5z" />
<glyph unicode="2" horiz-adv-x="1075" d="M82 0v125l481 289q72 42 105.5 93.5t33.5 123.5q0 58 -62 102.5t-132 44.5q-89 0 -152 -50t-63 -118q0 -28 8.5 -53t16.5 -36l8 -11l-99 -39l-8.5 8.5t-18.5 24.5t-23 41.5t-18.5 59t-8.5 75.5q0 29 8.5 66t35.5 87.5t69.5 91t120 69t177.5 28.5q161 0 273 -93t112 -222 q0 -59 -21 -120t-76 -126t-136 -107l-205 -108h526l-108 -246h-844z" />
<glyph unicode="3" horiz-adv-x="1103" d="M41 -100q0 22 3 43t6 31l3 10l105 32q0 -204 92 -307.5t272 -103.5q102 0 182 69t80 170q0 88 -58 149.5t-153 61.5l-190 -2v248q157 0 244.5 79t87.5 200q0 90 -62.5 144t-146.5 54q-87 0 -150 -50t-63 -118q0 -28 8.5 -53t16.5 -36l8 -11l-99 -39l-8.5 8.5t-18.5 24.5 t-23 41.5t-18.5 59t-8.5 75.5q0 35 12 76.5t43 89.5t75.5 86.5t117 64t161.5 25.5q88 0 164 -33.5t126.5 -88.5t79.5 -124.5t29 -142.5q0 -132 -95 -248.5t-218 -138.5q159 7 268 -109t109 -272q0 -98 -35.5 -188.5t-100 -161t-162.5 -112.5t-214 -42q-91 0 -169 31 t-132.5 83.5t-93 122t-56.5 146.5t-18 156z" />
<glyph unicode="4" horiz-adv-x="1136" d="M41 82v125l539 801h256v-680h301l-109 -246h-192v-336h-228v336h-567zM281 328h327v487z" />
<glyph unicode="5" horiz-adv-x="991" d="M82 162v846h823l-108 -246h-486v-336q3 4 9.5 11.5t30.5 26.5t51 33t71.5 26t93.5 12q161 0 272 -127t111 -304q0 -410 -651 -722l-111 -54l-32 105l245 159q87 57 151.5 121.5t98 124t49 110t15.5 93.5q0 108 -60.5 178t-156.5 70q-64 0 -137 -32t-113 -63l-41 -32h-125 z" />
<glyph unicode="6" horiz-adv-x="1196" d="M82 655q0 128 39.5 256.5t113 240.5t171 201.5t221.5 145t256 64.5l32 -105q-125 -22 -229 -81.5t-169.5 -134t-111 -160.5t-64.5 -158.5t-19 -130.5q5 6 14.5 16.5t42 37t69 46.5t94 36.5t117.5 16.5q189 0 322 -140t133 -349q0 -116 -63.5 -227t-178.5 -184t-249 -73 q-112 0 -210 46.5t-172 132t-116.5 215.5t-42.5 288zM315 563q0 -137 91 -239.5t217 -102.5q99 0 173 74.5t74 191.5q0 46 -17 92.5t-49.5 86.5t-86.5 65t-121 25q-59 0 -109 -20t-80.5 -48t-52.5 -56.5t-30 -48.5z" />
<glyph unicode="7" horiz-adv-x="1089" d="M82 668v340h967v-125l-793 -1522h-100l526 1413h-371l-69 -106h-160z" />
<glyph unicode="8" horiz-adv-x="1171" d="M82 428q0 132 71 237t193 175q-97 57 -139.5 139.5t-42.5 169.5q0 62 32.5 128.5t86.5 122.5t134.5 92t168.5 36t169 -36.5t135.5 -92.5t87 -122t32.5 -126q0 -86 -43.5 -170t-139.5 -141q263 -136 263 -412q0 -82 -37 -163.5t-101.5 -146t-160.5 -105t-205 -40.5 q-110 0 -206 40.5t-160 105t-101 146t-37 163.5zM332 483q0 -102 74.5 -183t179.5 -81q106 0 180 74.5t74 189.5q0 98 -79 178t-175 80h-17q-91 0 -164 -81t-73 -177zM414 1098q0 -78 54 -130.5t118 -52.5h12q58 0 110 54t52 131q0 83 -53.5 132.5t-120.5 49.5 q-68 0 -120 -49t-52 -135z" />
<glyph unicode="9" horiz-adv-x="1196" d="M82 530q0 121 69.5 234t188.5 184.5t252 71.5q105 0 198 -43t166 -125.5t115.5 -214.5t42.5 -297q0 -117 -26.5 -228.5t-73 -202t-108 -172.5t-133 -145t-147 -113.5t-150 -83t-142.5 -50t-125 -17.5l-33 105q47 0 117.5 31t148 84t155 128.5t139 158t100 180t38.5 188.5 q-4 -6 -13 -16.5t-40 -37.5t-67 -47.5t-94 -37.5t-121 -17q-114 0 -217.5 57.5t-171.5 170.5t-68 255zM326 502q0 -112 79.5 -188t186.5 -76q62 0 115 20t83.5 48t52.5 56t30 48l8 20q0 141 -82 241.5t-207 100.5q-98 0 -182 -77t-84 -193z" />
<glyph unicode=":" horiz-adv-x="552" d="M82 145v45l172 170h45l172 -170v-45l-172 -172h-45zM82 793v45l172 170h45l172 -170v-45l-172 -172h-45z" />
<glyph unicode=";" horiz-adv-x="663" d="M0 -145l86 65q39 -38 90 -14q50 24 64 83q17 77 -47 158v46l172 167h45l172 -167v-46q-29 -43 -39.5 -58t-46.5 -63.5t-58 -73t-61 -63.5t-70 -58.5t-70.5 -35.5t-76.5 -16q-49 0 -89 19t-55 38zM193 793v45l172 170h45l172 -170v-45l-172 -172h-45z" />
<glyph unicode="=" horiz-adv-x="1171" d="M82 274v125h1008v-125h-1008zM82 606v125h1008v-125h-1008z" />
<glyph unicode="?" horiz-adv-x="1159" d="M88 1395q-5 59 8 125t49 134t89.5 122t138 88t186.5 34q99 0 182.5 -30t139.5 -78.5t95.5 -111.5t57 -128.5t17.5 -130.5q0 -146 -94 -262t-250 -178q-91 -36 -133 -85.5t-42 -100.5q0 -70 50 -70q28 0 45 23.5t19 47.5l3 23l101 39q12 -45 12 -96q0 -90 -60 -162 t-161 -72q-95 0 -166.5 71.5t-71.5 193.5t85 214t220 148q213 88 213 254q0 110 -78 179t-202 69q-56 0 -106.5 -19t-87 -50.5t-65.5 -72.5t-42 -85.5t-18 -90t7 -84.5l-104 -30q-27 55 -37 172zM377 145l172 -172h45l172 172v45l-172 170h-45l-172 -170v-45z" />
<glyph unicode="@" horiz-adv-x="1892" d="M61 539q0 167 51 318t140 264.5t206 197.5t253 127t276 43q171 0 328 -69.5t269.5 -184t179.5 -268t67 -316.5q0 -139 -31.5 -262t-83.5 -207t-120.5 -133t-141.5 -49q-40 0 -76 14t-58.5 34t-39.5 40.5t-24 34.5l-7 14q-6 -7 -18 -17.5t-50 -38.5t-77.5 -49.5t-97.5 -39 t-113 -17.5q-53 0 -104.5 11t-102.5 36t-89.5 61.5t-62.5 93.5t-24 126q0 89 53.5 157t128.5 100t154 32h325v51q0 62 -70.5 103.5t-170.5 41.5q-61 0 -106.5 -13.5t-70 -33t-40 -46t-19.5 -47.5t-4 -42l-100 -39q-37 62 -37 150q0 68 54.5 138t153.5 118.5t212 48.5 q111 0 198.5 -28.5t139.5 -76t79 -105t27 -120.5v-313q0 -182 56 -182q23 0 52.5 28.5t57.5 78t47 127.5t19 165q0 122 -40.5 227.5t-107 179.5t-152.5 127t-177 78t-181 25q-103 0 -204.5 -31.5t-190 -93.5t-156.5 -145t-107.5 -193.5t-39.5 -232.5q0 -135 38.5 -256 t103 -209t147.5 -152.5t174 -96.5t180 -32q78 0 142.5 19.5t89.5 39.5l26 19l92 -37q-3 -8 -10 -22t-37.5 -49.5t-70 -62.5t-113 -49t-162.5 -22q-72 0 -150 17.5t-159 54.5t-157 90t-142.5 129t-116 166.5t-78.5 207.5t-29 247zM748 299q0 -44 45.5 -71t115.5 -27 q66 0 134 27t106.5 60t38.5 54v135l-293 -39q-84 -11 -115.5 -48t-31.5 -91z" />
<glyph unicode="A" horiz-adv-x="1685" d="M41 0v133l154 115l546 1636h207l559 -1648l138 -103v-133h-537v133l129 96l-195 590h-421l-185 -579l142 -107v-133h-537zM698 1065h263l-134 405z" />
<glyph unicode="B" horiz-adv-x="1572" d="M164 0v133l153 115v1388l-153 115v133h643q122 0 220.5 -44.5t158 -131.5t59.5 -203q0 -73 -21 -135.5t-52 -101t-61 -61t-54 -27.5q71 -8 146.5 -52.5t140 -116t106 -179.5t41.5 -228q0 -191 -80 -329t-219.5 -206.5t-323.5 -68.5h-704zM547 248h295q82 0 155 21.5 t133.5 63t96 111.5t35.5 160t-35.5 163.5t-95.5 119.5t-134.5 71t-154.5 25h-295v-735zM547 1231h172q155 0 226 52.5t71 156.5q0 91 -73 144.5t-224 53.5h-172v-407z" />
<glyph unicode="C" horiz-adv-x="1548" d="M61 920q0 188 40.5 347.5t113 274.5t170.5 196t214 120.5t243 39.5q91 0 176.5 -22.5t125.5 -45.5l40 -22l73 76h134v-493h-134q-6 10 -16.5 27t-49.5 60t-83.5 75.5t-118 59.5t-153.5 27q-104 0 -200.5 -47.5t-173.5 -135.5t-123 -227t-46 -308q0 -155 45 -286 t121.5 -218t176.5 -136t210 -49q94 0 182.5 36.5t151.5 94t100.5 131t36.5 144.5l102 33q27 -58 27 -115q0 -71 -21.5 -148t-69.5 -155.5t-116 -140.5t-171.5 -101t-225.5 -39q-160 0 -302.5 68t-248.5 189.5t-168 300.5t-62 389z" />
<glyph unicode="D" horiz-adv-x="1734" d="M164 0v133l155 115v1386l-153 117v133h596q416 0 653.5 -245t237.5 -699q0 -443 -238 -691.5t-649 -248.5h-602zM549 236h213q142 0 262.5 47t209 135t138 222t49.5 300q0 174 -49.5 309t-139 219t-208.5 127t-262 43h-213v-1402z" />
<glyph unicode="E" horiz-adv-x="1390" d="M164 0v133l153 115v1386l-153 117v133h1014l59 -399h-133l-117 153h-440v-573h553l-109 -246h-444v-571h514l115 151h133l-60 -399h-1085z" />
<glyph unicode="F" horiz-adv-x="1277" d="M164 0v133l153 115v1386l-153 117v133h1014l59 -399h-133l-117 153h-440v-573h553l-109 -246h-444v-571l153 -115v-133h-536z" />
<glyph unicode="G" horiz-adv-x="1650" d="M82 934q0 183 42 340.5t115 270.5t170 193.5t208 120t229 39.5q66 0 127 -9.5t101.5 -22.5t71 -26t44.5 -22l14 -10l74 76h133v-493h-133q-6 10 -16.5 27t-50 60t-84.5 75.5t-119 59.5t-154 27q-78 0 -154.5 -27.5t-146.5 -86t-123.5 -140.5t-85 -199.5t-31.5 -254.5 q0 -155 43.5 -287.5t117 -221.5t170 -139.5t202.5 -50.5q82 0 151 23.5t117 60.5t85.5 87t59.5 100t37 101.5t20 89.5t5 67h-385l108 246h523q2 -41 2 -81q0 -190 -39 -351q-48 -194 -141.5 -326.5t-229 -204.5t-299.5 -72q-167 0 -311.5 70t-247 195t-161 304.5 t-58.5 391.5z" />
<glyph unicode="H" horiz-adv-x="1843" d="M164 0v133l153 115v1388l-153 115v133h536v-133l-153 -115v-571h749v571l-153 115v133h536v-133l-153 -115v-1388l153 -115v-133h-536v133l153 115v571h-749v-571l153 -115v-133h-536z" />
<glyph unicode="I" d="M164 0v133l153 115v1388l-153 115v133h536v-133l-153 -115v-1388l153 -115v-133h-536z" />
<glyph unicode="J" horiz-adv-x="1261" d="M82 512q0 23 3 44t6 30l3 10l103 33q0 -69 17 -136.5t51.5 -130t98.5 -101t148 -38.5q242 0 242 359v1054l-154 115v133h539v-133l-154 -115v-1089q0 -94 -15.5 -176.5t-50.5 -156.5t-88.5 -126.5t-135 -83.5t-183.5 -31q-82 0 -152.5 30t-120.5 82t-86 120.5 t-53.5 146.5t-17.5 160z" />
<glyph unicode="K" horiz-adv-x="1566" d="M164 0v133l153 115v1388l-153 115v133h536v-133l-153 -115v-544l536 557l-137 102v133h537v-131l-703 -735l-2 -2l332 -651q38 -77 80 -114.5t106 -37.5q44 0 74.5 16t43 39t19 46t5.5 39v16l102 32q27 -47 27 -127q0 -65 -37 -133t-110.5 -118t-162.5 -50 q-114 0 -196 65t-148 193l-366 715v-698l153 -115v-133h-536z" />
<glyph unicode="L" horiz-adv-x="1308" d="M164 0v133l153 115v1386l-153 117v133h536v-133l-153 -117v-1386h514l115 151h133l-60 -399h-1085z" />
<glyph unicode="M" horiz-adv-x="2484" d="M164 0v133l153 115v1636h246l713 -1579l711 1579h180v-1636l153 -115v-133h-536v133l153 115v979l-575 -1254h-207l-608 1342v-1067l153 -115v-133h-536z" />
<glyph unicode="N" horiz-adv-x="1863" d="M164 0v133l153 115v1634h246l754 -1423v1177l-154 115v133h537v-133l-154 -115v-1636h-258l-741 1380v-1132l153 -115v-133h-536z" />
<glyph unicode="O" horiz-adv-x="1714" d="M82 936q0 218 61 400.5t166 304.5t246.5 189.5t302.5 67.5q163 0 305 -67.5t246 -189.5t163.5 -304t59.5 -401q0 -218 -61 -401t-166 -305t-246 -189.5t-301 -67.5t-301.5 68t-247 190t-166.5 304.5t-61 400.5zM313 936q0 -166 47 -302.5t125 -222t173.5 -132 t197.5 -46.5q81 0 159.5 28.5t148 87.5t122.5 141.5t84 197.5t31 248t-31 248t-83.5 197.5t-122 141.5t-147.5 88t-159 29q-103 0 -199.5 -46t-174 -132t-124.5 -222.5t-47 -303.5z" />
<glyph unicode="P" horiz-adv-x="1511" d="M164 0v133l153 115v1388l-153 115v133h704q130 0 238 -29.5t181.5 -80.5t125 -119t75 -144.5t23.5 -158.5t-23.5 -158.5t-75 -145t-125 -119t-181.5 -80.5t-238 -30h-321v-571l153 -115v-133h-536zM547 1067h336q105 0 185.5 26.5t125 69.5t66.5 91t22 98q0 39 -13 77.5 t-43.5 77t-75 67t-114 46.5t-153.5 18h-336v-571z" />
<glyph unicode="Q" horiz-adv-x="1714" d="M82 936q0 218 61 400.5t166 304.5t246.5 189.5t302.5 67.5q163 0 305 -67.5t246 -189.5t163.5 -304t59.5 -401q0 -195 -49 -362t-135.5 -286.5t-202.5 -196.5t-252 -103q21 -138 135 -138q46 0 77 17.5t45 47t19 56t5 56.5l102 32q27 -59 27 -116q0 -38 -11.5 -79.5 t-37.5 -83.5t-62 -75t-90 -53.5t-117 -20.5q-150 0 -231 93t-92 256q-144 19 -268 94.5t-215.5 196t-144 292.5t-52.5 373zM313 936q0 -166 47 -302.5t125 -222t173.5 -132t197.5 -46.5q81 0 159.5 28.5t148 87.5t122.5 141.5t84 197.5t31 248t-31 248t-83.5 197.5 t-122 141.5t-147.5 88t-159 29q-103 0 -199.5 -46t-174 -132t-124.5 -222.5t-47 -303.5z" />
<glyph unicode="R" horiz-adv-x="1771" d="M164 0v133l153 115v1388l-153 115v133h704q130 0 238 -29.5t181.5 -80.5t125 -119t75 -144.5t23.5 -158.5q0 -89 -29 -171.5t-85.5 -153t-149.5 -121.5t-213 -72l199 -490q33 -84 75.5 -117.5t110.5 -33.5q44 0 74.5 18t43 44t19 52t6.5 44l-1 18l102 32q27 -47 27 -127 q0 -65 -37 -133t-110.5 -118t-162.5 -50q-229 0 -340 258l-249 588h-244v-571l153 -115v-133h-536zM547 1067h336q105 0 185.5 26.5t125 69.5t66.5 91t22 98q0 39 -13 77.5t-43.5 77t-75 67t-114 46.5t-153.5 18h-336v-571z" />
<glyph unicode="S" horiz-adv-x="1409" d="M164 565q0 28 6 54.5t12 38.5l6 12l105 -31q-3 -17 -3 -35q0 -44 16 -93q22 -69 70 -131.5t131.5 -104.5t184.5 -42q75 0 138 24.5t102 64.5t60.5 87.5t21.5 96.5q0 96 -41 163.5t-148 123.5l-407 211q-244 138 -244 446q0 58 19.5 119.5t59 120t93 105t128 75 t157.5 28.5q75 0 149.5 -22.5t111.5 -45.5l38 -22l74 76h133v-493h-133q-6 10 -17 27t-48 60t-76.5 75.5t-99 59.5t-118.5 27q-101 0 -170 -65t-69 -143q0 -98 43.5 -157.5t162.5 -127.5l336 -170q297 -149 297 -461q0 -77 -19.5 -152t-63.5 -146t-107 -125t-157.5 -87 t-207.5 -33q-120 0 -215 40.5t-152 102t-94 143.5t-51 157t-14 149z" />
<glyph unicode="T" horiz-adv-x="1568" d="M0 1485l59 399h1450l60 -399h-133l-117 153h-420v-1390l154 -115v-133h-537v133l154 115v1390h-420l-117 -153h-133z" />
<glyph unicode="U" horiz-adv-x="1746" d="M123 1751v133h539v-133l-154 -115v-1079q0 -158 87.5 -241t250.5 -83q92 0 172 37.5t132 114t52 176.5v1075l-153 115v133h538v-133l-153 -115v-1306q0 -133 53 -133q27 0 44 24t20 48l3 24l101 37q10 -29 10 -82q0 -104 -67.5 -176t-170.5 -72q-43 0 -80 15.5t-60 37.5 t-39.5 44t-23.5 37l-7 16q-45 -62 -155.5 -119.5t-227.5 -57.5t-214 35.5t-159.5 93t-105 132t-61 149.5t-18.5 149v1104z" />
<glyph unicode="V" horiz-adv-x="1685" d="M41 1751v133h537v-133l-129 -96l409 -1241l391 1231l-141 106v133h537v-133l-154 -115l-547 -1636h-207l-559 1649z" />
<glyph unicode="W" horiz-adv-x="2297" d="M41 1751v133h537v-133l-129 -96l303 -1125l219 1133l319 -2l271 -1159l301 1143l-142 106v133h537v-133l-154 -115l-465 -1636h-206l-306 1276l-264 -1276h-207l-477 1649z" />
<glyph unicode="X" horiz-adv-x="1632" d="M41 0v133l119 90l512 725l-510 713l-119 90v133h537v-133l-111 -84l354 -532l351 526l-119 90v133h536v-133l-110 -84l-510 -725l510 -725l110 -84v-133h-536v133l119 90l-357 527l-350 -533l111 -84v-133h-537z" />
<glyph unicode="Y" horiz-adv-x="1630" d="M41 1751v133h537v-133l-111 -84l354 -614l350 608l-118 90v133h536v-133l-110 -84l-551 -866v-553l153 -115v-133h-536v133l153 115v557l-538 856z" />
<glyph unicode="Z" horiz-adv-x="1402" d="M27 86l983 1552h-674l-117 -153h-133l59 399h1203v-123l-928 -1482h737q29 0 50 12.5t30.5 30t14.5 35t5 29.5v13l103 33q26 -49 26 -121q0 -56 -25.5 -115t-72 -109t-120 -82t-160.5 -32q-106 0 -254 21q-148 22 -246 38q-58 10 -116 9q-38 0 -75 -4q-93 -11 -135 -64z " />
<glyph unicode="\" horiz-adv-x="800" d="M0 1270l115 51l686 -1540l-115 -51z" />
<glyph unicode="`" horiz-adv-x="512" d="M82 1708v45h348v-377h-94z" />
<glyph unicode="a" horiz-adv-x="1226" d="M82 303q0 89 53.5 157t128.5 100t154 32h325v51q0 62 -70.5 103.5t-170.5 41.5q-61 0 -106.5 -13.5t-70 -33t-40 -46t-19.5 -47.5t-4 -42l-100 -39q-37 62 -37 150q0 68 54.5 138t153.5 118.5t212 48.5q111 0 198.5 -28.5t139.5 -76t79 -105t27 -120.5v-313 q0 -89 12 -135.5t43 -46.5q28 0 45 23.5t20 47.5l3 23l100 39q14 -54 14 -101q0 -72 -32 -131q-54 -98 -168 -98q-40 0 -77.5 17t-62.5 41.5t-44 49t-28 41.5l-9 17q-5 -8 -14 -21t-41 -45.5t-68 -58t-92.5 -46t-116.5 -20.5q-55 0 -108.5 11t-105 36t-90.5 61.5t-63 93.5 t-24 126zM326 307q0 -51 42 -78.5t113 -27.5q60 0 111 13t80.5 31.5t50.5 36.5t29 31l8 13v151l-293 -39q-72 -10 -106.5 -45.5t-34.5 -85.5z" />
<glyph unicode="b" horiz-adv-x="1413" d="M-82 1638v246h518v-1042q4 7 12.5 19t41 43t72 54.5t107 42.5t144.5 19q143 0 271 -67t208 -187.5t80 -263.5q0 -97 -31 -182.5t-84.5 -148t-123 -108t-148.5 -68t-160 -22.5q-79 0 -149.5 19.5t-114.5 47.5t-77 56.5t-48 47.5l-14 20l-209 -164h-102l94 270v1368h-287z M449 500q0 -84 53 -150t130.5 -98.5t160.5 -32.5q149 0 240 85.5t91 197.5q0 108 -91 190t-242 82q-139 0 -240.5 -83.5t-101.5 -190.5z" />
<glyph unicode="c" horiz-adv-x="1243" d="M82 500q0 145 85 266t215.5 186.5t270.5 65.5q56 0 108.5 -13.5t86.5 -33t60 -39.5t38 -34l12 -13l43 123h160v-457h-168q0 31 -22.5 69.5t-62.5 74.5t-105.5 60.5t-140.5 24.5q-57 0 -113.5 -18.5t-104.5 -52.5t-78 -89t-30 -122q0 -119 101.5 -202t236.5 -83 q148 0 251 60.5t103 132.5l98 40q25 -34 25 -106q0 -60 -36.5 -124.5t-98 -118.5t-153 -89t-191.5 -35q-159 0 -293.5 65.5t-215.5 187.5t-81 274z" />
<glyph unicode="d" horiz-adv-x="1443" d="M41 496q0 97 33.5 182.5t90.5 147t129.5 106t152 66.5t157.5 22q76 0 142.5 -18t107.5 -44t71 -52t42 -44l12 -18v794h-330v246h559v-1511q0 -33 1 -55.5t6 -54.5t17.5 -49t31.5 -17q27 0 44 24t20 48l3 24l101 37q11 -39 11 -79q1 -37 -9 -73q-20 -76 -82 -127t-148 -51 q-43 0 -80 17t-60 41.5t-40 49t-24 41.5l-7 17q-5 -8 -14.5 -21t-44.5 -46t-76.5 -58.5t-111.5 -46.5t-148 -21q-156 0 -284.5 72t-200.5 192t-72 259zM291 496q0 -120 100 -198.5t236 -78.5q78 0 155 32.5t131 97t54 143.5q0 111 -96.5 196.5t-243.5 85.5 q-139 0 -237.5 -75.5t-98.5 -202.5z" />
<glyph unicode="e" horiz-adv-x="1150" d="M41 494q0 143 81.5 265t214.5 191.5t281 69.5q103 0 195.5 -38t154 -97t98 -130t36.5 -139q-1 -43 -6.5 -73.5t-11.5 -39.5l-5 -9h-784q0 -106 98 -193.5t242 -87.5q154 0 253 62t99 131l98 40q25 -43 25 -100q0 -63 -36 -128.5t-98.5 -120t-156 -89.5t-198.5 -35 q-159 0 -292.5 70t-210.5 190t-77 261zM330 616h528q-1 7 -4 17.5t-19 38.5t-39.5 49.5t-70.5 39t-107 17.5q-61 0 -113.5 -16.5t-83 -40.5t-52.5 -48t-31 -41z" />
<glyph unicode="f" horiz-adv-x="894" d="M82 758l100 250h72v473q0 201 83 309t247 108q129 0 220 -93t91 -218q0 -31 -6.5 -60.5t-12.5 -42.5l-6 -14l-102 33q0 4 0.5 10t-1 24.5t-5.5 35t-14.5 37t-26 35t-42.5 24.5t-61 10q-53 0 -94 -46t-41 -146v-479h387l-98 -246h-287v-504l150 -127v-131h-533v131 l152 127v500h-172z" />
<glyph unicode="g" horiz-adv-x="1232" d="M102 231q0 77 42.5 127.5t88.5 59.5q-57 88 -57 190q0 173 133 292.5t336 119.5q88 0 172 -31t148 -80q27 0 46 21t24 42l5 21l105 25q5 -29 5 -58q0 -46 -13 -91q-21 -73 -64 -107q39 -93 39 -154q0 -73 -27 -141.5t-81 -126t-146 -92.5t-211 -35q-90 0 -174.5 27.5 t-124.5 54.5l-39 27q-2 -1 -5 -2t-11 -6.5t-14.5 -13t-11.5 -20.5t-5 -28q0 -44 38 -67.5t101 -26.5l406 -23q87 -5 163 -31t135.5 -72.5t93.5 -117.5t34 -158q0 -129 -73.5 -239.5t-203.5 -177t-286 -66.5q-152 0 -279 66.5t-198.5 177t-71.5 239.5q0 47 14 89.5t34.5 70 t40.5 48t34 29.5l14 9q-156 82 -156 229zM358 -244q0 -94 97.5 -166.5t222.5 -72.5q121 0 219 70.5t98 168.5q0 109 -86.5 163t-226.5 54h-246q-3 -3 -8.5 -8t-19 -24.5t-23.5 -42.5t-18.5 -61t-8.5 -81zM422 608q0 -68 67.5 -115t155.5 -47q91 0 158 47t67 115 q0 70 -67.5 119t-157.5 49q-88 0 -155.5 -49.5t-67.5 -118.5z" />
<glyph unicode="h" horiz-adv-x="1417" d="M-41 1636v248h535l-2 -1040q4 7 12.5 18.5t38 41t63 52.5t88.5 42.5t115 21.5q104 0 179.5 -31t117.5 -87t61 -125.5t19 -155.5v-363l149 -127v-131h-532v131l153 129v336q0 85 -63.5 128.5t-151.5 43.5q-42 0 -83 -10t-69.5 -24.5t-50.5 -29t-33 -24.5l-11 -10v-412 l149 -127v-131h-532v131l153 129v1376h-305z" />
<glyph unicode="i" horiz-adv-x="716" d="M82 762v246h442v-750l152 -127v-131h-547v131l152 127v504h-199zM193 1378v45l172 170h45l172 -170v-45l-172 -172h-45z" />
<glyph unicode="j" horiz-adv-x="573" d="M-159 -368q-4 22 -4 45q0 56 24 114l104 -33q2 -1 -0.5 -18t5 -44t19.5 -52t43.5 -43.5t76.5 -18.5q59 0 100 45t41 142v993h-199v246h428v-1276q0 -13 -1 -28.5t-7.5 -54.5t-17.5 -72.5t-36 -75t-58.5 -70t-87.5 -48.5t-121 -20q-74 0 -141.5 36t-110.5 96t-57 137z M137 1378v45l172 170h45l172 -170v-45l-172 -172h-45z" />
<glyph unicode="k" horiz-adv-x="1310" d="M-41 1636v248h535v-1218l159 159l-75 52v131h546v-129l-407 -240l198 -311q39 -62 67 -86.5t58 -24.5q43 0 67 31.5t27 62.5l3 31l100 39q12 -37 12 -94q0 -61 -11 -114t-35.5 -99.5t-70.5 -73.5t-108 -27q-35 0 -63.5 5.5t-63.5 21t-68.5 49.5t-64.5 86l-227 385 l-43 -26v-234l149 -129v-131h-532v131l153 131v1374h-305z" />
<glyph unicode="l" horiz-adv-x="634" d="M-82 1638v246h526v-1624l150 -129v-131h-533v131l152 127v1380h-295z" />
<glyph unicode="m" horiz-adv-x="2111" d="M82 762v246h356l54 -166q5 7 14.5 19t41 43t65.5 54.5t87 42.5t107 19q59 0 109 -12.5t83.5 -32.5t60 -43.5t41.5 -47.5t25 -44t14 -32l3 -13q2 5 7 13t22 31.5t36 44.5t50 47t64.5 44.5t78.5 31.5t92 13q105 0 187.5 -31.5t134 -86.5t78 -126.5t26.5 -154.5v-363 l152 -127v-131h-547v131l151 125v340q0 85 -60 128.5t-149 43.5q-45 0 -87 -10.5t-69 -25t-47.5 -29t-30.5 -25.5l-9 -10v-410l151 -127v-131h-547v131l152 127v338q0 85 -61.5 128.5t-151.5 43.5q-42 0 -82.5 -10t-68 -24.5t-49 -29t-32.5 -24.5l-10 -10v-412l154 -127 v-131h-549v131l152 127v504h-199z" />
<glyph unicode="n" horiz-adv-x="1415" d="M82 762v246h356l54 -166q5 7 14.5 19t41 43t65.5 54.5t87 42.5t107 19q85 0 154 -19.5t111 -50.5t73 -68.5t45.5 -75t22.5 -68.5t9 -50l1 -20v-410l151 -127v-131h-547v131l152 127v338q0 86 -62 132t-151 46q-47 0 -89 -10.5t-69 -26t-47 -31t-29 -26.5l-8 -10v-412 l154 -127v-131h-549v131l152 127v504h-199z" />
<glyph unicode="o" horiz-adv-x="1236" d="M41 498q0 111 50.5 210t132.5 166t185.5 106.5t208.5 39.5q104 0 208 -39.5t186 -107t133 -167t51 -210.5q0 -109 -50 -208t-131 -167t-185.5 -108t-211.5 -40t-210.5 39.5t-185 107.5t-131.5 167.5t-50 210.5zM291 496q0 -124 99.5 -200.5t227.5 -76.5q81 0 155 32.5 t123.5 97.5t49.5 147q0 84 -49 149t-123 97t-156 32q-83 0 -157 -33t-122 -97.5t-48 -147.5z" />
<glyph unicode="p" horiz-adv-x="1525" d="M20 762v246h453l59 -181q5 8 15 21t45.5 46t77 58.5t110 46.5t142.5 21q115 0 218.5 -39t179.5 -107t120.5 -166t44.5 -210q0 -149 -78 -270.5t-206.5 -188t-278.5 -66.5q-75 0 -141 18t-107 43.5t-71.5 51t-42.5 43.5l-13 18v-526l149 -131v-129h-532v129l151 129v1143 h-295zM557 494q0 -75 51 -140t125 -100t148 -35q154 0 254 73t100 202q0 126 -101.5 203t-252.5 77q-120 0 -222 -84.5t-102 -195.5z" />
<glyph unicode="q" horiz-adv-x="1361" d="M41 492q0 149 75 270.5t204 189.5t286 68q74 0 141.5 -20t110.5 -48t75 -56.5t46 -48.5l14 -20l115 181h102v-1389l152 -129v-129h-533v129l150 131v529q-4 -7 -13 -19t-41.5 -42.5t-71.5 -54t-106 -42.5t-143 -19q-146 0 -275.5 68t-208.5 188t-79 263zM291 494 q0 -115 95.5 -195t240.5 -80q131 0 235.5 80.5t104.5 194.5q0 118 -102 198t-240 80q-151 0 -242.5 -83.5t-91.5 -194.5z" />
<glyph unicode="r" horiz-adv-x="1073" d="M82 762v246h356l54 -166l77 176q16 -7 42 -17.5t91.5 -28.5t112.5 -18q57 0 121.5 17.5t100.5 34.5l36 18l-67 -238q-133 -61 -250 -61q-43 0 -88 13.5t-69 26.5l-24 13l-51 -108v-391l150 -148v-131h-547v131l154 143v488h-199z" />
<glyph unicode="s" horiz-adv-x="1009" d="M82 340q0 37 3.5 62.5t6.5 32.5l4 7l101 -39q0 -91 81.5 -146.5t204.5 -55.5q64 0 106 6.5t62 19.5t27.5 27t7.5 35q0 23 -13 39t-25 21l-13 5l-273 76q-131 36 -204.5 107t-73.5 168q0 145 103 230t251 85q65 0 127 -25.5t91 -50.5l30 -26l35 90h162v-416h-144 q0 83 -71 141t-172 58q-168 0 -168 -97q0 -24 14 -41.5t28 -22.5l13 -5l315 -84q120 -31 175 -99t55 -151q0 -140 -112.5 -229t-299.5 -89q-189 0 -311.5 104.5t-122.5 262.5z" />
<glyph unicode="t" horiz-adv-x="897" d="M41 758l100 250h72v370h229v-370h387l-100 -246h-287v-369q0 -105 39.5 -151.5t102.5 -46.5q143 0 143 176l102 32q27 -59 27 -114q0 -121 -89.5 -217.5t-217.5 -96.5q-90 0 -156.5 31t-105 87.5t-56.5 127t-18 156.5v381h-172z" />
<glyph unicode="u" horiz-adv-x="1417" d="M41 762v246h442v-586q0 -103 58.5 -153t148.5 -50q48 0 91 12.5t70.5 29.5t48 34.5t29.5 30.5l9 12v424h-197v246h441v-668q0 -143 55 -143q28 0 45 24t20 48l3 24l100 37q11 -42 11 -86q0 -42 -16 -84q-17 -44 -42.5 -79.5t-69.5 -58t-96 -22.5q-49 0 -90 16.5 t-64.5 40.5t-40 48t-22.5 41l-6 16q-5 -8 -14.5 -20.5t-41 -45t-66.5 -57.5t-89.5 -45.5t-110.5 -20.5q-187 0 -298 113.5t-111 284.5v391h-197z" />
<glyph unicode="v" horiz-adv-x="1282" d="M0 877v131h547v-131l-144 -119l244 -520l225 510l-139 129v131h549v-127l-129 -129l-387 -752h-213l-420 752z" />
<glyph unicode="w" horiz-adv-x="1798" d="M41 877v131h399v-256l271 -500l108 197l-170 303l-133 125v131h547v-131l-127 -125l217 -498l195 494l-140 129v131h549v-127l-129 -129l-399 -752h-152l-143 258l-115 -258h-213l-432 752z" />
<glyph unicode="x" horiz-adv-x="1288" d="M41 0v129l475 371l-475 377v131h547v-131l-86 -84l137 -172l149 170l-88 86v131h547v-127l-495 -373l495 -381v-127h-547v131l91 88l-158 166l-131 -170l86 -84v-131h-547z" />
<glyph unicode="y" horiz-adv-x="1425" d="M-41 -338q0 36 6.5 67.5t13.5 45.5l7 14l102 -33q2 -1 -0.5 -18t5 -44t19.5 -52t42.5 -43.5t74.5 -18.5q141 0 230 152l186 319l-471 699l-133 127v131h547v-131l-127 -125l315 -486l268 484l-139 127v131h520v-127l-133 -136l-651 -1126q-69 -117 -164.5 -187.5 t-208.5 -70.5q-89 0 -162 50t-110 118t-37 133z" />
<glyph unicode="z" horiz-adv-x="1124" d="M43 129l610 645h-321l-70 -106h-160v340h967v-125l-647 -650h412q67 0 99 39t34 93l102 32q20 -48 20 -96q1 -11 -1 -23q-6 -60 -40 -115t-82 -97.5t-109.5 -68.5t-121.5 -26q-69 0 -126 13.5t-89.5 30.5t-81.5 30.5t-104 13.5q-37 0 -81.5 -14.5t-70.5 -29.5l-26 -15z " />
<glyph unicode="|" horiz-adv-x="411" d="M143 0v1008h125v-1008h-125z" />
<glyph unicode="&#xa8;" horiz-adv-x="1705" />
<glyph unicode="&#xa9;" horiz-adv-x="1216" d="M82 1008q0 143 70.5 264t191.5 191.5t264 70.5t264.5 -70.5t192 -191.5t70.5 -264t-70.5 -264.5t-192 -192t-264.5 -70.5t-264 70.5t-191.5 192t-70.5 264.5zM207 1008q0 -166 116.5 -283t282.5 -117t283 117t117 283t-117 282.5t-283 116.5t-282.5 -116.5t-116.5 -282.5 zM352 999q0 151 74 236.5t184 85.5q29 0 58 -9.5t43 -19.5l14 -10l18 33h45v-182h-45q-1 3 -3.5 8t-13.5 17.5t-25 22t-40 17.5t-57 8q-66 0 -110.5 -55.5t-44.5 -151.5q0 -90 44 -147t117 -57q72 0 114 41t40 92l35 10q8 -19 8 -37q0 -23 -7 -50t-22.5 -56t-38 -52t-56 -38 t-73.5 -15q-110 0 -184 85.5t-74 223.5z" />
<glyph unicode="&#xad;" d="M66 303q0 389 301 389h98q215 0 215 109l102 33q0 -33 -2 -64t-10 -71.5t-20 -74t-34.5 -67.5t-52.5 -58t-74.5 -38.5t-99.5 -14.5h-106q-215 0 -215 -108z" />
<glyph unicode="&#xae;" horiz-adv-x="1216" d="M82 1008q0 143 70.5 264t191.5 191.5t264 70.5t264.5 -70.5t192 -191.5t70.5 -264t-70.5 -264.5t-192 -192t-264.5 -70.5t-264 70.5t-191.5 192t-70.5 264.5zM207 1008q0 -166 116.5 -283t282.5 -117t283 117t117 283t-117 282.5t-283 116.5t-282.5 -116.5t-116.5 -282.5 zM387 715v41l51 37v436l-51 35v41h223q98 0 149.5 -49t51.5 -117q0 -57 -38 -104.5t-95 -59.5l39 -129q9 -30 20.5 -41.5t32.5 -11.5q22 0 33 10.5t11 21.5l1 11l31 12q8 -14 8 -39q0 -46 -27.5 -77.5t-68.5 -31.5q-87 0 -117 103l-49 170h-62v-180l48 -37v-41h-191z M530 1071h82q65 0 86 16.5t21 51.5q0 34 -21 51.5t-86 17.5h-82v-137z" />
<glyph unicode="&#xb4;" horiz-adv-x="512" d="M82 1206v377h348v-45l-254 -332h-94z" />
<glyph unicode="&#xb7;" horiz-adv-x="552" d="M82 516v45l172 170h45l172 -170v-45l-172 -172h-45z" />
<glyph unicode="&#xb8;" horiz-adv-x="1705" d="M354 -336l84 49q0 -81 46 -128.5t132 -47.5q67 0 111.5 27.5t44.5 75.5q0 45 -40 73.5t-105 28.5h-109l127 274h107l-88 -184q37 10 86 10q69 0 119.5 -59.5t50.5 -144.5q0 -93 -44 -161.5t-110 -100t-141 -31.5q-84 0 -147.5 48t-93.5 119t-30 152z" />
<glyph unicode="&#xc0;" horiz-adv-x="1644" d="M20 0v133l154 115l547 1636h207l559 -1648l137 -103v-133h-537v133l130 96l-195 590h-422l-184 -579l141 -107v-133h-537zM537 2349v45h348v-377h-94zM678 1065h262l-133 405z" />
<glyph unicode="&#xc1;" horiz-adv-x="1644" d="M20 0v133l154 115l547 1636h207l559 -1648l137 -103v-133h-537v133l130 96l-195 590h-422l-184 -579l141 -107v-133h-537zM678 1065h262l-133 405zM739 2015v377h348v-45l-253 -332h-95z" />
<glyph unicode="&#xc7;" horiz-adv-x="1466" d="M41 920q0 188 40.5 347.5t112.5 274.5t170 196t214 120.5t243 39.5q91 0 176.5 -22.5t125.5 -45.5l40 -22l74 76h133v-493h-133q-6 10 -16.5 27t-49.5 60t-84 75.5t-118.5 59.5t-153.5 27q-104 0 -200.5 -47.5t-173.5 -135.5t-123 -227t-46 -308q0 -155 45 -286 t121.5 -218t176.5 -136t210 -49q94 0 182.5 36.5t151.5 94t100.5 131t36.5 144.5l103 33q26 -58 26 -115q0 -71 -21.5 -148t-69.5 -155.5t-116 -140.5t-171.5 -101t-225.5 -39q-160 0 -302.5 68t-248 189.5t-167.5 300.5t-62 389zM524 -256l84 49q0 -81 46 -128.5t132 -47.5 q67 0 111.5 27t44.5 75q0 45 -40 74t-105 29h-109l127 274h107l-88 -184q37 10 86 10q68 0 119 -60t51 -145q0 -93 -44.5 -161.5t-110 -99.5t-140.5 -31q-84 0 -147.5 48t-93.5 119t-30 152z" />
<glyph unicode="&#xc8;" horiz-adv-x="1277" d="M82 0v133l154 115v1386l-154 117v133h1014l59 -399h-133l-117 153h-440v-573h553l-109 -246h-444v-571h514l115 151h133l-60 -399h-1085zM391 2347v45h348v-377h-94z" />
<glyph unicode="&#xc9;" horiz-adv-x="1277" d="M82 0v133l154 115v1386l-154 117v133h1014l59 -399h-133l-117 153h-440v-573h553l-109 -246h-444v-571h514l115 151h133l-60 -399h-1085zM446 2015v377h349v-45l-254 -332h-95z" />
<glyph unicode="&#xca;" horiz-adv-x="1277" d="M82 0v133l154 115v1386l-154 117v133h1014l59 -399h-133l-117 153h-440v-573h553l-109 -246h-444v-571h514l115 151h133l-60 -399h-1085zM221 2017l266 377h164l267 -377h-95l-254 148l-254 -148h-94z" />
<glyph unicode="&#xce;" horiz-adv-x="700" d="M2 2015l266 377h164l266 -377h-94l-254 148l-254 -148h-94zM82 0v133l154 115v1388l-154 115v133h536v-133l-153 -115v-1388l153 -115v-133h-536z" />
<glyph unicode="&#xcf;" horiz-adv-x="700" d="M-102 2187v45l172 170h45l172 -170v-45l-172 -172h-45zM82 0v133l154 115v1388l-154 115v133h536v-133l-153 -115v-1388l153 -115v-133h-536zM414 2187v45l172 170h45l172 -170v-45l-172 -172h-45z" />
<glyph unicode="&#xd3;" horiz-adv-x="1632" d="M41 936q0 218 61 400.5t166 304.5t246.5 189.5t302.5 67.5q163 0 305 -67.5t246 -189.5t163.5 -304t59.5 -401q0 -218 -61 -401t-166 -305t-246 -189.5t-301 -67.5t-301.5 68t-247 190t-166.5 304.5t-61 400.5zM272 936q0 -166 47 -302.5t125 -222t173.5 -132 t197.5 -46.5q81 0 159.5 28.5t148 87.5t122.5 141.5t84 197.5t31 248t-31 248t-83.5 197.5t-122 141.5t-147.5 88t-159 29q-103 0 -199.5 -46t-174 -132t-124.5 -222.5t-47 -303.5zM653 2015v377h348v-45l-253 -332h-95z" />
<glyph unicode="&#xd4;" horiz-adv-x="1632" d="M41 936q0 218 61 400.5t166 304.5t246.5 189.5t302.5 67.5q163 0 305 -67.5t246 -189.5t163.5 -304t59.5 -401q0 -218 -61 -401t-166 -305t-246 -189.5t-301 -67.5t-301.5 68t-247 190t-166.5 304.5t-61 400.5zM272 936q0 -166 47 -302.5t125 -222t173.5 -132 t197.5 -46.5q81 0 159.5 28.5t148 87.5t122.5 141.5t84 197.5t31 248t-31 248t-83.5 197.5t-122 141.5t-147.5 88t-159 29q-103 0 -199.5 -46t-174 -132t-124.5 -222.5t-47 -303.5zM457 2013l266 377h164l266 -377h-94l-254 148l-254 -148h-94z" />
<glyph unicode="&#xd9;" horiz-adv-x="1665" d="M82 1751v133h539v-133l-154 -115v-1079q0 -158 87.5 -241t250.5 -83q92 0 172 37.5t132 114t52 176.5v1075l-153 115v133h538v-133l-153 -115v-1306q0 -133 53 -133q27 0 44 24t20 48l3 24l101 37q10 -29 10 -82q0 -104 -67.5 -176t-170.5 -72q-43 0 -80 15.5t-60 37.5 t-39.5 44t-23.5 37l-7 16q-45 -62 -155.5 -119.5t-227.5 -57.5t-214 35.5t-159 93t-105 132t-61 149.5t-18 149v1104zM512 2347v45h348v-377h-94z" />
<glyph unicode="&#xda;" horiz-adv-x="1665" d="M82 1751v133h539v-133l-154 -115v-1079q0 -158 87.5 -241t250.5 -83q92 0 172 37.5t132 114t52 176.5v1075l-153 115v133h538v-133l-153 -115v-1306q0 -133 53 -133q27 0 44 24t20 48l3 24l101 37q10 -29 10 -82q0 -104 -67.5 -176t-170.5 -72q-43 0 -80 15.5t-60 37.5 t-39.5 44t-23.5 37l-7 16q-45 -62 -155.5 -119.5t-227.5 -57.5t-214 35.5t-159 93t-105 132t-61 149.5t-18 149v1104zM723 2013v377h348v-45l-254 -332h-94z" />
<glyph unicode="&#xdb;" horiz-adv-x="1665" d="M82 1751v133h539v-133l-154 -115v-1079q0 -158 87.5 -241t250.5 -83q92 0 172 37.5t132 114t52 176.5v1075l-153 115v133h538v-133l-153 -115v-1306q0 -133 53 -133q27 0 44 24t20 48l3 24l101 37q10 -29 10 -82q0 -104 -67.5 -176t-170.5 -72q-43 0 -80 15.5t-60 37.5 t-39.5 44t-23.5 37l-7 16q-45 -62 -155.5 -119.5t-227.5 -57.5t-214 35.5t-159 93t-105 132t-61 149.5t-18 149v1104zM434 2015l266 377h164l266 -377h-94l-254 148l-254 -148h-94z" />
<glyph unicode="&#xe0;" horiz-adv-x="1226" d="M82 303q0 89 53.5 157t128.5 100t154 32h325v51q0 62 -70.5 103.5t-170.5 41.5q-61 0 -106.5 -13.5t-70 -33t-40 -46t-19.5 -47.5t-4 -42l-100 -39q-37 62 -37 150q0 68 54.5 138t153.5 118.5t212 48.5q111 0 198.5 -28.5t139.5 -76t79 -105t27 -120.5v-313 q0 -89 12 -135.5t43 -46.5q28 0 45 23.5t20 47.5l3 23l100 39q36 -134 -18 -232t-168 -98q-40 0 -77.5 17t-62.5 41.5t-44 49t-28 41.5l-9 17q-5 -8 -14 -21t-41 -45.5t-68 -58t-92.5 -46t-116.5 -20.5q-55 0 -108.5 11t-105 36t-90.5 61.5t-63 93.5t-24 126zM326 307 q0 -51 42 -78.5t113 -27.5q60 0 111 13t80.5 31.5t50.5 36.5t29 31l8 13v151l-293 -39q-72 -10 -106.5 -45.5t-34.5 -85.5zM338 1538v45h348v-377h-94z" />
<glyph unicode="&#xe1;" horiz-adv-x="1226" d="M82 303q0 89 53.5 157t128.5 100t154 32h325v51q0 62 -70.5 103.5t-170.5 41.5q-61 0 -106.5 -13.5t-70 -33t-40 -46t-19.5 -47.5t-4 -42l-100 -39q-37 62 -37 150q0 68 54.5 138t153.5 118.5t212 48.5q111 0 198.5 -28.5t139.5 -76t79 -105t27 -120.5v-313 q0 -89 12 -135.5t43 -46.5q28 0 45 23.5t20 47.5l3 23l100 39q36 -134 -18 -232t-168 -98q-40 0 -77.5 17t-62.5 41.5t-44 49t-28 41.5l-9 17q-5 -8 -14 -21t-41 -45.5t-68 -58t-92.5 -46t-116.5 -20.5q-55 0 -108.5 11t-105 36t-90.5 61.5t-63 93.5t-24 126zM326 307 q0 -51 42 -78.5t113 -27.5q60 0 111 13t80.5 31.5t50.5 36.5t29 31l8 13v151l-293 -39q-72 -10 -106.5 -45.5t-34.5 -85.5zM446 1206v377h349v-45l-254 -332h-95z" />
<glyph unicode="&#xe2;" horiz-adv-x="1226" d="M82 303q0 89 53.5 157t128.5 100t154 32h325v51q0 62 -70.5 103.5t-170.5 41.5q-61 0 -106.5 -13.5t-70 -33t-40 -46t-19.5 -47.5t-4 -42l-100 -39q-37 62 -37 150q0 68 54.5 138t153.5 118.5t212 48.5q111 0 198.5 -28.5t139.5 -76t79 -105t27 -120.5v-313 q0 -89 12 -135.5t43 -46.5q28 0 45 23.5t20 47.5l3 23l100 39q36 -134 -18 -232t-168 -98q-40 0 -77.5 17t-62.5 41.5t-44 49t-28 41.5l-9 17q-5 -8 -14 -21t-41 -45.5t-68 -58t-92.5 -46t-116.5 -20.5q-55 0 -108.5 11t-105 36t-90.5 61.5t-63 93.5t-24 126zM225 1206 l267 377h163l267 -377h-95l-254 148l-254 -148h-94zM326 307q0 -51 42 -78.5t113 -27.5q60 0 111 13t80.5 31.5t50.5 36.5t29 31l8 13v151l-293 -39q-72 -10 -106.5 -45.5t-34.5 -85.5z" />
<glyph unicode="&#xe4;" horiz-adv-x="1226" d="M82 303q0 89 53.5 157t128.5 100t154 32h325v51q0 62 -70.5 103.5t-170.5 41.5q-61 0 -106.5 -13.5t-70 -33t-40 -46t-19.5 -47.5t-4 -42l-100 -39q-37 62 -37 150q0 68 54.5 138t153.5 118.5t212 48.5q111 0 198.5 -28.5t139.5 -76t79 -105t27 -120.5v-313 q0 -89 12 -135.5t43 -46.5q28 0 45 23.5t20 47.5l3 23l100 39q36 -134 -18 -232t-168 -98q-40 0 -77.5 17t-62.5 41.5t-44 49t-28 41.5l-9 17q-5 -8 -14 -21t-41 -45.5t-68 -58t-92.5 -46t-116.5 -20.5q-55 0 -108.5 11t-105 36t-90.5 61.5t-63 93.5t-24 126zM143 1378v45 l172 170h45l172 -170v-45l-172 -172h-45zM326 307q0 -51 42 -78.5t113 -27.5q60 0 111 13t80.5 31.5t50.5 36.5t29 31l8 13v151l-293 -39q-72 -10 -106.5 -45.5t-34.5 -85.5zM659 1378v45l172 170h46l172 -170v-45l-172 -172h-46z" />
<glyph unicode="&#xe7;" horiz-adv-x="1202" d="M41 500q0 145 85 266t215.5 186.5t270.5 65.5q56 0 108.5 -13.5t86.5 -33t60.5 -39.5t38.5 -34l12 -13l43 123h159v-457h-168q0 31 -22.5 69.5t-62.5 74.5t-105.5 60.5t-140.5 24.5q-57 0 -113.5 -18.5t-104.5 -52.5t-78 -89t-30 -122q0 -119 101.5 -202t236.5 -83 q148 0 251 60.5t103 132.5l98 40q25 -34 25 -106q0 -60 -36.5 -124.5t-98 -118.5t-153 -89t-191.5 -35q-159 0 -293.5 65.5t-215.5 187.5t-81 274zM313 -256l84 49q0 -81 46 -128.5t132 -47.5q67 0 111.5 27t44.5 75q0 45 -40 74t-105 29h-109l127 274h107l-88 -184 q37 10 86 10q68 0 119 -60t51 -145q0 -93 -44.5 -161.5t-110 -99.5t-140.5 -31q-84 0 -147.5 48t-93.5 119t-30 152z" />
<glyph unicode="&#xe8;" horiz-adv-x="1150" d="M41 494q0 143 81.5 265t214.5 191.5t281 69.5q103 0 195.5 -38t154 -97t98 -130t36.5 -139q-1 -43 -6.5 -73.5t-11.5 -39.5l-5 -9h-784q0 -106 98 -193.5t242 -87.5q154 0 253 62t99 131l98 40q25 -43 25 -100q0 -63 -36 -128.5t-98.5 -120t-156 -89.5t-198.5 -35 q-159 0 -292.5 70t-210.5 190t-77 261zM330 616h528q-1 7 -4 17.5t-19 38.5t-39.5 49.5t-70.5 39t-107 17.5q-61 0 -113.5 -16.5t-83 -40.5t-52.5 -48t-31 -41zM338 1536v45h348v-377h-94z" />
<glyph unicode="&#xe9;" horiz-adv-x="1150" d="M41 494q0 143 81.5 265t214.5 191.5t281 69.5q103 0 195.5 -38t154 -97t98 -130t36.5 -139q-1 -43 -6.5 -73.5t-11.5 -39.5l-5 -9h-784q0 -106 98 -193.5t242 -87.5q154 0 253 62t99 131l98 40q25 -43 25 -100q0 -63 -36 -128.5t-98.5 -120t-156 -89.5t-198.5 -35 q-159 0 -292.5 70t-210.5 190t-77 261zM330 616h528q-1 7 -4 17.5t-19 38.5t-39.5 49.5t-70.5 39t-107 17.5q-61 0 -113.5 -16.5t-83 -40.5t-52.5 -48t-31 -41zM467 1204v377h348v-45l-254 -332h-94z" />
<glyph unicode="&#xea;" horiz-adv-x="1150" d="M41 494q0 143 81.5 265t214.5 191.5t281 69.5q103 0 195.5 -38t154 -97t98 -130t36.5 -139q-1 -43 -6.5 -73.5t-11.5 -39.5l-5 -9h-784q0 -106 98 -193.5t242 -87.5q154 0 253 62t99 131l98 40q25 -43 25 -100q0 -63 -36 -128.5t-98.5 -120t-156 -89.5t-198.5 -35 q-159 0 -292.5 70t-210.5 190t-77 261zM221 1206l266 377h164l267 -377h-95l-254 148l-254 -148h-94zM330 616h528q-1 7 -4 17.5t-19 38.5t-39.5 49.5t-70.5 39t-107 17.5q-61 0 -113.5 -16.5t-83 -40.5t-52.5 -48t-31 -41z" />
<glyph unicode="&#xeb;" horiz-adv-x="1150" d="M41 494q0 143 81.5 265t214.5 191.5t281 69.5q103 0 195.5 -38t154 -97t98 -130t36.5 -139q-1 -43 -6.5 -73.5t-11.5 -39.5l-5 -9h-784q0 -106 98 -193.5t242 -87.5q154 0 253 62t99 131l98 40q25 -43 25 -100q0 -63 -36 -128.5t-98.5 -120t-156 -89.5t-198.5 -35 q-159 0 -292.5 70t-210.5 190t-77 261zM143 1378v45l172 170h45l172 -170v-45l-172 -172h-45zM330 616h528q-1 7 -4 17.5t-19 38.5t-39.5 49.5t-70.5 39t-107 17.5q-61 0 -113.5 -16.5t-83 -40.5t-52.5 -48t-31 -41zM659 1378v45l172 170h46l172 -170v-45l-172 -172h-46z " />
<glyph unicode="&#xee;" horiz-adv-x="716" d="M-25 1206l267 377h164l266 -377h-94l-254 148l-254 -148h-95zM82 762h199v-504l-152 -127v-131h547v131l-152 127v750h-442v-246z" />
<glyph unicode="&#xef;" horiz-adv-x="1028" d="M63 1378v45l173 170h45l172 -170v-45l-172 -172h-45zM279 762v246h442v-750l151 -127v-131h-546v131l151 127v504h-198zM580 1378v45l172 170h45l172 -170v-45l-172 -172h-45z" />
<glyph unicode="&#xf3;" horiz-adv-x="1236" d="M41 498q0 111 50.5 210t132.5 166t185.5 106.5t208.5 39.5q104 0 208 -39.5t186 -107t133 -167t51 -210.5q0 -109 -50 -208t-131 -167t-185.5 -108t-211.5 -40t-210.5 39.5t-185 107.5t-131.5 167.5t-50 210.5zM291 496q0 -124 99.5 -200.5t227.5 -76.5q81 0 155 32.5 t123.5 97.5t49.5 147q0 84 -49 149t-123 97t-156 32q-83 0 -157 -33t-122 -97.5t-48 -147.5zM504 1206v377h348v-45l-254 -332h-94z" />
<glyph unicode="&#xf4;" horiz-adv-x="1236" d="M41 498q0 111 50.5 210t132.5 166t185.5 106.5t208.5 39.5q104 0 208 -39.5t186 -107t133 -167t51 -210.5q0 -109 -50 -208t-131 -167t-185.5 -108t-211.5 -40t-210.5 39.5t-185 107.5t-131.5 167.5t-50 210.5zM258 1206l266 377h164l266 -377h-94l-254 148l-254 -148 h-94zM291 496q0 -124 99.5 -200.5t227.5 -76.5q81 0 155 32.5t123.5 97.5t49.5 147q0 84 -49 149t-123 97t-156 32q-83 0 -157 -33t-122 -97.5t-48 -147.5z" />
<glyph unicode="&#xf6;" horiz-adv-x="1236" d="M41 498q0 111 50.5 210t132.5 166t185.5 106.5t208.5 39.5q104 0 208 -39.5t186 -107t133 -167t51 -210.5q0 -109 -50 -208t-131 -167t-185.5 -108t-211.5 -40t-210.5 39.5t-185 107.5t-131.5 167.5t-50 210.5zM164 1378v45l172 170h45l172 -170v-45l-172 -172h-45z M291 496q0 -124 99.5 -200.5t227.5 -76.5q81 0 155 32.5t123.5 97.5t49.5 147q0 84 -49 149t-123 97t-156 32q-83 0 -157 -33t-122 -97.5t-48 -147.5zM680 1378v45l172 170h45l172 -170v-45l-172 -172h-45z" />
<glyph unicode="&#xf9;" horiz-adv-x="1417" d="M41 762v246h442v-586q0 -103 58.5 -153t148.5 -50q48 0 91 12.5t70.5 29.5t48 34.5t29.5 30.5l9 12v424h-197v246h441v-668q0 -143 55 -143q28 0 45 24t20 48l3 24l100 37q10 -38 11 -81.5t-16 -88t-42.5 -80t-69.5 -58t-96 -22.5q-49 0 -90 16.5t-64.5 40.5t-40 48 t-22.5 41l-6 16q-5 -8 -14.5 -20.5t-41 -45t-66.5 -57.5t-89.5 -45.5t-110.5 -20.5q-187 0 -298 113.5t-111 284.5v391h-197zM428 1538v45h348v-377h-94z" />
<glyph unicode="&#xfa;" horiz-adv-x="1417" d="M41 762v246h442v-586q0 -103 58.5 -153t148.5 -50q48 0 91 12.5t70.5 29.5t48 34.5t29.5 30.5l9 12v424h-197v246h441v-668q0 -143 55 -143q28 0 45 24t20 48l3 24l100 37q10 -38 11 -81.5t-16 -88t-42.5 -80t-69.5 -58t-96 -22.5q-49 0 -90 16.5t-64.5 40.5t-40 48 t-22.5 41l-6 16q-5 -8 -14.5 -20.5t-41 -45t-66.5 -57.5t-89.5 -45.5t-110.5 -20.5q-187 0 -298 113.5t-111 284.5v391h-197zM575 1206v377h349v-45l-254 -332h-95z" />
<glyph unicode="&#xfb;" horiz-adv-x="1417" d="M41 762v246h442v-586q0 -103 58.5 -153t148.5 -50q48 0 91 12.5t70.5 29.5t48 34.5t29.5 30.5l9 12v424h-197v246h441v-668q0 -143 55 -143q28 0 45 24t20 48l3 24l100 37q10 -38 11 -81.5t-16 -88t-42.5 -80t-69.5 -58t-96 -22.5q-49 0 -90 16.5t-64.5 40.5t-40 48 t-22.5 41l-6 16q-5 -8 -14.5 -20.5t-41 -45t-66.5 -57.5t-89.5 -45.5t-110.5 -20.5q-187 0 -298 113.5t-111 284.5v391h-197zM322 1206l266 377h164l266 -377h-94l-254 148l-254 -148h-94z" />
<glyph unicode="&#x2c6;" horiz-adv-x="860" d="M82 1206l266 377h164l266 -377h-94l-254 148l-254 -148h-94z" />
<glyph unicode="&#x2000;" horiz-adv-x="1201" />
<glyph unicode="&#x2001;" horiz-adv-x="2402" />
<glyph unicode="&#x2002;" horiz-adv-x="1201" />
<glyph unicode="&#x2003;" horiz-adv-x="2402" />
<glyph unicode="&#x2004;" horiz-adv-x="800" />
<glyph unicode="&#x2005;" horiz-adv-x="600" />
<glyph unicode="&#x2006;" horiz-adv-x="400" />
<glyph unicode="&#x2007;" horiz-adv-x="400" />
<glyph unicode="&#x2008;" horiz-adv-x="300" />
<glyph unicode="&#x2009;" horiz-adv-x="480" />
<glyph unicode="&#x200a;" horiz-adv-x="133" />
<glyph unicode="&#x2010;" d="M66 303q0 389 301 389h98q215 0 215 109l102 33q0 -33 -2 -64t-10 -71.5t-20 -74t-34.5 -67.5t-52.5 -58t-74.5 -38.5t-99.5 -14.5h-106q-215 0 -215 -108z" />
<glyph unicode="&#x2011;" d="M66 303q0 389 301 389h98q215 0 215 109l102 33q0 -33 -2 -64t-10 -71.5t-20 -74t-34.5 -67.5t-52.5 -58t-74.5 -38.5t-99.5 -14.5h-106q-215 0 -215 -108z" />
<glyph unicode="&#x2012;" d="M66 303q0 389 301 389h98q215 0 215 109l102 33q0 -33 -2 -64t-10 -71.5t-20 -74t-34.5 -67.5t-52.5 -58t-74.5 -38.5t-99.5 -14.5h-106q-215 0 -215 -108z" />
<glyph unicode="&#x2013;" horiz-adv-x="1172" d="M66 303q0 389 430 389h141q307 0 307 109l146 33q0 -33 -3 -64t-14.5 -71.5t-28.5 -74t-49 -67.5t-75 -58t-106.5 -38.5t-142.5 -14.5h-152q-307 0 -307 -108z" />
<glyph unicode="&#x2014;" horiz-adv-x="1771" d="M66 303q0 389 301 389h970q215 0 215 109l103 33q0 -33 -2 -64t-10 -71.5t-20 -74t-34.5 -67.5t-52.5 -58t-74.5 -38.5t-99.5 -14.5h-979q-215 0 -215 -108z" />
<glyph unicode="&#x2018;" horiz-adv-x="589" d="M82 1419v45q105 211 256 346q25 23 54.5 41.5t45.5 25.5l17 7l53 -94q-37 -24 -66 -56t-48.5 -74t-11 -93t47.5 -103v-45l-151 -149h-46z" />
<glyph unicode="&#x2019;" horiz-adv-x="589" d="M82 1364q37 24 66 56t48.5 74t11 93t-47.5 103v45l151 149h45l152 -149v-45q-106 -213 -256 -347q-25 -23 -54.5 -41t-45.5 -25l-17 -7z" />
<glyph unicode="&#x201c;" horiz-adv-x="999" d="M82 1419v45q105 211 256 346q25 23 54.5 41.5t45.5 25.5l17 7l53 -94q-37 -24 -66 -56t-48.5 -74t-11 -93t47.5 -103v-45l-151 -149h-46zM492 1419v45q105 211 256 346q25 23 54 41.5t46 25.5l16 7l54 -94q-37 -24 -66 -56t-48.5 -74t-11 -93t47.5 -103v-45l-152 -149 h-45z" />
<glyph unicode="&#x201d;" horiz-adv-x="999" d="M82 1364q37 24 66 56t48.5 74t11 93t-47.5 103v45l151 149h45l152 -149v-45q-106 -213 -256 -347q-25 -23 -54.5 -41t-45.5 -25l-17 -7zM492 1364q37 24 65.5 56t48 74t11 93t-47.5 103v45l152 149h45l152 -149v-45q-106 -213 -256 -347q-25 -23 -54.5 -41t-45.5 -25 l-17 -7z" />
<glyph unicode="&#x202f;" horiz-adv-x="480" />
<glyph unicode="&#x205f;" horiz-adv-x="600" />
<glyph unicode="&#x20ac;" horiz-adv-x="1712" d="M61 688v125h1008v-125h-1008zM61 1020v125h1008v-125h-1008zM287 920q0 188 40.5 347.5t112.5 274.5t170 196t214 120.5t243 39.5q91 0 176.5 -22.5t125.5 -45.5l40 -22l74 76h133v-493h-133q-6 10 -16.5 27t-49.5 60t-84 75.5t-118.5 59.5t-153.5 27 q-104 0 -200.5 -47.5t-173.5 -135.5t-123 -227t-46 -308q0 -155 45 -286t121.5 -218t176.5 -136t210 -49q94 0 182.5 36.5t151.5 94t100.5 131t36.5 144.5l103 33q26 -58 26 -115q0 -71 -21.5 -148t-69.5 -155.5t-116 -140.5t-171.5 -101t-225.5 -39q-160 0 -302.5 68 t-248 189.5t-167.5 300.5t-62 389z" />
<glyph unicode="&#x25fc;" horiz-adv-x="1003" d="M0 0v1004h1004v-1004h-1004z" />
</font>
</defs>
</svg>
