<?xml version="1.0" encoding="utf-8"?>
<!-- Generator: Adobe Illustrator 20.1.0, SVG Export Plug-In . SVG Version: 6.00 Build 0)  -->
<svg version="1.1" xmlns="http://www.w3.org/2000/svg" xmlns:xlink="http://www.w3.org/1999/xlink" x="0px" y="0px"
	 viewBox="0 0 168 168" style="enable-background:new 0 0 168 168;" xml:space="preserve">
<g id="archive">
</g>
<g id="fond_1_">
</g>
<g id="contenu">
	<g>
	</g>
	<g>
		<path style="fill:#EBEBEB;" d="M84,168c46.4,0,84-37.6,84-84c0-46.4-37.6-84-84-84C37.6,0,0,37.6,0,84C0,130.4,37.6,168,84,168z"
			/>
		<g>
			<path style="fill:#353535;" d="M87.5,49.5L73.4,64.8c-2.4,2.6-4.4,4.7-6.1,6.1c-1.7,1.5-3.8,2.9-6.3,4.4h70.7v15.9H61
				c2.2,1.3,4.2,2.7,6.1,4.4c1.9,1.6,4,3.7,6.4,6.1L87.5,117l-13,11.1L34.2,83.2l40.3-44.8L87.5,49.5z"/>
		</g>
	</g>
</g>
<g id="Calque_3">
</g>
<g id="Calque_5">
</g>
</svg>
