<?xml version="1.0" encoding="utf-8"?>
<!-- Generator: Adobe Illustrator 20.1.0, SVG Export Plug-In . SVG Version: 6.00 Build 0)  -->
<svg version="1.1" xmlns="http://www.w3.org/2000/svg" xmlns:xlink="http://www.w3.org/1999/xlink" x="0px" y="0px"
	 viewBox="0 0 168 168" style="enable-background:new 0 0 168 168;" xml:space="preserve">
<g id="archive">
</g>
<g id="fond_1_">
</g>
<g id="contenu">
	<g>
		<path style="fill:#1D327F;" d="M84,168c46.4,0,84-37.6,84-84c0-46.4-37.6-84-84-84C37.6,0,0,37.6,0,84C0,130.4,37.6,168,84,168z"
			/>
		<g>
			<rect x="42" y="42" style="fill:#FF3E51;" width="21.6" height="21"/>
			<rect x="73.2" y="42" style="fill:#FF3E51;" width="21.6" height="21"/>
			<rect x="104.4" y="42" style="fill:#FF3E51;" width="21.6" height="21"/>
			<rect x="42" y="73.5" style="fill:#FF3E51;" width="21.6" height="21"/>
			<rect x="73.2" y="73.5" style="fill:#FF3E51;" width="21.6" height="21"/>
			<rect x="104.4" y="73.5" style="fill:#FF3E51;" width="21.6" height="21"/>
			<rect x="42" y="105" style="fill:#FF3E51;" width="21.6" height="21"/>
			<rect x="73.2" y="105" style="fill:#FF3E51;" width="21.6" height="21"/>
			<rect x="104.4" y="105" style="fill:#FF3E51;" width="21.6" height="21"/>
		</g>
	</g>
</g>
<g id="Calque_3">
</g>
<g id="Calque_5">
</g>
</svg>
