<?xml version="1.0" encoding="utf-8"?>
<!-- Generator: Adobe Illustrator 20.1.0, SVG Export Plug-In . SVG Version: 6.00 Build 0)  -->
<svg version="1.1" xmlns="http://www.w3.org/2000/svg" xmlns:xlink="http://www.w3.org/1999/xlink" x="0px" y="0px"
	 viewBox="0 0 168 168" style="enable-background:new 0 0 168 168;" xml:space="preserve">
<g id="archive">
</g>
<g id="fond_1_">
</g>
<g id="contenu">
	<g>
		<circle style="fill:#FF3E51;" cx="84" cy="84" r="84"/>
		<path style="fill:#1D327F;" d="M122.7,88.8v-10c0-1.1,0.6-2.1,1.6-2.6l9.6-4.9l-2-5.8l-11,1.6c-1.1,0.2-2.2-0.3-2.9-1.2l-6-8.1
			c-0.7-0.9-0.8-2.1-0.3-3l4.8-9.6l-5.2-3.6l-7.7,7.5c-0.8,0.8-2,1-3.1,0.7l-9.9-3c-1.1-0.3-1.9-1.3-2.1-2.4L86.8,34h-6.4l-1.7,10.4
			c-0.2,1.1-0.9,2-2,2.4L66.8,50c-1.1,0.3-2.2,0.1-3.1-0.7L55.9,42l-5.1,3.7l4.9,9.4c0.5,1,0.4,2.1-0.2,3l-6,8.2
			c-0.6,0.9-1.8,1.4-2.9,1.2L35.8,66L34,71.8l9.7,4.8c1,0.5,1.7,1.5,1.7,2.6v10c0,1.1-0.6,2.1-1.6,2.6l-9.6,4.9l2,5.9l10.9-1.6
			c1.1-0.2,2.2,0.3,2.9,1.2l6,8.1c0.7,0.9,0.8,2.1,0.3,3l-4.8,9.6l5.1,3.6l7.7-7.5c0.8-0.8,2-1,3.1-0.7l9.9,3
			c1.1,0.3,1.9,1.3,2.1,2.4l1.9,10.4h6.4l1.7-10.4c0.2-1.1,0.9-2,2-2.4l9.9-3.2c1.1-0.3,2.2-0.1,3.1,0.7l7.8,7.3l5.1-3.7l-4.9-9.4
			c-0.5-1-0.4-2.1,0.2-3l6-8.1c0.7-0.9,1.8-1.4,2.9-1.2l10.8,1.5l1.8-5.9l-9.7-4.8C123.3,90.9,122.7,89.9,122.7,88.8z M84,104.5
			c-11.7,0-21.1-9.2-21.1-20.5c0-11.3,9.5-20.5,21.1-20.5s21.1,9.2,21.1,20.5C105.1,95.3,95.7,104.5,84,104.5z"/>
	</g>
</g>
<g id="Calque_3">
</g>
<g id="Calque_5">
</g>
</svg>
