<?xml version="1.0" encoding="utf-8"?>
<!-- Generator: Adobe Illustrator 20.1.0, SVG Export Plug-In . SVG Version: 6.00 Build 0)  -->
<svg version="1.1" xmlns="http://www.w3.org/2000/svg" xmlns:xlink="http://www.w3.org/1999/xlink" x="0px" y="0px"
	 viewBox="0 0 168 168" style="enable-background:new 0 0 168 168;" xml:space="preserve">
<g id="archive">
</g>
<g id="fond_1_">
</g>
<g id="contenu">
	<g>
		<rect style="fill:#FFBE32;" width="168" height="168"/>
		<g>
			<polygon style="fill:#1D327F;" points="43,62 23,62 23,62 23,106 23,106 43,106 77,134 77,34 			"/>
		</g>
		<path style="fill:none;stroke:#FF3E51;stroke-width:6;stroke-miterlimit:10;" d="M94,107.8c3.1-1.3,5.9-3.2,8.2-5.5
			c2.3-2.3,4.2-5.1,5.5-8.2c1.3-3.1,2-6.5,2-10s-0.7-7-2-10c-1.3-3.1-3.2-5.9-5.5-8.2c-2.3-2.3-5.1-4.2-8.2-5.5"/>
		<path style="fill:none;stroke:#FF3E51;stroke-width:6;stroke-miterlimit:10;" d="M99.6,120.9c4.8-2,9.1-5,12.7-8.6
			c3.6-3.6,6.5-7.9,8.6-12.7c2-4.8,3.1-10,3.1-15.6s-1.1-10.8-3.1-15.6c-2-4.8-5-9.1-8.6-12.7c-3.6-3.6-7.9-6.5-12.7-8.6"/>
		<path style="fill:none;stroke:#FF3E51;stroke-width:6;stroke-miterlimit:10;" d="M105.4,134.7c6.6-2.8,12.5-6.8,17.5-11.8
			c5-5,9-10.9,11.8-17.5c2.8-6.6,4.3-13.8,4.3-21.4c0-7.6-1.5-14.8-4.3-21.4s-6.8-12.5-11.8-17.5c-5-5-10.9-9-17.5-11.8"/>
	</g>
</g>
<g id="Calque_3">
</g>
<g id="Calque_5">
</g>
</svg>
