<?xml version="1.0" encoding="utf-8"?>
<!-- Generator: Adobe Illustrator 20.1.0, SVG Export Plug-In . SVG Version: 6.00 Build 0)  -->
<svg version="1.1" xmlns="http://www.w3.org/2000/svg" xmlns:xlink="http://www.w3.org/1999/xlink" x="0px" y="0px"
	 viewBox="0 0 168 168" style="enable-background:new 0 0 168 168;" xml:space="preserve">
<g id="archive">
</g>
<g id="fond_1_">
</g>
<g id="contenu">
	<g>
		<polygon style="fill:#FFBE32;" points="49.7,0 0,49.7 0,168 168,168 168,0 		"/>
		<polygon style="fill:#FF3E51;" points="50,50 -0.2,50 50,0.2 		"/>
	</g>
	<polygon style="fill:#FF3E51;" points="139,92 104,125.5 62,73.5 32,130.3 14,80.7 14,154 154,154 154,115.5 	"/>
	<g>
		<polyline style="fill:#FF3E51;" points="130.8,41.2 127.7,36 136.2,34.6 130.8,41.2 		"/>
	</g>
	<g>
		<polyline style="fill:#FF3E51;" points="125,33.2 119.8,30.3 126.4,24.8 125,33.2 		"/>
	</g>
	<g>
		<polyline style="fill:#FF3E51;" points="116,29.2 110,29.2 113,21.2 116,29.2 		"/>
	</g>
	<g>
		<polyline style="fill:#FF3E51;" points="106.2,30.2 101,33.3 99.6,24.8 106.2,30.2 		"/>
	</g>
	<g>
		<polyline style="fill:#FF3E51;" points="98.2,36 95.3,41.2 89.8,34.6 98.2,36 		"/>
	</g>
	<g>
		<polyline style="fill:#FF3E51;" points="94.2,45 94.3,51 86.2,48 94.2,45 		"/>
	</g>
	<g>
		<polyline style="fill:#FF3E51;" points="95.2,54.8 98.3,60 89.8,61.4 95.2,54.8 		"/>
	</g>
	<g>
		<polyline style="fill:#FF3E51;" points="101,62.8 106.2,65.7 99.6,71.2 101,62.8 		"/>
	</g>
	<g>
		<polyline style="fill:#FF3E51;" points="110,66.8 116,66.7 113,74.8 110,66.8 		"/>
	</g>
	<g>
		<polyline style="fill:#FF3E51;" points="119.8,65.8 125,62.7 126.4,71.2 119.8,65.8 		"/>
	</g>
	<g>
		<polyline style="fill:#FF3E51;" points="127.8,60 130.7,54.8 136.2,61.4 127.8,60 		"/>
	</g>
	<g>
		<polyline style="fill:#FF3E51;" points="131.8,51 131.7,45 139.8,48 131.8,51 		"/>
	</g>
	<circle style="fill:#FF3E51;" cx="113" cy="48" r="15.2"/>
</g>
<g id="Calque_3">
</g>
<g id="Calque_5">
</g>
</svg>
