<svg enable-background="new 0 0 168 168" viewBox="0 0 168 168" xmlns="http://www.w3.org/2000/svg"><path d="m84 168c46.3 0 84-37.6 84-83.9 0-46.2-37.4-84.1-84-84.1s-84 37.6-84 83.9c0 46.2 37.7 84.1 84 84.1z" fill="#ffbe32"/><path d="m107.7 103.8c-2.7-4.3-6.2-7.3-11-8.9 0 0-3.8-1.9-13.5-1.9s-13.5 1.9-13.5 1.9c-4.8 1.6-8.3 4.6-11 8.9-1.1 1.6-1.6 5.1-1.9 7v1.6 3.2-2.2c0 3.5 2.4 6.5 5.4 6.5h41.7c3 0 5.4-3 5.4-6.5v2.2-3.2c0-.5 0-1.1 0-1.6.3-1.7-.3-5.2-1.6-7m-39-34.7c0 8.1 5.1 20.2 14.8 20.2 9.4 0 14.8-12.1 14.8-20.2s-6.5-14.8-14.8-14.8-14.8 6.4-14.8 14.8" fill="#1d327f"/><path d="m67 91.4c-2.4-3-5.1-5.1-8.9-6.2 0 0-3.5-1.9-12.4-1.9s-12.4 1.9-12.4 1.9c-4.6 1.6-7.8 4-10.5 8.3-1.1 1.6-1.6 4.8-1.6 6.5v1.6.5c0 3.2 2.2 5.9 5.1 5.9h25c.3-2.2 1.1-4.3 1.9-5.6 3.6-5.4 7.9-9.1 13.8-11z" fill="#293275"/><path d="m45.8 79.6c8.9 0 13.7-11.3 13.7-18.8s-6.2-13.7-13.7-13.7c-7.6-.1-13.8 6.1-13.8 13.6-.2 7.6 4.6 18.9 13.8 18.9z" fill="#1d327f"/><path d="m99.6 91.4c2.4-3 5.1-5.1 8.9-6.2 0 0 3.5-1.9 12.4-1.9s12.4 1.9 12.4 1.9c4.6 1.6 7.8 4 10.5 8.3 1.1 1.6 1.6 4.8 1.6 6.5v1.6.5c0 3.2-2.2 5.9-5.1 5.9h-25c-.3-2.2-1.1-4.3-1.9-5.6-3.6-5.4-7.9-9.1-13.8-11z" fill="#293275"/><path d="m121.2 79.6c-8.9 0-13.7-11.3-13.7-18.8s6.2-13.7 13.7-13.7 13.7 6.2 13.7 13.7-4.9 18.8-13.7 18.8z" fill="#1d327f"/></svg>