<!-- Generator: Adobe Illustrator 25.0.0, SVG Export Plug-In  -->
<svg version="1.1" xmlns="http://www.w3.org/2000/svg" xmlns:xlink="http://www.w3.org/1999/xlink" x="0px" y="0px" width="168px"
	 height="168px" viewBox="0 0 168 168" style="overflow:visible;enable-background:new 0 0 168 168;" xml:space="preserve">
<style type="text/css">
	.st0{fill:#FFC832;}
	.st1{fill:none;stroke:#FC4B60;stroke-width:5.6693;stroke-miterlimit:10;}
</style>
<defs>
</defs>
<g>
	<rect class="st0" width="168" height="168"/>
</g>
<g>
	<polygon class="st1" points="71.4,154 154,71.4 154,54.4 54.4,154 	"/>
	<polygon class="st1" points="88.3,154 154,88.3 154,71.4 71.4,154 	"/>
	<polygon class="st1" points="54.4,154 154,54.4 154,37.5 37.5,154 	"/>
	<polygon class="st1" points="105.2,154 154,105.2 154,88.3 88.3,154 	"/>
	<polygon class="st1" points="122.2,154 154,122.2 154,105.2 105.2,154 	"/>
	<polygon class="st1" points="154,154 154,139.1 139.1,154 	"/>
	<polygon class="st1" points="139.1,154 154,139.1 154,122.2 122.2,154 	"/>
	<polygon class="st1" points="14,42 14,58.9 58.9,14 42,14 	"/>
	<polygon class="st1" points="37.5,154 154,37.5 154,20.5 20.5,154 	"/>
	<polygon class="st1" points="14,92.8 92.8,14 75.9,14 14,75.9 	"/>
	<polygon class="st1" points="14,75.9 75.9,14 58.9,14 14,58.9 	"/>
	<polygon class="st1" points="14,14 14,25 25,14 	"/>
	<polygon class="st1" points="25,14 14,25 14,42 42,14 	"/>
	<polygon class="st1" points="14,154 20.5,154 154,20.5 154,14 143.6,14 14,143.6 	"/>
	<polygon class="st1" points="14,143.6 143.6,14 126.7,14 14,126.7 	"/>
	<polygon class="st1" points="14,109.7 109.7,14 92.8,14 14,92.8 	"/>
	<polygon class="st1" points="14,126.7 126.7,14 109.7,14 14,109.7 	"/>
</g>
</svg>
