<svg enable-background="new 0 0 90 90" viewBox="0 0 99.5 126.1" xmlns="http://www.w3.org/2000/svg"><path d="m81.1 8.8a4.13 4.13 0 0 1 2.7-1.9 4.4317 4.4317 0 0 1 3.5.7 4.9038 4.9038 0 0 1 2 3 4.0523 4.0523 0 0 1 -.7 3.2l-10.7 14.7h-8.9zm-24.5 1.2a5.9107 5.9107 0 0 1 5.9 5.9 5.9 5.9 0 1 1 -11.8 0 5.9107 5.9107 0 0 1 5.9-5.9zm-21.4-10a8.5 8.5 0 1 1 -8.5 8.5 8.4929 8.4929 0 0 1 8.5-8.5zm-23.9 31.7h77v8.8h-77.1v-8.8zm3.8 16.7h69.3c9.7 8.6 15.1 20.2 15.1 32.6a42.6086 42.6086 0 0 1 -9.4 26.5l-4.7-5.4-4.4-5-4.4 5-6.4 7.2-6.4-7.2-4.4-5-4.4 5-6.4 7.2-6.4-7.2-4.4-5-4.4 5-6.4 7.2-6.4-7.2-4.4-5-4.4 5-3.6 4.1a43.9014 43.9014 0 0 1 -8.2-25.3c0-12.4 5.4-23.9 15.1-32.5zm-14.1 69.2h5.1l10.3-11.6 10.8 12.2 10.8-12.2 10.8 12.2 10.8-12.2 10.8 12.2 10.6-12.3 10.3 11.6h5.1v8.6h-95.4z" fill="#1b2f81"/></svg>