<svg xmlns="http://www.w3.org/2000/svg" viewBox="0 0 99.5 126.1"
            style="enable-background: new 0 0 90 90"
>
  <g id="Calque_2" data-name="Calque 2">
    <g id="contenu">
      <path d="M81.1,8.8a4.13,4.13,0,0,1,2.7-1.9,4.4317,4.4317,0,0,1,3.5.7,4.9038,4.9038,0,0,1,2,3,4.0523,4.0523,0,0,1-.7,3.2L77.9,28.5H69ZM56.6,10a5.9107,5.9107,0,0,1,5.9,5.9,5.9,5.9,0,1,1-11.8,0A5.9107,5.9107,0,0,1,56.6,10ZM35.2,0a8.5,8.5,0,1,1-8.5,8.5A8.4929,8.4929,0,0,1,35.2,0ZM11.3,31.7h77v8.8H11.2V31.7Zm3.8,16.7H84.4C94.1,57,99.5,68.6,99.5,81a42.6086,42.6086,0,0,1-9.4,26.5l-4.7-5.4-4.4-5-4.4,5-6.4,7.2-6.4-7.2-4.4-5-4.4,5-6.4,7.2-6.4-7.2-4.4-5-4.4,5L27,109.3l-6.4-7.2-4.4-5-4.4,5-3.6,4.1A43.9014,43.9014,0,0,1,0,80.9C0,68.5,5.4,57,15.1,48.4ZM1,117.6H6.1L16.4,106l10.8,12.2L38,106l10.8,12.2L59.6,106l10.8,12.2L81,105.9l10.3,11.6h5.1v8.6H1Z" style="fill: #1b2f81"/>
    </g>
  </g>
</svg>
