<svg width="62" height="85" viewBox="0 0 62 85" fill="none" xmlns="http://www.w3.org/2000/svg">
<path d="M1.50751 84.0593V2.30664H60.7785V84.0593H1.50751Z" fill="white"/>
<path d="M1.02316 0.837891C1.02402 1.07546 1.02538 1.42367 1.0271 1.88246C1.02882 2.34082 1.03043 2.76965 1.03215 3.16905C1.03344 3.56845 1.0352 4.01434 1.03735 4.5067C1.0395 4.99949 1.04166 5.53923 1.04381 6.12585C1.04639 6.71203 1.04895 7.34486 1.05153 8.02444C1.05412 8.70402 1.05723 9.43057 1.06067 10.204C1.06369 10.9774 1.06685 11.7974 1.07029 12.6642C1.07416 13.531 1.07788 14.3834 1.08132 15.2214C1.08476 16.0594 1.08812 16.8831 1.09157 17.6927C1.09501 18.5022 1.09873 19.2975 1.1026 20.0787C1.10604 20.8598 1.1094 21.627 1.11284 22.3802C1.11629 23.1334 1.1198 23.8728 1.12325 24.5984C1.12669 25.3236 1.13005 26.0355 1.13349 26.734C1.13693 27.4325 1.14065 28.1177 1.14452 28.7895C1.14797 29.4613 1.15148 30.1203 1.15493 30.7663C1.15837 31.4118 1.16173 32.0464 1.16517 32.6701C1.16861 33.2937 1.17213 33.9059 1.17557 34.5067C1.17902 35.108 1.18238 35.6981 1.18582 36.2769C1.18926 36.8554 1.19258 37.4226 1.19559 37.9787C1.1986 38.5343 1.20156 39.0781 1.20457 39.61C1.20759 40.1424 1.21035 40.6623 1.21293 41.1697C1.21594 41.6776 1.21886 42.1728 1.22144 42.6552C1.22359 43.1377 1.22615 43.7215 1.22916 44.4067C1.23217 45.0914 1.23513 45.9004 1.23815 46.8335C1.24073 47.7661 1.24209 48.5888 1.24209 49.3015C1.24252 50.0142 1.24252 50.6102 1.24209 51.0897C1.24122 51.5691 1.23987 52.0499 1.23815 52.5319C1.23642 53.0135 1.23427 53.4977 1.23168 53.9845C1.2291 54.4708 1.22614 54.9595 1.2227 55.4506C1.21926 55.9416 1.21534 56.4428 1.21104 56.9541C1.2063 57.4654 1.20139 57.9871 1.19622 58.519C1.19106 59.051 1.18538 59.5928 1.17936 60.1446C1.17376 60.6967 1.16824 61.2582 1.16265 61.8289C1.15705 62.4 1.15158 62.98 1.14642 63.5688C1.14125 64.1571 1.13693 64.7518 1.13349 65.3531C1.13005 65.9543 1.12749 66.5612 1.12577 67.1737C1.12405 67.7861 1.12325 68.4022 1.12325 69.022C1.12325 69.6417 1.12425 70.2554 1.1264 70.8631C1.12898 71.4708 1.1319 72.0718 1.13491 72.6662C1.13792 73.2606 1.14088 73.8485 1.14389 74.43C1.14691 75.0118 1.14926 75.5872 1.15099 76.1562C1.15271 76.7252 1.15331 77.2879 1.15288 77.8444C1.15245 78.4004 1.15085 78.9507 1.14783 79.4951C1.14525 80.0396 1.14174 80.5782 1.13743 81.111C1.1327 81.6434 1.12818 82.1719 1.12388 82.6965" fill="white"/>
<path d="M1.02316 0.837891C1.02402 1.07546 1.02538 1.42367 1.0271 1.88246C1.02882 2.34082 1.03043 2.76965 1.03215 3.16905C1.03344 3.56845 1.0352 4.01434 1.03735 4.5067C1.0395 4.99949 1.04166 5.53923 1.04381 6.12585C1.04639 6.71203 1.04895 7.34486 1.05153 8.02444C1.05412 8.70402 1.05723 9.43057 1.06067 10.204C1.06369 10.9774 1.06685 11.7974 1.07029 12.6642C1.07416 13.531 1.07788 14.3834 1.08132 15.2214C1.08476 16.0594 1.08812 16.8831 1.09157 17.6927C1.09501 18.5022 1.09873 19.2975 1.1026 20.0787C1.10604 20.8598 1.1094 21.627 1.11284 22.3802C1.11629 23.1334 1.1198 23.8728 1.12325 24.5984C1.12669 25.3236 1.13005 26.0355 1.13349 26.734C1.13693 27.4325 1.14065 28.1177 1.14452 28.7895C1.14797 29.4613 1.15148 30.1203 1.15493 30.7663C1.15837 31.4118 1.16173 32.0464 1.16517 32.6701C1.16861 33.2937 1.17213 33.9059 1.17557 34.5067C1.17902 35.108 1.18238 35.6981 1.18582 36.2769C1.18926 36.8554 1.19258 37.4226 1.19559 37.9787C1.1986 38.5343 1.20156 39.0781 1.20457 39.61C1.20759 40.1424 1.21035 40.6623 1.21293 41.1697C1.21594 41.6776 1.21886 42.1728 1.22144 42.6552C1.22359 43.1377 1.22615 43.7215 1.22916 44.4067C1.23217 45.0914 1.23513 45.9004 1.23815 46.8335C1.24073 47.7661 1.24209 48.5888 1.24209 49.3015C1.24252 50.0142 1.24252 50.6102 1.24209 51.0897C1.24122 51.5691 1.23987 52.0499 1.23815 52.5319C1.23642 53.0135 1.23427 53.4977 1.23168 53.9845C1.2291 54.4708 1.22614 54.9595 1.2227 55.4506C1.21926 55.9416 1.21534 56.4428 1.21104 56.9541C1.2063 57.4654 1.20139 57.9871 1.19622 58.519C1.19106 59.051 1.18538 59.5928 1.17936 60.1446C1.17376 60.6967 1.16824 61.2582 1.16265 61.8289C1.15705 62.4 1.15158 62.98 1.14642 63.5688C1.14125 64.1571 1.13693 64.7518 1.13349 65.3531C1.13005 65.9543 1.12749 66.5612 1.12577 67.1737C1.12405 67.7861 1.12325 68.4022 1.12325 69.022C1.12325 69.6417 1.12425 70.2554 1.1264 70.8631C1.12898 71.4708 1.1319 72.0718 1.13491 72.6662C1.13792 73.2606 1.14088 73.8485 1.14389 74.43C1.14691 75.0118 1.14926 75.5872 1.15099 76.1562C1.15271 76.7252 1.15331 77.2879 1.15288 77.8444C1.15245 78.4004 1.15085 78.9507 1.14783 79.4951C1.14525 80.0396 1.14174 80.5782 1.13743 81.111C1.1327 81.6434 1.12818 82.1719 1.12388 82.6965" stroke="#FFBC00" stroke-linecap="round" stroke-linejoin="round"/>
<path d="M1 0.790555C1.91457 0.800885 4.08496 0.800206 7.51126 0.788585C10.9376 0.776534 13.6825 0.774176 15.7462 0.781493C17.8099 0.788379 20.1006 0.795933 22.6184 0.80411C25.1357 0.811857 26.922 0.817252 27.9773 0.820265C29.0326 0.823278 30.9046 0.839186 33.5932 0.868022C36.2818 0.896857 38.4747 0.921398 40.1718 0.941626C41.8683 0.961854 43.325 0.989354 44.5422 1.02421C45.7593 1.05908 46.7895 1.08402 47.6326 1.09908C48.4757 1.11414 49.3919 1.12749 50.3809 1.13911C51.3704 1.15116 52.2637 1.1598 53.0612 1.16496C53.8588 1.17013 54.6753 1.1764 55.5107 1.18372C56.3456 1.19103 58.1754 1.21274 61 1.24889" fill="white"/>
<path d="M1 0.790555C1.91457 0.800885 4.08496 0.800206 7.51126 0.788585C10.9376 0.776534 13.6825 0.774176 15.7462 0.781493C17.8099 0.788379 20.1006 0.795933 22.6184 0.80411C25.1357 0.811857 26.922 0.817252 27.9773 0.820265C29.0326 0.823278 30.9046 0.839186 33.5932 0.868022C36.2818 0.896857 38.4747 0.921398 40.1718 0.941626C41.8683 0.961854 43.325 0.989354 44.5422 1.02421C45.7593 1.05908 46.7895 1.08402 47.6326 1.09908C48.4757 1.11414 49.3919 1.12749 50.3809 1.13911C51.3704 1.15116 52.2637 1.1598 53.0612 1.16496C53.8588 1.17013 54.6753 1.1764 55.5107 1.18372C56.3456 1.19103 58.1754 1.21274 61 1.24889" stroke="#FFBC00" stroke-linecap="round" stroke-linejoin="round"/>
<path d="M1.26138 82.8418C2.16519 82.8427 2.67312 82.8485 2.78502 82.8592C2.89735 82.87 3.1846 82.8818 3.64684 82.8948C4.10907 82.9077 4.65785 82.921 5.29309 82.9348C5.92834 82.9486 6.48831 82.9595 6.97292 82.9676C7.45797 82.9758 7.97317 82.9838 8.51846 82.9915C9.06376 82.9988 9.63908 83.006 10.2446 83.0129C10.8502 83.0193 11.4857 83.0255 12.1511 83.0316C12.816 83.0376 13.4528 83.043 14.0614 83.0477C14.6699 83.0525 15.2507 83.0568 15.8038 83.0606C16.3564 83.0645 16.8814 83.0678 17.3789 83.0703C17.8769 83.0729 18.4581 83.0755 19.1226 83.0781C19.7871 83.0806 20.492 83.0858 21.237 83.0936C21.982 83.1009 22.6568 83.1101 23.2615 83.1213C23.8666 83.1325 24.433 83.1428 24.9607 83.1523C25.4883 83.1618 25.9774 83.1704 26.4281 83.1781C26.8787 83.1855 27.4177 83.1925 28.0452 83.1994C28.6727 83.2063 29.3887 83.2126 30.1931 83.2182C30.9971 83.2242 31.7328 83.2293 32.4003 83.2336C33.0682 83.2379 33.6677 83.2416 34.1988 83.2447C34.7299 83.2477 35.2421 83.2513 35.7354 83.2556C36.229 83.2599 36.8175 83.2664 37.5009 83.275C38.1844 83.2836 38.635 83.2879 38.8528 83.2879C39.0701 83.2879 39.5468 83.2866 40.2828 83.284C41.0192 83.2814 41.7197 83.2778 42.3842 83.273C43.0487 83.2683 43.6234 83.2655 44.1085 83.2647C44.594 83.2634 45.1005 83.2631 45.6282 83.264C46.1558 83.2648 46.5825 83.2642 46.9083 83.2621C47.2341 83.2603 47.4899 83.256 47.6759 83.2491C47.8618 83.2423 48.3629 83.239 49.1789 83.2395C49.9944 83.2399 50.845 83.2414 51.7308 83.244C52.6165 83.2462 53.1868 83.2433 53.4416 83.2356C53.696 83.2278 54.1576 83.2268 54.8264 83.2324C55.4952 83.2375 56.0711 83.2429 56.554 83.2485C57.0365 83.2541 57.5369 83.2608 58.0556 83.2685C58.5746 83.2763 59.0409 83.283 59.4545 83.2885C59.8677 83.2941 60.228 83.2989 60.5353 83.3027" fill="white"/>
<path d="M1.26138 82.8418C2.16519 82.8427 2.67312 82.8485 2.78502 82.8592C2.89735 82.87 3.1846 82.8818 3.64684 82.8948C4.10907 82.9077 4.65785 82.921 5.29309 82.9348C5.92834 82.9486 6.48831 82.9595 6.97292 82.9676C7.45797 82.9758 7.97317 82.9838 8.51846 82.9915C9.06376 82.9988 9.63908 83.006 10.2446 83.0129C10.8502 83.0193 11.4857 83.0255 12.1511 83.0316C12.816 83.0376 13.4528 83.043 14.0614 83.0477C14.6699 83.0525 15.2507 83.0568 15.8038 83.0606C16.3564 83.0645 16.8814 83.0678 17.3789 83.0703C17.8769 83.0729 18.4581 83.0755 19.1226 83.0781C19.7871 83.0806 20.492 83.0858 21.237 83.0936C21.982 83.1009 22.6568 83.1101 23.2615 83.1213C23.8666 83.1325 24.433 83.1428 24.9607 83.1523C25.4883 83.1618 25.9774 83.1704 26.4281 83.1781C26.8787 83.1855 27.4177 83.1925 28.0452 83.1994C28.6727 83.2063 29.3887 83.2126 30.1931 83.2182C30.9971 83.2242 31.7328 83.2293 32.4003 83.2336C33.0682 83.2379 33.6677 83.2416 34.1988 83.2447C34.7299 83.2477 35.2421 83.2513 35.7354 83.2556C36.229 83.2599 36.8175 83.2664 37.5009 83.275C38.1844 83.2836 38.635 83.2879 38.8528 83.2879C39.0701 83.2879 39.5468 83.2866 40.2828 83.284C41.0192 83.2814 41.7197 83.2778 42.3842 83.273C43.0487 83.2683 43.6234 83.2655 44.1085 83.2647C44.594 83.2634 45.1005 83.2631 45.6282 83.264C46.1558 83.2648 46.5825 83.2642 46.9083 83.2621C47.2341 83.2603 47.4899 83.256 47.6759 83.2491C47.8618 83.2423 48.3629 83.239 49.1789 83.2395C49.9944 83.2399 50.845 83.2414 51.7308 83.244C52.6165 83.2462 53.1868 83.2433 53.4416 83.2356C53.696 83.2278 54.1576 83.2268 54.8264 83.2324C55.4952 83.2375 56.0711 83.2429 56.554 83.2485C57.0365 83.2541 57.5369 83.2608 58.0556 83.2685C58.5746 83.2763 59.0409 83.283 59.4545 83.2885C59.8677 83.2941 60.228 83.2989 60.5353 83.3027" stroke="#FFBC00" stroke-linecap="round" stroke-linejoin="round"/>
<path d="M61 1.24805C60.9892 1.82605 60.9819 3.17425 60.978 5.2926C60.9742 7.41096 60.963 12.613 60.9445 20.8988C60.926 29.185 60.9018 36.2479 60.8721 42.0873C60.842 47.9272 60.8196 51.972 60.805 54.2216C60.7904 56.4713 60.7786 58.1441 60.7695 59.2403C60.7601 60.3365 60.7483 61.462 60.7345 62.6168C60.7203 63.7715 60.7066 65.2414 60.6932 67.0267C60.6803 68.8119 60.6691 70.2053 60.6597 71.2068C60.6498 72.2083 60.6435 73.3034 60.6409 74.4921C60.6379 75.6813 60.61 78.6199 60.5571 83.3081" fill="white"/>
<path d="M61 1.24805C60.9892 1.82605 60.9819 3.17425 60.978 5.2926C60.9742 7.41096 60.963 12.613 60.9445 20.8988C60.926 29.185 60.9018 36.2479 60.8721 42.0873C60.842 47.9272 60.8196 51.972 60.805 54.2216C60.7904 56.4713 60.7786 58.1441 60.7695 59.2403C60.7601 60.3365 60.7483 61.462 60.7345 62.6168C60.7203 63.7715 60.7066 65.2414 60.6932 67.0267C60.6803 68.8119 60.6691 70.2053 60.6597 71.2068C60.6498 72.2083 60.6435 73.3034 60.6409 74.4921C60.6379 75.6813 60.61 78.6199 60.5571 83.3081" stroke="#FFBC00" stroke-linecap="round" stroke-linejoin="round"/>
<path d="M11.1744 5.7832C11.1705 5.90845 11.1648 6.1537 11.1575 6.51909C11.1502 6.88406 11.1451 7.22667 11.142 7.54688C11.1386 7.86666 11.1357 8.22498 11.1335 8.62179C11.1314 9.01818 11.13 9.39045 11.1291 9.73863C11.1283 10.0872 11.1283 10.4869 11.1291 10.9375C11.13 11.3885 11.1312 11.8357 11.1329 12.279C11.1346 12.7219 11.1362 13.1339 11.1375 13.5152C11.1383 13.8961 11.1391 14.2489 11.14 14.5734C11.1404 14.8979 11.1408 15.2817 11.1408 15.725C11.1408 16.1688 11.1402 16.5695 11.1394 16.9272C11.1389 17.2848 11.1381 17.673 11.1368 18.0917C11.136 18.5105 11.1352 18.9289 11.1343 19.3468C11.133 19.7647 11.1319 20.1836 11.131 20.6037C11.1306 21.0233 11.1302 21.4453 11.1298 21.8697C11.1289 22.2941 11.1285 22.7221 11.1285 23.1538C11.1281 23.5854 11.1281 24.0147 11.1285 24.4417C11.1289 24.8686 11.1295 25.2943 11.1304 25.7187C11.1312 26.1426 11.1322 26.5652 11.1335 26.9866C11.1348 27.4083 11.136 27.8283 11.1368 28.2467C11.1377 28.6654 11.1385 29.0927 11.1394 29.5282C11.1407 29.9638 11.1416 30.4077 11.142 30.86C11.1429 31.3119 11.1435 31.7716 11.1439 32.239C11.1444 32.7064 11.1448 33.1809 11.1452 33.6625C11.1456 34.1441 11.1454 34.597 11.1446 35.0214C11.1437 35.4453 11.1422 35.9315 11.14 36.4798C11.1383 37.0277 11.1367 37.5465 11.135 38.0363C11.1337 38.5265 11.1315 39.0647 11.1285 39.6508C11.1259 40.237 11.1226 40.786 11.1187 41.2977C11.1153 41.8095 11.1125 42.3137 11.1104 42.8103C11.1082 43.307 11.1053 43.8824 11.1014 44.5366C11.0979 45.1912 11.0936 45.8241 11.0885 46.4352C11.0833 47.0468 11.0786 47.5777 11.0743 48.0279C11.0704 48.4785 11.0659 48.9498 11.0607 49.4417C11.056 49.9336 11.0515 50.412 11.0472 50.8768C11.0429 51.3421 11.0387 51.792 11.0349 52.2267C11.0306 52.6614 11.0269 53.0808 11.0238 53.4849C11.0204 53.8886 11.0168 54.37 11.013 54.9291C11.0091 55.4882 11.005 56.074 11.0007 56.6864C10.9959 57.2993 10.9922 57.8484 10.9896 58.3339C10.9875 58.8194 10.9851 59.2764 10.9825 59.7051C10.98 60.1337 10.9762 60.6274 10.9715 61.1861C10.9668 61.7443 10.9617 62.2926 10.9561 62.831C10.9509 63.369 10.9458 63.9102 10.9406 64.4546C10.9359 64.9995 10.9304 65.4721 10.9244 65.8723C10.9184 66.273 10.9122 66.6959 10.9058 67.1409C10.8989 67.5859 10.8922 68.0085 10.8858 68.4088C10.8793 68.8086 10.8717 69.2762 10.8631 69.8116C10.854 70.347 10.8458 70.8913 10.838 71.4443C10.8298 71.9974 10.8228 72.4873 10.8172 72.9143C10.8116 73.3412 10.8077 73.6674 10.8051 73.893C10.8025 74.1189 10.8001 74.3659 10.798 74.6341C10.7954 74.9022 10.793 75.2295 10.7909 75.616C10.7887 76.0029 10.7868 76.4504 10.7851 76.9582C10.7829 77.4661 10.7813 78.0348 10.7805 78.6644L10.7851 79.2196" fill="white"/>
<path d="M11.1744 5.7832C11.1705 5.90845 11.1648 6.1537 11.1575 6.51909C11.1502 6.88406 11.1451 7.22667 11.142 7.54688C11.1386 7.86666 11.1357 8.22498 11.1335 8.62179C11.1314 9.01818 11.13 9.39045 11.1291 9.73863C11.1283 10.0872 11.1283 10.4869 11.1291 10.9375C11.13 11.3885 11.1312 11.8357 11.1329 12.279C11.1346 12.7219 11.1362 13.1339 11.1375 13.5152C11.1383 13.8961 11.1391 14.2489 11.14 14.5734C11.1404 14.8979 11.1408 15.2817 11.1408 15.725C11.1408 16.1688 11.1402 16.5695 11.1394 16.9272C11.1389 17.2848 11.1381 17.673 11.1368 18.0917C11.136 18.5105 11.1352 18.9289 11.1343 19.3468C11.133 19.7647 11.1319 20.1836 11.131 20.6037C11.1306 21.0233 11.1302 21.4453 11.1298 21.8697C11.1289 22.2941 11.1285 22.7221 11.1285 23.1538C11.1281 23.5854 11.1281 24.0147 11.1285 24.4417C11.1289 24.8686 11.1295 25.2943 11.1304 25.7187C11.1312 26.1426 11.1322 26.5652 11.1335 26.9866C11.1348 27.4083 11.136 27.8283 11.1368 28.2467C11.1377 28.6654 11.1385 29.0927 11.1394 29.5282C11.1407 29.9638 11.1416 30.4077 11.142 30.86C11.1429 31.3119 11.1435 31.7716 11.1439 32.239C11.1444 32.7064 11.1448 33.1809 11.1452 33.6625C11.1456 34.1441 11.1454 34.597 11.1446 35.0214C11.1437 35.4453 11.1422 35.9315 11.14 36.4798C11.1383 37.0277 11.1367 37.5465 11.135 38.0363C11.1337 38.5265 11.1315 39.0647 11.1285 39.6508C11.1259 40.237 11.1226 40.786 11.1187 41.2977C11.1153 41.8095 11.1125 42.3137 11.1104 42.8103C11.1082 43.307 11.1053 43.8824 11.1014 44.5366C11.0979 45.1912 11.0936 45.8241 11.0885 46.4352C11.0833 47.0468 11.0786 47.5777 11.0743 48.0279C11.0704 48.4785 11.0659 48.9498 11.0607 49.4417C11.056 49.9336 11.0515 50.412 11.0472 50.8768C11.0429 51.3421 11.0387 51.792 11.0349 52.2267C11.0306 52.6614 11.0269 53.0808 11.0238 53.4849C11.0204 53.8886 11.0168 54.37 11.013 54.9291C11.0091 55.4882 11.005 56.074 11.0007 56.6864C10.9959 57.2993 10.9922 57.8484 10.9896 58.3339C10.9875 58.8194 10.9851 59.2764 10.9825 59.7051C10.98 60.1337 10.9762 60.6274 10.9715 61.1861C10.9668 61.7443 10.9617 62.2926 10.9561 62.831C10.9509 63.369 10.9458 63.9102 10.9406 64.4546C10.9359 64.9995 10.9304 65.4721 10.9244 65.8723C10.9184 66.273 10.9122 66.6959 10.9058 67.1409C10.8989 67.5859 10.8922 68.0085 10.8858 68.4088C10.8793 68.8086 10.8717 69.2762 10.8631 69.8116C10.854 70.347 10.8458 70.8913 10.838 71.4443C10.8298 71.9974 10.8228 72.4873 10.8172 72.9143C10.8116 73.3412 10.8077 73.6674 10.8051 73.893C10.8025 74.1189 10.8001 74.3659 10.798 74.6341C10.7954 74.9022 10.793 75.2295 10.7909 75.616C10.7887 76.0029 10.7868 76.4504 10.7851 76.9582C10.7829 77.4661 10.7813 78.0348 10.7805 78.6644L10.7851 79.2196" stroke="#FFBC00" stroke-linecap="round" stroke-linejoin="round"/>
<path d="M10.8185 79.2368C11.0431 79.236 11.3013 79.2351 11.5932 79.2342C11.8856 79.2338 12.2122 79.2334 12.5728 79.233C12.933 79.2325 13.2965 79.232 13.663 79.2316C14.0291 79.2312 14.3984 79.231 14.7708 79.231C15.1437 79.231 15.502 79.2308 15.8458 79.2304C16.1896 79.2304 16.5193 79.2302 16.8349 79.2297C17.1501 79.2297 17.4822 79.2294 17.8315 79.229C18.1803 79.2286 18.5461 79.228 18.9286 79.2271C19.3112 79.2267 19.7108 79.2263 20.1275 79.2259C20.5437 79.2254 20.9208 79.225 21.2587 79.2245C21.5966 79.2241 21.8822 79.2237 22.1156 79.2233C22.3495 79.2228 22.5874 79.2223 22.8297 79.2219C23.0719 79.2219 23.3185 79.2217 23.5692 79.2213C23.8199 79.2209 24.0749 79.2207 24.3345 79.2207C24.5936 79.2202 24.8469 79.2198 25.0947 79.2194C25.3424 79.2194 25.6432 79.2191 25.9971 79.2187C26.3514 79.2183 26.7416 79.2179 27.1675 79.2174C27.5935 79.2174 27.9963 79.2174 28.3759 79.2174C28.7551 79.217 29.1111 79.2168 29.4439 79.2168C29.7768 79.2168 30.0951 79.2168 30.3988 79.2168C30.7026 79.2168 30.9918 79.2168 31.2665 79.2168C31.5412 79.2168 31.8286 79.217 32.1286 79.2174C32.4281 79.2174 32.7401 79.2174 33.0645 79.2174C33.3889 79.2174 33.7049 79.2176 34.0124 79.2181C34.3204 79.2185 34.5878 79.2187 34.8144 79.2187C35.0411 79.2191 35.2787 79.2196 35.5273 79.22C35.7754 79.2205 35.996 79.2209 36.189 79.2213C36.382 79.2213 36.5819 79.2215 36.7887 79.2219C36.9956 79.2223 37.1261 79.2228 37.1805 79.2233C37.2352 79.2233 37.3728 79.2245 37.5932 79.2271C37.8131 79.2297 38.0261 79.2323 38.2321 79.2348C38.4385 79.2374 38.6748 79.2405 38.9406 79.2439C39.2064 79.2473 39.4702 79.2506 39.7318 79.2536C39.9934 79.2566 40.2529 79.2594 40.5103 79.262C40.7678 79.265 41.023 79.2678 41.2762 79.2704C41.5294 79.273 41.7804 79.2753 42.029 79.2775C42.278 79.2796 42.5275 79.282 42.7778 79.2846C43.028 79.2872 43.2792 79.2897 43.5312 79.2923C43.7827 79.2949 44.0351 79.2975 44.2883 79.3001C44.5415 79.3027 44.7954 79.3054 45.0499 79.3084C45.3047 79.3115 45.5702 79.3145 45.8461 79.3175C46.1221 79.3205 46.4148 79.3238 46.7245 79.3272C47.0338 79.3311 47.5083 79.338 48.1483 79.3479C48.7883 79.3578 49.8488 79.3758 51.3297 79.4021" fill="white"/>
<path d="M10.8185 79.2368C11.0431 79.236 11.3013 79.2351 11.5932 79.2342C11.8856 79.2338 12.2122 79.2334 12.5728 79.233C12.933 79.2325 13.2965 79.232 13.663 79.2316C14.0291 79.2312 14.3984 79.231 14.7708 79.231C15.1437 79.231 15.502 79.2308 15.8458 79.2304C16.1896 79.2304 16.5193 79.2302 16.8349 79.2297C17.1501 79.2297 17.4822 79.2294 17.8315 79.229C18.1803 79.2286 18.5461 79.228 18.9286 79.2271C19.3112 79.2267 19.7108 79.2263 20.1275 79.2259C20.5437 79.2254 20.9208 79.225 21.2587 79.2245C21.5966 79.2241 21.8822 79.2237 22.1156 79.2233C22.3495 79.2228 22.5874 79.2223 22.8297 79.2219C23.0719 79.2219 23.3185 79.2217 23.5692 79.2213C23.8199 79.2209 24.0749 79.2207 24.3345 79.2207C24.5936 79.2202 24.8469 79.2198 25.0947 79.2194C25.3424 79.2194 25.6432 79.2191 25.9971 79.2187C26.3514 79.2183 26.7416 79.2179 27.1675 79.2174C27.5935 79.2174 27.9963 79.2174 28.3759 79.2174C28.7551 79.217 29.1111 79.2168 29.4439 79.2168C29.7768 79.2168 30.0951 79.2168 30.3988 79.2168C30.7026 79.2168 30.9918 79.2168 31.2665 79.2168C31.5412 79.2168 31.8286 79.217 32.1286 79.2174C32.4281 79.2174 32.7401 79.2174 33.0645 79.2174C33.3889 79.2174 33.7049 79.2176 34.0124 79.2181C34.3204 79.2185 34.5878 79.2187 34.8144 79.2187C35.0411 79.2191 35.2787 79.2196 35.5273 79.22C35.7754 79.2205 35.996 79.2209 36.189 79.2213C36.382 79.2213 36.5819 79.2215 36.7887 79.2219C36.9956 79.2223 37.1261 79.2228 37.1805 79.2233C37.2352 79.2233 37.3728 79.2245 37.5932 79.2271C37.8131 79.2297 38.0261 79.2323 38.2321 79.2348C38.4385 79.2374 38.6748 79.2405 38.9406 79.2439C39.2064 79.2473 39.4702 79.2506 39.7318 79.2536C39.9934 79.2566 40.2529 79.2594 40.5103 79.262C40.7678 79.265 41.023 79.2678 41.2762 79.2704C41.5294 79.273 41.7804 79.2753 42.029 79.2775C42.278 79.2796 42.5275 79.282 42.7778 79.2846C43.028 79.2872 43.2792 79.2897 43.5312 79.2923C43.7827 79.2949 44.0351 79.2975 44.2883 79.3001C44.5415 79.3027 44.7954 79.3054 45.0499 79.3084C45.3047 79.3115 45.5702 79.3145 45.8461 79.3175C46.1221 79.3205 46.4148 79.3238 46.7245 79.3272C47.0338 79.3311 47.5083 79.338 48.1483 79.3479C48.7883 79.3578 49.8488 79.3758 51.3297 79.4021" stroke="#FFBC00" stroke-linecap="round" stroke-linejoin="round"/>
<path d="M48.9258 79.2526C48.9266 79.1476 48.9282 78.8809 48.9308 78.4527C48.9334 78.0249 48.9336 77.6158 48.9315 77.2255C48.9293 76.8351 48.9253 76.3978 48.9193 75.9137C48.9133 75.4299 48.9076 74.9948 48.9025 74.6083C48.8977 74.2223 48.893 73.8074 48.8883 73.3637C48.8835 72.9204 48.8808 72.5541 48.8799 72.2649C48.8786 71.9757 48.8779 71.6533 48.8779 71.2978C48.8779 70.9418 48.879 70.5575 48.8812 70.1448C48.8833 69.7316 48.8868 69.3023 48.8916 68.8568C48.8963 68.4114 48.9014 67.9501 48.907 67.4728C48.9126 66.995 48.9175 66.5235 48.9218 66.0583C48.9261 65.593 48.9303 65.1265 48.9341 64.6587C48.9376 64.1913 48.9399 63.725 48.9412 63.2597C48.9425 62.7945 48.9429 62.3784 48.9425 62.0117C48.9421 61.6455 48.9409 61.2444 48.9387 60.8085C48.937 60.3729 48.9352 59.9516 48.9335 59.5444C48.9318 59.1373 48.9302 58.6483 48.9289 58.0776C48.9276 57.5065 48.927 56.9547 48.927 56.4224C48.927 55.89 48.9276 55.3849 48.9289 54.9072C48.9307 54.4299 48.933 53.8833 48.936 53.2674C48.939 52.6516 48.9424 52.1129 48.9458 51.6515C48.9492 51.1902 48.9524 50.7501 48.9554 50.3314C48.958 49.9126 48.9604 49.5343 48.9625 49.1964C48.9647 48.859 48.9666 48.4927 48.9683 48.0976C48.9705 47.7025 48.9722 47.33 48.9735 46.9801C48.9748 46.6298 48.9756 46.2814 48.9761 45.9349C48.9769 45.5889 48.9775 45.2728 48.978 44.9866C48.9784 44.7004 48.9784 44.3864 48.978 44.0447C48.978 43.703 48.9778 43.3692 48.9773 43.0434C48.9769 42.7172 48.9759 42.3212 48.9742 41.8556C48.9724 41.3899 48.9715 40.9324 48.9715 40.4831C48.9715 40.0342 48.9722 39.5674 48.9735 39.0828C48.9748 38.5982 48.9756 38.1424 48.9761 37.7155C48.9761 37.2881 48.9765 36.8699 48.9773 36.4611C48.9782 36.0518 48.9793 35.6916 48.9806 35.3804C48.9815 35.0692 48.9827 34.7387 48.9844 34.3888C49.0155 28.0805 49.1122 21.7722 49.0761 15.4637C49.074 15.0867 49.0718 14.7417 49.0697 14.4288C49.0671 14.1159 49.0636 13.7731 49.0593 13.4004C49.0554 13.0272 49.0526 12.7189 49.0509 12.4753C49.0492 12.2313 49.0468 11.924 49.0438 11.5534C49.0408 11.1824 49.0385 10.843 49.0367 10.5353C49.0346 10.2276 49.0324 9.8895 49.0303 9.52109C49.0281 9.15311 49.0262 8.82088 49.0244 8.52435C49.0227 8.22738 49.0211 7.91019 49.0194 7.57277C49.0177 7.23491 49.0163 6.92136 49.0155 6.63214C49.0146 6.34292 49.0126 5.95906 49.0096 5.48047" fill="white"/>
<path d="M48.9258 79.2526C48.9266 79.1476 48.9282 78.8809 48.9308 78.4527C48.9334 78.0249 48.9336 77.6158 48.9315 77.2255C48.9293 76.8351 48.9253 76.3978 48.9193 75.9137C48.9133 75.4299 48.9076 74.9948 48.9025 74.6083C48.8977 74.2223 48.893 73.8074 48.8883 73.3637C48.8835 72.9204 48.8808 72.5541 48.8799 72.2649C48.8786 71.9757 48.8779 71.6533 48.8779 71.2978C48.8779 70.9418 48.879 70.5575 48.8812 70.1448C48.8833 69.7316 48.8868 69.3023 48.8916 68.8568C48.8963 68.4114 48.9014 67.9501 48.907 67.4728C48.9126 66.995 48.9175 66.5235 48.9218 66.0583C48.9261 65.593 48.9303 65.1265 48.9341 64.6587C48.9376 64.1913 48.9399 63.725 48.9412 63.2597C48.9425 62.7945 48.9429 62.3784 48.9425 62.0117C48.9421 61.6455 48.9409 61.2444 48.9387 60.8085C48.937 60.3729 48.9352 59.9516 48.9335 59.5444C48.9318 59.1373 48.9302 58.6483 48.9289 58.0776C48.9276 57.5065 48.927 56.9547 48.927 56.4224C48.927 55.89 48.9276 55.3849 48.9289 54.9072C48.9307 54.4299 48.933 53.8833 48.936 53.2674C48.939 52.6516 48.9424 52.1129 48.9458 51.6515C48.9492 51.1902 48.9524 50.7501 48.9554 50.3314C48.958 49.9126 48.9604 49.5343 48.9625 49.1964C48.9647 48.859 48.9666 48.4927 48.9683 48.0976C48.9705 47.7025 48.9722 47.33 48.9735 46.9801C48.9748 46.6298 48.9756 46.2814 48.9761 45.9349C48.9769 45.5889 48.9775 45.2728 48.978 44.9866C48.9784 44.7004 48.9784 44.3864 48.978 44.0447C48.978 43.703 48.9778 43.3692 48.9773 43.0434C48.9769 42.7172 48.9759 42.3212 48.9742 41.8556C48.9724 41.3899 48.9715 40.9324 48.9715 40.4831C48.9715 40.0342 48.9722 39.5674 48.9735 39.0828C48.9748 38.5982 48.9756 38.1424 48.9761 37.7155C48.9761 37.2881 48.9765 36.8699 48.9773 36.4611C48.9782 36.0518 48.9793 35.6916 48.9806 35.3804C48.9815 35.0692 48.9827 34.7387 48.9844 34.3888C49.0155 28.0805 49.1122 21.7722 49.0761 15.4637C49.074 15.0867 49.0718 14.7417 49.0697 14.4288C49.0671 14.1159 49.0636 13.7731 49.0593 13.4004C49.0554 13.0272 49.0526 12.7189 49.0509 12.4753C49.0492 12.2313 49.0468 11.924 49.0438 11.5534C49.0408 11.1824 49.0385 10.843 49.0367 10.5353C49.0346 10.2276 49.0324 9.8895 49.0303 9.52109C49.0281 9.15311 49.0262 8.82088 49.0244 8.52435C49.0227 8.22738 49.0211 7.91019 49.0194 7.57277C49.0177 7.23491 49.0163 6.92136 49.0155 6.63214C49.0146 6.34292 49.0126 5.95906 49.0096 5.48047" stroke="#FFBC00" stroke-linecap="round" stroke-linejoin="round"/>
<path d="M51.667 5.37889C50.4642 5.35264 49.4805 5.33202 48.7161 5.31695C47.9516 5.30189 47.3549 5.2913 46.9258 5.28527C46.4966 5.27925 46.0486 5.27345 45.5816 5.26786C45.1146 5.26269 44.6187 5.25778 44.0941 5.25304C43.5699 5.24831 43.1372 5.24507 42.796 5.24335C42.4548 5.2412 42.1548 5.23944 41.8961 5.23815C41.6374 5.23686 41.3631 5.23578 41.0732 5.23492C40.7833 5.23406 40.5027 5.23318 40.2314 5.23232C39.96 5.23145 39.6976 5.23085 39.4444 5.23042C39.1915 5.22999 38.9284 5.22951 38.6549 5.22908C38.3819 5.22865 38.0988 5.22825 37.8055 5.22782C37.5123 5.22739 37.2348 5.22719 36.9731 5.22719C36.7118 5.22676 36.4665 5.22656 36.2372 5.22656C36.0079 5.22656 35.7701 5.22656 35.5236 5.22656C35.277 5.22656 35.022 5.22676 34.7586 5.22719C34.4948 5.22719 34.233 5.22739 33.973 5.22782C33.7126 5.22825 33.3896 5.22865 33.0042 5.22908C32.6184 5.22995 32.175 5.23102 31.6739 5.23232C31.1725 5.23318 30.6769 5.23426 30.1872 5.23555C29.6979 5.23727 29.2142 5.23883 28.7363 5.24012C28.2588 5.24184 27.8593 5.24332 27.5379 5.24461C27.2169 5.2459 26.9317 5.24718 26.6822 5.24847C26.4331 5.24933 26.1664 5.25061 25.882 5.25233C25.5975 5.25362 25.3144 5.25518 25.0326 5.2569C24.7507 5.25862 24.4701 5.2605 24.1907 5.26266C23.9109 5.26481 23.6315 5.26697 23.3526 5.26912C23.0736 5.27127 22.7951 5.27371 22.517 5.27629C22.2385 5.27887 21.9602 5.28143 21.6821 5.28401C21.404 5.28659 21.1259 5.28935 20.8478 5.29237C20.5697 5.29495 20.2935 5.29799 20.0192 5.30143C19.7445 5.30444 19.4718 5.30768 19.2008 5.31112C18.9299 5.31456 18.6771 5.3178 18.4428 5.32081C18.208 5.32426 17.9422 5.3281 17.6452 5.3324C17.3481 5.3367 17.032 5.34122 16.6967 5.34595C16.3614 5.35069 15.9904 5.35588 15.584 5.36148C15.1776 5.36707 14.7346 5.37327 14.255 5.38016C13.7758 5.38704 13.26 5.3946 12.7076 5.40277L11.1678 5.43185" fill="white"/>
<path d="M51.667 5.37889C50.4642 5.35264 49.4805 5.33202 48.7161 5.31695C47.9516 5.30189 47.3549 5.2913 46.9258 5.28527C46.4966 5.27925 46.0486 5.27345 45.5816 5.26786C45.1146 5.26269 44.6187 5.25778 44.0941 5.25304C43.5699 5.24831 43.1372 5.24507 42.796 5.24335C42.4548 5.2412 42.1548 5.23944 41.8961 5.23815C41.6374 5.23686 41.3631 5.23578 41.0732 5.23492C40.7833 5.23406 40.5027 5.23318 40.2314 5.23232C39.96 5.23145 39.6976 5.23085 39.4444 5.23042C39.1915 5.22999 38.9284 5.22951 38.6549 5.22908C38.3819 5.22865 38.0988 5.22825 37.8055 5.22782C37.5123 5.22739 37.2348 5.22719 36.9731 5.22719C36.7118 5.22676 36.4665 5.22656 36.2372 5.22656C36.0079 5.22656 35.7701 5.22656 35.5236 5.22656C35.277 5.22656 35.022 5.22676 34.7586 5.22719C34.4948 5.22719 34.233 5.22739 33.973 5.22782C33.7126 5.22825 33.3896 5.22865 33.0042 5.22908C32.6184 5.22995 32.175 5.23102 31.6739 5.23232C31.1725 5.23318 30.6769 5.23426 30.1872 5.23555C29.6979 5.23727 29.2142 5.23883 28.7363 5.24012C28.2588 5.24184 27.8593 5.24332 27.5379 5.24461C27.2169 5.2459 26.9317 5.24718 26.6822 5.24847C26.4331 5.24933 26.1664 5.25061 25.882 5.25233C25.5975 5.25362 25.3144 5.25518 25.0326 5.2569C24.7507 5.25862 24.4701 5.2605 24.1907 5.26266C23.9109 5.26481 23.6315 5.26697 23.3526 5.26912C23.0736 5.27127 22.7951 5.27371 22.517 5.27629C22.2385 5.27887 21.9602 5.28143 21.6821 5.28401C21.404 5.28659 21.1259 5.28935 20.8478 5.29237C20.5697 5.29495 20.2935 5.29799 20.0192 5.30143C19.7445 5.30444 19.4718 5.30768 19.2008 5.31112C18.9299 5.31456 18.6771 5.3178 18.4428 5.32081C18.208 5.32426 17.9422 5.3281 17.6452 5.3324C17.3481 5.3367 17.032 5.34122 16.6967 5.34595C16.3614 5.35069 15.9904 5.35588 15.584 5.36148C15.1776 5.36707 14.7346 5.37327 14.255 5.38016C13.7758 5.38704 13.26 5.3946 12.7076 5.40277L11.1678 5.43185" stroke="#FFBC00" stroke-linecap="round" stroke-linejoin="round"/>
<path d="M16.8192 9.87695C16.8226 9.95055 16.826 10.1763 16.8294 10.5542C16.8329 10.9325 16.8348 11.4257 16.8353 12.0339" fill="white"/>
<path d="M16.8192 9.87695C16.8226 9.95055 16.826 10.1763 16.8294 10.5542C16.8329 10.9325 16.8348 11.4257 16.8353 12.0339" stroke="#FFBC00" stroke-linecap="round" stroke-linejoin="round"/>
<path d="M16.8405 9.50735C16.8792 9.50606 16.9728 9.50302 17.1213 9.49829C17.2698 9.49398 17.4738 9.48799 17.7333 9.48024C17.9924 9.47292 18.2473 9.46597 18.4977 9.45951C18.7478 9.45349 18.9632 9.44837 19.144 9.44407C19.3247 9.44019 19.5018 9.43676 19.6753 9.43374C19.8487 9.4303 20.049 9.42706 20.2762 9.42405C20.5035 9.42104 20.7234 9.4182 20.936 9.41562C21.1486 9.41347 21.3333 9.41179 21.49 9.4105C21.6462 9.4092 21.81 9.40773 21.9813 9.406C22.153 9.40471 22.3172 9.40335 22.4738 9.40206C22.6305 9.40077 22.8153 9.39929 23.0283 9.39757C23.2413 9.39585 23.4587 9.39389 23.6803 9.39174C23.9024 9.38959 24.0923 9.38791 24.2498 9.38662C24.4077 9.3849 24.5332 9.38362 24.6262 9.38276C24.7196 9.3819 24.8448 9.38102 25.0019 9.38016C25.159 9.37929 25.3475 9.37822 25.5674 9.37692C25.7874 9.3752 26.0023 9.37392 26.2124 9.37306C26.4228 9.37177 26.605 9.37049 26.7591 9.3692C26.9132 9.36834 27.0742 9.36746 27.2421 9.3666C27.4095 9.36574 27.5713 9.36466 27.7275 9.36337C27.8833 9.36251 28.069 9.36143 28.2847 9.36014C28.4998 9.35928 28.7307 9.35888 28.9774 9.35888C29.224 9.35845 29.4504 9.35757 29.6565 9.35628C29.8627 9.35456 30.093 9.35328 30.3473 9.35242C30.6017 9.35112 30.8642 9.34977 31.1349 9.34848C31.406 9.34718 31.6438 9.3461 31.8483 9.34524C32.0527 9.34438 32.2371 9.34378 32.4015 9.34335C32.5659 9.34249 32.7098 9.34161 32.8333 9.34075C32.9569 9.34032 33.1013 9.33972 33.2666 9.33886C33.4323 9.33843 33.6194 9.33795 33.8282 9.33752C34.0373 9.33709 34.2323 9.33669 34.4131 9.33626C34.5934 9.33583 34.7976 9.33583 35.0257 9.33626C35.2534 9.33626 35.4713 9.33646 35.6792 9.33689C35.8866 9.33775 36.0684 9.33863 36.2247 9.33949C36.3813 9.34078 36.5465 9.34226 36.7204 9.34398C36.8942 9.3457 37.0743 9.34766 37.2602 9.34981C37.4461 9.3524 37.6374 9.35516 37.834 9.35817C38.0307 9.36118 38.2261 9.36422 38.4202 9.36723C38.6143 9.36981 38.8067 9.37217 38.9974 9.37432C39.188 9.37691 39.3604 9.37926 39.5145 9.38142C39.6686 9.384 39.8351 9.38684 40.0141 9.38985C40.1927 9.39286 40.3447 9.39582 40.4699 9.39883C40.5943 9.40141 40.6913 9.40357 40.7611 9.40529C40.8308 9.40702 40.9331 9.40937 41.0678 9.41239C41.2025 9.41497 41.3798 9.41849 41.5997 9.42279C41.8192 9.42709 42.0085 9.43053 42.1677 9.43311C42.327 9.43613 42.4821 9.43888 42.6327 9.44147C42.7833 9.44405 42.941 9.44661 43.1058 9.44919C43.2703 9.45177 43.4723 9.45421 43.712 9.45636C43.9526 9.46023 44.1815 9.46319 44.3989 9.46534" fill="white"/>
<path d="M16.8405 9.50735C16.8792 9.50606 16.9728 9.50302 17.1213 9.49829C17.2698 9.49398 17.4738 9.48799 17.7333 9.48024C17.9924 9.47292 18.2473 9.46597 18.4977 9.45951C18.7478 9.45349 18.9632 9.44837 19.144 9.44407C19.3247 9.44019 19.5018 9.43676 19.6753 9.43374C19.8487 9.4303 20.049 9.42706 20.2762 9.42405C20.5035 9.42104 20.7234 9.4182 20.936 9.41562C21.1486 9.41347 21.3333 9.41179 21.49 9.4105C21.6462 9.4092 21.81 9.40773 21.9813 9.406C22.153 9.40471 22.3172 9.40335 22.4738 9.40206C22.6305 9.40077 22.8153 9.39929 23.0283 9.39757C23.2413 9.39585 23.4587 9.39389 23.6803 9.39174C23.9024 9.38959 24.0923 9.38791 24.2498 9.38662C24.4077 9.3849 24.5332 9.38362 24.6262 9.38276C24.7196 9.3819 24.8448 9.38102 25.0019 9.38016C25.159 9.37929 25.3475 9.37822 25.5674 9.37692C25.7874 9.3752 26.0023 9.37392 26.2124 9.37306C26.4228 9.37177 26.605 9.37049 26.7591 9.3692C26.9132 9.36834 27.0742 9.36746 27.2421 9.3666C27.4095 9.36574 27.5713 9.36466 27.7275 9.36337C27.8833 9.36251 28.069 9.36143 28.2847 9.36014C28.4998 9.35928 28.7307 9.35888 28.9774 9.35888C29.224 9.35845 29.4504 9.35757 29.6565 9.35628C29.8627 9.35456 30.093 9.35328 30.3473 9.35242C30.6017 9.35112 30.8642 9.34977 31.1349 9.34848C31.406 9.34718 31.6438 9.3461 31.8483 9.34524C32.0527 9.34438 32.2371 9.34378 32.4015 9.34335C32.5659 9.34249 32.7098 9.34161 32.8333 9.34075C32.9569 9.34032 33.1013 9.33972 33.2666 9.33886C33.4323 9.33843 33.6194 9.33795 33.8282 9.33752C34.0373 9.33709 34.2323 9.33669 34.4131 9.33626C34.5934 9.33583 34.7976 9.33583 35.0257 9.33626C35.2534 9.33626 35.4713 9.33646 35.6792 9.33689C35.8866 9.33775 36.0684 9.33863 36.2247 9.33949C36.3813 9.34078 36.5465 9.34226 36.7204 9.34398C36.8942 9.3457 37.0743 9.34766 37.2602 9.34981C37.4461 9.3524 37.6374 9.35516 37.834 9.35817C38.0307 9.36118 38.2261 9.36422 38.4202 9.36723C38.6143 9.36981 38.8067 9.37217 38.9974 9.37432C39.188 9.37691 39.3604 9.37926 39.5145 9.38142C39.6686 9.384 39.8351 9.38684 40.0141 9.38985C40.1927 9.39286 40.3447 9.39582 40.4699 9.39883C40.5943 9.40141 40.6913 9.40357 40.7611 9.40529C40.8308 9.40702 40.9331 9.40937 41.0678 9.41239C41.2025 9.41497 41.3798 9.41849 41.5997 9.42279C41.8192 9.42709 42.0085 9.43053 42.1677 9.43311C42.327 9.43613 42.4821 9.43888 42.6327 9.44147C42.7833 9.44405 42.941 9.44661 43.1058 9.44919C43.2703 9.45177 43.4723 9.45421 43.712 9.45636C43.9526 9.46023 44.1815 9.46319 44.3989 9.46534" stroke="#FFBC00" stroke-linecap="round" stroke-linejoin="round"/>
<path d="M16.874 12.1455C17.0225 12.145 17.1411 12.145 17.2298 12.1455C17.3184 12.1459 17.4258 12.1468 17.5519 12.1481C17.6776 12.1494 17.837 12.151 18.0303 12.1532C18.2235 12.1553 18.4283 12.1573 18.6448 12.159C18.8617 12.1608 19.0543 12.162 19.2226 12.1629C19.3913 12.1642 19.5723 12.1653 19.7656 12.1661C19.9588 12.1674 20.1434 12.1685 20.3194 12.1694C20.495 12.1706 20.7012 12.1717 20.9379 12.1726C21.175 12.1739 21.4155 12.175 21.6591 12.1758C21.9027 12.1771 22.1546 12.1782 22.415 12.179C22.675 12.1803 22.9086 12.1814 23.1161 12.1823C23.3235 12.1827 23.5134 12.1831 23.6855 12.1835C23.8581 12.184 24.048 12.184 24.255 12.1835C24.4624 12.1835 24.6871 12.1833 24.9289 12.1829C25.1712 12.182 25.4312 12.1808 25.7088 12.179C25.9868 12.1773 26.2517 12.1756 26.5035 12.1738C26.7553 12.1717 26.9936 12.1695 27.2187 12.1674C27.4438 12.1648 27.6552 12.1624 27.8528 12.1603C28.0508 12.1581 28.277 12.1556 28.5313 12.1526C28.7857 12.1491 29.0832 12.1452 29.424 12.1409C29.7649 12.1362 30.1049 12.1317 30.4441 12.1273C30.7832 12.123 31.1135 12.1192 31.435 12.1158C31.7565 12.1123 32.0694 12.1089 32.3737 12.1054C32.678 12.102 32.9792 12.1 33.2775 12.0996C33.5757 12.0996 33.8726 12.0998 34.1678 12.1002C34.4635 12.1007 34.7425 12.1011 35.0051 12.1016C35.268 12.1024 35.515 12.1032 35.7462 12.1041C35.9777 12.105 36.1807 12.1056 36.355 12.1061C36.5293 12.1069 36.6821 12.1076 36.8133 12.108C36.9446 12.1085 37.0789 12.1093 37.2162 12.1106C37.3535 12.1114 37.5164 12.113 37.705 12.1151C37.8935 12.1173 38.0647 12.119 38.2188 12.1203C38.3733 12.122 38.5405 12.1237 38.7204 12.1255C38.9003 12.1272 39.081 12.1291 39.2626 12.1313C39.4443 12.1339 39.5707 12.1358 39.6417 12.137C39.7127 12.1388 39.8633 12.1418 40.0936 12.1461C40.3238 12.1504 40.5388 12.1545 40.7385 12.1584C40.9378 12.1618 41.1273 12.1653 41.3072 12.1687C41.4871 12.1717 41.6681 12.1754 41.8501 12.1797C42.0326 12.1835 42.2459 12.1887 42.4899 12.1952C42.7344 12.2017 42.9297 12.2068 43.0761 12.2106C43.222 12.215 43.3309 12.2182 43.4028 12.2203C43.4747 12.2225 43.802 12.2319 44.3847 12.2487" fill="white"/>
<path d="M16.874 12.1455C17.0225 12.145 17.1411 12.145 17.2298 12.1455C17.3184 12.1459 17.4258 12.1468 17.5519 12.1481C17.6776 12.1494 17.837 12.151 18.0303 12.1532C18.2235 12.1553 18.4283 12.1573 18.6448 12.159C18.8617 12.1608 19.0543 12.162 19.2226 12.1629C19.3913 12.1642 19.5723 12.1653 19.7656 12.1661C19.9588 12.1674 20.1434 12.1685 20.3194 12.1694C20.495 12.1706 20.7012 12.1717 20.9379 12.1726C21.175 12.1739 21.4155 12.175 21.6591 12.1758C21.9027 12.1771 22.1546 12.1782 22.415 12.179C22.675 12.1803 22.9086 12.1814 23.1161 12.1823C23.3235 12.1827 23.5134 12.1831 23.6855 12.1835C23.8581 12.184 24.048 12.184 24.255 12.1835C24.4624 12.1835 24.6871 12.1833 24.9289 12.1829C25.1712 12.182 25.4312 12.1808 25.7088 12.179C25.9868 12.1773 26.2517 12.1756 26.5035 12.1738C26.7553 12.1717 26.9936 12.1695 27.2187 12.1674C27.4438 12.1648 27.6552 12.1624 27.8528 12.1603C28.0508 12.1581 28.277 12.1556 28.5313 12.1526C28.7857 12.1491 29.0832 12.1452 29.424 12.1409C29.7649 12.1362 30.1049 12.1317 30.4441 12.1273C30.7832 12.123 31.1135 12.1192 31.435 12.1158C31.7565 12.1123 32.0694 12.1089 32.3737 12.1054C32.678 12.102 32.9792 12.1 33.2775 12.0996C33.5757 12.0996 33.8726 12.0998 34.1678 12.1002C34.4635 12.1007 34.7425 12.1011 35.0051 12.1016C35.268 12.1024 35.515 12.1032 35.7462 12.1041C35.9777 12.105 36.1807 12.1056 36.355 12.1061C36.5293 12.1069 36.6821 12.1076 36.8133 12.108C36.9446 12.1085 37.0789 12.1093 37.2162 12.1106C37.3535 12.1114 37.5164 12.113 37.705 12.1151C37.8935 12.1173 38.0647 12.119 38.2188 12.1203C38.3733 12.122 38.5405 12.1237 38.7204 12.1255C38.9003 12.1272 39.081 12.1291 39.2626 12.1313C39.4443 12.1339 39.5707 12.1358 39.6417 12.137C39.7127 12.1388 39.8633 12.1418 40.0936 12.1461C40.3238 12.1504 40.5388 12.1545 40.7385 12.1584C40.9378 12.1618 41.1273 12.1653 41.3072 12.1687C41.4871 12.1717 41.6681 12.1754 41.8501 12.1797C42.0326 12.1835 42.2459 12.1887 42.4899 12.1952C42.7344 12.2017 42.9297 12.2068 43.0761 12.2106C43.222 12.215 43.3309 12.2182 43.4028 12.2203C43.4747 12.2225 43.802 12.2319 44.3847 12.2487" stroke="#FFBC00" stroke-linecap="round" stroke-linejoin="round"/>
<path d="M44.5138 9.55078L44.5067 9.68633C44.5067 9.68633 44.5087 9.72721 44.51 9.80769C44.5109 9.88817 44.5119 10.0082 44.5131 10.1679C44.5144 10.3272 44.5156 10.526 44.5165 10.7645C44.5177 11.0025 44.5185 11.2789 44.519 11.594L44.5119 12.0634" fill="white"/>
<path d="M44.5138 9.55078L44.5067 9.68633C44.5067 9.68633 44.5087 9.72721 44.51 9.80769C44.5109 9.88817 44.5119 10.0082 44.5131 10.1679C44.5144 10.3272 44.5156 10.526 44.5165 10.7645C44.5177 11.0025 44.5185 11.2789 44.519 11.594L44.5119 12.0634" stroke="#FFBC00" stroke-linecap="round" stroke-linejoin="round"/>
<path d="M17.1271 16.4082L17.3304 16.4089C17.389 16.4093 17.4834 16.4099 17.6138 16.4108C17.7446 16.4112 17.9115 16.4117 18.1142 16.4121C18.3169 16.4121 18.5251 16.4123 18.739 16.4128C18.9529 16.4132 19.1416 16.4134 19.3047 16.4134C19.4682 16.4138 19.6418 16.414 19.8256 16.414C20.0094 16.4145 20.1833 16.4149 20.3473 16.4153C20.5113 16.4153 20.7013 16.4156 20.9178 16.416C21.1347 16.416 21.3481 16.4162 21.5577 16.4166C21.7673 16.4166 21.9853 16.4168 22.2117 16.4173C22.4385 16.4173 22.6431 16.4175 22.8256 16.4179C23.008 16.4179 23.1704 16.4179 23.3124 16.4179C23.4545 16.4183 23.6067 16.4183 23.7693 16.4179C23.932 16.4179 24.105 16.4179 24.2879 16.4179C24.4708 16.4175 24.6638 16.4173 24.867 16.4173C25.0705 16.4168 25.2631 16.4166 25.4448 16.4166C25.6259 16.4162 25.8361 16.4157 26.0754 16.4153C26.3147 16.4153 26.5501 16.4151 26.7816 16.4147C27.0132 16.4142 27.2164 16.414 27.3911 16.414C27.5663 16.4136 27.7428 16.4134 27.9205 16.4134C28.0983 16.4138 28.2446 16.4138 28.3595 16.4134C28.4748 16.4134 28.593 16.4136 28.7139 16.414C28.8349 16.414 28.978 16.4142 29.1433 16.4147C29.3085 16.4151 29.4866 16.4156 29.6777 16.416C29.8693 16.4164 30.0735 16.4168 30.2904 16.4173C30.5077 16.4177 30.7007 16.4179 30.8694 16.4179C31.0386 16.4183 31.2135 16.4185 31.3943 16.4185C31.5755 16.4185 31.7123 16.4185 31.8049 16.4185C31.8978 16.4185 32.0117 16.4185 32.1464 16.4185C32.2811 16.4185 32.4523 16.4188 32.6598 16.4192C32.8676 16.4192 33.0726 16.4194 33.2749 16.4199C33.4776 16.4203 33.6777 16.4209 33.8753 16.4218C34.0728 16.4222 34.2579 16.4229 34.4305 16.4237C34.6027 16.4246 34.7625 16.4255 34.9101 16.4263C35.0578 16.4276 35.2097 16.4287 35.3659 16.4296C35.5222 16.4304 35.6832 16.4315 35.8489 16.4328C36.0141 16.4337 36.1975 16.4345 36.3989 16.4353C36.6004 16.4366 36.8207 16.4375 37.06 16.4379C37.2988 16.4388 37.5248 16.4395 37.7378 16.4399C37.9509 16.4403 38.1508 16.4407 38.3376 16.4411C38.5244 16.4411 38.712 16.4416 38.9006 16.4425C39.0891 16.4433 39.2788 16.4443 39.4698 16.4456C39.6605 16.4469 39.8488 16.4485 40.0347 16.4502C40.2202 16.4515 40.4488 16.453 40.7203 16.4547C40.9923 16.4569 41.2888 16.4592 41.6099 16.4618C41.9314 16.4639 42.2265 16.4659 42.495 16.4676C42.7636 16.4698 42.9576 16.4711 43.0768 16.4715C43.196 16.4723 43.5088 16.4752 44.0154 16.4799" fill="white"/>
<path d="M17.1271 16.4082L17.3304 16.4089C17.389 16.4093 17.4834 16.4099 17.6138 16.4108C17.7446 16.4112 17.9115 16.4117 18.1142 16.4121C18.3169 16.4121 18.5251 16.4123 18.739 16.4128C18.9529 16.4132 19.1416 16.4134 19.3047 16.4134C19.4682 16.4138 19.6418 16.414 19.8256 16.414C20.0094 16.4145 20.1833 16.4149 20.3473 16.4153C20.5113 16.4153 20.7013 16.4156 20.9178 16.416C21.1347 16.416 21.3481 16.4162 21.5577 16.4166C21.7673 16.4166 21.9853 16.4168 22.2117 16.4173C22.4385 16.4173 22.6431 16.4175 22.8256 16.4179C23.008 16.4179 23.1704 16.4179 23.3124 16.4179C23.4545 16.4183 23.6067 16.4183 23.7693 16.4179C23.932 16.4179 24.105 16.4179 24.2879 16.4179C24.4708 16.4175 24.6638 16.4173 24.867 16.4173C25.0705 16.4168 25.2631 16.4166 25.4448 16.4166C25.6259 16.4162 25.8361 16.4157 26.0754 16.4153C26.3147 16.4153 26.5501 16.4151 26.7816 16.4147C27.0132 16.4142 27.2164 16.414 27.3911 16.414C27.5663 16.4136 27.7428 16.4134 27.9205 16.4134C28.0983 16.4138 28.2446 16.4138 28.3595 16.4134C28.4748 16.4134 28.593 16.4136 28.7139 16.414C28.8349 16.414 28.978 16.4142 29.1433 16.4147C29.3085 16.4151 29.4866 16.4156 29.6777 16.416C29.8693 16.4164 30.0735 16.4168 30.2904 16.4173C30.5077 16.4177 30.7007 16.4179 30.8694 16.4179C31.0386 16.4183 31.2135 16.4185 31.3943 16.4185C31.5755 16.4185 31.7123 16.4185 31.8049 16.4185C31.8978 16.4185 32.0117 16.4185 32.1464 16.4185C32.2811 16.4185 32.4523 16.4188 32.6598 16.4192C32.8676 16.4192 33.0726 16.4194 33.2749 16.4199C33.4776 16.4203 33.6777 16.4209 33.8753 16.4218C34.0728 16.4222 34.2579 16.4229 34.4305 16.4237C34.6027 16.4246 34.7625 16.4255 34.9101 16.4263C35.0578 16.4276 35.2097 16.4287 35.3659 16.4296C35.5222 16.4304 35.6832 16.4315 35.8489 16.4328C36.0141 16.4337 36.1975 16.4345 36.3989 16.4353C36.6004 16.4366 36.8207 16.4375 37.06 16.4379C37.2988 16.4388 37.5248 16.4395 37.7378 16.4399C37.9509 16.4403 38.1508 16.4407 38.3376 16.4411C38.5244 16.4411 38.712 16.4416 38.9006 16.4425C39.0891 16.4433 39.2788 16.4443 39.4698 16.4456C39.6605 16.4469 39.8488 16.4485 40.0347 16.4502C40.2202 16.4515 40.4488 16.453 40.7203 16.4547C40.9923 16.4569 41.2888 16.4592 41.6099 16.4618C41.9314 16.4639 42.2265 16.4659 42.495 16.4676C42.7636 16.4698 42.9576 16.4711 43.0768 16.4715C43.196 16.4723 43.5088 16.4752 44.0154 16.4799" stroke="#FFBC00" stroke-linecap="round" stroke-linejoin="round"/>
<path d="M17.2073 20.2681C17.4126 20.266 17.6201 20.2634 17.8302 20.2604C18.0406 20.2578 18.2254 20.2554 18.3842 20.2533C18.543 20.2511 18.7112 20.2488 18.889 20.2462C19.0663 20.2436 19.236 20.2413 19.3982 20.2391C19.5609 20.237 19.7525 20.2343 19.9729 20.2313C20.1932 20.2283 20.4198 20.2255 20.6527 20.223C20.8851 20.2199 21.1374 20.2171 21.4094 20.2145C21.6809 20.2115 21.9333 20.2089 22.1665 20.2068C22.3998 20.2046 22.6032 20.203 22.7766 20.2017C22.9501 20.2004 23.1325 20.1988 23.324 20.1971C23.5156 20.1958 23.716 20.1945 23.9252 20.1932C24.1343 20.192 24.3523 20.1909 24.5791 20.19C24.8063 20.1887 25.0196 20.1876 25.2188 20.1868C25.4185 20.1855 25.6045 20.1844 25.7766 20.1835C25.9488 20.1831 26.1072 20.1827 26.2518 20.1823C26.3964 20.1819 26.5563 20.1814 26.7314 20.1809C26.907 20.1805 27.1087 20.1801 27.3364 20.1797C27.564 20.1797 27.7887 20.1799 28.0103 20.1803C28.232 20.1803 28.4459 20.1805 28.6521 20.1809C28.8583 20.1814 29.0368 20.1819 29.1878 20.1823C29.3389 20.1827 29.4964 20.1831 29.6603 20.1835C29.8248 20.184 29.983 20.1845 30.1349 20.1849C30.2873 20.1853 30.4685 20.1859 30.6785 20.1868C30.8885 20.1872 31.1095 20.1881 31.3414 20.1894C31.573 20.1902 31.7777 20.1908 31.9555 20.1913C32.1332 20.1921 32.3151 20.193 32.501 20.1939C32.6869 20.1947 32.8679 20.1956 33.044 20.1965C33.22 20.1978 33.411 20.1992 33.6172 20.201C33.8233 20.2027 34.0743 20.205 34.3699 20.2081C34.6652 20.2106 34.9354 20.2133 35.1807 20.2159C35.4256 20.218 35.6457 20.22 35.8406 20.2217C36.0356 20.2234 36.2266 20.2249 36.4139 20.2262C36.6006 20.2279 36.7837 20.2292 36.9631 20.23C37.1426 20.2313 37.3488 20.2326 37.5816 20.2339C37.814 20.2356 38.0759 20.2371 38.3673 20.2384C38.6582 20.2397 38.9178 20.2406 39.1459 20.241C39.374 20.2419 39.6081 20.2423 39.8482 20.2423C40.0884 20.2428 40.3039 20.2428 40.4946 20.2423C40.6848 20.2423 40.9688 20.2417 41.3466 20.2404C41.7241 20.2391 42.0918 20.2374 42.4499 20.2352C42.8076 20.2331 43.1076 20.2313 43.3499 20.23C43.5926 20.2288 43.8186 20.2273 44.0278 20.2256" fill="white"/>
<path d="M17.2073 20.2681C17.4126 20.266 17.6201 20.2634 17.8302 20.2604C18.0406 20.2578 18.2254 20.2554 18.3842 20.2533C18.543 20.2511 18.7112 20.2488 18.889 20.2462C19.0663 20.2436 19.236 20.2413 19.3982 20.2391C19.5609 20.237 19.7525 20.2343 19.9729 20.2313C20.1932 20.2283 20.4198 20.2255 20.6527 20.223C20.8851 20.2199 21.1374 20.2171 21.4094 20.2145C21.6809 20.2115 21.9333 20.2089 22.1665 20.2068C22.3998 20.2046 22.6032 20.203 22.7766 20.2017C22.9501 20.2004 23.1325 20.1988 23.324 20.1971C23.5156 20.1958 23.716 20.1945 23.9252 20.1932C24.1343 20.192 24.3523 20.1909 24.5791 20.19C24.8063 20.1887 25.0196 20.1876 25.2188 20.1868C25.4185 20.1855 25.6045 20.1844 25.7766 20.1835C25.9488 20.1831 26.1072 20.1827 26.2518 20.1823C26.3964 20.1819 26.5563 20.1814 26.7314 20.1809C26.907 20.1805 27.1087 20.1801 27.3364 20.1797C27.564 20.1797 27.7887 20.1799 28.0103 20.1803C28.232 20.1803 28.4459 20.1805 28.6521 20.1809C28.8583 20.1814 29.0368 20.1819 29.1878 20.1823C29.3389 20.1827 29.4964 20.1831 29.6603 20.1835C29.8248 20.184 29.983 20.1845 30.1349 20.1849C30.2873 20.1853 30.4685 20.1859 30.6785 20.1868C30.8885 20.1872 31.1095 20.1881 31.3414 20.1894C31.573 20.1902 31.7777 20.1908 31.9555 20.1913C32.1332 20.1921 32.3151 20.193 32.501 20.1939C32.6869 20.1947 32.8679 20.1956 33.044 20.1965C33.22 20.1978 33.411 20.1992 33.6172 20.201C33.8233 20.2027 34.0743 20.205 34.3699 20.2081C34.6652 20.2106 34.9354 20.2133 35.1807 20.2159C35.4256 20.218 35.6457 20.22 35.8406 20.2217C36.0356 20.2234 36.2266 20.2249 36.4139 20.2262C36.6006 20.2279 36.7837 20.2292 36.9631 20.23C37.1426 20.2313 37.3488 20.2326 37.5816 20.2339C37.814 20.2356 38.0759 20.2371 38.3673 20.2384C38.6582 20.2397 38.9178 20.2406 39.1459 20.241C39.374 20.2419 39.6081 20.2423 39.8482 20.2423C40.0884 20.2428 40.3039 20.2428 40.4946 20.2423C40.6848 20.2423 40.9688 20.2417 41.3466 20.2404C41.7241 20.2391 42.0918 20.2374 42.4499 20.2352C42.8076 20.2331 43.1076 20.2313 43.3499 20.23C43.5926 20.2288 43.8186 20.2273 44.0278 20.2256" stroke="#FFBC00" stroke-linecap="round" stroke-linejoin="round"/>
<path d="M17.1155 24.0166L17.3234 24.0076C17.3432 24.0071 17.5211 24.0059 17.8573 24.0037C18.1938 24.002 18.6947 24.0005 19.3596 23.9992C20.0246 23.9984 20.5231 23.9977 20.8554 23.9973C21.1876 23.9968 21.5096 23.9957 21.8212 23.994C22.1328 23.9923 22.3054 23.9891 22.339 23.9843L22.5519 23.9805" fill="white"/>
<path d="M17.1155 24.0166L17.3234 24.0076C17.3432 24.0071 17.5211 24.0059 17.8573 24.0037C18.1938 24.002 18.6947 24.0005 19.3596 23.9992C20.0246 23.9984 20.5231 23.9977 20.8554 23.9973C21.1876 23.9968 21.5096 23.9957 21.8212 23.994C22.1328 23.9923 22.3054 23.9891 22.339 23.9843L22.5519 23.9805" stroke="#FFBC00" stroke-linecap="round" stroke-linejoin="round"/>
<path d="M16.7443 28.834C16.7435 28.9261 16.7421 28.9949 16.7404 29.0405C16.7391 29.0862 16.7332 29.5486 16.7224 30.4279C16.7117 31.3072 16.7038 32.0068 16.6991 32.5267C16.6944 33.0461 16.6894 33.97 16.6843 35.2981C16.6791 36.6259 16.6761 37.3537 16.6753 37.4815C16.6749 37.6093 16.6745 37.6885 16.6745 37.719C16.6749 37.7492 16.6767 37.8228 16.6797 37.9399" fill="white"/>
<path d="M16.7443 28.834C16.7435 28.9261 16.7421 28.9949 16.7404 29.0405C16.7391 29.0862 16.7332 29.5486 16.7224 30.4279C16.7117 31.3072 16.7038 32.0068 16.6991 32.5267C16.6944 33.0461 16.6894 33.97 16.6843 35.2981C16.6791 36.6259 16.6761 37.3537 16.6753 37.4815C16.6749 37.6093 16.6745 37.6885 16.6745 37.719C16.6749 37.7492 16.6767 37.8228 16.6797 37.9399" stroke="#FFBC00" stroke-linecap="round" stroke-linejoin="round"/>
<path d="M16.8023 28.4852C16.8281 28.4848 17.0619 28.4773 17.5035 28.4627C17.9447 28.4476 18.3254 28.4352 18.6456 28.4253C18.9654 28.4149 19.298 28.4048 19.6436 28.3949C19.9896 28.385 20.3242 28.3757 20.6474 28.3671C20.9711 28.3581 21.3588 28.3482 21.8107 28.3375C22.2626 28.3267 22.6722 28.3172 23.0393 28.309C23.4069 28.3013 23.7289 28.2948 24.0052 28.2896C24.281 28.2845 24.53 28.28 24.7521 28.2761C24.9742 28.2726 25.1385 28.2701 25.2453 28.2684C25.352 28.2671 25.5466 28.2649 25.8289 28.2619C26.1117 28.2589 26.4996 28.2546 26.9929 28.249C27.4857 28.2438 27.9052 28.2395 28.2517 28.236C28.5982 28.2322 28.8717 28.2294 29.0722 28.2277C29.2728 28.226 29.5098 28.2242 29.7831 28.2225C30.0568 28.2208 30.3662 28.2193 30.7114 28.218C31.057 28.2163 31.4081 28.2148 31.7649 28.2135C32.1217 28.2122 32.4839 28.2109 32.8515 28.2096C33.2186 28.2079 33.5528 28.2068 33.854 28.2064C34.1553 28.2056 34.4826 28.2051 34.8359 28.2051C35.1897 28.2051 35.4746 28.2058 35.6907 28.207C35.9072 28.2079 36.2072 28.2098 36.5906 28.2128C36.9745 28.2162 37.3692 28.2204 37.7746 28.2251C38.1805 28.2298 38.5166 28.2348 38.783 28.24C39.0499 28.2452 39.3591 28.2526 39.7107 28.2625C40.0619 28.272 40.3668 28.281 40.6255 28.2896C40.8842 28.2982 41.1039 28.3058 41.2846 28.3123C41.4658 28.3187 41.662 28.3265 41.8728 28.3355C42.0842 28.3445 42.3155 28.3547 42.5668 28.3658C42.8177 28.377 43.2365 28.3966 43.8231 28.4246" fill="white"/>
<path d="M16.8023 28.4852C16.8281 28.4848 17.0619 28.4773 17.5035 28.4627C17.9447 28.4476 18.3254 28.4352 18.6456 28.4253C18.9654 28.4149 19.298 28.4048 19.6436 28.3949C19.9896 28.385 20.3242 28.3757 20.6474 28.3671C20.9711 28.3581 21.3588 28.3482 21.8107 28.3375C22.2626 28.3267 22.6722 28.3172 23.0393 28.309C23.4069 28.3013 23.7289 28.2948 24.0052 28.2896C24.281 28.2845 24.53 28.28 24.7521 28.2761C24.9742 28.2726 25.1385 28.2701 25.2453 28.2684C25.352 28.2671 25.5466 28.2649 25.8289 28.2619C26.1117 28.2589 26.4996 28.2546 26.9929 28.249C27.4857 28.2438 27.9052 28.2395 28.2517 28.236C28.5982 28.2322 28.8717 28.2294 29.0722 28.2277C29.2728 28.226 29.5098 28.2242 29.7831 28.2225C30.0568 28.2208 30.3662 28.2193 30.7114 28.218C31.057 28.2163 31.4081 28.2148 31.7649 28.2135C32.1217 28.2122 32.4839 28.2109 32.8515 28.2096C33.2186 28.2079 33.5528 28.2068 33.854 28.2064C34.1553 28.2056 34.4826 28.2051 34.8359 28.2051C35.1897 28.2051 35.4746 28.2058 35.6907 28.207C35.9072 28.2079 36.2072 28.2098 36.5906 28.2128C36.9745 28.2162 37.3692 28.2204 37.7746 28.2251C38.1805 28.2298 38.5166 28.2348 38.783 28.24C39.0499 28.2452 39.3591 28.2526 39.7107 28.2625C40.0619 28.272 40.3668 28.281 40.6255 28.2896C40.8842 28.2982 41.1039 28.3058 41.2846 28.3123C41.4658 28.3187 41.662 28.3265 41.8728 28.3355C42.0842 28.3445 42.3155 28.3547 42.5668 28.3658C42.8177 28.377 43.2365 28.3966 43.8231 28.4246" stroke="#FFBC00" stroke-linecap="round" stroke-linejoin="round"/>
<path d="M16.7437 38.1595C16.7768 38.1582 17.0733 38.1511 17.6332 38.1382C18.1931 38.1253 18.7572 38.1137 19.3253 38.1034C19.8934 38.0931 20.3631 38.0848 20.7345 38.0788C21.1055 38.0732 21.3669 38.0694 21.5183 38.0672C21.6698 38.0646 21.867 38.0616 22.1097 38.0582C22.3524 38.0551 22.6664 38.0511 23.0516 38.0459C23.4368 38.0412 23.8022 38.0371 24.1478 38.0336C24.4934 38.0302 24.8953 38.0268 25.3537 38.0233C25.8125 38.0199 26.2028 38.0175 26.5247 38.0162C26.8471 38.0145 27.1467 38.0134 27.4234 38.013C27.6997 38.0126 27.9711 38.0124 28.2375 38.0124C28.5039 38.0128 28.811 38.013 29.1587 38.013C29.5069 38.013 29.8179 38.013 30.0916 38.013C30.3658 38.013 30.6531 38.0128 30.9535 38.0124C31.2539 38.0124 31.6951 38.0119 32.2769 38.011C32.8588 38.0102 33.3744 38.01 33.8237 38.0104C34.2731 38.0108 34.6642 38.0112 34.9973 38.0117C35.3304 38.0117 35.6768 38.0113 36.0361 38.0104C36.3959 38.01 36.692 38.0098 36.9244 38.0098C37.1573 38.0098 37.3988 38.0102 37.6493 38.011C37.8993 38.0119 38.1972 38.0132 38.5428 38.0149C38.888 38.0162 39.1628 38.0173 39.3673 38.0181C39.5713 38.019 39.7209 38.0201 39.816 38.0214C39.9111 38.0222 40.045 38.0231 40.218 38.024C40.3915 38.0248 40.5717 38.0257 40.7585 38.0266C40.9449 38.0278 41.111 38.0291 41.2569 38.0304C41.4023 38.0321 41.5041 38.0332 41.5622 38.0336C41.6207 38.0341 41.8263 38.0352 42.1787 38.0369C42.5317 38.039 42.7946 38.0405 42.9676 38.0414C43.1402 38.0422 43.2857 38.0431 43.404 38.044C43.5224 38.0453 43.6757 38.0459 43.8638 38.0459" fill="white"/>
<path d="M16.7437 38.1595C16.7768 38.1582 17.0733 38.1511 17.6332 38.1382C18.1931 38.1253 18.7572 38.1137 19.3253 38.1034C19.8934 38.0931 20.3631 38.0848 20.7345 38.0788C21.1055 38.0732 21.3669 38.0694 21.5183 38.0672C21.6698 38.0646 21.867 38.0616 22.1097 38.0582C22.3524 38.0551 22.6664 38.0511 23.0516 38.0459C23.4368 38.0412 23.8022 38.0371 24.1478 38.0336C24.4934 38.0302 24.8953 38.0268 25.3537 38.0233C25.8125 38.0199 26.2028 38.0175 26.5247 38.0162C26.8471 38.0145 27.1467 38.0134 27.4234 38.013C27.6997 38.0126 27.9711 38.0124 28.2375 38.0124C28.5039 38.0128 28.811 38.013 29.1587 38.013C29.5069 38.013 29.8179 38.013 30.0916 38.013C30.3658 38.013 30.6531 38.0128 30.9535 38.0124C31.2539 38.0124 31.6951 38.0119 32.2769 38.011C32.8588 38.0102 33.3744 38.01 33.8237 38.0104C34.2731 38.0108 34.6642 38.0112 34.9973 38.0117C35.3304 38.0117 35.6768 38.0113 36.0361 38.0104C36.3959 38.01 36.692 38.0098 36.9244 38.0098C37.1573 38.0098 37.3988 38.0102 37.6493 38.011C37.8993 38.0119 38.1972 38.0132 38.5428 38.0149C38.888 38.0162 39.1628 38.0173 39.3673 38.0181C39.5713 38.019 39.7209 38.0201 39.816 38.0214C39.9111 38.0222 40.045 38.0231 40.218 38.024C40.3915 38.0248 40.5717 38.0257 40.7585 38.0266C40.9449 38.0278 41.111 38.0291 41.2569 38.0304C41.4023 38.0321 41.5041 38.0332 41.5622 38.0336C41.6207 38.0341 41.8263 38.0352 42.1787 38.0369C42.5317 38.039 42.7946 38.0405 42.9676 38.0414C43.1402 38.0422 43.2857 38.0431 43.404 38.044C43.5224 38.0453 43.6757 38.0459 43.8638 38.0459" stroke="#FFBC00" stroke-linecap="round" stroke-linejoin="round"/>
<path d="M43.9884 28.5566C43.9845 28.6388 43.9824 28.6922 43.9819 28.7167C43.9815 28.7408 43.9805 28.8106 43.9788 28.9259C43.977 29.0408 43.9757 29.162 43.9748 29.2894C43.974 29.4172 43.9751 29.5704 43.9781 29.749C43.9807 29.9276 43.9835 30.1828 43.9865 30.5147C43.9899 30.8465 43.9927 31.159 43.9948 31.452C43.9974 31.7447 43.9978 32.0707 43.9961 32.4301C43.9948 32.7895 43.9927 33.2143 43.9896 33.7045C43.9866 34.1943 43.9837 34.5284 43.9807 34.7071C43.9772 34.8861 43.9741 35.0819 43.971 35.2945C43.9685 35.5072 43.9663 35.7641 43.9646 36.0653C43.9629 36.3666 43.9621 36.6051 43.9625 36.7807C43.9625 36.9567 43.9629 37.0873 43.9638 37.1725C43.9642 37.2577 43.9638 37.3221 43.9625 37.3656C43.9617 37.4095 43.9613 37.5751 43.9613 37.8626" fill="white"/>
<path d="M43.9884 28.5566C43.9845 28.6388 43.9824 28.6922 43.9819 28.7167C43.9815 28.7408 43.9805 28.8106 43.9788 28.9259C43.977 29.0408 43.9757 29.162 43.9748 29.2894C43.974 29.4172 43.9751 29.5704 43.9781 29.749C43.9807 29.9276 43.9835 30.1828 43.9865 30.5147C43.9899 30.8465 43.9927 31.159 43.9948 31.452C43.9974 31.7447 43.9978 32.0707 43.9961 32.4301C43.9948 32.7895 43.9927 33.2143 43.9896 33.7045C43.9866 34.1943 43.9837 34.5284 43.9807 34.7071C43.9772 34.8861 43.9741 35.0819 43.971 35.2945C43.9685 35.5072 43.9663 35.7641 43.9646 36.0653C43.9629 36.3666 43.9621 36.6051 43.9625 36.7807C43.9625 36.9567 43.9629 37.0873 43.9638 37.1725C43.9642 37.2577 43.9638 37.3221 43.9625 37.3656C43.9617 37.4095 43.9613 37.5751 43.9613 37.8626" stroke="#FFBC00" stroke-linecap="round" stroke-linejoin="round"/>
<path d="M17.0283 43.1827C17.104 43.181 17.2454 43.178 17.4524 43.1737C17.6594 43.1694 17.8966 43.1647 18.1639 43.1595C18.4307 43.1539 18.7621 43.147 19.1581 43.1388C19.5541 43.1311 19.9041 43.1239 20.2084 43.1175C20.5127 43.1115 20.8241 43.1053 21.1426 43.0988C21.4606 43.0928 21.9168 43.0835 22.5111 43.071C23.1051 43.0589 23.7194 43.0469 24.3542 43.0349C24.9891 43.0224 25.5013 43.0127 25.8908 43.0058C26.2803 42.9989 26.7641 42.991 27.3421 42.9819C27.9197 42.9729 28.3791 42.966 28.7204 42.9613C29.0617 42.9561 29.3142 42.9527 29.4782 42.951C29.6422 42.9488 30.0158 42.9443 30.599 42.9374C31.1826 42.9305 31.7165 42.9241 32.2006 42.918C32.6853 42.9124 33.2523 42.9064 33.9017 42.8999C34.5512 42.8939 35.0591 42.8894 35.4254 42.8863C35.7916 42.8833 36.2576 42.8804 36.8231 42.8774C37.3882 42.8748 37.8186 42.8728 38.1142 42.8715C38.4095 42.8707 38.7195 42.8698 39.0445 42.8689C39.3698 42.8676 39.7242 42.8658 40.1077 42.8632C40.4912 42.8606 40.7729 42.8586 40.9528 42.8573C41.1327 42.8556 41.352 42.8545 41.6107 42.8541C41.8698 42.8533 42.4419 42.8511 43.3273 42.8477" fill="white"/>
<path d="M17.0283 43.1827C17.104 43.181 17.2454 43.178 17.4524 43.1737C17.6594 43.1694 17.8966 43.1647 18.1639 43.1595C18.4307 43.1539 18.7621 43.147 19.1581 43.1388C19.5541 43.1311 19.9041 43.1239 20.2084 43.1175C20.5127 43.1115 20.8241 43.1053 21.1426 43.0988C21.4606 43.0928 21.9168 43.0835 22.5111 43.071C23.1051 43.0589 23.7194 43.0469 24.3542 43.0349C24.9891 43.0224 25.5013 43.0127 25.8908 43.0058C26.2803 42.9989 26.7641 42.991 27.3421 42.9819C27.9197 42.9729 28.3791 42.966 28.7204 42.9613C29.0617 42.9561 29.3142 42.9527 29.4782 42.951C29.6422 42.9488 30.0158 42.9443 30.599 42.9374C31.1826 42.9305 31.7165 42.9241 32.2006 42.918C32.6853 42.9124 33.2523 42.9064 33.9017 42.8999C34.5512 42.8939 35.0591 42.8894 35.4254 42.8863C35.7916 42.8833 36.2576 42.8804 36.8231 42.8774C37.3882 42.8748 37.8186 42.8728 38.1142 42.8715C38.4095 42.8707 38.7195 42.8698 39.0445 42.8689C39.3698 42.8676 39.7242 42.8658 40.1077 42.8632C40.4912 42.8606 40.7729 42.8586 40.9528 42.8573C41.1327 42.8556 41.352 42.8545 41.6107 42.8541C41.8698 42.8533 42.4419 42.8511 43.3273 42.8477" stroke="#FFBC00" stroke-linecap="round" stroke-linejoin="round"/>
<path d="M16.883 47.1178C16.9093 47.1178 17.1967 47.116 17.745 47.1126C18.2937 47.1091 18.734 47.1062 19.0658 47.1036C19.3976 47.1015 19.7383 47.099 20.0877 47.0964C20.4372 47.0943 20.9145 47.0915 21.5197 47.0881C22.1239 47.0851 22.6537 47.082 23.109 47.079C23.5644 47.076 23.8754 47.0737 24.0419 47.0719C24.2085 47.0706 24.4095 47.069 24.6449 47.0668C24.8804 47.0647 25.1774 47.062 25.5364 47.059C25.8958 47.0556 26.2115 47.0528 26.4835 47.0507C26.7559 47.0489 27.0312 47.047 27.3092 47.0448C27.5872 47.0427 27.8125 47.0412 27.985 47.0403C28.1576 47.0395 28.3581 47.0386 28.5862 47.0377C28.8139 47.0373 29.0909 47.0364 29.4176 47.0351C29.7438 47.0338 30.1461 47.0328 30.6243 47.0319C31.102 47.031 31.5915 47.031 32.0929 47.0319C32.5947 47.0323 32.989 47.0332 33.2756 47.0345C33.5622 47.0358 33.9826 47.0377 34.5365 47.0403C35.0904 47.0429 35.5416 47.0455 35.8902 47.0481C36.2384 47.0502 36.5123 47.052 36.712 47.0533C36.9117 47.055 37.1618 47.0563 37.4622 47.0571C37.7631 47.0584 38.0851 47.0599 38.4286 47.0616C38.7724 47.0638 39.0707 47.065 39.3233 47.0655C39.576 47.0663 39.8133 47.0665 40.0354 47.0661C40.2575 47.0657 40.4564 47.0653 40.632 47.0648C40.8076 47.0648 41.0479 47.0648 41.3531 47.0648C41.6578 47.0648 41.89 47.0648 42.0497 47.0648C42.2094 47.0644 42.4159 47.064 42.6694 47.0636C42.9229 47.0636 43.1678 47.0633 43.4041 47.0629" fill="white"/>
<path d="M16.883 47.1178C16.9093 47.1178 17.1967 47.116 17.745 47.1126C18.2937 47.1091 18.734 47.1062 19.0658 47.1036C19.3976 47.1015 19.7383 47.099 20.0877 47.0964C20.4372 47.0943 20.9145 47.0915 21.5197 47.0881C22.1239 47.0851 22.6537 47.082 23.109 47.079C23.5644 47.076 23.8754 47.0737 24.0419 47.0719C24.2085 47.0706 24.4095 47.069 24.6449 47.0668C24.8804 47.0647 25.1774 47.062 25.5364 47.059C25.8958 47.0556 26.2115 47.0528 26.4835 47.0507C26.7559 47.0489 27.0312 47.047 27.3092 47.0448C27.5872 47.0427 27.8125 47.0412 27.985 47.0403C28.1576 47.0395 28.3581 47.0386 28.5862 47.0377C28.8139 47.0373 29.0909 47.0364 29.4176 47.0351C29.7438 47.0338 30.1461 47.0328 30.6243 47.0319C31.102 47.031 31.5915 47.031 32.0929 47.0319C32.5947 47.0323 32.989 47.0332 33.2756 47.0345C33.5622 47.0358 33.9826 47.0377 34.5365 47.0403C35.0904 47.0429 35.5416 47.0455 35.8902 47.0481C36.2384 47.0502 36.5123 47.052 36.712 47.0533C36.9117 47.055 37.1618 47.0563 37.4622 47.0571C37.7631 47.0584 38.0851 47.0599 38.4286 47.0616C38.7724 47.0638 39.0707 47.065 39.3233 47.0655C39.576 47.0663 39.8133 47.0665 40.0354 47.0661C40.2575 47.0657 40.4564 47.0653 40.632 47.0648C40.8076 47.0648 41.0479 47.0648 41.3531 47.0648C41.6578 47.0648 41.89 47.0648 42.0497 47.0648C42.2094 47.0644 42.4159 47.064 42.6694 47.0636C42.9229 47.0636 43.1678 47.0633 43.4041 47.0629" stroke="#FFBC00" stroke-linecap="round" stroke-linejoin="round"/>
<path d="M16.8217 51.054C16.9443 51.054 17.0329 51.054 17.0871 51.054C17.1413 51.0544 17.1865 51.0549 17.2227 51.0553C17.2584 51.0558 17.31 51.0562 17.3776 51.0566C17.4447 51.0574 17.5881 51.0576 17.8075 51.0572C18.027 51.0568 18.2385 51.0562 18.4421 51.0553C18.6457 51.054 18.8656 51.0527 19.1019 51.0514C19.3377 51.0497 19.624 51.0473 19.9605 51.0443C20.2975 51.0417 20.5932 51.0392 20.8476 51.0366C21.1019 51.0344 21.3578 51.0321 21.6151 51.0295C21.8734 51.0269 22.1691 51.0239 22.5022 51.0204C22.8353 51.017 23.2668 51.0125 23.7966 51.0069C24.3269 51.0013 24.8969 50.9957 25.5067 50.9901C26.1166 50.9845 26.5874 50.9802 26.9192 50.9772C27.2511 50.9741 27.6076 50.9716 27.989 50.9694C28.3703 50.9673 28.8643 50.9645 29.4711 50.9611C30.0776 50.9581 30.5495 50.9561 30.887 50.9552C31.2248 50.9548 31.6405 50.9552 32.1342 50.9565C32.6282 50.9578 32.9883 50.9594 33.2143 50.9611C33.4398 50.9624 33.6982 50.964 33.9896 50.9662C34.2814 50.9684 34.5511 50.9701 34.7986 50.9714C35.0465 50.9727 35.4131 50.9742 35.8986 50.9759C36.3845 50.9776 36.8802 50.9796 37.3859 50.9817C37.8912 50.9834 38.3909 50.9856 38.885 50.9882C39.3791 50.9903 39.7427 50.9918 39.976 50.9927C40.2097 50.9931 40.3922 50.9938 40.5235 50.9946C40.6548 50.9955 40.7765 50.9966 40.8889 50.9979C41.0012 50.9992 41.1997 51.0002 41.4842 51.001C41.7691 51.0023 41.9694 51.0032 42.0851 51.0036C42.2013 51.0041 42.3292 51.0047 42.4686 51.0056C42.608 51.0065 42.8727 51.0077 43.2627 51.0095" fill="white"/>
<path d="M16.8217 51.054C16.9443 51.054 17.0329 51.054 17.0871 51.054C17.1413 51.0544 17.1865 51.0549 17.2227 51.0553C17.2584 51.0558 17.31 51.0562 17.3776 51.0566C17.4447 51.0574 17.5881 51.0576 17.8075 51.0572C18.027 51.0568 18.2385 51.0562 18.4421 51.0553C18.6457 51.054 18.8656 51.0527 19.1019 51.0514C19.3377 51.0497 19.624 51.0473 19.9605 51.0443C20.2975 51.0417 20.5932 51.0392 20.8476 51.0366C21.1019 51.0344 21.3578 51.0321 21.6151 51.0295C21.8734 51.0269 22.1691 51.0239 22.5022 51.0204C22.8353 51.017 23.2668 51.0125 23.7966 51.0069C24.3269 51.0013 24.8969 50.9957 25.5067 50.9901C26.1166 50.9845 26.5874 50.9802 26.9192 50.9772C27.2511 50.9741 27.6076 50.9716 27.989 50.9694C28.3703 50.9673 28.8643 50.9645 29.4711 50.9611C30.0776 50.9581 30.5495 50.9561 30.887 50.9552C31.2248 50.9548 31.6405 50.9552 32.1342 50.9565C32.6282 50.9578 32.9883 50.9594 33.2143 50.9611C33.4398 50.9624 33.6982 50.964 33.9896 50.9662C34.2814 50.9684 34.5511 50.9701 34.7986 50.9714C35.0465 50.9727 35.4131 50.9742 35.8986 50.9759C36.3845 50.9776 36.8802 50.9796 37.3859 50.9817C37.8912 50.9834 38.3909 50.9856 38.885 50.9882C39.3791 50.9903 39.7427 50.9918 39.976 50.9927C40.2097 50.9931 40.3922 50.9938 40.5235 50.9946C40.6548 50.9955 40.7765 50.9966 40.8889 50.9979C41.0012 50.9992 41.1997 51.0002 41.4842 51.001C41.7691 51.0023 41.9694 51.0032 42.0851 51.0036C42.2013 51.0041 42.3292 51.0047 42.4686 51.0056C42.608 51.0065 42.8727 51.0077 43.2627 51.0095" stroke="#FFBC00" stroke-linecap="round" stroke-linejoin="round"/>
<path d="M16.6707 55.2256C16.7861 55.2264 17.1601 55.223 17.7928 55.2152C18.4254 55.2075 18.9497 55.2012 19.3654 55.1965C19.7816 55.1918 20.0863 55.1886 20.2796 55.1869C20.4732 55.1852 20.7986 55.1834 21.2556 55.1817C21.7127 55.18 22.0768 55.1787 22.3479 55.1778C22.6186 55.1774 22.9088 55.1772 23.2182 55.1772C23.5272 55.1772 23.7633 55.177 23.9264 55.1766C24.0895 55.1761 24.2309 55.1756 24.3505 55.1752C24.4706 55.1748 24.6102 55.1739 24.7694 55.1726C24.9287 55.1713 25.0268 55.1705 25.0639 55.1701C25.1013 55.1701 25.1806 55.1701 25.302 55.1701C25.4234 55.1697 25.5532 55.1701 25.6913 55.1713C25.8295 55.1731 25.927 55.1743 25.9838 55.1752C26.0407 55.1765 26.2608 55.178 26.6442 55.1797" fill="white"/>
<path d="M16.6707 55.2256C16.7861 55.2264 17.1601 55.223 17.7928 55.2152C18.4254 55.2075 18.9497 55.2012 19.3654 55.1965C19.7816 55.1918 20.0863 55.1886 20.2796 55.1869C20.4732 55.1852 20.7986 55.1834 21.2556 55.1817C21.7127 55.18 22.0768 55.1787 22.3479 55.1778C22.6186 55.1774 22.9088 55.1772 23.2182 55.1772C23.5272 55.1772 23.7633 55.177 23.9264 55.1766C24.0895 55.1761 24.2309 55.1756 24.3505 55.1752C24.4706 55.1748 24.6102 55.1739 24.7694 55.1726C24.9287 55.1713 25.0268 55.1705 25.0639 55.1701C25.1013 55.1701 25.1806 55.1701 25.302 55.1701C25.4234 55.1697 25.5532 55.1701 25.6913 55.1713C25.8295 55.1731 25.927 55.1743 25.9838 55.1752C26.0407 55.1765 26.2608 55.178 26.6442 55.1797" stroke="#FFBC00" stroke-linecap="round" stroke-linejoin="round"/>
<path d="M16.2969 61.2871C16.2944 61.3444 16.292 61.4614 16.2898 61.6383C16.2877 61.8152 16.2855 62.0519 16.2834 62.3484C16.2812 62.6445 16.2793 62.9258 16.2776 63.1922C16.2758 63.4586 16.2742 63.7694 16.2725 64.1244C16.2704 64.4795 16.2696 64.8527 16.2705 65.2439C16.2709 65.6355 16.272 65.9488 16.2738 66.1838C16.2751 66.4192 16.2768 66.6002 16.279 66.7268C16.2807 66.8533 16.2828 66.9727 16.2854 67.085C16.288 67.1969 16.2912 67.3798 16.295 67.6337L16.2944 67.7977" fill="white"/>
<path d="M16.2969 61.2871C16.2944 61.3444 16.292 61.4614 16.2898 61.6383C16.2877 61.8152 16.2855 62.0519 16.2834 62.3484C16.2812 62.6445 16.2793 62.9258 16.2776 63.1922C16.2758 63.4586 16.2742 63.7694 16.2725 64.1244C16.2704 64.4795 16.2696 64.8527 16.2705 65.2439C16.2709 65.6355 16.272 65.9488 16.2738 66.1838C16.2751 66.4192 16.2768 66.6002 16.279 66.7268C16.2807 66.8533 16.2828 66.9727 16.2854 67.085C16.288 67.1969 16.2912 67.3798 16.295 67.6337L16.2944 67.7977" stroke="#FFBC00" stroke-linecap="round" stroke-linejoin="round"/>
<path d="M16.3382 60.9693C16.4342 60.9676 16.5561 60.9655 16.7037 60.9629C16.8509 60.9607 17.0231 60.9586 17.2202 60.9564C17.4177 60.9547 17.6653 60.9523 17.9632 60.9493C18.261 60.9467 18.5414 60.9443 18.8043 60.9422C19.0677 60.9396 19.3713 60.937 19.7147 60.9344C20.0586 60.9314 20.4181 60.9282 20.7934 60.9247C21.1683 60.9213 21.4969 60.9183 21.7793 60.9158C22.0612 60.9132 22.4717 60.9101 23.011 60.9067C23.5499 60.9028 23.9812 60.9 24.3053 60.8983C24.6298 60.8961 24.8678 60.8946 25.0193 60.8938C25.1708 60.8929 25.34 60.8925 25.5268 60.8925C25.7136 60.8929 25.8752 60.8927 26.0116 60.8919C26.1485 60.891 26.2302 60.8903 26.2569 60.8899C26.2831 60.8899 26.5109 60.8875 26.94 60.8828" fill="white"/>
<path d="M16.3382 60.9693C16.4342 60.9676 16.5561 60.9655 16.7037 60.9629C16.8509 60.9607 17.0231 60.9586 17.2202 60.9564C17.4177 60.9547 17.6653 60.9523 17.9632 60.9493C18.261 60.9467 18.5414 60.9443 18.8043 60.9422C19.0677 60.9396 19.3713 60.937 19.7147 60.9344C20.0586 60.9314 20.4181 60.9282 20.7934 60.9247C21.1683 60.9213 21.4969 60.9183 21.7793 60.9158C22.0612 60.9132 22.4717 60.9101 23.011 60.9067C23.5499 60.9028 23.9812 60.9 24.3053 60.8983C24.6298 60.8961 24.8678 60.8946 25.0193 60.8938C25.1708 60.8929 25.34 60.8925 25.5268 60.8925C25.7136 60.8929 25.8752 60.8927 26.0116 60.8919C26.1485 60.891 26.2302 60.8903 26.2569 60.8899C26.2831 60.8899 26.5109 60.8875 26.94 60.8828" stroke="#FFBC00" stroke-linecap="round" stroke-linejoin="round"/>
<path d="M16.4267 67.949C16.5167 67.949 16.6616 67.9499 16.8617 67.9516C17.0619 67.9533 17.3685 67.956 17.7817 67.9594C18.1953 67.9624 18.4894 67.965 18.6642 67.9671C18.8389 67.9693 19.0227 67.9708 19.2155 67.9716C19.4079 67.9729 19.648 67.974 19.936 67.9749C20.2235 67.9762 20.5291 67.977 20.8528 67.9775C21.1764 67.9779 21.4187 67.9781 21.5797 67.9781C21.7411 67.9781 22.0234 67.9768 22.4267 67.9742C22.8295 67.9721 23.0532 67.9708 23.0975 67.9704C23.1418 67.9699 23.2467 67.9693 23.4124 67.9684C23.5781 67.968 23.7198 67.9676 23.8373 67.9671C23.9548 67.9667 24.1567 67.9643 24.4429 67.96C24.7295 67.9557 24.8827 67.9534 24.9025 67.953C24.9223 67.9521 24.9931 67.9518 25.1149 67.9522C25.2367 67.9522 25.3233 67.9516 25.375 67.9504C25.4271 67.9486 25.5095 67.9474 25.6223 67.9465C25.735 67.9452 25.9239 67.9426 26.189 67.9387C26.2256 67.9395 26.4863 67.9359 26.971 67.9277" fill="white"/>
<path d="M16.4267 67.949C16.5167 67.949 16.6616 67.9499 16.8617 67.9516C17.0619 67.9533 17.3685 67.956 17.7817 67.9594C18.1953 67.9624 18.4894 67.965 18.6642 67.9671C18.8389 67.9693 19.0227 67.9708 19.2155 67.9716C19.4079 67.9729 19.648 67.974 19.936 67.9749C20.2235 67.9762 20.5291 67.977 20.8528 67.9775C21.1764 67.9779 21.4187 67.9781 21.5797 67.9781C21.7411 67.9781 22.0234 67.9768 22.4267 67.9742C22.8295 67.9721 23.0532 67.9708 23.0975 67.9704C23.1418 67.9699 23.2467 67.9693 23.4124 67.9684C23.5781 67.968 23.7198 67.9676 23.8373 67.9671C23.9548 67.9667 24.1567 67.9643 24.4429 67.96C24.7295 67.9557 24.8827 67.9534 24.9025 67.953C24.9223 67.9521 24.9931 67.9518 25.1149 67.9522C25.2367 67.9522 25.3233 67.9516 25.375 67.9504C25.4271 67.9486 25.5095 67.9474 25.6223 67.9465C25.735 67.9452 25.9239 67.9426 26.189 67.9387C26.2256 67.9395 26.4863 67.9359 26.971 67.9277" stroke="#FFBC00" stroke-linecap="round" stroke-linejoin="round"/>
<path d="M27.0987 60.8828C27.0918 61.0291 27.0854 61.3692 27.0793 61.9029C27.0729 62.4366 27.0662 62.9485 27.0593 63.4387C27.0516 63.9294 27.0461 64.3825 27.0431 64.7983C27.0396 65.2145 27.0375 65.5435 27.0366 65.7853C27.0358 66.0276 27.0363 66.2302 27.038 66.3928C27.0402 66.556 27.0426 66.754 27.0451 66.9868C27.0477 67.2196 27.0491 67.4002 27.0495 67.5284C27.05 67.6567 27.0494 67.8 27.0477 67.9584" fill="white"/>
<path d="M27.0987 60.8828C27.0918 61.0291 27.0854 61.3692 27.0793 61.9029C27.0729 62.4366 27.0662 62.9485 27.0593 63.4387C27.0516 63.9294 27.0461 64.3825 27.0431 64.7983C27.0396 65.2145 27.0375 65.5435 27.0366 65.7853C27.0358 66.0276 27.0363 66.2302 27.038 66.3928C27.0402 66.556 27.0426 66.754 27.0451 66.9868C27.0477 67.2196 27.0491 67.4002 27.0495 67.5284C27.05 67.6567 27.0494 67.8 27.0477 67.9584" stroke="#FFBC00" stroke-linecap="round" stroke-linejoin="round"/>
<path d="M31.3136 60.834C31.3115 60.9003 31.3062 61.1073 31.2976 61.4551C31.2885 61.8028 31.2748 62.2041 31.2563 62.6591C31.2373 63.114 31.2228 63.4619 31.2129 63.7029C31.203 63.9435 31.1942 64.1755 31.1864 64.3988C31.1783 64.6218 31.171 64.8325 31.1645 65.0309C31.1581 65.2289 31.1504 65.5576 31.1414 66.0173C31.1323 66.4774 31.1263 66.948 31.1232 67.4292C31.1207 67.9108 31.1201 68.2603 31.1214 68.4776C31.1226 68.695 31.1246 68.9472 31.1272 69.2342C31.1298 69.5222 31.1323 69.7408 31.1349 69.8901C31.1371 70.0395 31.1394 70.2444 31.142 70.5047C31.1446 70.7651 31.1469 70.9984 31.1491 71.2045C31.1512 71.4111 31.153 71.5777 31.1543 71.7042C31.156 71.8308 31.1572 71.9512 31.1581 72.0657C31.1589 72.1802 31.1601 72.2807 31.1614 72.3672C31.1627 72.4533 31.1646 72.6667 31.1672 73.0076" fill="white"/>
<path d="M31.3136 60.834C31.3115 60.9003 31.3062 61.1073 31.2976 61.4551C31.2885 61.8028 31.2748 62.2041 31.2563 62.6591C31.2373 63.114 31.2228 63.4619 31.2129 63.7029C31.203 63.9435 31.1942 64.1755 31.1864 64.3988C31.1783 64.6218 31.171 64.8325 31.1645 65.0309C31.1581 65.2289 31.1504 65.5576 31.1414 66.0173C31.1323 66.4774 31.1263 66.948 31.1232 67.4292C31.1207 67.9108 31.1201 68.2603 31.1214 68.4776C31.1226 68.695 31.1246 68.9472 31.1272 69.2342C31.1298 69.5222 31.1323 69.7408 31.1349 69.8901C31.1371 70.0395 31.1394 70.2444 31.142 70.5047C31.1446 70.7651 31.1469 70.9984 31.1491 71.2045C31.1512 71.4111 31.153 71.5777 31.1543 71.7042C31.156 71.8308 31.1572 71.9512 31.1581 72.0657C31.1589 72.1802 31.1601 72.2807 31.1614 72.3672C31.1627 72.4533 31.1646 72.6667 31.1672 73.0076" stroke="#FFBC00" stroke-linecap="round" stroke-linejoin="round"/>
<path d="M31.2265 73.0059C31.3315 73.0076 31.5706 73.0091 31.9438 73.0104C32.3169 73.0116 32.646 73.014 32.9309 73.0174C33.2163 73.0213 33.4348 73.0244 33.5867 73.0265C33.7382 73.0287 33.9316 73.031 34.1666 73.0336C34.4016 73.0362 34.6612 73.0392 34.9457 73.0427C35.2302 73.0461 35.5347 73.0485 35.8592 73.0498C36.1837 73.051 36.4745 73.0516 36.7314 73.0516C36.9888 73.0516 37.1981 73.0514 37.3595 73.051C37.5209 73.0506 37.6819 73.0506 37.8424 73.051C38.0025 73.0514 38.213 73.0518 38.4738 73.0523C38.7346 73.0531 38.9957 73.0534 39.257 73.053C39.5182 73.0526 39.7162 73.0521 39.8509 73.0516C39.9856 73.0512 40.1 73.051 40.1943 73.051C40.289 73.0514 40.3997 73.0527 40.5267 73.0549C40.6541 73.0566 40.796 73.0586 40.9523 73.0607C41.1085 73.0624 41.2442 73.0637 41.3595 73.0646C41.4749 73.0654 41.621 73.0683 41.7978 73.073C41.9752 73.0777 42.1244 73.0814 42.2453 73.084C42.3658 73.087 42.4818 73.0891 42.5933 73.0904C42.7048 73.0921 42.7747 73.0932 42.8031 73.0936C42.9968 73.0988 43.202 73.101 43.4189 73.1001L43.683 73.1072" fill="white"/>
<path d="M31.2265 73.0059C31.3315 73.0076 31.5706 73.0091 31.9438 73.0104C32.3169 73.0116 32.646 73.014 32.9309 73.0174C33.2163 73.0213 33.4348 73.0244 33.5867 73.0265C33.7382 73.0287 33.9316 73.031 34.1666 73.0336C34.4016 73.0362 34.6612 73.0392 34.9457 73.0427C35.2302 73.0461 35.5347 73.0485 35.8592 73.0498C36.1837 73.051 36.4745 73.0516 36.7314 73.0516C36.9888 73.0516 37.1981 73.0514 37.3595 73.051C37.5209 73.0506 37.6819 73.0506 37.8424 73.051C38.0025 73.0514 38.213 73.0518 38.4738 73.0523C38.7346 73.0531 38.9957 73.0534 39.257 73.053C39.5182 73.0526 39.7162 73.0521 39.8509 73.0516C39.9856 73.0512 40.1 73.051 40.1943 73.051C40.289 73.0514 40.3997 73.0527 40.5267 73.0549C40.6541 73.0566 40.796 73.0586 40.9523 73.0607C41.1085 73.0624 41.2442 73.0637 41.3595 73.0646C41.4749 73.0654 41.621 73.0683 41.7978 73.073C41.9752 73.0777 42.1244 73.0814 42.2453 73.084C42.3658 73.087 42.4818 73.0891 42.5933 73.0904C42.7048 73.0921 42.7747 73.0932 42.8031 73.0936C42.9968 73.0988 43.202 73.101 43.4189 73.1001L43.683 73.1072" stroke="#FFBC00" stroke-linecap="round" stroke-linejoin="round"/>
<path d="M43.8663 72.9372L43.8689 72.8209C43.871 72.7469 43.8788 72.5616 43.8922 72.2651C43.9055 71.9681 43.9179 71.6167 43.9295 71.2108C43.9412 70.8046 43.9513 70.3658 43.96 69.8945C43.969 69.4233 43.9743 69.1409 43.976 69.0475C43.9782 68.9537 43.9817 68.7555 43.9864 68.4529C43.9916 68.1504 43.9965 67.8571 44.0012 67.5731C44.006 67.289 44.0119 66.9389 44.0187 66.5227C44.0252 66.1069 44.0301 65.7781 44.0336 65.5363C44.0361 65.2944 44.0381 65.1194 44.0394 65.0114C44.0407 64.9034 44.0419 64.7774 44.0432 64.6337C44.044 64.4899 44.0452 64.3083 44.0465 64.0888C44.0473 63.8689 44.0481 63.7008 44.049 63.5846C44.0499 63.4684 44.0497 63.346 44.0484 63.2173C44.0479 63.0886 44.0464 62.8763 44.0438 62.5802C44.0412 62.2836 44.0385 62.0828 44.0355 61.9778C44.0329 61.8732 44.0305 61.782 44.0284 61.7041C44.0262 61.6262 44.0232 61.5332 44.0194 61.4252C44.0151 61.3176 44.0122 61.2395 44.0109 61.1908C44.0096 61.1418 44.0072 61.0677 44.0038 60.9688" fill="white"/>
<path d="M43.8663 72.9372L43.8689 72.8209C43.871 72.7469 43.8788 72.5616 43.8922 72.2651C43.9055 71.9681 43.9179 71.6167 43.9295 71.2108C43.9412 70.8046 43.9513 70.3658 43.96 69.8945C43.969 69.4233 43.9743 69.1409 43.976 69.0475C43.9782 68.9537 43.9817 68.7555 43.9864 68.4529C43.9916 68.1504 43.9965 67.8571 44.0012 67.5731C44.006 67.289 44.0119 66.9389 44.0187 66.5227C44.0252 66.1069 44.0301 65.7781 44.0336 65.5363C44.0361 65.2944 44.0381 65.1194 44.0394 65.0114C44.0407 64.9034 44.0419 64.7774 44.0432 64.6337C44.044 64.4899 44.0452 64.3083 44.0465 64.0888C44.0473 63.8689 44.0481 63.7008 44.049 63.5846C44.0499 63.4684 44.0497 63.346 44.0484 63.2173C44.0479 63.0886 44.0464 62.8763 44.0438 62.5802C44.0412 62.2836 44.0385 62.0828 44.0355 61.9778C44.0329 61.8732 44.0305 61.782 44.0284 61.7041C44.0262 61.6262 44.0232 61.5332 44.0194 61.4252C44.0151 61.3176 44.0122 61.2395 44.0109 61.1908C44.0096 61.1418 44.0072 61.0677 44.0038 60.9688" stroke="#FFBC00" stroke-linecap="round" stroke-linejoin="round"/>
<path d="M43.8488 60.853C43.7245 60.8431 43.5811 60.8325 43.4189 60.8213C43.2566 60.8101 43.1058 60.8 42.9664 60.791C42.8269 60.782 42.6343 60.7702 42.3886 60.7555C42.1428 60.7409 41.8917 60.7276 41.6352 60.7155C41.3787 60.703 41.0751 60.6907 40.7243 60.6787C40.3731 60.6662 40.0684 60.657 39.8102 60.651C39.5515 60.6449 39.299 60.6399 39.0529 60.6361C38.8063 60.6326 38.499 60.6294 38.131 60.6264C37.763 60.6238 37.4271 60.6227 37.1232 60.6231C36.8198 60.6231 36.462 60.6238 36.0497 60.6251C35.6379 60.6264 35.2866 60.629 34.9961 60.6328C34.7056 60.6367 34.4637 60.6406 34.2705 60.6445C34.0776 60.6479 33.888 60.6522 33.7016 60.6573C33.5153 60.6621 33.3513 60.6671 33.2097 60.6722C33.069 60.677 32.8997 60.684 32.7017 60.6935C32.5042 60.7034 32.2767 60.7153 32.0193 60.7291C31.7619 60.7433 31.53 60.7566 31.3234 60.7691" fill="white"/>
<path d="M43.8488 60.853C43.7245 60.8431 43.5811 60.8325 43.4189 60.8213C43.2566 60.8101 43.1058 60.8 42.9664 60.791C42.8269 60.782 42.6343 60.7702 42.3886 60.7555C42.1428 60.7409 41.8917 60.7276 41.6352 60.7155C41.3787 60.703 41.0751 60.6907 40.7243 60.6787C40.3731 60.6662 40.0684 60.657 39.8102 60.651C39.5515 60.6449 39.299 60.6399 39.0529 60.6361C38.8063 60.6326 38.499 60.6294 38.131 60.6264C37.763 60.6238 37.4271 60.6227 37.1232 60.6231C36.8198 60.6231 36.462 60.6238 36.0497 60.6251C35.6379 60.6264 35.2866 60.629 34.9961 60.6328C34.7056 60.6367 34.4637 60.6406 34.2705 60.6445C34.0776 60.6479 33.888 60.6522 33.7016 60.6573C33.5153 60.6621 33.3513 60.6671 33.2097 60.6722C33.069 60.677 32.8997 60.684 32.7017 60.6935C32.5042 60.7034 32.2767 60.7153 32.0193 60.7291C31.7619 60.7433 31.53 60.7566 31.3234 60.7691" stroke="#FFBC00" stroke-linecap="round" stroke-linejoin="round"/>
<path d="M22.2148 71.2222C22.3702 71.2191 22.452 71.217 22.4602 71.2157C22.4684 71.2144 22.6487 71.2133 23.0011 71.2125C23.3536 71.2112 23.7059 71.2075 24.0579 71.2015C24.4096 71.1955 24.6726 71.1908 24.8469 71.1873C25.0208 71.1839 25.1125 71.1823 25.122 71.1828C25.131 71.1836 25.5532 71.1767 26.3885 71.1621" fill="white"/>
<path d="M22.2148 71.2222C22.3702 71.2191 22.452 71.217 22.4602 71.2157C22.4684 71.2144 22.6487 71.2133 23.0011 71.2125C23.3536 71.2112 23.7059 71.2075 24.0579 71.2015C24.4096 71.1955 24.6726 71.1908 24.8469 71.1873C25.0208 71.1839 25.1125 71.1823 25.122 71.1828C25.131 71.1836 25.5532 71.1767 26.3885 71.1621" stroke="#FFBC00" stroke-linecap="round" stroke-linejoin="round"/>
<path d="M39.8992 76.0119C39.9672 76.0136 40.0799 76.0143 40.2375 76.0138C40.3954 76.0134 40.6002 76.0114 40.8515 76.008C41.1033 76.0045 41.335 76.0009 41.5467 75.997C41.7589 75.9932 41.9926 75.988 42.2478 75.9815C42.503 75.9755 42.7172 75.9703 42.8902 75.966C43.0632 75.9617 43.4011 75.9568 43.9038 75.9512" fill="white"/>
<path d="M39.8992 76.0119C39.9672 76.0136 40.0799 76.0143 40.2375 76.0138C40.3954 76.0134 40.6002 76.0114 40.8515 76.008C41.1033 76.0045 41.335 76.0009 41.5467 75.997C41.7589 75.9932 41.9926 75.988 42.2478 75.9815C42.503 75.9755 42.7172 75.9703 42.8902 75.966C43.0632 75.9617 43.4011 75.9568 43.9038 75.9512" stroke="#FFBC00" stroke-linecap="round" stroke-linejoin="round"/>
<path d="M51.667 5.43164C51.6666 5.4698 51.6648 5.58861 51.6618 5.78809C51.6592 5.98715 51.6553 6.26729 51.6501 6.62853C51.6445 6.98934 51.6392 7.34882 51.6341 7.70702C51.6289 8.0648 51.6242 8.37768 51.6199 8.64568C51.616 8.91325 51.6117 9.19557 51.6069 9.49263C51.6026 9.78926 51.5983 10.0848 51.594 10.3793C51.5893 10.6742 51.585 10.9676 51.5811 11.2594C51.5768 11.5517 51.5727 11.8427 51.5688 12.1324C51.5645 12.4221 51.5606 12.7107 51.5571 12.9982C51.272 34.165 50.9416 55.3505 51.3094 76.5184C51.3124 76.7166 51.3151 76.9269 51.3177 77.1494C51.3199 77.3723 51.3211 77.511 51.3215 77.5657C51.3215 77.6199 51.325 78.2313 51.3319 79.4" fill="white"/>
<path d="M51.667 5.43164C51.6666 5.4698 51.6648 5.58861 51.6618 5.78809C51.6592 5.98715 51.6553 6.26729 51.6501 6.62853C51.6445 6.98934 51.6392 7.34882 51.6341 7.70702C51.6289 8.0648 51.6242 8.37768 51.6199 8.64568C51.616 8.91325 51.6117 9.19557 51.6069 9.49263C51.6026 9.78926 51.5983 10.0848 51.594 10.3793C51.5893 10.6742 51.585 10.9676 51.5811 11.2594C51.5768 11.5517 51.5727 11.8427 51.5688 12.1324C51.5645 12.4221 51.5606 12.7107 51.5571 12.9982C51.272 34.165 50.9416 55.3505 51.3094 76.5184C51.3124 76.7166 51.3151 76.9269 51.3177 77.1494C51.3199 77.3723 51.3211 77.511 51.3215 77.5657C51.3215 77.6199 51.325 78.2313 51.3319 79.4" stroke="#FFBC00" stroke-linecap="round" stroke-linejoin="round"/>
<path d="M49.2616 22.3472L49.2391 22.3862C49.2037 22.7363 49.183 22.9964 49.177 23.1665C49.1705 23.3366 49.1655 23.4859 49.162 23.6146C49.1585 23.7433 49.156 23.8825 49.1545 24.0325C49.1535 24.182 49.1515 24.3675 49.1485 24.5889C49.146 24.8099 49.1458 25.0136 49.1478 25.1998C49.1503 25.3857 49.1525 25.5297 49.1545 25.632C49.1575 25.7343 49.1598 25.8094 49.1613 25.8574C49.1633 25.9054 49.1674 25.9729 49.1733 26.0598C49.1798 26.147 49.1855 26.2145 49.1905 26.2621C49.1955 26.3098 49.2065 26.3844 49.2234 26.4859C49.2404 26.5871 49.2636 26.6765 49.293 26.7542C49.3225 26.8323 49.3482 26.89 49.3702 26.9274C49.3916 26.9648 49.4183 27.0034 49.4502 27.0434C49.4821 27.0837 49.5168 27.1206 49.5542 27.154C49.5916 27.1869 49.6383 27.2218 49.6942 27.2585C49.7506 27.2955 49.797 27.3222 49.8334 27.3387C49.8698 27.3552 49.9035 27.3688 49.9345 27.3794C49.9659 27.39 50.0071 27.4003 50.058 27.4102C50.1094 27.4205 50.1508 27.4267 50.1823 27.4289C50.2137 27.4307 50.2544 27.4294 50.3043 27.425C50.3542 27.4206 50.3953 27.4135 50.4277 27.4036C50.4596 27.394 50.4771 27.3889 50.4801 27.3882C50.4831 27.3875 50.4979 27.381 50.5244 27.3689C50.5503 27.3568 50.6182 27.296 50.7279 27.1864C50.8377 27.0768 50.9017 27.0071 50.9196 26.9774C50.9376 26.9477 50.9597 26.8994 50.9862 26.8323C51.0126 26.7656 51.0297 26.7185 51.0371 26.691C51.0446 26.6635 51.0517 26.6313 51.0587 26.5942C51.0662 26.5576 51.0728 26.5167 51.0783 26.4716C51.0842 26.4262 51.0895 26.3321 51.094 26.1895C51.099 26.0469 51.1019 25.9122 51.1029 25.7854C51.1039 25.6582 51.1067 25.5545 51.1112 25.4742C51.1156 25.3936 51.1186 25.334 51.1201 25.2955C51.1221 25.2573 51.1239 25.2284 51.1254 25.2086C51.1264 25.1892 51.1273 25.1404 51.1283 25.0624C51.1288 24.9847 51.1297 24.9207 51.1307 24.8705C51.1317 24.8206 51.1333 24.7528 51.1358 24.667C51.1388 24.5816 51.1413 24.4846 51.1433 24.3761C51.1453 24.2676 51.1464 24.1537 51.1464 24.0342C51.1459 23.9147 51.145 23.7783 51.144 23.6251C51.1426 23.4718 51.1407 23.3353 51.1382 23.2154C51.1357 23.0956 51.1319 22.97 51.1269 22.8387C51.1214 22.7072 51.1171 22.6216 51.1141 22.582C51.1106 22.5424 51.1005 22.4751 51.0836 22.3802C51.0661 22.2849 51.0458 22.2 51.0229 22.1256C50.9999 22.0512 50.9804 21.9951 50.9644 21.9573C50.9484 21.9199 50.9195 21.869 50.8776 21.8045C50.8357 21.7396 50.7963 21.6898 50.7594 21.655C50.7229 21.6201 50.6717 21.584 50.6059 21.5466C50.5405 21.5096 50.4949 21.4863 50.469 21.4768C50.4435 21.4673 50.4037 21.4573 50.3498 21.4471C50.296 21.4372 50.2354 21.4315 50.168 21.43C50.1011 21.4286 50.0431 21.4317 49.9937 21.4394C49.9443 21.4471 49.9101 21.4533 49.8912 21.4581C49.8722 21.4632 49.8297 21.4821 49.7638 21.5147C49.6979 21.547 49.6553 21.5702 49.6359 21.5845C49.6159 21.5988 49.5997 21.6115 49.5873 21.6225C49.5743 21.6332 49.5486 21.6608 49.5101 21.7056C49.4717 21.7503 49.439 21.7954 49.412 21.8408C49.3856 21.8863 49.3653 21.9255 49.3513 21.9585C49.3374 21.9915 49.3255 22.0242 49.3155 22.0569C49.305 22.0899 49.2935 22.1298 49.281 22.1767C49.2745 22.2339 49.2681 22.2908 49.2616 22.3472Z" fill="white" stroke="#FFBC00" stroke-linecap="round" stroke-linejoin="round"/>
<script xmlns=""/></svg>