<?xml version="1.0" encoding="utf-8"?>
<!-- Generator: Adobe Illustrator 26.5.0, SVG Export Plug-In . SVG Version: 6.00 Build 0)  -->
<svg version="1.1" id="Calque_1" xmlns="http://www.w3.org/2000/svg" xmlns:xlink="http://www.w3.org/1999/xlink" x="0px" y="0px"
	 viewBox="0 0 467.16 177.99" style="enable-background:new 0 0 467.16 177.99;" xml:space="preserve">
<style type="text/css">
	.st0{fill:#246267;}
	.st1{fill:#2C8990;}
	.st2{fill:#FBEB37;}
	.st3{fill:#FFFFFF;}
</style>
<g id="je_fabrique">
	<path id="trait_bas" class="st0" d="M108.14,76.01c2.43,0.04,4.87,0.04,7.3-0.01c5.83-0.06,11.67-0.18,17.5-0.35
		c5.85-0.16,11.71-0.39,17.56-0.69c5.07-0.25,10.13-0.53,15.19-0.92c3.5-0.26,7-0.53,10.5-0.72c1.87-0.09,27.44,1.38,29.3,1.44
		c0.78,0.04,1.56,0.13,2.34,0.29c2.4,0.34,2.8-3.84,0.4-4.18c-0.86-0.18-1.72-0.27-2.59-0.31c-1.96-0.07-27.62-1.54-29.58-1.44
		c-3.53,0.18-7.05,0.46-10.57,0.72c-5.04,0.39-10.08,0.66-15.13,0.91c-5.83,0.29-11.66,0.52-17.49,0.69
		c-4.57,0.13-9.15,0.2-13.72,0.27l-3.42-0.03c0,0.03,0,0.07,0,0.09l0,0.01c-0.1,0-0.21,0.01-0.31,0.01
		c-4.82,0.09-9.65-0.01-14.47-0.18c-3.7-0.15-7.4-0.37-11.09-0.6c-2.85-0.18-5.7-0.37-8.55-0.5c-1.94-0.1-3.88-0.19-5.83-0.24
		c-1.1-0.04-72.33,1.96-73.43,2c-3.83,0.89-1.39,4.41,0.1,4.21c1.04-0.04,72.2-2.04,73.25-2.01c1.93,0.05,3.85,0.14,5.78,0.24
		c2.84,0.12,5.67,0.31,8.51,0.49c3.72,0.23,7.44,0.45,11.16,0.6C103.28,75.91,105.71,75.98,108.14,76.01"/>
	<path class="st0" d="M142.82,158.65c3.21,0.04,6.43,0.04,9.64,0c7.71-0.05,15.41-0.16,23.11-0.32c7.73-0.15,15.46-0.37,23.18-0.66
		c6.69-0.25,13.38-0.51,20.06-0.89c4.62-0.26,9.24-0.52,13.87-0.7c2.46-0.09,36.24,1.43,38.7,1.49c1.04,0.04,2.06,0.14,3.08,0.3
		c3.17,0.35,3.69-3.84,0.52-4.18c-1.13-0.18-2.28-0.27-3.42-0.32c-2.59-0.07-36.48-1.59-39.06-1.5c-4.66,0.18-9.31,0.44-13.96,0.7
		c-6.65,0.38-13.31,0.64-19.98,0.89c-7.7,0.28-15.4,0.5-23.1,0.66c-6.04,0.12-12.08,0.19-18.11,0.25l-4.52-0.04
		c0,0.03,0,0.07,0,0.09l0,0.01c-0.14,0-0.28,0.01-0.41,0.01c-6.37,0.08-12.74-0.02-19.11-0.2c-4.89-0.15-9.77-0.38-14.65-0.62
		c-3.77-0.19-7.53-0.38-11.3-0.51c-2.56-0.11-5.13-0.19-7.69-0.25c-1.46-0.04-95.51,1.83-96.97,1.88c-5.06,0.88-1.83,4.4,0.15,4.21
		c1.38-0.04,95.35-1.92,96.73-1.88c2.54,0.05,5.09,0.14,7.63,0.25c3.75,0.13,7.49,0.32,11.23,0.51c4.91,0.23,9.83,0.47,14.74,0.62
		C136.39,158.54,139.61,158.62,142.82,158.65"/>
	<g>
		<path class="st1" d="M34.73,128.43c0,3.53-2.89,6.42-6.42,6.42c-0.29,0-3.87,0-3.87,0v6.42h-3.21v-19.28h7.08
			C31.84,121.99,34.73,124.88,34.73,128.43z M31.52,128.43c0-1.79-1.45-3.24-3.21-3.24c-0.35,0-3.87,0-3.87,0v6.44h3.87
			C30.08,131.64,31.52,130.2,31.52,128.43z"/>
		<path class="st1" d="M39.93,121.99h9.62v3.21h-6.42v3.87h6.42v3.21h-6.42v5.78h6.42v3.21h-9.62V121.99z M42.85,119.71l-0.9-0.9
			l5.92-7.69l2.69,2.69L42.85,119.71z"/>
		<path class="st1" d="M55.42,121.99h4.51c4.77,0,8.67,4.31,8.67,9.65c0,5.32-3.9,9.62-8.67,9.62c-0.43,0-4.51,0-4.51,0V121.99z
			 M58.63,138.06h1.3c2.8,0,5.12-2.89,5.12-6.42c0-3.55-2.31-6.44-5.12-6.44c-0.52,0-1.3,0-1.3,0V138.06z"/>
		<path class="st1" d="M73.02,141.27h-3.47l10.84-19.59h0.64l4.59,19.59h-3.47l-0.66-2.89H74.6L73.02,141.27z M79.4,129.65
			l-3.03,5.52h4.34L79.4,129.65z"/>
		<path class="st1" d="M99.57,134.85h-3.24v-3.21h6.44v9.62h-0.98l-0.66-1.18c-1.19,0.95-2.63,1.5-4.05,1.5
			c-4.65,0-7.8-4.48-7.8-9.94s3.15-9.97,7.8-9.97c2.28,0,4.65,1.47,5.95,3.7l-1.91,1.79c-1.24-1.59-2.49-2.28-3.84-2.28
			c-2.43,0-4.48,2.57-4.48,6.76c0,4.16,2.05,6.73,4.48,6.73c0.78,0,1.53-0.23,2.28-0.75V134.85z"/>
		<path class="st1" d="M114.71,121.67c4.34,0,6.76,4.51,6.76,9.97s-2.43,9.94-6.76,9.94c-4.33,0-6.73-4.48-6.73-9.94
			S110.38,121.67,114.71,121.67z M114.71,138.38c2.17,0,3.35-3.06,3.35-6.73c0-3.7-1.18-6.76-3.35-6.76c-2.14,0-3.32,3.06-3.32,6.76
			C111.39,135.31,112.58,138.38,114.71,138.38z"/>
		<path class="st1" d="M136.96,134.85h-3.24v-3.21h6.44v9.62h-0.98l-0.66-1.18c-1.19,0.95-2.63,1.5-4.05,1.5
			c-4.65,0-7.8-4.48-7.8-9.94s3.15-9.97,7.8-9.97c2.28,0,4.65,1.47,5.95,3.7l-1.91,1.79c-1.24-1.59-2.49-2.28-3.84-2.28
			c-2.43,0-4.48,2.57-4.48,6.76c0,4.16,2.05,6.73,4.48,6.73c0.78,0,1.53-0.23,2.28-0.75V134.85z"/>
		<path class="st1" d="M148.9,125.2h-3.21v-3.21h9.62v3.21h-3.21v12.86h3.21v3.21h-9.62v-3.21h3.21V125.2z"/>
		<path class="st1" d="M172.22,144.79c0.84,0,1.97-0.61,2.6-1.16l0.78,2.2c-1.16,1.18-2.28,1.85-3.99,1.85
			c-3.35,0-5.06-2.11-5.52-6.3c-3.38-0.92-5.23-4.97-5.23-9.74c0-5.46,2.4-9.97,6.73-9.97c4.34,0,6.76,4.51,6.76,9.97
			c0,4.68-1.76,8.67-5.06,9.68C169.56,143.61,170.34,144.79,172.22,144.79z M167.59,138.38c2.11,0,3.21-3.06,3.21-6.73
			c0-3.7-1.1-6.76-3.21-6.76c-2.08,0-3.21,3.06-3.21,6.76C164.39,135.31,165.51,138.38,167.59,138.38z"/>
		<path class="st1" d="M183.08,121.99v12.22c0,2.8,1.44,4.16,3.21,4.16c1.76,0,3.21-1.36,3.21-4.16v-12.22h3.24v12.22
			c0,4.74-2.89,7.37-6.44,7.37c-3.53,0-6.42-2.63-6.42-7.37v-12.22H183.08z"/>
		<path class="st1" d="M198.57,121.99h9.62v3.21h-6.42v3.87h6.42v3.21h-6.42v5.78h6.42v3.21h-9.62V121.99z"/>
	</g>
	<g>
		<path class="st1" d="M33.1,109.39V97.78l-4.65,8.73h-0.64l-4.65-8.73v11.62H20.1V90.12h2.63l5.4,10.14l5.4-10.14h2.63v19.28H33.1z
			"/>
		<path class="st1" d="M48.42,89.8c4.34,0,6.76,4.51,6.76,9.97s-2.43,9.94-6.76,9.94c-4.33,0-6.73-4.48-6.73-9.94
			S44.08,89.8,48.42,89.8z M48.42,106.5c2.17,0,3.35-3.06,3.35-6.73c0-3.7-1.18-6.76-3.35-6.76c-2.14,0-3.32,3.06-3.32,6.76
			C45.09,103.44,46.28,106.5,48.42,106.5z"/>
		<path class="st1" d="M70.67,90.12h2.89v19.28h-2.43l-7.54-12.31v12.31H60.7V90.12h2.4l7.57,12.31V90.12z"/>
		<path class="st1" d="M107.6,109.39V97.78l-4.65,8.73h-0.64l-4.65-8.73v11.62h-3.06V90.12h2.63l5.4,10.14l5.4-10.14h2.63v19.28
			H107.6z"/>
		<path class="st1" d="M115.4,109.39h-3.47l10.84-19.59h0.64l4.59,19.59h-3.47l-0.66-2.89h-6.88L115.4,109.39z M121.78,97.78
			l-3.03,5.52h4.34L121.78,97.78z"/>
		<path class="st1" d="M129.73,93.33v-3.21h14.13v3.21h-5.46v16.07h-3.21V93.33H129.73z"/>
		<path class="st1" d="M147.47,90.12h9.62v3.21h-6.42v3.87h6.42v3.21h-6.42v5.78h6.42v3.21h-9.62V90.12z M150.39,87.83l-0.9-0.9
			l5.92-7.69l2.69,2.69L150.39,87.83z"/>
		<path class="st1" d="M177.09,109.39h-3.93l-4.62-6.42c-0.78,0-2.37,0-2.37,0v6.42h-3.21V90.12h6.1c3.53,0,6.42,2.89,6.42,6.44
			c0,2.46-1.39,4.65-3.5,5.69L177.09,109.39z M172.27,96.56c0-1.79-1.44-3.24-3.21-3.24c-0.32,0-2.89,0-2.89,0v6.44h2.89
			C170.82,99.77,172.27,98.33,172.27,96.56z"/>
		<path class="st1" d="M184.87,93.33h-3.21v-3.21h9.62v3.21h-3.21v12.86h3.21v3.21h-9.62v-3.21h3.21V93.33z"/>
		<path class="st1" d="M197.15,90.12h9.62v3.21h-6.42v3.87h6.42v3.21h-6.42v5.78h6.42v3.21h-9.62V90.12z"/>
		<path class="st1" d="M215.84,106.19h6.42v3.21h-9.62V90.12h3.21V106.19z"/>
	</g>
	<g>
		<path class="st1" d="M21.25,59.38c-1.97,0-3.79-0.62-5.47-1.82l0.62-3.39c1.17,0.47,2.19,0.69,3.03,0.69
			c2.22,0,3.94-1.39,3.94-4.74V34.67h6.49v15.64C29.85,55.92,26.1,59.38,21.25,59.38z"/>
		<path class="st1" d="M37.21,34.67h14.58v4.48H43.7v4.45h8.09v4.45H43.7v6.49h8.09v4.45H37.21V34.67z"/>
		<path class="st1" d="M72.61,34.67h15.38v4.48H79.1v4.45h8.89v4.45H79.1v10.94h-6.49V34.67z"/>
		<path class="st1" d="M94.08,58.98h-6.45l12.87-24.72h5.72l4.99,24.72h-6.45l-0.62-3.65h-8.27L94.08,58.98z M102.02,42.72
			l-3.97,8.17h5.36L102.02,42.72z"/>
		<path class="st1" d="M134.76,41.37c0,1.53-0.47,2.92-1.42,4.12c1.64,1.42,2.62,3.46,2.62,5.8c0,4.16-3.79,7.69-8.09,7.69h-11.34
			V34.67h11.12C131.4,34.67,134.76,37.8,134.76,41.37z M123.02,43.6h3.03c1.17,0,2.22-1.06,2.22-2.22c0-1.2-1.06-2.22-2.22-2.22
			h-3.03V43.6z M129.47,51.29c0-1.79-1.46-3.24-3.24-3.24h-3.21v6.49h3.21C128.01,54.53,129.47,53.08,129.47,51.29z"/>
		<path class="st1" d="M162.17,58.98h-7.36l-5.83-8.09H147v8.09h-6.49V34.67h9.3c5.36,0,9.73,3.61,9.73,8.13
			c0,2.73-1.6,5.14-4.23,6.67L162.17,58.98z M151.85,45.68c0.8-0.77,1.2-1.75,1.2-2.88c0-2.26-1.86-4.08-4.05-4.08h-2v8.13h2
			C150.1,46.84,151.05,46.44,151.85,45.68z"/>
		<path class="st1" d="M168.55,38.71h-4.05v-4.05h14.58v4.05h-4.05v16.22h4.05v4.05H164.5v-4.05h4.05V38.71z"/>
		<path class="st1" d="M198.47,62.01c0.84,0,2.04-0.66,3.61-1.93l1.46,4.12c-1.93,2-3.5,2.88-5.8,2.88c-4.27,0-6.71-2.55-7.4-8.09
			c-2.22-0.69-3.94-2.11-5.18-4.34c-1.24-2.22-1.86-4.81-1.86-7.8c0-7.04,3.61-12.58,9.7-12.58c6.16,0,9.73,5.54,9.73,12.58
			c0,5.76-2.44,10.75-7,12.14C196.07,61.06,196.83,62.01,198.47,62.01z M193,54.86c1.71,0,3.21-3.65,3.21-8.02
			c0-4.37-1.49-8.02-3.21-8.02c-1.68,0-3.17,3.61-3.17,8.02C189.83,51.25,191.33,54.86,193,54.86z"/>
		<path class="st1" d="M215.53,59.38c-5.14,0-9.3-3.86-9.3-10.53V34.67h6.49v15.57c0,2.52,1.09,4.05,2.81,4.05
			c1.75,0,2.84-1.46,2.84-4.05V34.67h6.49v14.18C224.86,55.55,220.71,59.38,215.53,59.38z"/>
		<path class="st1" d="M231.68,34.67h14.58v4.48h-8.09v4.45h8.09v4.45h-8.09v6.49h8.09v4.45h-14.58V34.67z"/>
	</g>
</g>
<polygon id="losange_jaune" class="st2" points="316.29,0 263.95,89.83 314.24,177.99 415.94,177.99 467.16,89.67 417.28,0.15 "/>
<path id="_x33_D_print" class="st0" d="M311.11,21.76c6.24-21.95-2.81-14.7-3.94-13.28c-0.47,0.59-0.76,1.31-0.76,2.06
	c-0.02,2.76,0.61,9.01-1.63,14.38c-2.36,5.65-4.86,8.7-7.61,10.36c-2.29,1.38-5.05,1.81-7.67,2.39c-2.08,0.49-4.17,0.94-6.19,1.65
	c-7.09,2.45-8.15,4.36-8.78,11.04c-0.08,1.16-0.13,2.34-0.1,3.51c-0.38,0.23-0.75,0.46-1.14,0.66c-1.82,1-3.65,1.97-5.5,2.91
	c-1.81,0.92-3.64,1.82-5.49,2.69c-0.43,0.2-0.86,0.4-1.29,0.59c-0.03-0.01-0.07-0.03-0.11-0.04v0c-2.71,0.39-2.02,3.73-1.89,4.84
	c-0.11,0.81-0.16,1.62-0.2,2.44c-0.09,1.62-0.16,1.32-0.1,2.94c-0.24,0.01-0.48,0.05-0.71,0.1c-0.03,0-0.12-0.01-0.06-0.01
	c-0.37-0.06-0.75-0.12-1.13-0.1c-0.07,0-0.22,0-0.26,0c-0.27,0-0.55-0.01-0.82-0.01c-1.32-0.03-2.64-0.07-3.96-0.13
	c-2.81-0.13-5.61-0.22-8.42-0.34c-4.3,0.22-11.26-0.3-20.06-0.24c-1.32,0.04-10.81,0.3-12.13,0.32c-0.63,0.02-1.27,0.05-1.9,0.12
	c-3.12,0-3.12,4.41,0,4.41c0.69-0.04,1.37-0.1,2.05-0.12c1.31-0.01,10.78-0.28,12.09-0.31c7.97-0.39,13.04,0.25,19.8,0.24
	c2.78,0.12,5.57,0.21,8.35,0.34c1.36,0.07,2.72,0.11,4.08,0.14c0.31,0,0.63,0.01,0.94,0.01c0.08,0,0.15,0,0.23,0h0.1
	c0.15,0,0.24,0,0.24,0c-0.38-0.02-0.01,0.03,0.04,0.04c0.36,0.07,0.72,0.07,1.08,0.04c-0.26,1.24,0.88,5.24,1.25,5.45
	c0.81,0.36,1.61,0.76,2.41,1.13c1.44,0.7,2.92,1.29,4.39,1.91c0.39,0.16,0.77,0.33,1.16,0.5c0.01,0.01,0.01,0.02,0.02,0.03
	c0.66,0.95,1.38,1.85,2.12,2.74c0.87,1.05,1.71,2.13,2.51,3.23c0.64,0.91,1.29,8.34,2.01,9.19c0.1,0.12,0.21,0.23,0.31,0.35
	c-0.11,0.26-0.17,0.51-0.2,0.75c-0.27,0.42-0.39,0.96-0.28,1.58c-0.18,0.51-0.43,0.99-0.66,1.49c-0.28,0.59-0.57,1.19-0.89,1.76
	c-0.34,0.57-0.7,1.12-1.08,1.67c-0.71,0.93-1.86,1.86-2.68,2.58c-0.74,0.63-1.51,1.21-2.33,1.75c-1.44,0.55-2.87,1.13-4.26,1.78
	c-1.78,0.86-3.5,1.8-5.22,2.76c-1.48,0.82-2.95,1.65-4.45,2.44c-0.85,0.48-1.7,0.97-2.52,1.49c-0.91,0.6-1.12,1.4-0.91,2.09
	c-0.41,0.34-0.67,0.85-0.67,1.53c0,1.34-0.01,2.68,0.02,4.02c0.01,2.19,0.15,4.38,0.31,6.57c0.14,1.95,0.39,3.9,0.6,5.84
	c0.16,1.33,0.31,2.66,0.33,4c-0.01,0.92-0.07,1.84-0.03,2.75c0.03,0.45,0.06,0.9,0.07,1.36c0,0.18,0.04,0.35,0.07,0.53
	c-0.44,0.98-0.78,2.3-0.17,2.97c0.93,0.83,1.86,1.66,2.81,2.48c1.72,1.49,3.6,2.81,5.47,4.15c2.05,1.44,4.18,2.78,6.3,4.13
	c1.72,1.1,3.41,2.23,5.08,3.39c0.95,0.68,1.9,1.34,2.87,1.99c0.37,0.24,0.75,0.45,1.16,0.62c0.23,0.01,0.46,0.06,0.69,0.09
	c0.56,0.83,1.77,1.3,3.09,0.6c1.1-0.62,2.18-1.25,3.25-1.91c1.7-1.06,3.36-2.19,5.03-3.28c1.9-1.27,3.89-2.43,5.86-3.61
	c1.39-0.83,2.74-1.7,4.12-2.54c0.12-0.07,0.25-0.15,0.37-0.22c0.27-0.16,0.53-0.33,0.8-0.49c-0.16,0.08-0.06,0.03,0.08-0.03
	c0.02-0.01-0.1,0.03-0.07,0.03c0.09,0,0.42-0.17,0.44-0.18c0.25-0.08,0.58-0.24,0.86-0.37c0.34-0.17,0.74-0.44,0.93-0.55
	c0.28-0.15,0.57-0.31,0.88-0.43c0.28-0.11,0.55-0.24,0.8-0.39c1.24,0.12,2.58-0.64,2.41-2.19c-0.08-0.8-0.08-1.61-0.1-2.42
	c-0.04-1.22-0.12-2.43-0.23-3.64c-0.11-1.27-0.23-2.53-0.3-3.8c-0.09-1.32-0.03-2.64,0.05-3.96c0.09-1.39,0.2-2.79,0.26-4.18
	c0.04-1.26,0.04-2.51,0.09-3.77c0.09-1.16,0.17-2.31,0.21-3.47c0.03-0.78,0.04-1.57,0.04-2.35c-0.03-0.41,0.07-0.81,0.14-1.21
	c0.08-0.31,0.14-0.62,0.19-0.93c-0.32-3.03-2.87-3.19-5.49-4.64c-1.48-0.83-2.94-1.7-4.43-2.53c-1.77-0.97-3.54-1.96-5.37-2.83
	c-1.65-0.83-3.32-1.64-4.93-2.53c-0.25-0.15-0.51-0.3-0.76-0.44c-0.45-0.39-0.36-0.86-0.73-1.37c-0.57-0.83-1.05-1.72-1.42-2.65
	c-0.41-1.05-0.71-2.14-0.87-3.26c-0.1-0.77-0.18-1.55-0.1-2.33c0.01-0.02,0.01-0.04,0.02-0.06c0.11-0.17,0.19-0.34,0.25-0.52
	c0.22-0.46,0.42-0.92,0.65-1.37c0.64-1.26,1.31-9.03,2-10.26c0.4-0.73,0.81-1.46,1.26-2.16c0.4-0.67,0.83-1.31,1.26-1.96
	c0.11-0.16,0.21-0.33,0.31-0.49c0.07-0.09-0.01,0.02,0.23-0.31c0.03-0.05-0.14,0.19-0.1,0.14c0.12-0.12,0.25-0.33,0.34-0.47
	c0.04-0.05,0.06-0.11,0.09-0.16c0.77-0.4,1.52-0.82,2.29-1.21c0.67-0.38,1.37-0.69,2.05-1.06l0,0c0.18-0.14,0.29-0.21,0.41-0.3
	c0.52-0.03,1.03-0.06,1.55-0.07c0.24-0.94,0.19-0.49,0.21-1.34c-0.02-0.66-0.25-1.17-0.57-1.54c-0.27-1.12-0.41-2.27-0.52-3.42
	c0.66-0.05,1.31-0.11,1.97-0.15c2.35-0.14,4.7-0.2,7.04-0.28c15.74-0.3,7.03-0.72,22.23-0.76c3.72-0.01,5.12,0.11,8.84,0.11
	c2.78,0.04,7.88-0.05,10.66,0.03c2,0.06,4,0.12,5.99,0.24c1.14,0.08,2.28,0.15,3.42,0.19c0.74,0.04,1.48,0,2.2-0.13
	c1.15-0.28,1.86-0.85,2.04-2.35c0.07-0.56-0.43-1.04-0.65-1.55c-0.97-1.07-2.17-0.99-3-0.39c-0.15,0-0.3,0.03-0.44,0.02
	c-1.11-0.04-2.21-0.11-3.32-0.19c-2.04-0.12-4.08-0.19-6.13-0.25c-2.82-0.07-7.96-0.06-10.78-0.11c-3.72,0-5.12-0.04-8.85-0.03
	c-15.85,0.25-7.06,0.25-22.35,0.76c-2.4,0.07-4.8,0.13-7.2,0.28c-0.71,0.05-1.42,0.11-2.12,0.17c-0.11-1.12-0.23-2.24-0.32-3.36
	c-0.03-0.48-0.05-0.73-0.04-1.19c0-0.03,0.02-0.61,0.03-0.72c0-0.04,0.01-0.09,0.02-0.13c0.33-2.73-0.17-5.63-1.66-5.77
	c-1.13-0.43-2.27-0.83-3.37-1.32c-1.5-0.64-3-1.29-4.41-2.11c-1.61-0.45-1.59-1.69-1.64-3.08c0.02-0.42,0.02-0.85,0.05-1.27
	c0.49-5.69,0.84-5.15,5.9-7.2c1.85-0.63,3.77-1.05,5.67-1.49c2.79-0.62,5.48-1.6,8.18-2.54C302.69,38.02,309.4,27.77,311.11,21.76z
	 M274.16,58.98c0.32,0.83-0.05,2.26,0.39,3.03c1.3,2.17,4.17-1.12,4.31-3.03c0.85,0.4,3.47,1.81,4.34,2.17
	c0.04,0.02,0.09,0.03,0.13,0.05l-0.01,0.01c-1.81,0.92-3.64,1.79-5.5,2.59c-1.08,0.45-2.17,0.9-3.29,1.22
	c-0.05,0.01-0.08,0.03-0.13,0.04c-0.05-0.02-0.09-0.06-0.14-0.08c-0.22-0.08-0.44-0.14-0.63-0.24c-0.41-0.23-0.83-0.45-1.28-0.61
	c-0.67-0.24-1.35-0.43-2.04-0.59c-1.04-0.26-2.07-0.54-3.11-0.78c-0.06-0.02-0.12-0.04-0.18-0.05c0.92-0.45,1.85-0.89,2.77-1.35
	C272.26,60.03,271.66,60.19,274.16,58.98 M285.53,65.04c0,0.47-0.01,0.95,0.02,1.42c0.18,2.18,0.42,4.35,0.63,6.52
	c0.13,1.42,0.28,2.84,0.53,4.25c-0.38,0.19-0.75,0.38-1.11,0.58c-0.62,0.32-1.23,0.66-1.85,0.98c-0.62,0.01-1.25,0.29-1.69,0.89
	c-0.55,0.3-1.11,0.57-1.66,0.88c-0.83,0.43-1.66,0.87-2.49,1.3c-0.02-0.28-0.03-0.57-0.06-0.85c-0.16-1.57-0.35-3.14-0.45-4.72
	c-0.11-1.88-0.19-3.76-0.26-5.64c-0.03-0.6-0.06-1.2-0.1-1.79c0.84-0.3,1.67-0.62,2.5-0.96c1.97-0.84,3.89-1.76,5.8-2.73
	C285.39,65.12,285.46,65.08,285.53,65.04 M277.7,86.87c-0.39,0.7-0.77,1.41-1.14,2.13c-0.3-0.4-0.58-0.81-0.87-1.22
	c0.43-0.18,0.85-0.36,1.27-0.55C277.22,87.12,277.46,86.99,277.7,86.87 M276.11,111.37c0.21,0.1,0.41,0.2,0.61,0.3
	c0.93,0.5,1.83,1.04,2.74,1.57c0.49,0.39,1,0.58,1.49,0.96c0.5,0.42,1.13,0.58,1.7,0.92c0.41,0.25,0.83,0.49,1.29,0.67
	c0.31,0.1,0.63,0.2,0.95,0.27c2.02,0.67,4.31,2.25,6.01,3.18c1.47,0.83,2.92,1.68,4.39,2.51c0.1,0.06,0.2,0.11,0.29,0.16
	c-0.24,0.11-0.49,0.22-0.73,0.33c-0.77,0.4-1.54,0.8-2.32,1.17c-1.58,0.8-3.16,1.58-4.75,2.37c-1.86,0.92-3.72,1.86-5.54,2.85
	c-1.47,0.8-2.93,1.62-4.42,2.39c-0.34,0.17-0.68,0.33-1.02,0.49c-0.82-0.13-1.39,0.88-2.55,0.83c-0.23-0.13-0.45-0.26-0.68-0.38
	c-1.09-0.59-2.2-1.16-3.28-1.77c-1.72-0.99-3.43-1.99-5.16-2.98c-1.84-1.07-3.63-2.21-5.39-3.39c-1.28-0.82-2.56-1.65-3.99-2.26v0
	c-0.17-0.07-0.33-0.12-0.49-0.15c1.3-0.7,2.6-1.42,3.89-2.14c1.64-0.92,3.29-1.82,4.99-2.64c0.26-0.12,0.53-0.23,0.79-0.35
	c0.39,0.02,0.87-0.39,1.32-0.59c0.77-0.34,1.46-0.38,2.17-0.81c0.05-0.03,0.09-0.06,0.13-0.09c0.72-0.29,1.43-0.6,2.15-0.88
	c0.47-0.19,0.94-0.39,1.41-0.58c0.36-0.16,0.71-0.31,1.06-0.5c0.36-0.19,0.71-0.41,1.08-0.58c0.39-0.16,0.78-0.33,1.16-0.52
	C275.67,111.62,275.9,111.48,276.11,111.37 M298.44,124.94c0,0.11-0.02,0.21-0.02,0.32c0,0.74-0.01,1.48-0.03,2.22
	c-0.05,1.16-0.13,2.31-0.21,3.47c-0.05,1.26-0.06,2.51-0.09,3.77c-0.06,1.38-0.16,2.75-0.25,4.12c-0.09,1.45-0.15,2.9-0.05,4.35
	c0.07,1.31,0.19,2.62,0.3,3.93c0.1,1.13,0.17,2.26,0.21,3.4c0.01,0.35,0.04,0.7,0.05,1.06c-0.09,0.06-0.19,0.12-0.28,0.2
	c-0.14,0.08-0.29,0.15-0.44,0.22c-0.45,0.2-0.89,0.41-1.32,0.65c-0.26,0.15-0.48,0.3-0.71,0.43c-0.56,0.25-0.87,0.38-1.36,0.58
	c-0.5,0.27-0.97,0.59-1.46,0.87c-1.38,0.84-2.72,1.71-4.11,2.54c-2.01,1.21-4.04,2.4-5.99,3.7c-1.35,0.88-2.69,1.77-4.04,2.64
	c0.02-0.28,0.06-0.55,0.07-0.83c0.03-1.16-0.01-2.33-0.05-3.49c-0.07-1.71-0.17-3.42-0.2-5.13c-0.08-2.56-0.11-5.12-0.15-7.68
	c-0.03-2.75,0-5.51,0.01-8.26c0-0.26,0.01-0.52,0.01-0.79c0.01-0.01,0.02-0.01,0.03-0.02c-1.13-1.55,0.7-1.81,0.73-2.39
	c0.29-0.14,0.58-0.27,0.87-0.42c1.55-0.79,3.06-1.64,4.59-2.47c1.76-0.96,3.57-1.86,5.38-2.76c1.59-0.79,3.19-1.58,4.78-2.38
	c0.79-0.38,1.57-0.79,2.35-1.19c0.36-0.15,0.7-0.32,1.05-0.47C298.2,125.07,298.32,125,298.44,124.94z"/>
<polygon id="haut_cube_print" class="st3" points="274.73,110.39 255.43,121.61 274.09,133.24 295.32,122.25 "/>
</svg>
