<svg version="1.1" xmlns="http://www.w3.org/2000/svg" xmlns:xlink="http://www.w3.org/1999/xlink" x="0px" y="0px" viewBox="0 0 64.5 64.5" style="enable-background:new 0 0 64.5 64.5;" xml:space="preserve" class="options add-post" >
<polygon style="fill:#FCB421;" points="55.2,36.2 49.6,50.1 34,54.8 9,49.3 9,29.9 19.3,17.2 34.4,10 48.9,25.6 	"></polygon>
<path style="fill:#EF474B;" d="M10.2,10.3C-2,22.5-2,42.3,10.2,54.5c12.2,12.2,31.9,12.2,44.1,0c12.2-12.2,12.2-31.9,0-44.1
	C42.1-1.8,22.4-1.8,10.2,10.3z M50.2,28.5l0,7.8l-14,0l0,14h-7.8l0-14l-14,0l0-7.8l14,0l0-14l7.8,0l0,14H50.2z"></path>
</svg>