<svg version="1.1" id="Layer_1"
	 xmlns="http://www.w3.org/2000/svg" xmlns:xlink="http://www.w3.org/1999/xlink" x="0px" y="0px" width="64px" height="64px"
	 viewBox="0 0 64 64" enable-background="new 0 0 64 64" xml:space="preserve">
		<polygon fill="#FFB520" points="55.573,32.484 50.036,46.271 34.469,50.867 9.708,45.436 9.708,26.217 20.002,13.684 
			34.966,6.581 49.343,22.039 		"/>
		<path fill="#FE414D" d="M31.796,62.667c17.049,0,30.87-13.821,30.87-30.872c0-17.049-13.822-30.871-30.871-30.871
			c-17.05,0-30.872,13.821-30.871,30.871C0.924,48.846,14.747,62.667,31.796,62.667z M14.462,32.276l16.073-17.689l3.258,2.959
			L22.513,29.96l8.536,0.005l4.399,0.002l13.808,0.008l-0.004,4.401l-13.805-0.009l-4.401-0.002l-7.81-0.005l13.166,11.362
			l-2.935,3.28L17.635,35.327l-0.018,0.017l-2.099-1.911l-1.185-1.058L14.462,32.276z"/>
</svg>
