<?xml version="1.0" encoding="utf-8"?>
<!-- Generator: Adobe Illustrator 15.0.0, SVG Export Plug-In . SVG Version: 6.00 Build 0)  -->
<!DOCTYPE svg PUBLIC "-//W3C//DTD SVG 1.1//EN" "http://www.w3.org/Graphics/SVG/1.1/DTD/svg11.dtd">
<svg version="1.1" id="Calque_1" xmlns="http://www.w3.org/2000/svg" xmlns:xlink="http://www.w3.org/1999/xlink" x="0px" y="0px"
	 width="40px" height="40px" viewBox="0 0 40 40" enable-background="new 0 0 40 40" xml:space="preserve">
<g>
	<rect x="4.906" y="9.657" fill="#EE4651" width="29.868" height="20.436"/>
	<path fill="#293275" d="M20.001,40C31.047,40,40,31.045,40,20C40,8.953,31.047,0,20.001,0C8.956,0,0,8.953,0,20
		C0,31.045,8.956,40,20.001,40z M13.552,15.158H6.479v-4.715h7.073V15.158z M23.77,15.158h-7.074v-4.715h7.074V15.158z
		 M33.989,15.158h-7.076v-4.715h7.076V15.158z M13.552,22.233H6.479v-4.716h7.073V22.233z M23.77,22.233h-7.074v-4.716h7.074V22.233
		z M33.989,22.233h-7.076v-4.716h7.076V22.233z M13.552,29.308H6.479v-4.716h7.073V29.308z M23.77,29.308h-7.074v-4.716h7.074
		V29.308z M33.989,29.308h-7.076v-4.716h7.076V29.308z"/>
</g>
</svg>
