<svg width="62" height="85" viewBox="0 0 62 85" fill="none" xmlns="http://www.w3.org/2000/svg">
<path d="M1 84.218V1.21094H60.8991V84.218H1Z" fill="white"/>
<path d="M1.14252 1.39648L1.11609 2.53368C1.10965 2.68359 1.09712 4.60425 1.07865 8.29566C1.06061 11.9871 1.04198 15.41 1.02266 18.5645C1.00376 21.7186 0.996695 25.864 1.00142 31.0008C1.00572 36.1376 1.02395 40.6002 1.05616 44.3887C1.08838 48.1767 1.12719 51.869 1.17272 55.4655C1.21825 59.0615 1.26017 61.997 1.2984 64.2718C1.33706 66.5462 1.36371 68.1071 1.37831 68.9546C1.39291 69.8016 1.40724 70.5864 1.42141 71.3089C1.43601 72.0309 1.44619 72.5191 1.45177 72.7733C1.45778 73.0272 1.47071 73.6185 1.49047 74.5471C1.50979 75.4754 1.5731 77.9883 1.68048 82.086L1.68882 83.222" fill="#FFBC00"/>
<path d="M1.14252 1.39648L1.11609 2.53368C1.10965 2.68359 1.09712 4.60425 1.07865 8.29566C1.06061 11.9871 1.04198 15.41 1.02266 18.5645C1.00376 21.7186 0.996695 25.864 1.00142 31.0008C1.00572 36.1376 1.02395 40.6002 1.05616 44.3887C1.08838 48.1767 1.12719 51.869 1.17272 55.4655C1.21825 59.0615 1.26017 61.997 1.2984 64.2718C1.33706 66.5462 1.36371 68.1071 1.37831 68.9546C1.39291 69.8016 1.40724 70.5864 1.42141 71.3089C1.43601 72.0309 1.44619 72.5191 1.45177 72.7733C1.45778 73.0272 1.47071 73.6185 1.49047 74.5471C1.50979 75.4754 1.5731 77.9883 1.68048 82.086L1.68882 83.222" stroke="#FFBC00" stroke-linecap="round" stroke-linejoin="round"/>
<path d="M1.11868 1.34866C2.03144 1.3594 4.1977 1.359 7.61721 1.3474C11.0367 1.33537 13.7762 1.33282 15.8358 1.33969C17.8954 1.347 20.1816 1.35446 22.6944 1.36219C25.2067 1.37035 26.9895 1.37593 28.0428 1.37894C29.0955 1.38152 30.9638 1.39719 33.6475 1.42597C36.3308 1.45475 38.5192 1.47924 40.2129 1.49943C41.9065 1.51962 43.3605 1.54714 44.5748 1.58194C45.7891 1.61716 46.8173 1.64205 47.6591 1.65665C48.5006 1.67169 49.4148 1.68521 50.4019 1.69724C51.3894 1.70926 52.2811 1.71788 53.077 1.72303C53.8734 1.72776 54.6883 1.73374 55.5215 1.74104C56.3548 1.74835 58.181 1.77028 61 1.8068" fill="#FFBC00"/>
<path d="M1.11868 1.34866C2.03144 1.3594 4.1977 1.359 7.61721 1.3474C11.0367 1.33537 13.7762 1.33282 15.8358 1.33969C17.8954 1.347 20.1816 1.35446 22.6944 1.36219C25.2067 1.37035 26.9895 1.37593 28.0428 1.37894C29.0955 1.38152 30.9638 1.39719 33.6475 1.42597C36.3308 1.45475 38.5192 1.47924 40.2129 1.49943C41.9065 1.51962 43.3605 1.54714 44.5748 1.58194C45.7891 1.61716 46.8173 1.64205 47.6591 1.65665C48.5006 1.67169 49.4148 1.68521 50.4019 1.69724C51.3894 1.70926 52.2811 1.71788 53.077 1.72303C53.8734 1.72776 54.6883 1.73374 55.5215 1.74104C56.3548 1.74835 58.181 1.77028 61 1.8068" stroke="#FFBC00" stroke-linecap="round" stroke-linejoin="round"/>
<path d="M1.66302 83.2363C2.53798 83.2368 3.04806 83.2443 3.19324 83.2589C3.33799 83.2735 4.23427 83.299 5.88196 83.3355C7.52965 83.372 9.66695 83.4021 12.294 83.4257C14.9214 83.4489 17.1175 83.464 18.882 83.4709C20.647 83.4777 22.1325 83.4923 23.3386 83.5147C24.5452 83.537 25.5982 83.5559 26.4977 83.5714C27.3971 83.5868 28.6495 83.6004 30.2546 83.612C31.8598 83.6236 33.1923 83.6322 34.2524 83.6378C35.3125 83.6438 36.2972 83.6525 37.2065 83.6641C38.1163 83.6757 38.6796 83.6816 38.8965 83.6816C39.1139 83.6816 39.59 83.6802 40.325 83.6776C41.0595 83.6751 41.8688 83.6705 42.7527 83.6641C43.6371 83.6581 44.606 83.6557 45.6592 83.657C46.7124 83.6587 47.3627 83.6551 47.6101 83.6461C47.8579 83.6366 48.3889 83.6323 49.2028 83.6332C50.0168 83.6336 50.866 83.6349 51.7504 83.637C52.6343 83.6396 53.2032 83.6371 53.4571 83.6293C53.7114 83.6216 54.2835 83.6212 55.1735 83.6281C56.0635 83.6354 57.0265 83.6468 58.0626 83.6622C59.0982 83.6773 59.9229 83.6884 60.5367 83.6957" fill="#FFBC00"/>
<path d="M1.66302 83.2363C2.53798 83.2368 3.04806 83.2443 3.19324 83.2589C3.33799 83.2735 4.23427 83.299 5.88196 83.3355C7.52965 83.372 9.66695 83.4021 12.294 83.4257C14.9214 83.4489 17.1175 83.464 18.882 83.4709C20.647 83.4777 22.1325 83.4923 23.3386 83.5147C24.5452 83.537 25.5982 83.5559 26.4977 83.5714C27.3971 83.5868 28.6495 83.6004 30.2546 83.612C31.8598 83.6236 33.1923 83.6322 34.2524 83.6378C35.3125 83.6438 36.2972 83.6525 37.2065 83.6641C38.1163 83.6757 38.6796 83.6816 38.8965 83.6816C39.1139 83.6816 39.59 83.6802 40.325 83.6776C41.0595 83.6751 41.8688 83.6705 42.7527 83.6641C43.6371 83.6581 44.606 83.6557 45.6592 83.657C46.7124 83.6587 47.3627 83.6551 47.6101 83.6461C47.8579 83.6366 48.3889 83.6323 49.2028 83.6332C50.0168 83.6336 50.866 83.6349 51.7504 83.637C52.6343 83.6396 53.2032 83.6371 53.4571 83.6293C53.7114 83.6216 54.2835 83.6212 55.1735 83.6281C56.0635 83.6354 57.0265 83.6468 58.0626 83.6622C59.0982 83.6773 59.9229 83.6884 60.5367 83.6957" stroke="#FFBC00" stroke-linecap="round" stroke-linejoin="round"/>
<path d="M61 1.80664C60.9893 2.3835 60.982 3.72903 60.9781 5.84319C60.9743 7.95735 60.9631 13.1491 60.9446 21.4185C60.9262 29.6879 60.9021 36.7367 60.8724 42.5651C60.8428 48.3934 60.8204 52.43 60.8054 54.6747C60.7908 56.9199 60.779 58.5896 60.77 59.6841C60.761 60.7781 60.7494 61.9013 60.7352 63.0538C60.721 64.2062 60.7073 65.6733 60.694 67.455C60.6811 69.2367 60.6699 70.6271 60.6605 71.6262C60.6506 72.6258 60.6443 73.7189 60.6417 74.9057C60.6387 76.0921 60.6108 79.0249 60.558 83.7043" fill="#FFBC00"/>
<path d="M61 1.80664C60.9893 2.3835 60.982 3.72903 60.9781 5.84319C60.9743 7.95735 60.9631 13.1491 60.9446 21.4185C60.9262 29.6879 60.9021 36.7367 60.8724 42.5651C60.8428 48.3934 60.8204 52.43 60.8054 54.6747C60.7908 56.9199 60.779 58.5896 60.77 59.6841C60.761 60.7781 60.7494 61.9013 60.7352 63.0538C60.721 64.2062 60.7073 65.6733 60.694 67.455C60.6811 69.2367 60.6699 70.6271 60.6605 71.6262C60.6506 72.6258 60.6443 73.7189 60.6417 74.9057C60.6387 76.0921 60.6108 79.0249 60.558 83.7043" stroke="#FFBC00" stroke-linecap="round" stroke-linejoin="round"/>
<path d="M11.1615 9.70117C11.1563 9.99154 11.1496 10.3888 11.1415 10.8931C11.1338 11.3978 11.1245 12.0095 11.1138 12.7281C11.1035 13.4467 11.0929 14.1662 11.0822 14.8865C11.0714 15.6064 11.0605 16.3271 11.0493 17.0487C11.0381 17.7699 11.027 18.5598 11.0158 19.4184C11.0042 20.2775 10.9926 21.2052 10.981 22.2012C10.969 23.1973 10.9582 24.118 10.9488 24.9633C10.9398 25.8082 10.9321 26.5778 10.9257 27.2719C10.9188 27.966 10.9127 28.5886 10.9076 29.1397C10.902 29.6903 10.8973 30.1695 10.8934 30.5771C10.8891 30.9848 10.8846 31.524 10.8799 32.195C10.8756 32.8659 10.8709 33.6682 10.8657 34.6021C10.8606 35.5359 10.8565 36.3675 10.8535 37.0968C10.85 37.8257 10.8481 38.4522 10.8477 38.9762C10.8464 39.5003 10.8456 39.9893 10.8451 40.4433C10.8447 40.8969 10.8441 41.2675 10.8437 41.5553C10.8437 41.8431 10.8447 42.1999 10.8464 42.6255C10.8481 43.0516 10.8507 43.5948 10.8541 44.255C10.8575 44.9152 10.8612 45.5806 10.8651 46.2511C10.8694 46.9216 10.873 47.5095 10.876 48.0151C10.879 48.5211 10.8825 49.056 10.8863 49.62C10.8898 50.184 10.8931 50.7306 10.8966 51.2598C10.9 51.7886 10.9045 52.4236 10.9101 53.165C10.9153 53.906 10.9213 54.7004 10.9282 55.5483C10.9351 56.3962 10.9419 57.1738 10.9488 57.8813C10.9552 58.5887 10.9619 59.2259 10.9688 59.7929C10.9752 60.3603 10.9813 60.8913 10.9869 61.3857C10.9924 61.8801 10.9984 62.4431 11.0048 63.075C11.0112 63.7064 11.0173 64.3 11.0229 64.8559C11.0285 65.4112 11.0332 65.8998 11.037 66.3216C11.0409 66.7435 11.045 67.1714 11.0493 67.6057C11.0532 68.0404 11.0563 68.4205 11.0589 68.7461C11.0615 69.0726 11.0663 69.7122 11.0732 70.6649C11.0797 71.6176 11.086 72.9298 11.0924 74.6015L11.0912 76.1433" fill="#FFBC00"/>
<path d="M11.1615 9.70117C11.1563 9.99154 11.1496 10.3888 11.1415 10.8931C11.1338 11.3978 11.1245 12.0095 11.1138 12.7281C11.1035 13.4467 11.0929 14.1662 11.0822 14.8865C11.0714 15.6064 11.0605 16.3271 11.0493 17.0487C11.0381 17.7699 11.027 18.5598 11.0158 19.4184C11.0042 20.2775 10.9926 21.2052 10.981 22.2012C10.969 23.1973 10.9582 24.118 10.9488 24.9633C10.9398 25.8082 10.9321 26.5778 10.9257 27.2719C10.9188 27.966 10.9127 28.5886 10.9076 29.1397C10.902 29.6903 10.8973 30.1695 10.8934 30.5771C10.8891 30.9848 10.8846 31.524 10.8799 32.195C10.8756 32.8659 10.8709 33.6682 10.8657 34.6021C10.8606 35.5359 10.8565 36.3675 10.8535 37.0968C10.85 37.8257 10.8481 38.4522 10.8477 38.9762C10.8464 39.5003 10.8456 39.9893 10.8451 40.4433C10.8447 40.8969 10.8441 41.2675 10.8437 41.5553C10.8437 41.8431 10.8447 42.1999 10.8464 42.6255C10.8481 43.0516 10.8507 43.5948 10.8541 44.255C10.8575 44.9152 10.8612 45.5806 10.8651 46.2511C10.8694 46.9216 10.873 47.5095 10.876 48.0151C10.879 48.5211 10.8825 49.056 10.8863 49.62C10.8898 50.184 10.8931 50.7306 10.8966 51.2598C10.9 51.7886 10.9045 52.4236 10.9101 53.165C10.9153 53.906 10.9213 54.7004 10.9282 55.5483C10.9351 56.3962 10.9419 57.1738 10.9488 57.8813C10.9552 58.5887 10.9619 59.2259 10.9688 59.7929C10.9752 60.3603 10.9813 60.8913 10.9869 61.3857C10.9924 61.8801 10.9984 62.4431 11.0048 63.075C11.0112 63.7064 11.0173 64.3 11.0229 64.8559C11.0285 65.4112 11.0332 65.8998 11.037 66.3216C11.0409 66.7435 11.045 67.1714 11.0493 67.6057C11.0532 68.0404 11.0563 68.4205 11.0589 68.7461C11.0615 69.0726 11.0663 69.7122 11.0732 70.6649C11.0797 71.6176 11.086 72.9298 11.0924 74.6015L11.0912 76.1433" stroke="#FFBC00" stroke-linecap="round" stroke-linejoin="round"/>
<path d="M11.2251 9.36857C11.3763 9.36341 11.6367 9.35527 12.0061 9.34411C12.3755 9.33337 12.8535 9.31984 13.4402 9.30352C14.0274 9.2872 14.5976 9.27152 15.1508 9.25649C15.7045 9.24146 16.2414 9.22706 16.7616 9.21331C17.2817 9.19957 17.7432 9.18772 18.1461 9.17784C18.5486 9.16839 18.8929 9.16045 19.179 9.15401C19.465 9.14757 19.8538 9.14003 20.3452 9.13144C20.837 9.12285 21.4311 9.11411 22.1274 9.10509C22.8232 9.09607 23.4952 9.08873 24.1433 9.08315C24.7919 9.07799 25.4169 9.07416 26.0182 9.07158C26.6196 9.06944 27.1988 9.06836 27.7559 9.06836C28.313 9.06836 28.8478 9.06944 29.3602 9.07158C29.8735 9.07373 30.3861 9.07628 30.8981 9.07929C31.4101 9.0823 31.9217 9.08553 32.4329 9.08897C32.9445 9.0924 33.4355 9.09603 33.9058 9.0999C34.3762 9.10376 34.9333 9.10895 35.5772 9.11539C36.2215 9.12141 36.7819 9.12779 37.2587 9.13466C37.7359 9.1411 38.1768 9.14669 38.5814 9.15141C38.9865 9.15657 39.4556 9.16175 39.9886 9.16691C40.5213 9.17206 41.1867 9.17725 41.9852 9.1824C42.7833 9.18713 43.5084 9.19056 44.1605 9.1927C44.8125 9.19528 45.5159 9.19999 46.2706 9.20686C47.0253 9.2133 47.8357 9.23046 48.7021 9.25838C48.931 9.27985 49.7025 9.32864 51.0165 9.40467" fill="#FFBC00"/>
<path d="M11.2251 9.36857C11.3763 9.36341 11.6367 9.35527 12.0061 9.34411C12.3755 9.33337 12.8535 9.31984 13.4402 9.30352C14.0274 9.2872 14.5976 9.27152 15.1508 9.25649C15.7045 9.24146 16.2414 9.22706 16.7616 9.21331C17.2817 9.19957 17.7432 9.18772 18.1461 9.17784C18.5486 9.16839 18.8929 9.16045 19.179 9.15401C19.465 9.14757 19.8538 9.14003 20.3452 9.13144C20.837 9.12285 21.4311 9.11411 22.1274 9.10509C22.8232 9.09607 23.4952 9.08873 24.1433 9.08315C24.7919 9.07799 25.4169 9.07416 26.0182 9.07158C26.6196 9.06944 27.1988 9.06836 27.7559 9.06836C28.313 9.06836 28.8478 9.06944 29.3602 9.07158C29.8735 9.07373 30.3861 9.07628 30.8981 9.07929C31.4101 9.0823 31.9217 9.08553 32.4329 9.08897C32.9445 9.0924 33.4355 9.09603 33.9058 9.0999C34.3762 9.10376 34.9333 9.10895 35.5772 9.11539C36.2215 9.12141 36.7819 9.12779 37.2587 9.13466C37.7359 9.1411 38.1768 9.14669 38.5814 9.15141C38.9865 9.15657 39.4556 9.16175 39.9886 9.16691C40.5213 9.17206 41.1867 9.17725 41.9852 9.1824C42.7833 9.18713 43.5084 9.19056 44.1605 9.1927C44.8125 9.19528 45.5159 9.19999 46.2706 9.20686C47.0253 9.2133 47.8357 9.23046 48.7021 9.25838C48.931 9.27985 49.7025 9.32864 51.0165 9.40467" stroke="#FFBC00" stroke-linecap="round" stroke-linejoin="round"/>
<path d="M51.2581 9.52148C51.2461 9.85738 51.2347 10.2556 51.224 10.716C51.2128 11.176 51.2029 11.697 51.1943 12.279C51.1857 12.8615 51.1771 13.4439 51.1685 14.0264C51.16 14.6084 51.1518 15.1904 51.1441 15.7724C51.1359 16.354 51.1278 16.9522 51.1196 17.5668C51.1115 18.1815 51.103 18.8121 51.0945 19.4585C51.0859 20.1054 51.0777 20.7563 51.07 21.4114C51.0623 22.066 51.0545 22.7258 51.0468 23.3907C51.0395 24.0552 51.0324 24.7592 51.0256 25.5027C51.0187 26.2458 51.0115 27.0297 51.0042 27.8544C50.9974 28.6791 50.9908 29.4177 50.9843 30.0701C50.9775 30.7226 50.9723 31.2279 50.9688 31.5862C50.965 31.9448 50.962 32.3612 50.9598 32.8354C50.9577 33.3101 50.9555 33.9039 50.9534 34.6169C50.9512 35.33 50.9495 36.0443 50.9482 36.7599C50.9474 37.4755 50.9465 38.1024 50.9456 38.6406C50.9452 39.1788 50.945 39.7471 50.945 40.3454C50.945 40.9438 50.945 41.5107 50.945 42.0464C50.945 42.582 50.9448 43.2036 50.9444 43.911C50.944 44.6185 50.9431 45.3177 50.9418 46.0088C50.9401 46.7 50.9385 47.291 50.9372 47.7819C50.9359 48.2733 50.9343 48.7394 50.9321 49.1801C50.9304 49.6208 50.9272 50.1506 50.9224 50.7695C50.9182 51.388 50.9124 52.0446 50.9051 52.7391C50.8978 53.4333 50.8877 54.144 50.8748 54.8712C50.8623 55.5984 50.8503 56.2143 50.8387 56.719C50.8275 57.2237 50.8151 57.7388 50.8013 58.2641C50.788 58.789 50.7738 59.3246 50.7588 59.871C50.7442 60.4169 50.7281 60.9744 50.7105 61.5435C50.6933 62.1127 50.6778 62.6268 50.6641 63.086C50.6503 63.5448 50.6357 64.0357 50.6203 64.5589C50.6052 65.0825 50.5934 65.5335 50.5848 65.9119C50.5762 66.2903 50.5623 66.9451 50.543 67.8764C50.5236 68.8071 50.5099 69.5086 50.5017 69.9806C50.4936 70.4527 50.4871 70.9426 50.4824 71.4503C50.4772 71.958 50.4736 72.42 50.4715 72.8362C50.4689 73.2524 50.4667 73.7077 50.465 74.2021C50.4637 74.6965 50.4627 75.1273 50.4618 75.4945C50.4609 75.8614 50.4601 76.1644 50.4592 76.4037" fill="#FFBC00"/>
<path d="M51.2581 9.52148C51.2461 9.85738 51.2347 10.2556 51.224 10.716C51.2128 11.176 51.2029 11.697 51.1943 12.279C51.1857 12.8615 51.1771 13.4439 51.1685 14.0264C51.16 14.6084 51.1518 15.1904 51.1441 15.7724C51.1359 16.354 51.1278 16.9522 51.1196 17.5668C51.1115 18.1815 51.103 18.8121 51.0945 19.4585C51.0859 20.1054 51.0777 20.7563 51.07 21.4114C51.0623 22.066 51.0545 22.7258 51.0468 23.3907C51.0395 24.0552 51.0324 24.7592 51.0256 25.5027C51.0187 26.2458 51.0115 27.0297 51.0042 27.8544C50.9974 28.6791 50.9908 29.4177 50.9843 30.0701C50.9775 30.7226 50.9723 31.2279 50.9688 31.5862C50.965 31.9448 50.962 32.3612 50.9598 32.8354C50.9577 33.3101 50.9555 33.9039 50.9534 34.6169C50.9512 35.33 50.9495 36.0443 50.9482 36.7599C50.9474 37.4755 50.9465 38.1024 50.9456 38.6406C50.9452 39.1788 50.945 39.7471 50.945 40.3454C50.945 40.9438 50.945 41.5107 50.945 42.0464C50.945 42.582 50.9448 43.2036 50.9444 43.911C50.944 44.6185 50.9431 45.3177 50.9418 46.0088C50.9401 46.7 50.9385 47.291 50.9372 47.7819C50.9359 48.2733 50.9343 48.7394 50.9321 49.1801C50.9304 49.6208 50.9272 50.1506 50.9224 50.7695C50.9182 51.388 50.9124 52.0446 50.9051 52.7391C50.8978 53.4333 50.8877 54.144 50.8748 54.8712C50.8623 55.5984 50.8503 56.2143 50.8387 56.719C50.8275 57.2237 50.8151 57.7388 50.8013 58.2641C50.788 58.789 50.7738 59.3246 50.7588 59.871C50.7442 60.4169 50.7281 60.9744 50.7105 61.5435C50.6933 62.1127 50.6778 62.6268 50.6641 63.086C50.6503 63.5448 50.6357 64.0357 50.6203 64.5589C50.6052 65.0825 50.5934 65.5335 50.5848 65.9119C50.5762 66.2903 50.5623 66.9451 50.543 67.8764C50.5236 68.8071 50.5099 69.5086 50.5017 69.9806C50.4936 70.4527 50.4871 70.9426 50.4824 71.4503C50.4772 71.958 50.4736 72.42 50.4715 72.8362C50.4689 73.2524 50.4667 73.7077 50.465 74.2021C50.4637 74.6965 50.4627 75.1273 50.4618 75.4945C50.4609 75.8614 50.4601 76.1644 50.4592 76.4037" stroke="#FFBC00" stroke-linecap="round" stroke-linejoin="round"/>
<path d="M11.0809 76.3906C11.3056 76.3949 11.6099 76.399 11.9939 76.4029C12.3783 76.4068 12.8422 76.4102 13.3855 76.4132C13.9293 76.4166 14.4774 76.4199 15.0298 76.4229C15.5822 76.4259 16.1387 76.4288 16.6992 76.4318C17.2598 76.4344 17.8467 76.4376 18.46 76.4415C19.073 76.4454 19.7122 76.4497 20.3775 76.4544C21.0429 76.4591 21.6944 76.4626 22.3323 76.4647C22.9701 76.4673 23.5941 76.4688 24.204 76.4693C24.8144 76.4697 25.3807 76.4692 25.903 76.4679C26.4253 76.4671 27.0118 76.4647 27.6625 76.4609C28.3137 76.4574 28.9641 76.4578 29.6135 76.4621C30.2626 76.4668 30.7705 76.4712 31.1373 76.475C31.5037 76.4793 31.8748 76.4815 32.2507 76.4815C32.6265 76.4815 33.0686 76.4802 33.5767 76.4776C34.0853 76.475 34.534 76.4727 34.9232 76.4705C35.3119 76.4684 35.7081 76.466 36.1119 76.4635C36.5161 76.4609 36.9105 76.46 37.295 76.4609C37.6794 76.4617 37.9749 76.4639 38.1815 76.4673C38.3881 76.4707 38.6856 76.4753 39.0739 76.4808C39.4622 76.4864 39.9589 76.4903 40.5641 76.4924C41.1698 76.4945 41.6946 76.4965 42.1388 76.4982C42.5829 76.4999 42.9201 76.5028 43.1503 76.5066C43.3805 76.5101 43.7149 76.5137 44.1535 76.5176C44.592 76.5219 45.0228 76.5255 45.4459 76.5285C45.8686 76.5315 46.1759 76.5339 46.3679 76.5356C46.5604 76.5377 46.8526 76.5418 47.2448 76.5478C47.6374 76.5539 48.0712 76.5607 48.5463 76.5685C49.0218 76.5758 49.653 76.5817 50.4399 76.5865" fill="#FFBC00"/>
<path d="M11.0809 76.3906C11.3056 76.3949 11.6099 76.399 11.9939 76.4029C12.3783 76.4068 12.8422 76.4102 13.3855 76.4132C13.9293 76.4166 14.4774 76.4199 15.0298 76.4229C15.5822 76.4259 16.1387 76.4288 16.6992 76.4318C17.2598 76.4344 17.8467 76.4376 18.46 76.4415C19.073 76.4454 19.7122 76.4497 20.3775 76.4544C21.0429 76.4591 21.6944 76.4626 22.3323 76.4647C22.9701 76.4673 23.5941 76.4688 24.204 76.4693C24.8144 76.4697 25.3807 76.4692 25.903 76.4679C26.4253 76.4671 27.0118 76.4647 27.6625 76.4609C28.3137 76.4574 28.9641 76.4578 29.6135 76.4621C30.2626 76.4668 30.7705 76.4712 31.1373 76.475C31.5037 76.4793 31.8748 76.4815 32.2507 76.4815C32.6265 76.4815 33.0686 76.4802 33.5767 76.4776C34.0853 76.475 34.534 76.4727 34.9232 76.4705C35.3119 76.4684 35.7081 76.466 36.1119 76.4635C36.5161 76.4609 36.9105 76.46 37.295 76.4609C37.6794 76.4617 37.9749 76.4639 38.1815 76.4673C38.3881 76.4707 38.6856 76.4753 39.0739 76.4808C39.4622 76.4864 39.9589 76.4903 40.5641 76.4924C41.1698 76.4945 41.6946 76.4965 42.1388 76.4982C42.5829 76.4999 42.9201 76.5028 43.1503 76.5066C43.3805 76.5101 43.7149 76.5137 44.1535 76.5176C44.592 76.5219 45.0228 76.5255 45.4459 76.5285C45.8686 76.5315 46.1759 76.5339 46.3679 76.5356C46.5604 76.5377 46.8526 76.5418 47.2448 76.5478C47.6374 76.5539 48.0712 76.5607 48.5463 76.5685C49.0218 76.5758 49.653 76.5817 50.4399 76.5865" stroke="#FFBC00" stroke-linecap="round" stroke-linejoin="round"/>
<path d="M19.1635 20.8848C19.1523 21.0068 19.1439 21.2332 19.1383 21.5639C19.1328 21.8942 19.1265 22.2503 19.1196 22.6321C19.1132 23.014 19.109 23.3005 19.1069 23.4916C19.1047 23.6832 19.1032 23.9475 19.1023 24.2847C19.101 24.6219 19.1014 25.1071 19.1036 25.7402C19.1057 26.3738 19.1114 27.0608 19.1204 27.8013C19.1294 28.5418 19.1371 29.1117 19.1435 29.5107C19.1504 29.9097 19.1586 30.2721 19.1681 30.5976C19.1771 30.9228 19.1859 31.299 19.1945 31.7264" fill="#FFBC00"/>
<path d="M19.1635 20.8848C19.1523 21.0068 19.1439 21.2332 19.1383 21.5639C19.1328 21.8942 19.1265 22.2503 19.1196 22.6321C19.1132 23.014 19.109 23.3005 19.1069 23.4916C19.1047 23.6832 19.1032 23.9475 19.1023 24.2847C19.101 24.6219 19.1014 25.1071 19.1036 25.7402C19.1057 26.3738 19.1114 27.0608 19.1204 27.8013C19.1294 28.5418 19.1371 29.1117 19.1435 29.5107C19.1504 29.9097 19.1586 30.2721 19.1681 30.5976C19.1771 30.9228 19.1859 31.299 19.1945 31.7264" stroke="#FFBC00" stroke-linecap="round" stroke-linejoin="round"/>
<path d="M19.3898 31.9769C19.4628 31.9718 19.6608 31.9688 19.9838 31.9679C20.3072 31.9666 20.5952 31.9636 20.8478 31.9589C21.1008 31.9541 21.2758 31.9505 21.3729 31.9479C21.4704 31.9458 21.6068 31.9434 21.782 31.9408C21.9573 31.9387 22.1873 31.9351 22.4721 31.9299C22.7573 31.9252 23.0266 31.9207 23.28 31.9164C23.533 31.9117 23.7703 31.9075 23.9919 31.9041C24.2136 31.9007 24.3882 31.8981 24.5157 31.8964C24.6437 31.8943 24.7331 31.8932 24.7838 31.8932C24.8349 31.8932 24.9213 31.894 25.0428 31.8957C25.1648 31.8974 25.2993 31.8977 25.4462 31.8964C25.5935 31.8951 25.6987 31.893 25.7619 31.89C25.8246 31.8874 25.9208 31.8858 26.0505 31.8854C26.1798 31.885 26.3526 31.8848 26.5691 31.8848C26.7856 31.8852 26.9633 31.8856 27.1021 31.886C27.2404 31.8865 27.3552 31.8878 27.4467 31.89C27.5382 31.8921 27.6279 31.8934 27.716 31.8938C27.8041 31.8942 27.8673 31.8938 27.9055 31.8925C27.9433 31.8916 28.0441 31.8914 28.2077 31.8918C28.3714 31.8923 28.6122 31.8957 28.9305 31.9021C29.2492 31.9086 29.5218 31.9147 29.7482 31.9202C29.9749 31.9254 30.1388 31.9262 30.2397 31.9228" fill="#FFBC00"/>
<path d="M19.3898 31.9769C19.4628 31.9718 19.6608 31.9688 19.9838 31.9679C20.3072 31.9666 20.5952 31.9636 20.8478 31.9589C21.1008 31.9541 21.2758 31.9505 21.3729 31.9479C21.4704 31.9458 21.6068 31.9434 21.782 31.9408C21.9573 31.9387 22.1873 31.9351 22.4721 31.9299C22.7573 31.9252 23.0266 31.9207 23.28 31.9164C23.533 31.9117 23.7703 31.9075 23.9919 31.9041C24.2136 31.9007 24.3882 31.8981 24.5157 31.8964C24.6437 31.8943 24.7331 31.8932 24.7838 31.8932C24.8349 31.8932 24.9213 31.894 25.0428 31.8957C25.1648 31.8974 25.2993 31.8977 25.4462 31.8964C25.5935 31.8951 25.6987 31.893 25.7619 31.89C25.8246 31.8874 25.9208 31.8858 26.0505 31.8854C26.1798 31.885 26.3526 31.8848 26.5691 31.8848C26.7856 31.8852 26.9633 31.8856 27.1021 31.886C27.2404 31.8865 27.3552 31.8878 27.4467 31.89C27.5382 31.8921 27.6279 31.8934 27.716 31.8938C27.8041 31.8942 27.8673 31.8938 27.9055 31.8925C27.9433 31.8916 28.0441 31.8914 28.2077 31.8918C28.3714 31.8923 28.6122 31.8957 28.9305 31.9021C29.2492 31.9086 29.5218 31.9147 29.7482 31.9202C29.9749 31.9254 30.1388 31.9262 30.2397 31.9228" stroke="#FFBC00" stroke-linecap="round" stroke-linejoin="round"/>
<path d="M30.2353 31.8218C30.2344 31.6809 30.2337 31.4827 30.2333 31.2271C30.2324 30.972 30.2322 30.6597 30.2326 30.2903C30.2326 29.9214 30.2324 29.5842 30.232 29.2788C30.2311 28.9734 30.2307 28.7142 30.2307 28.5011C30.2312 28.2881 30.2316 28.0703 30.232 27.8478C30.2329 27.6257 30.2342 27.4161 30.2359 27.219C30.2372 27.0218 30.2394 26.7944 30.2424 26.5367C30.2458 26.279 30.2486 26.0285 30.2507 25.7854C30.2533 25.5423 30.2557 25.2934 30.2578 25.0386C30.2604 24.7844 30.2631 24.524 30.2661 24.2577C30.2691 23.9914 30.2727 23.7644 30.2765 23.5767C30.2804 23.389 30.2837 23.2133 30.2867 23.0497C30.2897 22.8864 30.2921 22.7389 30.2938 22.607C30.2955 22.4756 30.3 22.2404 30.3073 21.9015C30.3147 21.5626 30.3266 21.1235 30.3429 20.584" fill="#FFBC00"/>
<path d="M30.2353 31.8218C30.2344 31.6809 30.2337 31.4827 30.2333 31.2271C30.2324 30.972 30.2322 30.6597 30.2326 30.2903C30.2326 29.9214 30.2324 29.5842 30.232 29.2788C30.2311 28.9734 30.2307 28.7142 30.2307 28.5011C30.2312 28.2881 30.2316 28.0703 30.232 27.8478C30.2329 27.6257 30.2342 27.4161 30.2359 27.219C30.2372 27.0218 30.2394 26.7944 30.2424 26.5367C30.2458 26.279 30.2486 26.0285 30.2507 25.7854C30.2533 25.5423 30.2557 25.2934 30.2578 25.0386C30.2604 24.7844 30.2631 24.524 30.2661 24.2577C30.2691 23.9914 30.2727 23.7644 30.2765 23.5767C30.2804 23.389 30.2837 23.2133 30.2867 23.0497C30.2897 22.8864 30.2921 22.7389 30.2938 22.607C30.2955 22.4756 30.3 22.2404 30.3073 21.9015C30.3147 21.5626 30.3266 21.1235 30.3429 20.584" stroke="#FFBC00" stroke-linecap="round" stroke-linejoin="round"/>
<path d="M30.2868 20.4788C30.2615 20.4784 30.1288 20.4784 29.8887 20.4788C29.6481 20.4788 29.3015 20.4797 28.8488 20.4814C28.396 20.4827 27.9981 20.4844 27.6549 20.4865C27.3117 20.4883 27.0215 20.4902 26.7844 20.4924C26.5473 20.4941 26.3425 20.496 26.1698 20.4982C25.9976 20.4999 25.8298 20.5023 25.6666 20.5053C25.5029 20.5083 25.315 20.5108 25.1028 20.513C24.8906 20.5147 24.6724 20.5175 24.4482 20.5214C24.2244 20.5248 23.96 20.5295 23.655 20.5355C23.3496 20.5416 23.0794 20.5475 22.8445 20.5536C22.6095 20.5591 22.3675 20.5658 22.1184 20.5735C21.8693 20.5817 21.5974 20.5912 21.3028 20.6019C21.0077 20.6131 20.7489 20.6232 20.5264 20.6322C20.3039 20.6412 19.9607 20.6547 19.4968 20.6728" fill="#FFBC00"/>
<path d="M30.2868 20.4788C30.2615 20.4784 30.1288 20.4784 29.8887 20.4788C29.6481 20.4788 29.3015 20.4797 28.8488 20.4814C28.396 20.4827 27.9981 20.4844 27.6549 20.4865C27.3117 20.4883 27.0215 20.4902 26.7844 20.4924C26.5473 20.4941 26.3425 20.496 26.1698 20.4982C25.9976 20.4999 25.8298 20.5023 25.6666 20.5053C25.5029 20.5083 25.315 20.5108 25.1028 20.513C24.8906 20.5147 24.6724 20.5175 24.4482 20.5214C24.2244 20.5248 23.96 20.5295 23.655 20.5355C23.3496 20.5416 23.0794 20.5475 22.8445 20.5536C22.6095 20.5591 22.3675 20.5658 22.1184 20.5735C21.8693 20.5817 21.5974 20.5912 21.3028 20.6019C21.0077 20.6131 20.7489 20.6232 20.5264 20.6322C20.3039 20.6412 19.9607 20.6547 19.4968 20.6728" stroke="#FFBC00" stroke-linecap="round" stroke-linejoin="round"/>
<path d="M25.1809 32.3105C25.1761 32.3853 25.1758 32.7929 25.1801 33.5334C25.1839 34.2743 25.1861 34.975 25.1865 35.6352C25.1865 36.2949 25.1865 36.7929 25.1865 37.1293C25.1865 37.4656 25.1871 37.7252 25.1879 37.9082C25.1888 38.0912 25.1894 38.2984 25.1898 38.5299C25.1902 38.761 25.1928 39.0999 25.1975 39.5467" fill="#FFBC00"/>
<path d="M25.1809 32.3105C25.1761 32.3853 25.1758 32.7929 25.1801 33.5334C25.1839 34.2743 25.1861 34.975 25.1865 35.6352C25.1865 36.2949 25.1865 36.7929 25.1865 37.1293C25.1865 37.4656 25.1871 37.7252 25.1879 37.9082C25.1888 38.0912 25.1894 38.2984 25.1898 38.5299C25.1902 38.761 25.1928 39.0999 25.1975 39.5467" stroke="#FFBC00" stroke-linecap="round" stroke-linejoin="round"/>
<path d="M25.1757 39.6465C25.2358 39.6534 25.3579 39.6599 25.5422 39.6664C25.726 39.6728 25.999 39.6806 26.3611 39.6896C26.7232 39.6986 27.032 39.7042 27.2876 39.7063C27.5431 39.7085 27.7945 39.7085 28.0415 39.7063C28.2881 39.7042 28.5428 39.7031 28.8057 39.7031C29.0685 39.7027 29.3221 39.7038 29.5665 39.7063C29.8109 39.7093 29.9981 39.7122 30.1278 39.7148C30.2575 39.7173 30.4766 39.7184 30.785 39.718C31.0938 39.7175 31.3572 39.7163 31.5754 39.7141C31.794 39.7124 32.0131 39.7121 32.2326 39.7134C32.4525 39.7151 32.6849 39.7145 32.9298 39.7115C33.1746 39.7081 33.3711 39.7049 33.5193 39.7019C33.6671 39.6984 33.8333 39.6969 34.018 39.6974C34.2027 39.6978 34.3494 39.6986 34.4581 39.6999C34.5668 39.7016 34.7944 39.6989 35.1411 39.6916C35.4877 39.6838 35.7338 39.6806 35.8794 39.6819C36.0246 39.6832 36.1624 39.6834 36.293 39.6825C36.4236 39.6821 36.5492 39.681 36.6699 39.6793C36.791 39.678 36.8727 39.678 36.9148 39.6793C36.9573 39.6806 37.0237 39.6818 37.1139 39.6831C37.2037 39.6844 37.3607 39.6858 37.5849 39.6871C37.8087 39.6879 37.9654 39.6881 38.0552 39.6877C38.1446 39.6877 38.2261 39.6881 38.3 39.689C38.3739 39.6898 38.4836 39.69 38.6292 39.6896C38.7752 39.6892 39.1466 39.689 39.7432 39.689" fill="#FFBC00"/>
<path d="M25.1757 39.6465C25.2358 39.6534 25.3579 39.6599 25.5422 39.6664C25.726 39.6728 25.999 39.6806 26.3611 39.6896C26.7232 39.6986 27.032 39.7042 27.2876 39.7063C27.5431 39.7085 27.7945 39.7085 28.0415 39.7063C28.2881 39.7042 28.5428 39.7031 28.8057 39.7031C29.0685 39.7027 29.3221 39.7038 29.5665 39.7063C29.8109 39.7093 29.9981 39.7122 30.1278 39.7148C30.2575 39.7173 30.4766 39.7184 30.785 39.718C31.0938 39.7175 31.3572 39.7163 31.5754 39.7141C31.794 39.7124 32.0131 39.7121 32.2326 39.7134C32.4525 39.7151 32.6849 39.7145 32.9298 39.7115C33.1746 39.7081 33.3711 39.7049 33.5193 39.7019C33.6671 39.6984 33.8333 39.6969 34.018 39.6974C34.2027 39.6978 34.3494 39.6986 34.4581 39.6999C34.5668 39.7016 34.7944 39.6989 35.1411 39.6916C35.4877 39.6838 35.7338 39.6806 35.8794 39.6819C36.0246 39.6832 36.1624 39.6834 36.293 39.6825C36.4236 39.6821 36.5492 39.681 36.6699 39.6793C36.791 39.678 36.8727 39.678 36.9148 39.6793C36.9573 39.6806 37.0237 39.6818 37.1139 39.6831C37.2037 39.6844 37.3607 39.6858 37.5849 39.6871C37.8087 39.6879 37.9654 39.6881 38.0552 39.6877C38.1446 39.6877 38.2261 39.6881 38.3 39.689C38.3739 39.6898 38.4836 39.69 38.6292 39.6896C38.7752 39.6892 39.1466 39.689 39.7432 39.689" stroke="#FFBC00" stroke-linecap="round" stroke-linejoin="round"/>
<path d="M39.8528 39.6839C39.8404 39.5662 39.829 39.3871 39.8187 39.1466C39.8084 38.906 39.8021 38.6707 39.8 38.4405C39.7974 38.2098 39.798 37.9419 39.8019 37.637C39.8061 37.3316 39.8109 37.0606 39.816 36.8239C39.8212 36.5876 39.8259 36.3488 39.8302 36.1074C39.8345 35.866 39.8386 35.569 39.8424 35.2164C39.8467 34.8637 39.8495 34.5813 39.8508 34.3691C39.8516 34.1569 39.853 33.9518 39.8547 33.7538C39.8564 33.5558 39.8582 33.3539 39.8599 33.1482C39.8616 32.9424 39.8636 32.6995 39.8657 32.4194C39.8679 32.1394 39.87 31.8963 39.8722 31.6901C39.8743 31.4839 39.8769 31.2821 39.8799 31.0845C39.8833 30.8865 39.8865 30.731 39.8895 30.618C39.8925 30.5046 39.8989 30.2407 39.9088 29.8262" fill="#FFBC00"/>
<path d="M39.8528 39.6839C39.8404 39.5662 39.829 39.3871 39.8187 39.1466C39.8084 38.906 39.8021 38.6707 39.8 38.4405C39.7974 38.2098 39.798 37.9419 39.8019 37.637C39.8061 37.3316 39.8109 37.0606 39.816 36.8239C39.8212 36.5876 39.8259 36.3488 39.8302 36.1074C39.8345 35.866 39.8386 35.569 39.8424 35.2164C39.8467 34.8637 39.8495 34.5813 39.8508 34.3691C39.8516 34.1569 39.853 33.9518 39.8547 33.7538C39.8564 33.5558 39.8582 33.3539 39.8599 33.1482C39.8616 32.9424 39.8636 32.6995 39.8657 32.4194C39.8679 32.1394 39.87 31.8963 39.8722 31.6901C39.8743 31.4839 39.8769 31.2821 39.8799 31.0845C39.8833 30.8865 39.8865 30.731 39.8895 30.618C39.8925 30.5046 39.8989 30.2407 39.9088 29.8262" stroke="#FFBC00" stroke-linecap="round" stroke-linejoin="round"/>
<path d="M39.7766 29.6746C39.5094 29.6648 39.0718 29.6551 38.4636 29.6456C37.8554 29.6362 37.3522 29.6323 36.954 29.6341C36.5554 29.6358 36.1825 29.64 35.8355 29.6469C35.4884 29.6533 35.1317 29.657 34.7653 29.6579C34.3985 29.6587 34.084 29.6577 33.822 29.6547C33.56 29.6521 33.2053 29.6489 32.7577 29.645C32.3101 29.6411 31.9673 29.6379 31.7293 29.6353C31.4918 29.6332 31.2934 29.6312 31.1341 29.6295C30.9743 29.6278 30.7768 29.6256 30.5418 29.623" fill="#FFBC00"/>
<path d="M39.7766 29.6746C39.5094 29.6648 39.0718 29.6551 38.4636 29.6456C37.8554 29.6362 37.3522 29.6323 36.954 29.6341C36.5554 29.6358 36.1825 29.64 35.8355 29.6469C35.4884 29.6533 35.1317 29.657 34.7653 29.6579C34.3985 29.6587 34.084 29.6577 33.822 29.6547C33.56 29.6521 33.2053 29.6489 32.7577 29.645C32.3101 29.6411 31.9673 29.6379 31.7293 29.6353C31.4918 29.6332 31.2934 29.6312 31.1341 29.6295C30.9743 29.6278 30.7768 29.6256 30.5418 29.623" stroke="#FFBC00" stroke-linecap="round" stroke-linejoin="round"/>
<path d="M31.5128 40.3848C31.5115 40.5317 31.5154 41.0598 31.5244 41.9691C31.5334 42.8784 31.5407 43.6286 31.5463 44.2197C31.5519 44.8107 31.5646 46.4187 31.5844 49.0436L31.5921 49.8128" fill="#FFBC00"/>
<path d="M31.5128 40.3848C31.5115 40.5317 31.5154 41.0598 31.5244 41.9691C31.5334 42.8784 31.5407 43.6286 31.5463 44.2197C31.5519 44.8107 31.5646 46.4187 31.5844 49.0436L31.5921 49.8128" stroke="#FFBC00" stroke-linecap="round" stroke-linejoin="round"/>
<path d="M31.6192 50.0762L31.9426 50.0723C33.0216 50.0839 33.7531 50.0921 34.1371 50.0968C34.5202 50.102 34.8355 50.1086 35.0829 50.1168C35.3308 50.1249 35.5548 50.13 35.7549 50.1322C35.9551 50.1339 36.1665 50.1333 36.389 50.1303C36.6115 50.1273 36.7949 50.1271 36.9392 50.1297C37.0836 50.1323 37.2272 50.1363 37.3702 50.1419C37.5133 50.1475 37.6842 50.1518 37.883 50.1548C38.0819 50.1573 38.2804 50.1615 38.4784 50.167C38.6764 50.1722 38.8742 50.1786 39.0718 50.1863C39.2698 50.1945 39.5376 50.2025 39.8752 50.2102C40.2133 50.2179 40.4437 50.2241 40.5666 50.2289C40.6894 50.2332 40.8595 50.2364 41.0769 50.2385C41.2942 50.2407 41.4637 50.2432 41.5852 50.2462C41.7064 50.2492 41.8097 50.2534 41.8951 50.2585C41.981 50.2641 42.1657 50.2708 42.4492 50.2785C42.7331 50.2862 42.9511 50.2929 43.1032 50.2985C43.2557 50.3036 43.4303 50.3101 43.627 50.3178C43.8242 50.3255 44.038 50.3324 44.2687 50.3384" fill="#FFBC00"/>
<path d="M31.6192 50.0762L31.9426 50.0723C33.0216 50.0839 33.7531 50.0921 34.1371 50.0968C34.5202 50.102 34.8355 50.1086 35.0829 50.1168C35.3308 50.1249 35.5548 50.13 35.7549 50.1322C35.9551 50.1339 36.1665 50.1333 36.389 50.1303C36.6115 50.1273 36.7949 50.1271 36.9392 50.1297C37.0836 50.1323 37.2272 50.1363 37.3702 50.1419C37.5133 50.1475 37.6842 50.1518 37.883 50.1548C38.0819 50.1573 38.2804 50.1615 38.4784 50.167C38.6764 50.1722 38.8742 50.1786 39.0718 50.1863C39.2698 50.1945 39.5376 50.2025 39.8752 50.2102C40.2133 50.2179 40.4437 50.2241 40.5666 50.2289C40.6894 50.2332 40.8595 50.2364 41.0769 50.2385C41.2942 50.2407 41.4637 50.2432 41.5852 50.2462C41.7064 50.2492 41.8097 50.2534 41.8951 50.2585C41.981 50.2641 42.1657 50.2708 42.4492 50.2785C42.7331 50.2862 42.9511 50.2929 43.1032 50.2985C43.2557 50.3036 43.4303 50.3101 43.627 50.3178C43.8242 50.3255 44.038 50.3324 44.2687 50.3384" stroke="#FFBC00" stroke-linecap="round" stroke-linejoin="round"/>
<path d="M44.3789 50.0873C44.3815 49.9057 44.3878 49.2549 44.3976 48.1351C44.4071 47.0149 44.4139 46.0916 44.4182 45.3653C44.4221 44.6385 44.4247 44.0412 44.426 43.5735C44.4268 43.1053 44.4264 42.7543 44.4247 42.5207C44.4225 42.2874 44.4208 42.022 44.4195 41.7243C44.4182 41.4267 44.4167 41.1118 44.415 40.7798C44.4137 40.4473 44.4083 39.7869 44.3989 38.7986C44.3899 37.8102 44.3828 37.084 44.3777 36.6201C44.3721 36.1567 44.362 35.2143 44.3474 33.793" fill="#FFBC00"/>
<path d="M44.3789 50.0873C44.3815 49.9057 44.3878 49.2549 44.3976 48.1351C44.4071 47.0149 44.4139 46.0916 44.4182 45.3653C44.4221 44.6385 44.4247 44.0412 44.426 43.5735C44.4268 43.1053 44.4264 42.7543 44.4247 42.5207C44.4225 42.2874 44.4208 42.022 44.4195 41.7243C44.4182 41.4267 44.4167 41.1118 44.415 40.7798C44.4137 40.4473 44.4083 39.7869 44.3989 38.7986C44.3899 37.8102 44.3828 37.084 44.3777 36.6201C44.3721 36.1567 44.362 35.2143 44.3474 33.793" stroke="#FFBC00" stroke-linecap="round" stroke-linejoin="round"/>
<path d="M44.3017 33.5226L43.9363 33.5071L43.725 33.5059C43.4093 33.508 43.0816 33.5097 42.7418 33.511C42.4016 33.5123 42.0581 33.5137 41.711 33.5155C41.3635 33.5167 41.0831 33.5174 40.8701 33.5174C40.6571 33.517 40.5007 33.5155 40.401 33.5129" fill="#FFBC00"/>
<path d="M44.3017 33.5226L43.9363 33.5071L43.725 33.5059C43.4093 33.508 43.0816 33.5097 42.7418 33.511C42.4016 33.5123 42.0581 33.5137 41.711 33.5155C41.3635 33.5167 41.0831 33.5174 40.8701 33.5174C40.6571 33.517 40.5007 33.5155 40.401 33.5129" stroke="#FFBC00" stroke-linecap="round" stroke-linejoin="round"/>
<path d="M24.9372 35.8393C24.5425 35.8312 24.1643 35.8249 23.8026 35.8206C23.4409 35.8167 23.0952 35.8149 22.7654 35.8149C22.4355 35.8149 22.1437 35.8149 21.8903 35.8149C21.6369 35.8149 21.3772 35.8149 21.1113 35.8149C20.8455 35.8153 20.5713 35.814 20.2887 35.811C20.0065 35.808 19.7249 35.8 19.444 35.7871" fill="#FFBC00"/>
<path d="M24.9372 35.8393C24.5425 35.8312 24.1643 35.8249 23.8026 35.8206C23.4409 35.8167 23.0952 35.8149 22.7654 35.8149C22.4355 35.8149 22.1437 35.8149 21.8903 35.8149C21.6369 35.8149 21.3772 35.8149 21.1113 35.8149C20.8455 35.8153 20.5713 35.814 20.2887 35.811C20.0065 35.808 19.7249 35.8 19.444 35.7871" stroke="#FFBC00" stroke-linecap="round" stroke-linejoin="round"/>
<path d="M19.333 35.8496C19.3236 36.0025 19.3183 36.118 19.317 36.1962C19.3161 36.274 19.3155 36.4042 19.3151 36.5867C19.3151 36.7688 19.3153 36.9413 19.3157 37.1041C19.3157 37.2664 19.3157 37.4294 19.3157 37.593C19.3153 37.7563 19.3147 37.9472 19.3143 38.1658C19.3139 38.3841 19.3133 38.6388 19.3124 38.93C19.3115 39.2217 19.3107 39.5496 19.3099 39.9138C19.3086 40.2785 19.3076 40.6161 19.3072 40.9267C19.3068 41.2373 19.3064 41.5023 19.306 41.7218C19.306 41.9413 19.306 42.1667 19.306 42.3982C19.3055 42.6302 19.3053 42.8684 19.3053 43.1128C19.3058 43.3567 19.306 43.6072 19.306 43.864C19.306 44.1209 19.3062 44.3838 19.3066 44.6527C19.307 44.9215 19.3076 45.1969 19.308 45.4786C19.3084 45.76 19.3088 46.0311 19.3093 46.2918C19.3097 46.553 19.3101 46.8036 19.3105 47.0437C19.3109 47.2838 19.3111 47.5138 19.3111 47.7337C19.3116 47.9532 19.3122 48.2124 19.313 48.5114C19.3135 48.8099 19.3142 49.1173 19.3151 49.4334C19.3159 49.7495 19.3165 50.0242 19.317 50.2574C19.3178 50.4911 19.3188 50.7222 19.3201 50.9507C19.3218 51.1797 19.3238 51.4063 19.3259 51.6305C19.3285 51.8547 19.3313 52.0765 19.3343 52.296C19.3373 52.5159 19.3418 52.7876 19.3478 53.1111C19.3538 53.4345 19.3614 53.7785 19.3705 54.1432C19.3799 54.5079 19.3899 54.8386 19.4007 55.1354C19.4118 55.4318 19.4224 55.7033 19.4323 55.9499C19.4426 56.1964 19.4553 56.4661 19.4703 56.7591C19.4849 57.052 19.5098 57.4824 19.5451 58.0503L19.5734 58.3724" fill="#FFBC00"/>
<path d="M19.333 35.8496C19.3236 36.0025 19.3183 36.118 19.317 36.1962C19.3161 36.274 19.3155 36.4042 19.3151 36.5867C19.3151 36.7688 19.3153 36.9413 19.3157 37.1041C19.3157 37.2664 19.3157 37.4294 19.3157 37.593C19.3153 37.7563 19.3147 37.9472 19.3143 38.1658C19.3139 38.3841 19.3133 38.6388 19.3124 38.93C19.3115 39.2217 19.3107 39.5496 19.3099 39.9138C19.3086 40.2785 19.3076 40.6161 19.3072 40.9267C19.3068 41.2373 19.3064 41.5023 19.306 41.7218C19.306 41.9413 19.306 42.1667 19.306 42.3982C19.3055 42.6302 19.3053 42.8684 19.3053 43.1128C19.3058 43.3567 19.306 43.6072 19.306 43.864C19.306 44.1209 19.3062 44.3838 19.3066 44.6527C19.307 44.9215 19.3076 45.1969 19.308 45.4786C19.3084 45.76 19.3088 46.0311 19.3093 46.2918C19.3097 46.553 19.3101 46.8036 19.3105 47.0437C19.3109 47.2838 19.3111 47.5138 19.3111 47.7337C19.3116 47.9532 19.3122 48.2124 19.313 48.5114C19.3135 48.8099 19.3142 49.1173 19.3151 49.4334C19.3159 49.7495 19.3165 50.0242 19.317 50.2574C19.3178 50.4911 19.3188 50.7222 19.3201 50.9507C19.3218 51.1797 19.3238 51.4063 19.3259 51.6305C19.3285 51.8547 19.3313 52.0765 19.3343 52.296C19.3373 52.5159 19.3418 52.7876 19.3478 53.1111C19.3538 53.4345 19.3614 53.7785 19.3705 54.1432C19.3799 54.5079 19.3899 54.8386 19.4007 55.1354C19.4118 55.4318 19.4224 55.7033 19.4323 55.9499C19.4426 56.1964 19.4553 56.4661 19.4703 56.7591C19.4849 57.052 19.5098 57.4824 19.5451 58.0503L19.5734 58.3724" stroke="#FFBC00" stroke-linecap="round" stroke-linejoin="round"/>
<path d="M19.6198 58.4681L19.7126 58.4623C20.21 58.4576 20.5602 58.4548 20.7633 58.454C20.9661 58.4527 21.251 58.4529 21.6178 58.4546C21.985 58.4559 22.2858 58.457 22.5204 58.4578C22.7545 58.4591 22.9884 58.4593 23.2221 58.4584C23.4557 58.458 23.6694 58.4578 23.8631 58.4578C24.0564 58.4578 24.2688 58.4583 24.5003 58.4592C24.7318 58.4596 24.9493 58.4604 25.1529 58.4617C25.3565 58.4625 25.5905 58.4636 25.8546 58.4649C26.1188 58.4662 26.4359 58.4694 26.8057 58.4746C27.1751 58.4797 27.4837 58.4847 27.7315 58.4894C27.979 58.4937 28.2374 58.4969 28.5072 58.499C28.7769 58.5012 29.0993 58.5042 29.4743 58.5081C29.8493 58.5115 30.1687 58.5151 30.4324 58.519C30.6961 58.5229 30.942 58.5266 31.1701 58.53C31.3978 58.533 31.6265 58.5349 31.8563 58.5358C32.0865 58.537 32.3318 58.5388 32.5921 58.5409C32.8524 58.5427 33.0154 58.5433 33.0812 58.5428C33.1469 58.5424 33.259 58.5431 33.4175 58.5448C33.5764 58.5461 33.8147 58.5452 34.1326 58.5422" fill="#FFBC00"/>
<path d="M19.6198 58.4681L19.7126 58.4623C20.21 58.4576 20.5602 58.4548 20.7633 58.454C20.9661 58.4527 21.251 58.4529 21.6178 58.4546C21.985 58.4559 22.2858 58.457 22.5204 58.4578C22.7545 58.4591 22.9884 58.4593 23.2221 58.4584C23.4557 58.458 23.6694 58.4578 23.8631 58.4578C24.0564 58.4578 24.2688 58.4583 24.5003 58.4592C24.7318 58.4596 24.9493 58.4604 25.1529 58.4617C25.3565 58.4625 25.5905 58.4636 25.8546 58.4649C26.1188 58.4662 26.4359 58.4694 26.8057 58.4746C27.1751 58.4797 27.4837 58.4847 27.7315 58.4894C27.979 58.4937 28.2374 58.4969 28.5072 58.499C28.7769 58.5012 29.0993 58.5042 29.4743 58.5081C29.8493 58.5115 30.1687 58.5151 30.4324 58.519C30.6961 58.5229 30.942 58.5266 31.1701 58.53C31.3978 58.533 31.6265 58.5349 31.8563 58.5358C32.0865 58.537 32.3318 58.5388 32.5921 58.5409C32.8524 58.5427 33.0154 58.5433 33.0812 58.5428C33.1469 58.5424 33.259 58.5431 33.4175 58.5448C33.5764 58.5461 33.8147 58.5452 34.1326 58.5422" stroke="#FFBC00" stroke-linecap="round" stroke-linejoin="round"/>
<path d="M34.1995 58.2936C34.2013 58.0556 34.2011 57.8647 34.1989 57.7208C34.1972 57.5769 34.1954 57.4667 34.1937 57.3903C34.1924 57.3138 34.1904 57.1867 34.1874 57.0088C34.1849 56.831 34.1811 56.5899 34.1764 56.2853C34.1717 55.9808 34.1674 55.7035 34.1635 55.4535C34.1601 55.2031 34.1562 54.9307 34.1519 54.6365C34.148 54.3423 34.1445 54.0783 34.141 53.8447C34.138 53.6106 34.1351 53.3447 34.1325 53.0471C34.1295 52.7494 34.1266 52.4493 34.1236 52.1469C34.1206 51.8445 34.1196 51.4876 34.1204 51.0761L34.1113 50.5117" fill="#FFBC00"/>
<path d="M34.1995 58.2936C34.2013 58.0556 34.2011 57.8647 34.1989 57.7208C34.1972 57.5769 34.1954 57.4667 34.1937 57.3903C34.1924 57.3138 34.1904 57.1867 34.1874 57.0088C34.1849 56.831 34.1811 56.5899 34.1764 56.2853C34.1717 55.9808 34.1674 55.7035 34.1635 55.4535C34.1601 55.2031 34.1562 54.9307 34.1519 54.6365C34.148 54.3423 34.1445 54.0783 34.141 53.8447C34.138 53.6106 34.1351 53.3447 34.1325 53.0471C34.1295 52.7494 34.1266 52.4493 34.1236 52.1469C34.1206 51.8445 34.1196 51.4876 34.1204 51.0761L34.1113 50.5117" stroke="#FFBC00" stroke-linecap="round" stroke-linejoin="round"/>
<path d="M27.9674 20.1001C27.9657 20.0657 27.9631 19.8392 27.9597 19.4204C27.9563 19.0016 27.9531 18.4554 27.9506 17.7819C27.948 17.1079 27.9472 16.605 27.9481 16.273C27.9489 15.9405 27.9507 15.68 27.9532 15.4914C27.9558 15.3029 27.958 15.139 27.9597 14.9998C27.9614 14.8602 27.9626 14.7451 27.9635 14.6544C27.9639 14.5638 27.9696 14.2995 27.9803 13.8613" fill="#FFBC00"/>
<path d="M27.9674 20.1001C27.9657 20.0657 27.9631 19.8392 27.9597 19.4204C27.9563 19.0016 27.9531 18.4554 27.9506 17.7819C27.948 17.1079 27.9472 16.605 27.9481 16.273C27.9489 15.9405 27.9507 15.68 27.9532 15.4914C27.9558 15.3029 27.958 15.139 27.9597 14.9998C27.9614 14.8602 27.9626 14.7451 27.9635 14.6544C27.9639 14.5638 27.9696 14.2995 27.9803 13.8613" stroke="#FFBC00" stroke-linecap="round" stroke-linejoin="round"/>
<path d="M28.1208 13.7795C28.8183 13.7679 29.4027 13.7582 29.8739 13.7505C30.3451 13.7427 30.7033 13.7372 30.9485 13.7337C31.1938 13.7303 31.4656 13.7269 31.7641 13.7234C32.0622 13.72 32.3865 13.7168 32.737 13.7138C33.088 13.7108 33.3881 13.7084 33.6373 13.7067C33.8864 13.705 34.0851 13.7039 34.2337 13.7034C34.3824 13.703 34.5554 13.703 34.7525 13.7034C34.9501 13.7034 35.1711 13.7039 35.4155 13.7048C35.6604 13.7056 35.894 13.7067 36.1165 13.708C36.3385 13.7097 36.5496 13.7117 36.7498 13.7138C36.9499 13.7164 37.1809 13.72 37.4425 13.7248C37.7041 13.7299 37.9394 13.7348 38.1486 13.7395C38.3574 13.7443 38.5826 13.7499 38.8244 13.7563C39.0662 13.7627 39.3197 13.7701 39.5848 13.7782C39.8494 13.7864 40.1249 13.7956 40.4114 13.8059C40.6979 13.8162 40.9953 13.8276 41.3037 13.8401C41.6117 13.8525 41.9319 13.8658 42.2644 13.88" fill="#FFBC00"/>
<path d="M28.1208 13.7795C28.8183 13.7679 29.4027 13.7582 29.8739 13.7505C30.3451 13.7427 30.7033 13.7372 30.9485 13.7337C31.1938 13.7303 31.4656 13.7269 31.7641 13.7234C32.0622 13.72 32.3865 13.7168 32.737 13.7138C33.088 13.7108 33.3881 13.7084 33.6373 13.7067C33.8864 13.705 34.0851 13.7039 34.2337 13.7034C34.3824 13.703 34.5554 13.703 34.7525 13.7034C34.9501 13.7034 35.1711 13.7039 35.4155 13.7048C35.6604 13.7056 35.894 13.7067 36.1165 13.708C36.3385 13.7097 36.5496 13.7117 36.7498 13.7138C36.9499 13.7164 37.1809 13.72 37.4425 13.7248C37.7041 13.7299 37.9394 13.7348 38.1486 13.7395C38.3574 13.7443 38.5826 13.7499 38.8244 13.7563C39.0662 13.7627 39.3197 13.7701 39.5848 13.7782C39.8494 13.7864 40.1249 13.7956 40.4114 13.8059C40.6979 13.8162 40.9953 13.8276 41.3037 13.8401C41.6117 13.8525 41.9319 13.8658 42.2644 13.88" stroke="#FFBC00" stroke-linecap="round" stroke-linejoin="round"/>
<path d="M42.3597 13.9551C42.3588 14.0152 42.3593 14.5227 42.361 15.4776C42.3631 16.4329 42.3668 17.1512 42.3719 17.6327C42.3767 18.1143 42.3833 18.6353 42.3919 19.1958C42.4001 19.7564 42.4055 20.7525 42.408 22.1841C42.4106 23.6162 42.4091 24.7007 42.4035 25.4378C42.3979 26.1749 42.3932 26.7792 42.3893 27.2508C42.3854 27.7225 42.3831 27.9854 42.3822 28.0395C42.3814 28.094 42.3786 28.3455 42.3739 28.794C42.3692 29.2424 42.3655 29.6202 42.3629 29.9273C42.3607 30.2349 42.3569 30.7662 42.3513 31.5213C42.3457 32.276 42.3421 32.7509 42.3404 32.9459" fill="#FFBC00"/>
<path d="M42.3597 13.9551C42.3588 14.0152 42.3593 14.5227 42.361 15.4776C42.3631 16.4329 42.3668 17.1512 42.3719 17.6327C42.3767 18.1143 42.3833 18.6353 42.3919 19.1958C42.4001 19.7564 42.4055 20.7525 42.408 22.1841C42.4106 23.6162 42.4091 24.7007 42.4035 25.4378C42.3979 26.1749 42.3932 26.7792 42.3893 27.2508C42.3854 27.7225 42.3831 27.9854 42.3822 28.0395C42.3814 28.094 42.3786 28.3455 42.3739 28.794C42.3692 29.2424 42.3655 29.6202 42.3629 29.9273C42.3607 30.2349 42.3569 30.7662 42.3513 31.5213C42.3457 32.276 42.3421 32.7509 42.3404 32.9459" stroke="#FFBC00" stroke-linecap="round" stroke-linejoin="round"/>
<path d="M14.9416 65.377L14.9241 65.5271C14.9207 65.8067 14.9118 66.3084 14.8977 67.0321" fill="#FFBC00"/>
<path d="M14.9416 65.377L14.9241 65.5271C14.9207 65.8067 14.9118 66.3084 14.8977 67.0321" stroke="#FFBC00" stroke-linecap="round" stroke-linejoin="round"/>
<path d="M14.9467 65.1509C15.0099 65.1449 15.1394 65.1378 15.3353 65.1296C15.5316 65.1215 15.7258 65.1142 15.9182 65.1078C16.1102 65.1013 16.3334 65.0945 16.5877 65.0872C16.842 65.0799 17.0524 65.0738 17.2191 65.0691C17.3853 65.0643 17.5074 65.0609 17.5851 65.0588C17.6629 65.0566 17.7648 65.0541 17.8911 65.0511C18.0174 65.0485 18.1686 65.0454 18.3447 65.042C18.5208 65.039 18.6664 65.0364 18.7816 65.0343C18.8971 65.0322 18.9945 65.03 19.0735 65.0279C19.1525 65.0266 19.2092 65.0253 19.2435 65.024C19.2779 65.0231 19.4119 65.0203 19.6456 65.0156C19.8788 65.0109 20.1169 65.0065 20.3601 65.0027C20.6028 64.9992 20.8048 64.9972 20.9658 64.9963C21.1265 64.9959 21.2482 64.9961 21.3311 64.9969C21.414 64.9974 21.5819 64.9978 21.8349 64.9982C22.0883 64.9986 22.3536 65.0006 22.6307 65.004C22.9073 65.0075 23.1209 65.0109 23.2717 65.0143C23.422 65.0173 23.6141 65.0214 23.8477 65.0266" fill="#FFBC00"/>
<path d="M14.9467 65.1509C15.0099 65.1449 15.1394 65.1378 15.3353 65.1296C15.5316 65.1215 15.7258 65.1142 15.9182 65.1078C16.1102 65.1013 16.3334 65.0945 16.5877 65.0872C16.842 65.0799 17.0524 65.0738 17.2191 65.0691C17.3853 65.0643 17.5074 65.0609 17.5851 65.0588C17.6629 65.0566 17.7648 65.0541 17.8911 65.0511C18.0174 65.0485 18.1686 65.0454 18.3447 65.042C18.5208 65.039 18.6664 65.0364 18.7816 65.0343C18.8971 65.0322 18.9945 65.03 19.0735 65.0279C19.1525 65.0266 19.2092 65.0253 19.2435 65.024C19.2779 65.0231 19.4119 65.0203 19.6456 65.0156C19.8788 65.0109 20.1169 65.0065 20.3601 65.0027C20.6028 64.9992 20.8048 64.9972 20.9658 64.9963C21.1265 64.9959 21.2482 64.9961 21.3311 64.9969C21.414 64.9974 21.5819 64.9978 21.8349 64.9982C22.0883 64.9986 22.3536 65.0006 22.6307 65.004C22.9073 65.0075 23.1209 65.0109 23.2717 65.0143C23.422 65.0173 23.6141 65.0214 23.8477 65.0266" stroke="#FFBC00" stroke-linecap="round" stroke-linejoin="round"/>
<path d="M14.9732 67.1897C14.9848 67.1906 15.0302 67.1911 15.1097 67.1911C15.1892 67.1911 15.3024 67.1908 15.4493 67.1904C15.5962 67.1904 15.7491 67.1906 15.908 67.1911C16.0669 67.1915 16.2317 67.1925 16.4022 67.1942C16.5732 67.1955 16.7237 67.1966 16.8539 67.1974C16.9844 67.1987 17.1169 67.2001 17.2513 67.2014C17.3862 67.2022 17.5303 67.2028 17.6836 67.2033C17.8374 67.2037 17.944 67.2039 18.0032 67.2039C18.0629 67.2039 18.1545 67.2044 18.2777 67.2052C18.4014 67.2065 18.5458 67.2084 18.7108 67.211C18.8761 67.214 19.0227 67.2157 19.1507 67.2162C19.2787 67.2166 19.3989 67.2166 19.511 67.2162C19.6235 67.2153 19.7427 67.2144 19.8685 67.2136C19.9944 67.2127 20.146 67.2116 20.3234 67.2103C20.5008 67.2095 20.6519 67.2087 20.7769 67.2078C20.9023 67.2065 21.0195 67.205 21.1282 67.2033C21.2373 67.2016 21.3327 67.2001 21.4148 67.1988C21.4968 67.1975 21.5991 67.1964 21.7215 67.1956C21.8435 67.1943 21.9938 67.1919 22.1725 67.1885C22.3512 67.185 22.5585 67.1811 22.7943 67.1768C23.0297 67.1721 23.2907 67.1659 23.5772 67.1582" fill="#FFBC00"/>
<path d="M14.9732 67.1897C14.9848 67.1906 15.0302 67.1911 15.1097 67.1911C15.1892 67.1911 15.3024 67.1908 15.4493 67.1904C15.5962 67.1904 15.7491 67.1906 15.908 67.1911C16.0669 67.1915 16.2317 67.1925 16.4022 67.1942C16.5732 67.1955 16.7237 67.1966 16.8539 67.1974C16.9844 67.1987 17.1169 67.2001 17.2513 67.2014C17.3862 67.2022 17.5303 67.2028 17.6836 67.2033C17.8374 67.2037 17.944 67.2039 18.0032 67.2039C18.0629 67.2039 18.1545 67.2044 18.2777 67.2052C18.4014 67.2065 18.5458 67.2084 18.7108 67.211C18.8761 67.214 19.0227 67.2157 19.1507 67.2162C19.2787 67.2166 19.3989 67.2166 19.511 67.2162C19.6235 67.2153 19.7427 67.2144 19.8685 67.2136C19.9944 67.2127 20.146 67.2116 20.3234 67.2103C20.5008 67.2095 20.6519 67.2087 20.7769 67.2078C20.9023 67.2065 21.0195 67.205 21.1282 67.2033C21.2373 67.2016 21.3327 67.2001 21.4148 67.1988C21.4968 67.1975 21.5991 67.1964 21.7215 67.1956C21.8435 67.1943 21.9938 67.1919 22.1725 67.1885C22.3512 67.185 22.5585 67.1811 22.7943 67.1768C23.0297 67.1721 23.2907 67.1659 23.5772 67.1582" stroke="#FFBC00" stroke-linecap="round" stroke-linejoin="round"/>
<path d="M23.8084 67.1602C23.8067 67.0871 23.8065 67.0328 23.8077 66.9972C23.8086 66.962 23.8114 66.8936 23.8161 66.7922C23.8204 66.6909 23.8245 66.5945 23.8284 66.503C23.8322 66.4119 23.8352 66.3526 23.8373 66.3251C23.8395 66.2981 23.8418 66.2348 23.8444 66.1351C23.847 66.0355 23.8477 65.9732 23.8464 65.9482C23.8456 65.9238 23.8475 65.8578 23.8523 65.7504C23.8574 65.6435 23.8614 65.5464 23.8644 65.4592C23.867 65.3716 23.8687 65.3256 23.8696 65.3213C23.8704 65.3166 23.8696 65.2466 23.8671 65.1113" fill="#FFBC00"/>
<path d="M23.8084 67.1602C23.8067 67.0871 23.8065 67.0328 23.8077 66.9972C23.8086 66.962 23.8114 66.8936 23.8161 66.7922C23.8204 66.6909 23.8245 66.5945 23.8284 66.503C23.8322 66.4119 23.8352 66.3526 23.8373 66.3251C23.8395 66.2981 23.8418 66.2348 23.8444 66.1351C23.847 66.0355 23.8477 65.9732 23.8464 65.9482C23.8456 65.9238 23.8475 65.8578 23.8523 65.7504C23.8574 65.6435 23.8614 65.5464 23.8644 65.4592C23.867 65.3716 23.8687 65.3256 23.8696 65.3213C23.8704 65.3166 23.8696 65.2466 23.8671 65.1113" stroke="#FFBC00" stroke-linecap="round" stroke-linejoin="round"/>
<path d="M26.1935 64.8984C26.1983 64.9839 26.2037 65.0891 26.2097 65.2141C26.2158 65.3387 26.2191 65.4133 26.22 65.4377C26.2213 65.4622 26.2234 65.6125 26.2264 65.8887C26.2294 66.1645 26.2308 66.3593 26.2304 66.4731C26.2299 66.5869 26.2303 66.7008 26.2316 66.8146C26.2329 66.9284 26.2345 67.0448 26.2362 67.1638" fill="#FFBC00"/>
<path d="M26.1935 64.8984C26.1983 64.9839 26.2037 65.0891 26.2097 65.2141C26.2158 65.3387 26.2191 65.4133 26.22 65.4377C26.2213 65.4622 26.2234 65.6125 26.2264 65.8887C26.2294 66.1645 26.2308 66.3593 26.2304 66.4731C26.2299 66.5869 26.2303 66.7008 26.2316 66.8146C26.2329 66.9284 26.2345 67.0448 26.2362 67.1638" stroke="#FFBC00" stroke-linecap="round" stroke-linejoin="round"/>
<path d="M26.2103 67.2128C26.4092 67.2098 26.64 67.2105 26.9029 67.2147C27.1662 67.2186 27.4013 67.2224 27.6084 67.2263C27.8158 67.2306 28.0077 67.2343 28.1838 67.2373C28.3595 67.2408 28.5223 67.2435 28.6722 67.2457C28.8212 67.2482 28.9649 67.2504 29.1032 67.2521C29.2411 67.2543 29.3982 67.2564 29.5748 67.2586C29.7513 67.2607 29.9126 67.2629 30.0586 67.265C30.2047 67.2667 30.3644 67.2687 30.5375 67.2708C30.7106 67.2734 30.884 67.2747 31.058 67.2747C31.2324 67.2747 31.3889 67.2749 31.5277 67.2753C31.6664 67.2753 31.8167 67.2755 31.9786 67.2759C32.1406 67.2764 32.2897 67.2766 32.4258 67.2766C32.562 67.2766 32.7123 67.2764 32.8768 67.2759C33.0413 67.2755 33.2316 67.2744 33.4477 67.2727C33.6637 67.2706 33.8654 67.2691 34.0526 67.2682C34.2395 67.2674 34.4027 67.2663 34.5423 67.265C34.6815 67.2641 34.8282 67.2629 34.9824 67.2612C35.1366 67.2594 35.2756 67.2581 35.3993 67.2572C35.523 67.2559 35.6543 67.2547 35.793 67.2534C35.9317 67.2516 36.1818 67.2482 36.543 67.2431" fill="#FFBC00"/>
<path d="M26.2103 67.2128C26.4092 67.2098 26.64 67.2105 26.9029 67.2147C27.1662 67.2186 27.4013 67.2224 27.6084 67.2263C27.8158 67.2306 28.0077 67.2343 28.1838 67.2373C28.3595 67.2408 28.5223 67.2435 28.6722 67.2457C28.8212 67.2482 28.9649 67.2504 29.1032 67.2521C29.2411 67.2543 29.3982 67.2564 29.5748 67.2586C29.7513 67.2607 29.9126 67.2629 30.0586 67.265C30.2047 67.2667 30.3644 67.2687 30.5375 67.2708C30.7106 67.2734 30.884 67.2747 31.058 67.2747C31.2324 67.2747 31.3889 67.2749 31.5277 67.2753C31.6664 67.2753 31.8167 67.2755 31.9786 67.2759C32.1406 67.2764 32.2897 67.2766 32.4258 67.2766C32.562 67.2766 32.7123 67.2764 32.8768 67.2759C33.0413 67.2755 33.2316 67.2744 33.4477 67.2727C33.6637 67.2706 33.8654 67.2691 34.0526 67.2682C34.2395 67.2674 34.4027 67.2663 34.5423 67.265C34.6815 67.2641 34.8282 67.2629 34.9824 67.2612C35.1366 67.2594 35.2756 67.2581 35.3993 67.2572C35.523 67.2559 35.6543 67.2547 35.793 67.2534C35.9317 67.2516 36.1818 67.2482 36.543 67.2431" stroke="#FFBC00" stroke-linecap="round" stroke-linejoin="round"/>
<path d="M26.22 64.8658C26.412 64.8619 26.5648 64.8598 26.6782 64.8593C26.7912 64.8585 26.9197 64.8578 27.064 64.8574C27.2079 64.857 27.379 64.8566 27.577 64.8561C27.7754 64.8553 27.9269 64.8546 28.0318 64.8542C28.137 64.8537 28.2354 64.8537 28.3268 64.8542C28.4188 64.8542 28.5167 64.8544 28.6207 64.8548C28.7251 64.8548 28.8503 64.8551 28.9963 64.8555C29.1428 64.8555 29.2807 64.8555 29.41 64.8555C29.5393 64.8551 29.6608 64.8544 29.7746 64.8535C29.888 64.8531 30.0056 64.8527 30.1271 64.8523C30.2487 64.8518 30.3745 64.8516 30.5047 64.8516C30.6348 64.8516 30.7501 64.8518 30.8506 64.8523C30.9511 64.8527 31.0542 64.8535 31.1598 64.8548C31.2655 64.8556 31.3623 64.8565 31.4499 64.8574C31.5371 64.8582 31.6449 64.8593 31.7733 64.8606C31.9017 64.8615 32.0685 64.8634 32.2738 64.8664C32.4796 64.869 32.6504 64.8712 32.7861 64.8729C32.9219 64.8746 33.0346 64.8761 33.1243 64.8774C33.2145 64.8786 33.3417 64.8806 33.5058 64.8832C33.6694 64.8858 33.8556 64.8872 34.0644 64.8877C34.2727 64.8885 34.4167 64.8892 34.4961 64.8896C34.5752 64.8901 34.7098 64.8915 34.9001 64.8941C35.0899 64.8967 35.3081 64.8992 35.5546 64.9018C35.8012 64.904 36.0042 64.9057 36.1635 64.907L36.5096 64.9115" fill="#FFBC00"/>
<path d="M26.22 64.8658C26.412 64.8619 26.5648 64.8598 26.6782 64.8593C26.7912 64.8585 26.9197 64.8578 27.064 64.8574C27.2079 64.857 27.379 64.8566 27.577 64.8561C27.7754 64.8553 27.9269 64.8546 28.0318 64.8542C28.137 64.8537 28.2354 64.8537 28.3268 64.8542C28.4188 64.8542 28.5167 64.8544 28.6207 64.8548C28.7251 64.8548 28.8503 64.8551 28.9963 64.8555C29.1428 64.8555 29.2807 64.8555 29.41 64.8555C29.5393 64.8551 29.6608 64.8544 29.7746 64.8535C29.888 64.8531 30.0056 64.8527 30.1271 64.8523C30.2487 64.8518 30.3745 64.8516 30.5047 64.8516C30.6348 64.8516 30.7501 64.8518 30.8506 64.8523C30.9511 64.8527 31.0542 64.8535 31.1598 64.8548C31.2655 64.8556 31.3623 64.8565 31.4499 64.8574C31.5371 64.8582 31.6449 64.8593 31.7733 64.8606C31.9017 64.8615 32.0685 64.8634 32.2738 64.8664C32.4796 64.869 32.6504 64.8712 32.7861 64.8729C32.9219 64.8746 33.0346 64.8761 33.1243 64.8774C33.2145 64.8786 33.3417 64.8806 33.5058 64.8832C33.6694 64.8858 33.8556 64.8872 34.0644 64.8877C34.2727 64.8885 34.4167 64.8892 34.4961 64.8896C34.5752 64.8901 34.7098 64.8915 34.9001 64.8941C35.0899 64.8967 35.3081 64.8992 35.5546 64.9018C35.8012 64.904 36.0042 64.9057 36.1635 64.907L36.5096 64.9115" stroke="#FFBC00" stroke-linecap="round" stroke-linejoin="round"/>
<path d="M36.5339 65.0215C36.5339 65.1353 36.5343 65.2483 36.5352 65.3604C36.5356 65.4721 36.5385 65.6349 36.5437 65.8488C36.5484 66.0623 36.5513 66.1866 36.5526 66.2218C36.5539 66.2571 36.5537 66.3335 36.552 66.4512C36.5507 66.5684 36.5468 66.7951 36.5404 67.131" fill="#FFBC00"/>
<path d="M36.5339 65.0215C36.5339 65.1353 36.5343 65.2483 36.5352 65.3604C36.5356 65.4721 36.5385 65.6349 36.5437 65.8488C36.5484 66.0623 36.5513 66.1866 36.5526 66.2218C36.5539 66.2571 36.5537 66.3335 36.552 66.4512C36.5507 66.5684 36.5468 66.7951 36.5404 67.131" stroke="#FFBC00" stroke-linecap="round" stroke-linejoin="round"/>
<path d="M38.8012 64.8262C38.799 64.9211 38.8016 65.0403 38.8089 65.1838C38.8166 65.3268 38.8221 65.4751 38.8251 65.6284C38.8285 65.7817 38.8287 65.9226 38.8257 66.051C38.8231 66.1798 38.8212 66.3131 38.8199 66.4505C38.8186 66.5884 38.8184 66.6719 38.8193 66.7011C38.8201 66.7307 38.8103 66.9307 38.7902 67.301" fill="#FFBC00"/>
<path d="M38.8012 64.8262C38.799 64.9211 38.8016 65.0403 38.8089 65.1838C38.8166 65.3268 38.8221 65.4751 38.8251 65.6284C38.8285 65.7817 38.8287 65.9226 38.8257 66.051C38.8231 66.1798 38.8212 66.3131 38.8199 66.4505C38.8186 66.5884 38.8184 66.6719 38.8193 66.7011C38.8201 66.7307 38.8103 66.9307 38.7902 67.301" stroke="#FFBC00" stroke-linecap="round" stroke-linejoin="round"/>
<path d="M38.7864 67.3379C38.8393 67.3439 38.959 67.3568 39.1459 67.3766C39.3331 67.3963 39.543 67.412 39.7754 67.4236C40.0078 67.4348 40.2039 67.4425 40.3637 67.4468C40.5235 67.4511 40.6857 67.4537 40.8507 67.4545C41.0152 67.4554 41.1821 67.4556 41.3514 67.4552C41.521 67.4552 41.6929 67.4548 41.8668 67.4539C42.0408 67.4535 42.2036 67.4532 42.3552 67.4532C42.5072 67.4532 42.6804 67.4541 42.8745 67.4558C43.0691 67.4571 43.255 67.459 43.4324 67.4616C43.6094 67.4642 43.7699 67.4667 43.9138 67.4693C44.0581 67.4719 44.1868 67.4742 44.2997 67.4764C44.4131 67.4785 44.5477 67.4816 44.7037 67.4854C44.8596 67.4889 45.0324 67.4932 45.2223 67.4983C45.4121 67.5035 45.5741 67.5076 45.7081 67.5106C45.8421 67.5136 45.9731 67.5155 46.1011 67.5163C46.2287 67.5176 46.4007 67.5185 46.6172 67.5189" fill="#FFBC00"/>
<path d="M38.7864 67.3379C38.8393 67.3439 38.959 67.3568 39.1459 67.3766C39.3331 67.3963 39.543 67.412 39.7754 67.4236C40.0078 67.4348 40.2039 67.4425 40.3637 67.4468C40.5235 67.4511 40.6857 67.4537 40.8507 67.4545C41.0152 67.4554 41.1821 67.4556 41.3514 67.4552C41.521 67.4552 41.6929 67.4548 41.8668 67.4539C42.0408 67.4535 42.2036 67.4532 42.3552 67.4532C42.5072 67.4532 42.6804 67.4541 42.8745 67.4558C43.0691 67.4571 43.255 67.459 43.4324 67.4616C43.6094 67.4642 43.7699 67.4667 43.9138 67.4693C44.0581 67.4719 44.1868 67.4742 44.2997 67.4764C44.4131 67.4785 44.5477 67.4816 44.7037 67.4854C44.8596 67.4889 45.0324 67.4932 45.2223 67.4983C45.4121 67.5035 45.5741 67.5076 45.7081 67.5106C45.8421 67.5136 45.9731 67.5155 46.1011 67.5163C46.2287 67.5176 46.4007 67.5185 46.6172 67.5189" stroke="#FFBC00" stroke-linecap="round" stroke-linejoin="round"/>
<path d="M38.7825 64.7725C38.8903 64.769 38.9548 64.7669 38.9759 64.766C38.9969 64.7651 39.1192 64.7657 39.3425 64.7679C39.5659 64.7705 39.7538 64.7733 39.9063 64.7763C40.0592 64.7793 40.194 64.7821 40.3109 64.7846C40.4277 64.7868 40.5651 64.7898 40.7231 64.7937C40.8812 64.7976 41.0803 64.8025 41.3204 64.8085C41.5601 64.8145 41.7841 64.8203 41.9924 64.8259C42.2011 64.8319 42.3939 64.8375 42.5704 64.8427C42.7474 64.8478 42.9512 64.8529 43.1818 64.8581C43.4125 64.8637 43.6719 64.8687 43.9601 64.873C44.2484 64.8777 44.4844 64.8811 44.6682 64.8833C44.8521 64.8858 45.0001 64.8877 45.1122 64.889C45.2239 64.8903 45.3147 64.891 45.3847 64.891C45.4543 64.891 45.5424 64.891 45.6489 64.891C45.7554 64.8914 45.8903 64.8932 46.0535 64.8962C46.2167 64.8992 46.4648 64.9034 46.7977 64.909" fill="#FFBC00"/>
<path d="M38.7825 64.7725C38.8903 64.769 38.9548 64.7669 38.9759 64.766C38.9969 64.7651 39.1192 64.7657 39.3425 64.7679C39.5659 64.7705 39.7538 64.7733 39.9063 64.7763C40.0592 64.7793 40.194 64.7821 40.3109 64.7846C40.4277 64.7868 40.5651 64.7898 40.7231 64.7937C40.8812 64.7976 41.0803 64.8025 41.3204 64.8085C41.5601 64.8145 41.7841 64.8203 41.9924 64.8259C42.2011 64.8319 42.3939 64.8375 42.5704 64.8427C42.7474 64.8478 42.9512 64.8529 43.1818 64.8581C43.4125 64.8637 43.6719 64.8687 43.9601 64.873C44.2484 64.8777 44.4844 64.8811 44.6682 64.8833C44.8521 64.8858 45.0001 64.8877 45.1122 64.889C45.2239 64.8903 45.3147 64.891 45.3847 64.891C45.4543 64.891 45.5424 64.891 45.6489 64.891C45.7554 64.8914 45.8903 64.8932 46.0535 64.8962C46.2167 64.8992 46.4648 64.9034 46.7977 64.909" stroke="#FFBC00" stroke-linecap="round" stroke-linejoin="round"/>
<path d="M46.835 65.0938C46.8376 65.1444 46.8398 65.2205 46.8415 65.3218C46.8436 65.4236 46.8451 65.5508 46.846 65.7033C46.8468 65.8558 46.8468 65.9994 46.846 66.1343C46.8447 66.2692 46.8417 66.4245 46.837 66.6001C46.8323 66.7758 46.8292 66.886 46.828 66.9307C46.8267 66.9758 46.8088 67.1742 46.7745 67.526" fill="#FFBC00"/>
<path d="M46.835 65.0938C46.8376 65.1444 46.8398 65.2205 46.8415 65.3218C46.8436 65.4236 46.8451 65.5508 46.846 65.7033C46.8468 65.8558 46.8468 65.9994 46.846 66.1343C46.8447 66.2692 46.8417 66.4245 46.837 66.6001C46.8323 66.7758 46.8292 66.886 46.828 66.9307C46.8267 66.9758 46.8088 67.1742 46.7745 67.526" stroke="#FFBC00" stroke-linecap="round" stroke-linejoin="round"/>
<path d="M43.9427 70.6758L43.9582 70.8458C43.9612 71.1632 43.969 71.7329 43.9814 72.5546" fill="#FFBC00"/>
<path d="M43.9427 70.6758L43.9582 70.8458C43.9612 71.1632 43.969 71.7329 43.9814 72.5546" stroke="#FFBC00" stroke-linecap="round" stroke-linejoin="round"/>
<path d="M43.9382 70.4194C43.8824 70.4125 43.7675 70.4046 43.5935 70.3956C43.4195 70.3861 43.2473 70.378 43.0768 70.3711C42.9067 70.3638 42.7089 70.3561 42.4834 70.3479C42.2579 70.3393 42.0714 70.3322 41.9241 70.3267C41.7763 70.3215 41.6681 70.3176 41.5994 70.315C41.5303 70.3124 41.4399 70.3097 41.3282 70.3067C41.2161 70.3037 41.0821 70.3002 40.9262 70.2964C40.7698 70.2929 40.6405 70.2899 40.5383 70.2873C40.436 70.2848 40.3498 70.2824 40.2798 70.2803C40.2098 70.2785 40.1596 70.277 40.1291 70.2757C40.0986 70.2748 39.9799 70.2717 39.7728 70.2661C39.5658 70.2609 39.3546 70.2562 39.1394 70.2519C38.9238 70.2476 38.7449 70.2452 38.6027 70.2448C38.4601 70.2439 38.3521 70.2439 38.2787 70.2448C38.2052 70.2456 38.0563 70.2463 37.8316 70.2468C37.6074 70.2472 37.3723 70.2493 37.1266 70.2532C36.8813 70.2571 36.692 70.2609 36.5584 70.2648C36.4248 70.2682 36.2546 70.2727 36.0475 70.2783" fill="#FFBC00"/>
<path d="M43.9382 70.4194C43.8824 70.4125 43.7675 70.4046 43.5935 70.3956C43.4195 70.3861 43.2473 70.378 43.0768 70.3711C42.9067 70.3638 42.7089 70.3561 42.4834 70.3479C42.2579 70.3393 42.0714 70.3322 41.9241 70.3267C41.7763 70.3215 41.6681 70.3176 41.5994 70.315C41.5303 70.3124 41.4399 70.3097 41.3282 70.3067C41.2161 70.3037 41.0821 70.3002 40.9262 70.2964C40.7698 70.2929 40.6405 70.2899 40.5383 70.2873C40.436 70.2848 40.3498 70.2824 40.2798 70.2803C40.2098 70.2785 40.1596 70.277 40.1291 70.2757C40.0986 70.2748 39.9799 70.2717 39.7728 70.2661C39.5658 70.2609 39.3546 70.2562 39.1394 70.2519C38.9238 70.2476 38.7449 70.2452 38.6027 70.2448C38.4601 70.2439 38.3521 70.2439 38.2787 70.2448C38.2052 70.2456 38.0563 70.2463 37.8316 70.2468C37.6074 70.2472 37.3723 70.2493 37.1266 70.2532C36.8813 70.2571 36.692 70.2609 36.5584 70.2648C36.4248 70.2682 36.2546 70.2727 36.0475 70.2783" stroke="#FFBC00" stroke-linecap="round" stroke-linejoin="round"/>
<path d="M43.9144 72.7334C43.9041 72.7338 43.8637 72.7342 43.7933 72.7346C43.7233 72.7346 43.6229 72.7344 43.4924 72.734C43.3622 72.734 43.2267 72.7342 43.0858 72.7346C42.9449 72.7355 42.7989 72.7366 42.6477 72.7378C42.496 72.7396 42.3627 72.7411 42.2476 72.7424C42.132 72.7433 42.0146 72.7445 41.8951 72.7463C41.7753 72.7476 41.6475 72.7484 41.5118 72.7489C41.3756 72.7493 41.2812 72.7495 41.2284 72.7495C41.1755 72.7495 41.0942 72.7499 40.9847 72.7507C40.8756 72.752 40.7478 72.7542 40.6014 72.7572C40.4549 72.7602 40.3248 72.7622 40.2109 72.763C40.0975 72.7634 39.9913 72.7634 39.8921 72.763C39.7924 72.7622 39.6867 72.7611 39.575 72.7598C39.4637 72.7589 39.3293 72.7579 39.1717 72.7566C39.0144 72.7557 38.8804 72.7546 38.7696 72.7533C38.6583 72.7521 38.5547 72.7504 38.4585 72.7482C38.3618 72.7461 38.277 72.7443 38.2039 72.743C38.1314 72.7418 38.041 72.7405 37.9328 72.7392C37.8241 72.7383 37.6907 72.736 37.5326 72.7321C37.3741 72.7282 37.1905 72.7237 36.9817 72.7186C36.773 72.713 36.5416 72.7059 36.2877 72.6973" fill="#FFBC00"/>
<path d="M43.9144 72.7334C43.9041 72.7338 43.8637 72.7342 43.7933 72.7346C43.7233 72.7346 43.6229 72.7344 43.4924 72.734C43.3622 72.734 43.2267 72.7342 43.0858 72.7346C42.9449 72.7355 42.7989 72.7366 42.6477 72.7378C42.496 72.7396 42.3627 72.7411 42.2476 72.7424C42.132 72.7433 42.0146 72.7445 41.8951 72.7463C41.7753 72.7476 41.6475 72.7484 41.5118 72.7489C41.3756 72.7493 41.2812 72.7495 41.2284 72.7495C41.1755 72.7495 41.0942 72.7499 40.9847 72.7507C40.8756 72.752 40.7478 72.7542 40.6014 72.7572C40.4549 72.7602 40.3248 72.7622 40.2109 72.763C40.0975 72.7634 39.9913 72.7634 39.8921 72.763C39.7924 72.7622 39.6867 72.7611 39.575 72.7598C39.4637 72.7589 39.3293 72.7579 39.1717 72.7566C39.0144 72.7557 38.8804 72.7546 38.7696 72.7533C38.6583 72.7521 38.5547 72.7504 38.4585 72.7482C38.3618 72.7461 38.277 72.7443 38.2039 72.743C38.1314 72.7418 38.041 72.7405 37.9328 72.7392C37.8241 72.7383 37.6907 72.736 37.5326 72.7321C37.3741 72.7282 37.1905 72.7237 36.9817 72.7186C36.773 72.713 36.5416 72.7059 36.2877 72.6973" stroke="#FFBC00" stroke-linecap="round" stroke-linejoin="round"/>
<path d="M36.0824 72.699C36.0837 72.6165 36.0839 72.5551 36.083 72.5147C36.0821 72.4739 36.0798 72.3961 36.0759 72.2814C36.0716 72.1663 36.0679 72.057 36.0649 71.9535C36.0615 71.8496 36.0587 71.7821 36.0566 71.7512C36.0549 71.7207 36.0529 71.6487 36.0507 71.5353C36.0486 71.4219 36.048 71.3513 36.0489 71.3234C36.0497 71.2955 36.048 71.2207 36.0437 71.0991C36.0389 70.9776 36.0356 70.8672 36.0334 70.7679C36.0309 70.6687 36.0291 70.6166 36.0283 70.6114C36.0274 70.6063 36.0282 70.5268 36.0308 70.373" fill="#FFBC00"/>
<path d="M36.0824 72.699C36.0837 72.6165 36.0839 72.5551 36.083 72.5147C36.0821 72.4739 36.0798 72.3961 36.0759 72.2814C36.0716 72.1663 36.0679 72.057 36.0649 71.9535C36.0615 71.8496 36.0587 71.7821 36.0566 71.7512C36.0549 71.7207 36.0529 71.6487 36.0507 71.5353C36.0486 71.4219 36.048 71.3513 36.0489 71.3234C36.0497 71.2955 36.048 71.2207 36.0437 71.0991C36.0389 70.9776 36.0356 70.8672 36.0334 70.7679C36.0309 70.6687 36.0291 70.6166 36.0283 70.6114C36.0274 70.6063 36.0282 70.5268 36.0308 70.373" stroke="#FFBC00" stroke-linecap="round" stroke-linejoin="round"/>
<path d="M33.4562 70.334C33.4524 70.4229 33.4479 70.5327 33.4427 70.6633C33.438 70.7934 33.4351 70.8713 33.4342 70.8971C33.4334 70.9225 33.4318 71.0792 33.4292 71.3674C33.427 71.6557 33.4259 71.8591 33.4259 71.9776C33.4263 72.0966 33.4261 72.2156 33.4252 72.3346C33.424 72.4532 33.4224 72.5745 33.4207 72.6986" fill="#FFBC00"/>
<path d="M33.4562 70.334C33.4524 70.4229 33.4479 70.5327 33.4427 70.6633C33.438 70.7934 33.4351 70.8713 33.4342 70.8971C33.4334 70.9225 33.4318 71.0792 33.4292 71.3674C33.427 71.6557 33.4259 71.8591 33.4259 71.9776C33.4263 72.0966 33.4261 72.2156 33.4252 72.3346C33.424 72.4532 33.4224 72.5745 33.4207 72.6986" stroke="#FFBC00" stroke-linecap="round" stroke-linejoin="round"/>
<path d="M33.4426 72.7535C33.279 72.7509 33.0891 72.7515 32.8731 72.7554C32.6566 72.7597 32.4632 72.764 32.2931 72.7683C32.1226 72.7726 31.965 72.7765 31.8202 72.7799C31.6755 72.7829 31.5417 72.7857 31.4188 72.7883C31.296 72.7909 31.1778 72.7932 31.0644 72.7954C30.951 72.7971 30.8217 72.7992 30.6765 72.8018C30.5313 72.804 30.3989 72.8061 30.279 72.8083C30.1588 72.81 30.0276 72.8121 29.8855 72.8147C29.7433 72.8169 29.6006 72.8181 29.4576 72.8186C29.3141 72.8186 29.1854 72.8186 29.0716 72.8186C28.9578 72.819 28.8341 72.8195 28.7005 72.8199C28.5678 72.8203 28.4453 72.8205 28.3332 72.8205C28.2211 72.8205 28.0975 72.8203 27.9622 72.8199C27.8273 72.8195 27.6709 72.8181 27.4931 72.816C27.3153 72.8138 27.1495 72.8123 26.9957 72.8115C26.8424 72.8106 26.7083 72.8095 26.5936 72.8083C26.479 72.8074 26.3583 72.8061 26.2315 72.8044C26.1048 72.8027 25.9906 72.8012 25.8888 72.7999C25.7874 72.7986 25.6798 72.7974 25.566 72.7961C25.4517 72.7948 25.246 72.7913 24.9488 72.7857" fill="#FFBC00"/>
<path d="M33.4426 72.7535C33.279 72.7509 33.0891 72.7515 32.8731 72.7554C32.6566 72.7597 32.4632 72.764 32.2931 72.7683C32.1226 72.7726 31.965 72.7765 31.8202 72.7799C31.6755 72.7829 31.5417 72.7857 31.4188 72.7883C31.296 72.7909 31.1778 72.7932 31.0644 72.7954C30.951 72.7971 30.8217 72.7992 30.6765 72.8018C30.5313 72.804 30.3989 72.8061 30.279 72.8083C30.1588 72.81 30.0276 72.8121 29.8855 72.8147C29.7433 72.8169 29.6006 72.8181 29.4576 72.8186C29.3141 72.8186 29.1854 72.8186 29.0716 72.8186C28.9578 72.819 28.8341 72.8195 28.7005 72.8199C28.5678 72.8203 28.4453 72.8205 28.3332 72.8205C28.2211 72.8205 28.0975 72.8203 27.9622 72.8199C27.8273 72.8195 27.6709 72.8181 27.4931 72.816C27.3153 72.8138 27.1495 72.8123 26.9957 72.8115C26.8424 72.8106 26.7083 72.8095 26.5936 72.8083C26.479 72.8074 26.3583 72.8061 26.2315 72.8044C26.1048 72.8027 25.9906 72.8012 25.8888 72.7999C25.7874 72.7986 25.6798 72.7974 25.566 72.7961C25.4517 72.7948 25.246 72.7913 24.9488 72.7857" stroke="#FFBC00" stroke-linecap="round" stroke-linejoin="round"/>
<path d="M33.4342 70.3019C33.2766 70.298 33.1511 70.296 33.0579 70.2955C32.9652 70.2947 32.8595 70.294 32.741 70.2936C32.6224 70.2931 32.4817 70.2925 32.3189 70.2916C32.1562 70.2907 32.0315 70.2903 31.9452 70.2903C31.8584 70.2895 31.7775 70.2893 31.7023 70.2897C31.6272 70.2901 31.5466 70.2903 31.4607 70.2903C31.3752 70.2908 31.2724 70.2912 31.1521 70.2916C31.0318 70.2916 30.9185 70.2914 30.812 70.291C30.7059 70.291 30.606 70.2906 30.5124 70.2897C30.4191 70.2888 30.3225 70.2882 30.2225 70.2877C30.1228 70.2873 30.0195 70.2871 29.9126 70.2871C29.8056 70.2871 29.7108 70.2875 29.6283 70.2884C29.5454 70.2888 29.4606 70.2895 29.3738 70.2903C29.2871 70.2916 29.2079 70.2927 29.1361 70.2936C29.0644 70.2944 28.9757 70.2955 28.87 70.2968C28.7643 70.2976 28.6271 70.2996 28.4583 70.3026C28.2891 70.3056 28.1488 70.308 28.0376 70.3097C27.9259 70.3114 27.8332 70.3129 27.7593 70.3142C27.6854 70.3155 27.581 70.3176 27.4461 70.3206C27.3112 70.3232 27.1582 70.3247 26.9868 70.3251C26.8154 70.326 26.6971 70.3266 26.6318 70.3271C26.5665 70.3275 26.4558 70.329 26.2999 70.3315C26.1439 70.3346 25.9644 70.3374 25.7613 70.34C25.5585 70.3425 25.3916 70.3442 25.2606 70.3451L24.9765 70.3503" fill="#FFBC00"/>
<path d="M33.4342 70.3019C33.2766 70.298 33.1511 70.296 33.0579 70.2955C32.9652 70.2947 32.8595 70.294 32.741 70.2936C32.6224 70.2931 32.4817 70.2925 32.3189 70.2916C32.1562 70.2907 32.0315 70.2903 31.9452 70.2903C31.8584 70.2895 31.7775 70.2893 31.7023 70.2897C31.6272 70.2901 31.5466 70.2903 31.4607 70.2903C31.3752 70.2908 31.2724 70.2912 31.1521 70.2916C31.0318 70.2916 30.9185 70.2914 30.812 70.291C30.7059 70.291 30.606 70.2906 30.5124 70.2897C30.4191 70.2888 30.3225 70.2882 30.2225 70.2877C30.1228 70.2873 30.0195 70.2871 29.9126 70.2871C29.8056 70.2871 29.7108 70.2875 29.6283 70.2884C29.5454 70.2888 29.4606 70.2895 29.3738 70.2903C29.2871 70.2916 29.2079 70.2927 29.1361 70.2936C29.0644 70.2944 28.9757 70.2955 28.87 70.2968C28.7643 70.2976 28.6271 70.2996 28.4583 70.3026C28.2891 70.3056 28.1488 70.308 28.0376 70.3097C27.9259 70.3114 27.8332 70.3129 27.7593 70.3142C27.6854 70.3155 27.581 70.3176 27.4461 70.3206C27.3112 70.3232 27.1582 70.3247 26.9868 70.3251C26.8154 70.326 26.6971 70.3266 26.6318 70.3271C26.5665 70.3275 26.4558 70.329 26.2999 70.3315C26.1439 70.3346 25.9644 70.3374 25.7613 70.34C25.5585 70.3425 25.3916 70.3442 25.2606 70.3451L24.9765 70.3503" stroke="#FFBC00" stroke-linecap="round" stroke-linejoin="round"/>
<path d="M24.9566 70.4648C24.9566 70.5838 24.9564 70.7017 24.956 70.8185C24.9551 70.9354 24.9527 71.1053 24.9489 71.3282C24.9446 71.5515 24.942 71.6815 24.9412 71.7181C24.9403 71.755 24.9405 71.8347 24.9418 71.9571C24.9427 72.0799 24.9456 72.3165 24.9508 72.667" fill="#FFBC00"/>
<path d="M24.9566 70.4648C24.9566 70.5838 24.9564 70.7017 24.956 70.8185C24.9551 70.9354 24.9527 71.1053 24.9489 71.3282C24.9446 71.5515 24.942 71.6815 24.9412 71.7181C24.9403 71.755 24.9405 71.8347 24.9418 71.9571C24.9427 72.0799 24.9456 72.3165 24.9508 72.667" stroke="#FFBC00" stroke-linecap="round" stroke-linejoin="round"/>
<path d="M22.5397 70.4297C22.5414 70.5199 22.538 70.6328 22.5295 70.7685C22.5213 70.9042 22.515 71.0449 22.5107 71.1905C22.5064 71.3362 22.5049 71.47 22.5062 71.592C22.5079 71.7144 22.5087 71.8409 22.5087 71.9715C22.5087 72.102 22.5083 72.1813 22.5074 72.2092C22.5061 72.2371 22.5136 72.4267 22.5295 72.7781" fill="#FFBC00"/>
<path d="M22.5397 70.4297C22.5414 70.5199 22.538 70.6328 22.5295 70.7685C22.5213 70.9042 22.515 71.0449 22.5107 71.1905C22.5064 71.3362 22.5049 71.47 22.5062 71.592C22.5079 71.7144 22.5087 71.8409 22.5087 71.9715C22.5087 72.102 22.5083 72.1813 22.5074 72.2092C22.5061 72.2371 22.5136 72.4267 22.5295 72.7781" stroke="#FFBC00" stroke-linecap="round" stroke-linejoin="round"/>
<path d="M22.5333 72.8145C22.4831 72.82 22.369 72.8314 22.1912 72.8486C22.0134 72.8653 21.8143 72.8783 21.5939 72.8873C21.3732 72.8963 21.187 72.9021 21.0354 72.9047C20.8837 72.9072 20.7297 72.9083 20.5734 72.9079C20.417 72.907 20.2585 72.906 20.0979 72.9047C19.9372 72.9029 19.7742 72.901 19.6088 72.8988C19.4434 72.8967 19.2888 72.895 19.1449 72.8937C19.001 72.8924 18.8368 72.8918 18.6521 72.8918C18.4678 72.8913 18.2915 72.8915 18.1231 72.8924C17.9547 72.8937 17.8023 72.8948 17.6657 72.8956C17.5291 72.8969 17.407 72.898 17.2997 72.8988C17.1923 72.9001 17.0645 72.9019 16.9163 72.904C16.7686 72.9062 16.6045 72.9089 16.4241 72.9124C16.2437 72.9154 16.0899 72.9177 15.9628 72.9195C15.8356 72.9212 15.7112 72.922 15.5896 72.922C15.4685 72.922 15.3054 72.9214 15.1001 72.9201" fill="#FFBC00"/>
<path d="M22.5333 72.8145C22.4831 72.82 22.369 72.8314 22.1912 72.8486C22.0134 72.8653 21.8143 72.8783 21.5939 72.8873C21.3732 72.8963 21.187 72.9021 21.0354 72.9047C20.8837 72.9072 20.7297 72.9083 20.5734 72.9079C20.417 72.907 20.2585 72.906 20.0979 72.9047C19.9372 72.9029 19.7742 72.901 19.6088 72.8988C19.4434 72.8967 19.2888 72.895 19.1449 72.8937C19.001 72.8924 18.8368 72.8918 18.6521 72.8918C18.4678 72.8913 18.2915 72.8915 18.1231 72.8924C17.9547 72.8937 17.8023 72.8948 17.6657 72.8956C17.5291 72.8969 17.407 72.898 17.2997 72.8988C17.1923 72.9001 17.0645 72.9019 16.9163 72.904C16.7686 72.9062 16.6045 72.9089 16.4241 72.9124C16.2437 72.9154 16.0899 72.9177 15.9628 72.9195C15.8356 72.9212 15.7112 72.922 15.5896 72.922C15.4685 72.922 15.3054 72.9214 15.1001 72.9201" stroke="#FFBC00" stroke-linecap="round" stroke-linejoin="round"/>
<path d="M22.5585 70.3801C22.4562 70.3758 22.3953 70.3732 22.3755 70.3724C22.3553 70.3715 22.2394 70.3711 22.0276 70.3711C21.8154 70.3711 21.6369 70.372 21.4921 70.3737C21.347 70.3754 21.219 70.3769 21.1082 70.3782C20.9974 70.3795 20.8669 70.3812 20.717 70.3834C20.5666 70.3855 20.3777 70.3885 20.1501 70.3923C19.9224 70.3958 19.7096 70.3995 19.5116 70.4033C19.314 70.4072 19.1312 70.4108 18.9632 70.4143C18.7957 70.4173 18.6025 70.4205 18.3834 70.4239C18.1644 70.427 17.918 70.4295 17.6444 70.4317C17.3708 70.4334 17.1465 70.4344 16.9717 70.4349C16.7973 70.4357 16.6571 70.4364 16.551 70.4368C16.4449 70.4368 16.3585 70.4366 16.292 70.4361C16.2258 70.4353 16.1423 70.4347 16.0414 70.4342C15.9404 70.4334 15.8125 70.4338 15.6574 70.4355C15.5024 70.4368 15.2668 70.4388 14.9511 70.4413" fill="#FFBC00"/>
<path d="M22.5585 70.3801C22.4562 70.3758 22.3953 70.3732 22.3755 70.3724C22.3553 70.3715 22.2394 70.3711 22.0276 70.3711C21.8154 70.3711 21.6369 70.372 21.4921 70.3737C21.347 70.3754 21.219 70.3769 21.1082 70.3782C20.9974 70.3795 20.8669 70.3812 20.717 70.3834C20.5666 70.3855 20.3777 70.3885 20.1501 70.3923C19.9224 70.3958 19.7096 70.3995 19.5116 70.4033C19.314 70.4072 19.1312 70.4108 18.9632 70.4143C18.7957 70.4173 18.6025 70.4205 18.3834 70.4239C18.1644 70.427 17.918 70.4295 17.6444 70.4317C17.3708 70.4334 17.1465 70.4344 16.9717 70.4349C16.7973 70.4357 16.6571 70.4364 16.551 70.4368C16.4449 70.4368 16.3585 70.4366 16.292 70.4361C16.2258 70.4353 16.1423 70.4347 16.0414 70.4342C15.9404 70.4334 15.8125 70.4338 15.6574 70.4355C15.5024 70.4368 15.2668 70.4388 14.9511 70.4413" stroke="#FFBC00" stroke-linecap="round" stroke-linejoin="round"/>
<path d="M14.9144 70.6152C14.9114 70.6633 14.9085 70.7355 14.9055 70.8318C14.9029 70.928 14.9004 71.0484 14.8982 71.1932C14.8961 71.3379 14.8951 71.4743 14.8951 71.6023C14.8951 71.7303 14.8966 71.8776 14.8996 72.0443C14.9022 72.211 14.9038 72.3155 14.9047 72.358C14.9055 72.401 14.9208 72.5896 14.9505 72.9238" fill="#FFBC00"/>
<path d="M14.9144 70.6152C14.9114 70.6633 14.9085 70.7355 14.9055 70.8318C14.9029 70.928 14.9004 71.0484 14.8982 71.1932C14.8961 71.3379 14.8951 71.4743 14.8951 71.6023C14.8951 71.7303 14.8966 71.8776 14.8996 72.0443C14.9022 72.211 14.9038 72.3155 14.9047 72.358C14.9055 72.401 14.9208 72.5896 14.9505 72.9238" stroke="#FFBC00" stroke-linecap="round" stroke-linejoin="round"/>
<script xmlns=""/></svg>