<svg width="62" height="85" viewBox="0 0 62 85" fill="none" xmlns="http://www.w3.org/2000/svg">
<path d="M1 84.093V1.08594H60.8991V84.093H1Z" fill="white"/>
<path d="M1.10806 1.57812L1.05462 4.37961C1.05245 4.46474 1.04769 4.71687 1.0403 5.136C1.03292 5.55514 1.02755 6.12363 1.02408 6.84158C1.02017 7.5591 1.01819 8.20257 1.01819 8.77198C1.01863 9.34139 1.01883 9.95623 1.01883 10.6164C1.01883 11.2766 1.01943 11.9229 1.02074 12.5552C1.02248 13.1876 1.02385 13.8463 1.02471 14.5312C1.02558 15.2157 1.02716 15.8788 1.02933 16.5203C1.0315 17.1623 1.03368 17.7829 1.03585 18.3822C1.03845 18.9816 1.04104 19.5604 1.04364 20.1185C1.04625 20.6762 1.04903 21.3423 1.05207 22.1167C1.05511 22.8911 1.05709 23.7289 1.05796 24.6302C1.05883 25.531 1.05822 26.3751 1.05605 27.1625C1.05301 27.95 1.05083 28.7635 1.04953 29.603C1.04779 30.4426 1.04602 31.1983 1.04428 31.8702C1.04254 32.5417 1.04137 33.1061 1.04094 33.5635C1.04007 34.0208 1.03906 34.4854 1.03776 34.9571C1.03602 35.4288 1.03445 35.9094 1.03314 36.3988C1.03228 36.8888 1.03147 37.3887 1.0306 37.8986C1.0293 38.4085 1.02813 38.9086 1.02726 39.399C1.02639 39.8898 1.02558 40.3728 1.02471 40.8479C1.02385 41.3235 1.02304 41.7917 1.02217 42.2526C1.02174 42.7138 1.02077 43.2821 1.01947 43.9575C1.0186 44.6329 1.01759 45.3919 1.01628 46.2345C1.01455 47.0771 1.01358 47.8947 1.01358 48.6874C1.01358 49.4801 1.01358 50.2762 1.01358 51.0758C1.01358 51.8754 1.01394 52.6772 1.01438 53.4812C1.01524 54.2851 1.01625 55.0953 1.01756 55.9119C1.01886 56.728 1.01987 57.5413 1.02074 58.3517C1.02161 59.1622 1.02278 59.9395 1.02408 60.6835C1.02495 61.4271 1.02555 62.1342 1.02599 62.8048C1.02686 63.4758 1.02762 64.1093 1.02805 64.7052C1.02892 65.3011 1.02993 65.9908 1.03124 66.7744C1.03297 67.5579 1.03358 68.308 1.03314 69.0247C1.03271 69.7409 1.03231 70.3926 1.03187 70.9798C1.03187 71.567 1.03228 72.1959 1.03314 72.8665C1.03401 73.5367 1.03518 73.9902 1.03648 74.2269C1.03735 74.4631 1.03796 74.8248 1.03839 75.3116C1.03883 75.7985 1.03964 76.2699 1.04094 76.726C1.04181 77.1816 1.04318 77.7026 1.04491 78.289C1.04709 78.8753 1.04866 79.5533 1.04953 80.3229C1.0504 81.0921 1.0506 81.9513 1.05016 82.9003L1.02599 83.9479" fill="#FFBC00"/>
<path d="M1.10806 1.57812L1.05462 4.37961C1.05245 4.46474 1.04769 4.71687 1.0403 5.136C1.03292 5.55514 1.02755 6.12363 1.02408 6.84158C1.02017 7.5591 1.01819 8.20257 1.01819 8.77198C1.01863 9.34139 1.01883 9.95623 1.01883 10.6164C1.01883 11.2766 1.01943 11.9229 1.02074 12.5552C1.02248 13.1876 1.02385 13.8463 1.02471 14.5312C1.02558 15.2157 1.02716 15.8788 1.02933 16.5203C1.0315 17.1623 1.03368 17.7829 1.03585 18.3822C1.03845 18.9816 1.04104 19.5604 1.04364 20.1185C1.04625 20.6762 1.04903 21.3423 1.05207 22.1167C1.05511 22.8911 1.05709 23.7289 1.05796 24.6302C1.05883 25.531 1.05822 26.3751 1.05605 27.1625C1.05301 27.95 1.05083 28.7635 1.04953 29.603C1.04779 30.4426 1.04602 31.1983 1.04428 31.8702C1.04254 32.5417 1.04137 33.1061 1.04094 33.5635C1.04007 34.0208 1.03906 34.4854 1.03776 34.9571C1.03602 35.4288 1.03445 35.9094 1.03314 36.3988C1.03228 36.8888 1.03147 37.3887 1.0306 37.8986C1.0293 38.4085 1.02813 38.9086 1.02726 39.399C1.02639 39.8898 1.02558 40.3728 1.02471 40.8479C1.02385 41.3235 1.02304 41.7917 1.02217 42.2526C1.02174 42.7138 1.02077 43.2821 1.01947 43.9575C1.0186 44.6329 1.01759 45.3919 1.01628 46.2345C1.01455 47.0771 1.01358 47.8947 1.01358 48.6874C1.01358 49.4801 1.01358 50.2762 1.01358 51.0758C1.01358 51.8754 1.01394 52.6772 1.01438 53.4812C1.01524 54.2851 1.01625 55.0953 1.01756 55.9119C1.01886 56.728 1.01987 57.5413 1.02074 58.3517C1.02161 59.1622 1.02278 59.9395 1.02408 60.6835C1.02495 61.4271 1.02555 62.1342 1.02599 62.8048C1.02686 63.4758 1.02762 64.1093 1.02805 64.7052C1.02892 65.3011 1.02993 65.9908 1.03124 66.7744C1.03297 67.5579 1.03358 68.308 1.03314 69.0247C1.03271 69.7409 1.03231 70.3926 1.03187 70.9798C1.03187 71.567 1.03228 72.1959 1.03314 72.8665C1.03401 73.5367 1.03518 73.9902 1.03648 74.2269C1.03735 74.4631 1.03796 74.8248 1.03839 75.3116C1.03883 75.7985 1.03964 76.2699 1.04094 76.726C1.04181 77.1816 1.04318 77.7026 1.04491 78.289C1.04709 78.8753 1.04866 79.5533 1.04953 80.3229C1.0504 81.0921 1.0506 81.9513 1.05016 82.9003L1.02599 83.9479" stroke="#FFBC00" stroke-linecap="round" stroke-linejoin="round"/>
<path d="M1.16678 1.12498C1.59503 1.12976 2.19163 1.13174 2.95649 1.13087C3.72135 1.12956 4.43509 1.12799 5.09789 1.12625C5.76068 1.12495 6.50293 1.12326 7.32469 1.12108C8.14645 1.11891 8.93247 1.11762 9.68256 1.11719C10.4327 1.11719 11.145 1.11759 11.8195 1.11846C12.494 1.11976 13.1289 1.12154 13.7244 1.12371C14.3198 1.12588 14.8746 1.12846 15.3884 1.1315C15.9018 1.13454 16.4305 1.13761 16.9747 1.14065C17.5185 1.14369 18.0775 1.14647 18.6517 1.14908C19.2258 1.15212 19.8151 1.15518 20.4193 1.15822C21.023 1.16083 21.6416 1.16341 22.2753 1.16602C22.9086 1.16862 23.4963 1.171 24.0383 1.17318C24.5803 1.17535 25.1891 1.17773 25.8644 1.18033C26.5398 1.18251 27.1436 1.18448 27.6756 1.18622C28.2077 1.18796 28.8279 1.19183 29.5363 1.19791C30.2442 1.20399 30.886 1.20992 31.4615 1.21556C32.0366 1.22121 32.6633 1.22767 33.3417 1.23505C34.0202 1.24243 34.6671 1.24965 35.2826 1.2566C35.8984 1.26312 36.6213 1.27114 37.4508 1.2807C38.2808 1.28982 39.1238 1.29954 39.9798 1.30997C40.8363 1.31995 41.6321 1.33193 42.367 1.34583C43.1023 1.35973 43.777 1.37558 44.3911 1.39339C45.0053 1.4112 45.5722 1.42644 46.0916 1.43904C46.6115 1.45164 47.1905 1.46354 47.8285 1.47483C48.467 1.48612 49.2852 1.49782 50.2833 1.50998C51.2814 1.52171 52.1831 1.53022 52.9884 1.53543C53.7936 1.54064 54.5123 1.54609 55.1442 1.55173C55.7762 1.55694 56.5535 1.56517 57.4765 1.57647C58.3999 1.58732 59.5741 1.60209 60.9991 1.62076" fill="#FFBC00"/>
<path d="M1.16678 1.12498C1.59503 1.12976 2.19163 1.13174 2.95649 1.13087C3.72135 1.12956 4.43509 1.12799 5.09789 1.12625C5.76068 1.12495 6.50293 1.12326 7.32469 1.12108C8.14645 1.11891 8.93247 1.11762 9.68256 1.11719C10.4327 1.11719 11.145 1.11759 11.8195 1.11846C12.494 1.11976 13.1289 1.12154 13.7244 1.12371C14.3198 1.12588 14.8746 1.12846 15.3884 1.1315C15.9018 1.13454 16.4305 1.13761 16.9747 1.14065C17.5185 1.14369 18.0775 1.14647 18.6517 1.14908C19.2258 1.15212 19.8151 1.15518 20.4193 1.15822C21.023 1.16083 21.6416 1.16341 22.2753 1.16602C22.9086 1.16862 23.4963 1.171 24.0383 1.17318C24.5803 1.17535 25.1891 1.17773 25.8644 1.18033C26.5398 1.18251 27.1436 1.18448 27.6756 1.18622C28.2077 1.18796 28.8279 1.19183 29.5363 1.19791C30.2442 1.20399 30.886 1.20992 31.4615 1.21556C32.0366 1.22121 32.6633 1.22767 33.3417 1.23505C34.0202 1.24243 34.6671 1.24965 35.2826 1.2566C35.8984 1.26312 36.6213 1.27114 37.4508 1.2807C38.2808 1.28982 39.1238 1.29954 39.9798 1.30997C40.8363 1.31995 41.6321 1.33193 42.367 1.34583C43.1023 1.35973 43.777 1.37558 44.3911 1.39339C45.0053 1.4112 45.5722 1.42644 46.0916 1.43904C46.6115 1.45164 47.1905 1.46354 47.8285 1.47483C48.467 1.48612 49.2852 1.49782 50.2833 1.50998C51.2814 1.52171 52.1831 1.53022 52.9884 1.53543C53.7936 1.54064 54.5123 1.54609 55.1442 1.55173C55.7762 1.55694 56.5535 1.56517 57.4765 1.57647C58.3999 1.58732 59.5741 1.60209 60.9991 1.62076" stroke="#FFBC00" stroke-linecap="round" stroke-linejoin="round"/>
<path d="M1 83.9609C1.88474 83.9614 2.40031 83.969 2.54668 83.9838C2.69348 83.9981 3.59998 84.024 5.26608 84.0613C6.93175 84.0982 9.09293 84.1284 11.7497 84.1518C14.4061 84.1757 16.6265 84.1911 18.4108 84.1981C20.195 84.205 21.6973 84.2198 22.9178 84.2424C24.1379 84.265 25.2025 84.2841 26.1115 84.2997C27.0206 84.3154 28.2868 84.3288 29.9103 84.3401C31.5334 84.3519 32.881 84.3608 33.9529 84.3669C35.0248 84.3725 36.0205 84.3811 36.94 84.3929C37.8599 84.4046 38.4298 84.4104 38.6496 84.4104C38.8689 84.4104 39.3502 84.4091 40.0933 84.4065C40.836 84.4039 41.6546 84.3996 42.5489 84.3935C43.4427 84.387 44.4221 84.3846 45.4871 84.3863C46.5521 84.3881 47.2096 84.3842 47.4598 84.3746C47.7099 84.3655 48.2469 84.3612 49.0704 84.3616C49.8939 84.3625 50.7524 84.364 51.6463 84.3661C52.5402 84.3683 53.1158 84.3655 53.3729 84.3577C53.6296 84.3499 54.2078 84.3497 55.1077 84.3571C56.0077 84.3645 56.9815 84.3757 58.0291 84.3909C59.0767 84.4066 59.9109 84.4181 60.5316 84.4255" fill="#FFBC00"/>
<path d="M1 83.9609C1.88474 83.9614 2.40031 83.969 2.54668 83.9838C2.69348 83.9981 3.59998 84.024 5.26608 84.0613C6.93175 84.0982 9.09293 84.1284 11.7497 84.1518C14.4061 84.1757 16.6265 84.1911 18.4108 84.1981C20.195 84.205 21.6973 84.2198 22.9178 84.2424C24.1379 84.265 25.2025 84.2841 26.1115 84.2997C27.0206 84.3154 28.2868 84.3288 29.9103 84.3401C31.5334 84.3519 32.881 84.3608 33.9529 84.3669C35.0248 84.3725 36.0205 84.3811 36.94 84.3929C37.8599 84.4046 38.4298 84.4104 38.6496 84.4104C38.8689 84.4104 39.3502 84.4091 40.0933 84.4065C40.836 84.4039 41.6546 84.3996 42.5489 84.3935C43.4427 84.387 44.4221 84.3846 45.4871 84.3863C46.5521 84.3881 47.2096 84.3842 47.4598 84.3746C47.7099 84.3655 48.2469 84.3612 49.0704 84.3616C49.8939 84.3625 50.7524 84.364 51.6463 84.3661C52.5402 84.3683 53.1158 84.3655 53.3729 84.3577C53.6296 84.3499 54.2078 84.3497 55.1077 84.3571C56.0077 84.3645 56.9815 84.3757 58.0291 84.3909C59.0767 84.4066 59.9109 84.4181 60.5316 84.4255" stroke="#FFBC00" stroke-linecap="round" stroke-linejoin="round"/>
<path d="M61 1.62109C60.9891 2.20397 60.9816 3.56433 60.9777 5.70211C60.9738 7.8399 60.9625 13.0897 60.9438 21.4514C60.9252 29.8137 60.901 36.9415 60.871 42.835C60.841 48.728 60.8184 52.8097 60.8032 55.0799C60.7885 57.3502 60.7762 59.0384 60.7667 60.1447C60.7575 61.2513 60.7458 62.3871 60.7315 63.552C60.7176 64.7173 60.7039 66.2008 60.6905 68.0024C60.6774 69.804 60.6661 71.2102 60.6566 72.2209C60.6466 73.2316 60.6403 74.3367 60.6377 75.5363C60.6346 76.7364 60.6065 79.7022 60.553 84.4339" fill="#FFBC00"/>
<path d="M61 1.62109C60.9891 2.20397 60.9816 3.56433 60.9777 5.70211C60.9738 7.8399 60.9625 13.0897 60.9438 21.4514C60.9252 29.8137 60.901 36.9415 60.871 42.835C60.841 48.728 60.8184 52.8097 60.8032 55.0799C60.7885 57.3502 60.7762 59.0384 60.7667 60.1447C60.7575 61.2513 60.7458 62.3871 60.7315 63.552C60.7176 64.7173 60.7039 66.2008 60.6905 68.0024C60.6774 69.804 60.6661 71.2102 60.6566 72.2209C60.6466 73.2316 60.6403 74.3367 60.6377 75.5363C60.6346 76.7364 60.6065 79.7022 60.553 84.4339" stroke="#FFBC00" stroke-linecap="round" stroke-linejoin="round"/>
<path d="M30.3038 5.71875L30.3013 6.05953C30.3 6.18114 30.3021 6.95817 30.3078 8.3906C30.3134 9.8226 30.3188 11.04 30.324 12.0429C30.3292 13.0462 30.3345 14.0827 30.3398 15.1525C30.345 16.2222 30.3486 17.0016 30.3507 17.4907C30.3533 17.9793 30.3589 18.9529 30.3671 20.4114C30.3754 21.8694 30.3833 23.1218 30.3911 24.1686C30.399 25.2153 30.4059 26.0575 30.412 26.6951C30.4176 27.3323 30.4227 27.8719 30.4271 28.3141C30.4319 28.7558 30.4392 29.4712 30.4492 30.4602C30.4592 31.4487 30.4659 32.1892 30.4694 32.6817" fill="#FFBC00"/>
<path d="M30.3038 5.71875L30.3013 6.05953C30.3 6.18114 30.3021 6.95817 30.3078 8.3906C30.3134 9.8226 30.3188 11.04 30.324 12.0429C30.3292 13.0462 30.3345 14.0827 30.3398 15.1525C30.345 16.2222 30.3486 17.0016 30.3507 17.4907C30.3533 17.9793 30.3589 18.9529 30.3671 20.4114C30.3754 21.8694 30.3833 23.1218 30.3911 24.1686C30.399 25.2153 30.4059 26.0575 30.412 26.6951C30.4176 27.3323 30.4227 27.8719 30.4271 28.3141C30.4319 28.7558 30.4392 29.4712 30.4492 30.4602C30.4592 31.4487 30.4659 32.1892 30.4694 32.6817" stroke="#FFBC00" stroke-linecap="round" stroke-linejoin="round"/>
<path d="M30.5085 5.69141C30.7856 5.69227 31.4709 5.69425 32.5646 5.69729C33.6582 5.6999 34.7849 5.70615 35.9446 5.71614C37.1042 5.72613 38.1796 5.73702 39.1707 5.74875C40.1619 5.76047 40.855 5.7689 41.2502 5.77412C41.6459 5.77933 42.2193 5.78695 42.9703 5.79694C43.7208 5.8065 44.285 5.81364 44.6628 5.81841C45.0407 5.82363 45.394 5.82738 45.7228 5.82955C46.0516 5.83215 46.386 5.83405 46.7261 5.83535C47.0662 5.83709 47.2758 5.83907 47.3549 5.84124C47.4335 5.84341 47.9499 5.84906 48.9041 5.85818" fill="#FFBC00"/>
<path d="M30.5085 5.69141C30.7856 5.69227 31.4709 5.69425 32.5646 5.69729C33.6582 5.6999 34.7849 5.70615 35.9446 5.71614C37.1042 5.72613 38.1796 5.73702 39.1707 5.74875C40.1619 5.76047 40.855 5.7689 41.2502 5.77412C41.6459 5.77933 42.2193 5.78695 42.9703 5.79694C43.7208 5.8065 44.285 5.81364 44.6628 5.81841C45.0407 5.82363 45.394 5.82738 45.7228 5.82955C46.0516 5.83215 46.386 5.83405 46.7261 5.83535C47.0662 5.83709 47.2758 5.83907 47.3549 5.84124C47.4335 5.84341 47.9499 5.84906 48.9041 5.85818" stroke="#FFBC00" stroke-linecap="round" stroke-linejoin="round"/>
<path d="M49.4293 5.91992L49.4235 6.27764C49.4209 6.33845 49.4143 7.24814 49.4039 9.00675C49.3935 10.7649 49.3867 12.056 49.3837 12.8799C49.3802 13.7042 49.3772 14.3106 49.3746 14.6989C49.372 15.0872 49.3693 15.4221 49.3667 15.7036C49.3641 15.9846 49.3573 16.8525 49.3465 18.3076C49.3356 19.7621 49.3275 20.8704 49.3218 21.6322C49.3157 22.3936 49.3118 22.966 49.3101 23.3495C49.3079 23.733 49.3041 24.423 49.2989 25.4193C49.2941 26.4161 49.2905 27.2479 49.2879 27.9146C49.2858 28.5813 49.2812 29.4645 49.2743 30.5642C49.2673 31.6644 49.2626 32.4252 49.2599 32.8465" fill="#FFBC00"/>
<path d="M49.4293 5.91992L49.4235 6.27764C49.4209 6.33845 49.4143 7.24814 49.4039 9.00675C49.3935 10.7649 49.3867 12.056 49.3837 12.8799C49.3802 13.7042 49.3772 14.3106 49.3746 14.6989C49.372 15.0872 49.3693 15.4221 49.3667 15.7036C49.3641 15.9846 49.3573 16.8525 49.3465 18.3076C49.3356 19.7621 49.3275 20.8704 49.3218 21.6322C49.3157 22.3936 49.3118 22.966 49.3101 23.3495C49.3079 23.733 49.3041 24.423 49.2989 25.4193C49.2941 26.4161 49.2905 27.2479 49.2879 27.9146C49.2858 28.5813 49.2812 29.4645 49.2743 30.5642C49.2673 31.6644 49.2626 32.4252 49.2599 32.8465" stroke="#FFBC00" stroke-linecap="round" stroke-linejoin="round"/>
<path d="M30.7169 32.8047C32.6475 32.8208 33.9949 32.8323 34.7589 32.8392C35.5233 32.8466 36.0892 32.8525 36.4566 32.8569C36.8237 32.8612 37.4219 32.8644 38.2514 32.8666C39.0815 32.8692 39.8546 32.8744 40.5708 32.8822C41.2875 32.8905 42.0048 32.8952 42.7227 32.8965C43.4407 32.8978 43.8227 32.8989 43.8687 32.8998C43.9152 32.9007 43.9485 32.9018 43.9685 32.9031C43.9884 32.9048 44.1684 32.9083 44.5085 32.9135C44.8485 32.9187 45.218 32.9214 45.6168 32.9214C46.0155 32.9209 46.2396 32.9224 46.2891 32.9259C46.339 32.9294 46.5419 32.9324 46.8977 32.935C47.2538 32.9376 47.9697 32.9433 49.0456 32.952" fill="#FFBC00"/>
<path d="M30.7169 32.8047C32.6475 32.8208 33.9949 32.8323 34.7589 32.8392C35.5233 32.8466 36.0892 32.8525 36.4566 32.8569C36.8237 32.8612 37.4219 32.8644 38.2514 32.8666C39.0815 32.8692 39.8546 32.8744 40.5708 32.8822C41.2875 32.8905 42.0048 32.8952 42.7227 32.8965C43.4407 32.8978 43.8227 32.8989 43.8687 32.8998C43.9152 32.9007 43.9485 32.9018 43.9685 32.9031C43.9884 32.9048 44.1684 32.9083 44.5085 32.9135C44.8485 32.9187 45.218 32.9214 45.6168 32.9214C46.0155 32.9209 46.2396 32.9224 46.2891 32.9259C46.339 32.9294 46.5419 32.9324 46.8977 32.935C47.2538 32.9376 47.9697 32.9433 49.0456 32.952" stroke="#FFBC00" stroke-linecap="round" stroke-linejoin="round"/>
<path d="M11.0643 38.3281L11.0618 38.6715C11.0601 38.7935 11.062 39.5738 11.0677 41.0123C11.0733 42.4508 11.0787 43.6728 11.0839 44.6783C11.0887 45.6842 11.0938 46.7229 11.099 47.7944C11.1038 48.8659 11.1072 49.6462 11.1094 50.1353C11.112 50.6243 11.1173 51.5976 11.1256 53.0553C11.1338 54.5125 11.1419 55.7633 11.1498 56.8079C11.1571 57.8525 11.1639 58.6925 11.17 59.3279C11.1756 59.9629 11.1806 60.5006 11.1849 60.941C11.1893 61.3814 11.1964 62.0936 11.2064 63.0773C11.2164 64.0615 11.2231 64.7985 11.2266 65.2885" fill="#FFBC00"/>
<path d="M11.0643 38.3281L11.0618 38.6715C11.0601 38.7935 11.062 39.5738 11.0677 41.0123C11.0733 42.4508 11.0787 43.6728 11.0839 44.6783C11.0887 45.6842 11.0938 46.7229 11.099 47.7944C11.1038 48.8659 11.1072 49.6462 11.1094 50.1353C11.112 50.6243 11.1173 51.5976 11.1256 53.0553C11.1338 54.5125 11.1419 55.7633 11.1498 56.8079C11.1571 57.8525 11.1639 58.6925 11.17 59.3279C11.1756 59.9629 11.1806 60.5006 11.1849 60.941C11.1893 61.3814 11.1964 62.0936 11.2064 63.0773C11.2164 64.0615 11.2231 64.7985 11.2266 65.2885" stroke="#FFBC00" stroke-linecap="round" stroke-linejoin="round"/>
<path d="M11.1602 38.347C11.3131 38.3457 11.5219 38.3441 11.7869 38.3424C12.0518 38.3402 12.3716 38.338 12.7465 38.3359C13.1209 38.3337 13.4882 38.332 13.8483 38.3307C14.2083 38.329 14.5208 38.3279 14.7857 38.3274C15.0503 38.327 15.3269 38.3266 15.6157 38.3262C15.9045 38.3262 16.1934 38.3264 16.4823 38.3268C16.7706 38.3272 17.0594 38.3278 17.3486 38.3287C17.6375 38.3296 17.9268 38.3305 18.2165 38.3313C18.5062 38.3326 18.7966 38.3339 19.0876 38.3352C19.3786 38.337 19.6703 38.3385 19.9626 38.3399C20.2553 38.3416 20.5488 38.3433 20.8433 38.345C21.1373 38.3472 21.4328 38.3492 21.7294 38.3509C22.0256 38.3526 22.3226 38.3546 22.6206 38.3568C22.919 38.359 23.2148 38.3611 23.508 38.3632C23.8007 38.3654 24.0906 38.3674 24.3777 38.3691C24.6652 38.3713 24.95 38.3735 25.2318 38.3756C25.5133 38.3778 25.7923 38.38 26.069 38.3822C26.3452 38.3843 26.6188 38.3865 26.8899 38.3887C27.1605 38.3909 27.4287 38.393 27.6945 38.3952C27.9599 38.3974 28.2225 38.3994 28.4822 38.4011C28.7424 38.4033 28.9997 38.4054 29.2543 38.4076C29.5088 38.4098 29.7537 38.4119 29.9891 38.4141C30.2245 38.4162 30.5045 38.4187 30.8289 38.4213C31.1534 38.4243 31.4936 38.4273 31.8498 38.4304C32.2055 38.4334 32.5233 38.4361 32.803 38.4382C33.0823 38.4408 33.3234 38.4429 33.5267 38.4447C33.7295 38.4468 33.9552 38.449 34.2037 38.4512C34.4521 38.4534 34.7233 38.4558 35.0174 38.4584C35.3119 38.4615 35.6287 38.4645 35.9679 38.4675C36.3076 38.4705 36.67 38.4738 37.0552 38.4773C37.4401 38.4808 37.8013 38.484 38.1387 38.4871C38.4758 38.4901 38.7889 38.4929 39.0781 38.4955C39.3678 38.4985 39.6335 38.5012 39.875 38.5034C40.1165 38.5055 40.3822 38.5079 40.6724 38.5105C40.9629 38.5131 41.2894 38.5157 41.6517 38.5183C42.0135 38.5214 42.3628 38.5239 42.6999 38.5261C43.0369 38.5283 43.3765 38.5303 43.7188 38.532C44.0615 38.5337 44.407 38.5355 44.7554 38.5372C45.1037 38.539 45.3851 38.5407 45.5996 38.5424C45.8142 38.5437 45.9517 38.5448 46.0121 38.5457C46.0729 38.547 46.1793 38.5483 46.3313 38.5496C46.4838 38.5509 46.6922 38.5526 46.9567 38.5548C47.2212 38.557 47.5416 38.5596 47.9178 38.5626C48.2943 38.5657 48.7267 38.5689 49.2149 38.5724" fill="#FFBC00"/>
<path d="M11.1602 38.347C11.3131 38.3457 11.5219 38.3441 11.7869 38.3424C12.0518 38.3402 12.3716 38.338 12.7465 38.3359C13.1209 38.3337 13.4882 38.332 13.8483 38.3307C14.2083 38.329 14.5208 38.3279 14.7857 38.3274C15.0503 38.327 15.3269 38.3266 15.6157 38.3262C15.9045 38.3262 16.1934 38.3264 16.4823 38.3268C16.7706 38.3272 17.0594 38.3278 17.3486 38.3287C17.6375 38.3296 17.9268 38.3305 18.2165 38.3313C18.5062 38.3326 18.7966 38.3339 19.0876 38.3352C19.3786 38.337 19.6703 38.3385 19.9626 38.3399C20.2553 38.3416 20.5488 38.3433 20.8433 38.345C21.1373 38.3472 21.4328 38.3492 21.7294 38.3509C22.0256 38.3526 22.3226 38.3546 22.6206 38.3568C22.919 38.359 23.2148 38.3611 23.508 38.3632C23.8007 38.3654 24.0906 38.3674 24.3777 38.3691C24.6652 38.3713 24.95 38.3735 25.2318 38.3756C25.5133 38.3778 25.7923 38.38 26.069 38.3822C26.3452 38.3843 26.6188 38.3865 26.8899 38.3887C27.1605 38.3909 27.4287 38.393 27.6945 38.3952C27.9599 38.3974 28.2225 38.3994 28.4822 38.4011C28.7424 38.4033 28.9997 38.4054 29.2543 38.4076C29.5088 38.4098 29.7537 38.4119 29.9891 38.4141C30.2245 38.4162 30.5045 38.4187 30.8289 38.4213C31.1534 38.4243 31.4936 38.4273 31.8498 38.4304C32.2055 38.4334 32.5233 38.4361 32.803 38.4382C33.0823 38.4408 33.3234 38.4429 33.5267 38.4447C33.7295 38.4468 33.9552 38.449 34.2037 38.4512C34.4521 38.4534 34.7233 38.4558 35.0174 38.4584C35.3119 38.4615 35.6287 38.4645 35.9679 38.4675C36.3076 38.4705 36.67 38.4738 37.0552 38.4773C37.4401 38.4808 37.8013 38.484 38.1387 38.4871C38.4758 38.4901 38.7889 38.4929 39.0781 38.4955C39.3678 38.4985 39.6335 38.5012 39.875 38.5034C40.1165 38.5055 40.3822 38.5079 40.6724 38.5105C40.9629 38.5131 41.2894 38.5157 41.6517 38.5183C42.0135 38.5214 42.3628 38.5239 42.6999 38.5261C43.0369 38.5283 43.3765 38.5303 43.7188 38.532C44.0615 38.5337 44.407 38.5355 44.7554 38.5372C45.1037 38.539 45.3851 38.5407 45.5996 38.5424C45.8142 38.5437 45.9517 38.5448 46.0121 38.5457C46.0729 38.547 46.1793 38.5483 46.3313 38.5496C46.4838 38.5509 46.6922 38.5526 46.9567 38.5548C47.2212 38.557 47.5416 38.5596 47.9178 38.5626C48.2943 38.5657 48.7267 38.5689 49.2149 38.5724" stroke="#FFBC00" stroke-linecap="round" stroke-linejoin="round"/>
<path d="M30.5878 36.334C30.5869 36.3679 30.5901 37.4676 30.597 39.6332C30.604 41.7987 30.6102 43.3882 30.6158 44.4015C30.6215 45.4148 30.6248 46.1601 30.6257 46.6374C30.6265 47.1147 30.6269 47.5261 30.6269 47.8714C30.6269 48.2167 30.6285 49.2819 30.6316 51.067C30.6346 52.8521 30.6368 54.2111 30.6381 55.144C30.6398 56.0774 30.6414 56.7789 30.6432 57.2484C30.6449 57.7179 30.6485 58.5623 30.6537 59.7815C30.6584 61.0011 30.6632 62.0182 30.668 62.8331C30.6728 63.6479 30.6781 65.1646 30.6842 67.3831" fill="#FFBC00"/>
<path d="M30.5878 36.334C30.5869 36.3679 30.5901 37.4676 30.597 39.6332C30.604 41.7987 30.6102 43.3882 30.6158 44.4015C30.6215 45.4148 30.6248 46.1601 30.6257 46.6374C30.6265 47.1147 30.6269 47.5261 30.6269 47.8714C30.6269 48.2167 30.6285 49.2819 30.6316 51.067C30.6346 52.8521 30.6368 54.2111 30.6381 55.144C30.6398 56.0774 30.6414 56.7789 30.6432 57.2484C30.6449 57.7179 30.6485 58.5623 30.6537 59.7815C30.6584 61.0011 30.6632 62.0182 30.668 62.8331C30.6728 63.6479 30.6781 65.1646 30.6842 67.3831" stroke="#FFBC00" stroke-linecap="round" stroke-linejoin="round"/>
<path d="M11.4188 65.4258C11.9683 65.4262 12.4939 65.4265 12.996 65.4265C13.4981 65.4269 13.9741 65.4273 14.4241 65.4278C14.874 65.4286 15.2992 65.4295 15.6997 65.4304C16.1002 65.4313 16.4778 65.4324 16.8327 65.4337C17.1875 65.4345 17.5214 65.4356 17.8341 65.4369C18.1468 65.4378 18.4397 65.4389 18.7129 65.4402C18.9856 65.441 19.2394 65.4421 19.474 65.4434C19.7081 65.4443 19.9722 65.4454 20.2667 65.4467C20.5608 65.448 20.8784 65.4495 21.2193 65.4512C21.5603 65.453 21.8755 65.4545 22.1652 65.4558C22.4549 65.4571 22.7192 65.4584 22.9581 65.4597C23.1966 65.461 23.4098 65.4623 23.5979 65.4636C23.7855 65.4645 24.0029 65.4653 24.25 65.4662C24.4967 65.4675 24.7729 65.4686 25.0787 65.4694C25.3849 65.4703 25.7205 65.471 26.0854 65.4714C26.4502 65.4723 26.8447 65.4729 27.2691 65.4733C27.693 65.4742 28.1097 65.4751 28.5193 65.476C28.9288 65.4768 29.3311 65.4779 29.7259 65.4792C30.1207 65.4805 30.5084 65.482 30.8889 65.4838C31.2694 65.4855 31.6425 65.4875 32.0082 65.4896C32.3739 65.4918 32.7397 65.4936 33.1058 65.4949C33.4716 65.4966 33.8375 65.4981 34.2037 65.4994C34.5698 65.5007 34.936 65.5018 35.3021 65.5027C35.6683 65.5031 36.0346 65.5035 36.4012 65.504C36.7673 65.5044 37.0907 65.5049 37.3713 65.5053C37.6519 65.5057 37.9386 65.5059 38.2313 65.5059C38.5236 65.5064 38.7051 65.5071 38.7759 65.5079C38.8463 65.5084 38.8966 65.5092 38.927 65.5105C38.9574 65.5113 39.0644 65.5127 39.2482 65.5145C39.4319 65.5162 39.6972 65.5183 40.0438 65.5209C40.3904 65.5235 40.7518 65.5255 41.1284 65.5268C41.505 65.5281 41.8963 65.5288 42.3024 65.5288C42.7085 65.5288 43.0259 65.5292 43.2544 65.53C43.4828 65.5305 43.6223 65.5316 43.6732 65.5333C43.7235 65.535 43.8521 65.5368 44.0589 65.5386C44.2656 65.5399 44.505 65.5409 44.7769 65.5418C45.0487 65.5431 45.3214 65.5442 45.5946 65.5451C45.8673 65.5464 46.1858 65.5477 46.5502 65.549C46.915 65.5503 47.3256 65.5518 47.7816 65.5535C48.2377 65.5557 48.7396 65.5579 49.2872 65.56" fill="#FFBC00"/>
<path d="M11.4188 65.4258C11.9683 65.4262 12.4939 65.4265 12.996 65.4265C13.4981 65.4269 13.9741 65.4273 14.4241 65.4278C14.874 65.4286 15.2992 65.4295 15.6997 65.4304C16.1002 65.4313 16.4778 65.4324 16.8327 65.4337C17.1875 65.4345 17.5214 65.4356 17.8341 65.4369C18.1468 65.4378 18.4397 65.4389 18.7129 65.4402C18.9856 65.441 19.2394 65.4421 19.474 65.4434C19.7081 65.4443 19.9722 65.4454 20.2667 65.4467C20.5608 65.448 20.8784 65.4495 21.2193 65.4512C21.5603 65.453 21.8755 65.4545 22.1652 65.4558C22.4549 65.4571 22.7192 65.4584 22.9581 65.4597C23.1966 65.461 23.4098 65.4623 23.5979 65.4636C23.7855 65.4645 24.0029 65.4653 24.25 65.4662C24.4967 65.4675 24.7729 65.4686 25.0787 65.4694C25.3849 65.4703 25.7205 65.471 26.0854 65.4714C26.4502 65.4723 26.8447 65.4729 27.2691 65.4733C27.693 65.4742 28.1097 65.4751 28.5193 65.476C28.9288 65.4768 29.3311 65.4779 29.7259 65.4792C30.1207 65.4805 30.5084 65.482 30.8889 65.4838C31.2694 65.4855 31.6425 65.4875 32.0082 65.4896C32.3739 65.4918 32.7397 65.4936 33.1058 65.4949C33.4716 65.4966 33.8375 65.4981 34.2037 65.4994C34.5698 65.5007 34.936 65.5018 35.3021 65.5027C35.6683 65.5031 36.0346 65.5035 36.4012 65.504C36.7673 65.5044 37.0907 65.5049 37.3713 65.5053C37.6519 65.5057 37.9386 65.5059 38.2313 65.5059C38.5236 65.5064 38.7051 65.5071 38.7759 65.5079C38.8463 65.5084 38.8966 65.5092 38.927 65.5105C38.9574 65.5113 39.0644 65.5127 39.2482 65.5145C39.4319 65.5162 39.6972 65.5183 40.0438 65.5209C40.3904 65.5235 40.7518 65.5255 41.1284 65.5268C41.505 65.5281 41.8963 65.5288 42.3024 65.5288C42.7085 65.5288 43.0259 65.5292 43.2544 65.53C43.4828 65.5305 43.6223 65.5316 43.6732 65.5333C43.7235 65.535 43.8521 65.5368 44.0589 65.5386C44.2656 65.5399 44.505 65.5409 44.7769 65.5418C45.0487 65.5431 45.3214 65.5442 45.5946 65.5451C45.8673 65.5464 46.1858 65.5477 46.5502 65.549C46.915 65.5503 47.3256 65.5518 47.7816 65.5535C48.2377 65.5557 48.7396 65.5579 49.2872 65.56" stroke="#FFBC00" stroke-linecap="round" stroke-linejoin="round"/>
<path d="M49.611 38.6133L49.6116 38.956C49.6125 39.0776 49.6065 39.8559 49.5935 41.2909C49.58 42.726 49.5678 43.9452 49.5569 44.9485C49.5465 45.9518 49.5362 46.9879 49.5257 48.0568C49.5149 49.1257 49.507 49.9042 49.5022 50.3924C49.497 50.8801 49.4865 51.8509 49.4704 53.3046C49.4543 54.7588 49.4395 56.0068 49.426 57.0488C49.413 58.0907 49.4019 58.9286 49.3928 59.5623C49.3836 60.196 49.3757 60.7326 49.3687 61.1721C49.3622 61.6112 49.3513 62.3216 49.3361 63.3031C49.3205 64.2847 49.3098 65.0199 49.3042 65.5085" fill="#FFBC00"/>
<path d="M49.611 38.6133L49.6116 38.956C49.6125 39.0776 49.6065 39.8559 49.5935 41.2909C49.58 42.726 49.5678 43.9452 49.5569 44.9485C49.5465 45.9518 49.5362 46.9879 49.5257 48.0568C49.5149 49.1257 49.507 49.9042 49.5022 50.3924C49.497 50.8801 49.4865 51.8509 49.4704 53.3046C49.4543 54.7588 49.4395 56.0068 49.426 57.0488C49.413 58.0907 49.4019 58.9286 49.3928 59.5623C49.3836 60.196 49.3757 60.7326 49.3687 61.1721C49.3622 61.6112 49.3513 62.3216 49.3361 63.3031C49.3205 64.2847 49.3098 65.0199 49.3042 65.5085" stroke="#FFBC00" stroke-linecap="round" stroke-linejoin="round"/>
<path d="M10.7733 73.2402L10.7706 73.5836C10.7693 73.7056 10.7713 74.4859 10.7765 75.9244C10.7826 77.3625 10.788 78.5845 10.7927 79.5904C10.7979 80.5963 10.8039 81.7992 10.8104 83.1991" fill="#FFBC00"/>
<path d="M10.7733 73.2402L10.7706 73.5836C10.7693 73.7056 10.7713 74.4859 10.7765 75.9244C10.7826 77.3625 10.788 78.5845 10.7927 79.5904C10.7979 80.5963 10.8039 81.7992 10.8104 83.1991" stroke="#FFBC00" stroke-linecap="round" stroke-linejoin="round"/>
<path d="M11.1348 73.2129C11.7059 73.2155 13.1181 73.2213 15.3714 73.2305C17.6247 73.2396 19.9442 73.2524 22.33 73.2689C24.7158 73.2854 26.9271 73.3023 28.9637 73.3197C30.9998 73.3371 32.4237 73.3495 33.2355 73.3568C34.0477 73.3642 35.2239 73.3751 36.764 73.3894C38.3046 73.4033 39.4622 73.414 40.2366 73.4213C41.011 73.4283 41.735 73.4337 42.4087 73.4376C43.0827 73.442 43.7679 73.4459 44.4642 73.4494C45.1608 73.4529 45.59 73.4559 45.7516 73.4585C45.9131 73.4611 46.9707 73.4698 48.9243 73.4846" fill="#FFBC00"/>
<path d="M11.1348 73.2129C11.7059 73.2155 13.1181 73.2213 15.3714 73.2305C17.6247 73.2396 19.9442 73.2524 22.33 73.2689C24.7158 73.2854 26.9271 73.3023 28.9637 73.3197C30.9998 73.3371 32.4237 73.3495 33.2355 73.3568C34.0477 73.3642 35.2239 73.3751 36.764 73.3894C38.3046 73.4033 39.4622 73.414 40.2366 73.4213C41.011 73.4283 41.735 73.4337 42.4087 73.4376C43.0827 73.442 43.7679 73.4459 44.4642 73.4494C45.1608 73.4529 45.59 73.4559 45.7516 73.4585C45.9131 73.4611 46.9707 73.4698 48.9243 73.4846" stroke="#FFBC00" stroke-linecap="round" stroke-linejoin="round"/>
<path d="M30.0537 71.8398C30.0254 76.0255 30.0088 78.6248 30.0041 79.6376C29.9993 80.6501 29.9951 81.3949 29.9916 81.8722C29.9877 82.3491 29.9841 82.7603 29.9807 83.1056C29.9772 83.4504 29.975 83.6528 29.9742 83.7128" fill="#FFBC00"/>
<path d="M30.0537 71.8398C30.0254 76.0255 30.0088 78.6248 30.0041 79.6376C29.9993 80.6501 29.9951 81.3949 29.9916 81.8722C29.9877 82.3491 29.9841 82.7603 29.9807 83.1056C29.9772 83.4504 29.975 83.6528 29.9742 83.7128" stroke="#FFBC00" stroke-linecap="round" stroke-linejoin="round"/>
<path d="M49.3197 73.5254L49.3211 73.8681C49.322 73.9897 49.3157 74.768 49.3022 76.203C49.2887 77.6381 49.2768 78.8573 49.2664 79.8606C49.2556 80.8639 49.2423 82.1634 49.2267 83.7592" fill="#FFBC00"/>
<path d="M49.3197 73.5254L49.3211 73.8681C49.322 73.9897 49.3157 74.768 49.3022 76.203C49.2887 77.6381 49.2768 78.8573 49.2664 79.8606C49.2556 80.8639 49.2423 82.1634 49.2267 83.7592" stroke="#FFBC00" stroke-linecap="round" stroke-linejoin="round"/>
<path d="M32.9802 22.6406C32.9811 22.721 32.9819 22.8459 32.9828 23.0153C32.9841 23.1842 32.9854 23.3426 32.9867 23.4902C32.988 23.6379 32.9893 23.8025 32.9906 23.984C32.9923 24.1656 32.9941 24.3404 32.9958 24.5085C32.9975 24.6762 32.9993 24.8375 33.0011 24.9925C33.0028 25.1472 33.0048 25.2957 33.0069 25.4382C33.0087 25.5807 33.0107 25.7496 33.0128 25.945C33.0154 26.1405 33.0186 26.3705 33.0225 26.635C33.0264 26.9 33.0308 27.1668 33.0356 27.4357C33.0399 27.7049 33.0437 27.9267 33.0467 28.1009C33.0498 28.2755 33.0521 28.4225 33.0539 28.542C33.056 28.6614 33.059 28.8078 33.0629 28.9811C33.0664 29.1548 33.069 29.2545 33.0707 29.2801C33.0725 29.3053 33.0788 29.5461 33.0897 30.0026" fill="#FFBC00"/>
<path d="M32.9802 22.6406C32.9811 22.721 32.9819 22.8459 32.9828 23.0153C32.9841 23.1842 32.9854 23.3426 32.9867 23.4902C32.988 23.6379 32.9893 23.8025 32.9906 23.984C32.9923 24.1656 32.9941 24.3404 32.9958 24.5085C32.9975 24.6762 32.9993 24.8375 33.0011 24.9925C33.0028 25.1472 33.0048 25.2957 33.0069 25.4382C33.0087 25.5807 33.0107 25.7496 33.0128 25.945C33.0154 26.1405 33.0186 26.3705 33.0225 26.635C33.0264 26.9 33.0308 27.1668 33.0356 27.4357C33.0399 27.7049 33.0437 27.9267 33.0467 28.1009C33.0498 28.2755 33.0521 28.4225 33.0539 28.542C33.056 28.6614 33.059 28.8078 33.0629 28.9811C33.0664 29.1548 33.069 29.2545 33.0707 29.2801C33.0725 29.3053 33.0788 29.5461 33.0897 30.0026" stroke="#FFBC00" stroke-linecap="round" stroke-linejoin="round"/>
<path d="M33.1195 22.6141C33.2776 22.6102 33.3615 22.608 33.371 22.6076C33.381 22.6072 33.4438 22.6068 33.5593 22.6063C33.6753 22.6059 33.7902 22.6054 33.904 22.605C34.0178 22.6045 34.1502 22.6041 34.3013 22.6037C34.4525 22.6033 34.5963 22.6028 34.7327 22.6023C34.8691 22.6019 35.0288 22.6015 35.2116 22.6011C35.3945 22.6006 35.5786 22.6002 35.764 22.5998C35.9499 22.5998 36.1328 22.5995 36.3126 22.5991C36.492 22.5987 36.6685 22.598 36.8423 22.5972C37.0156 22.5963 37.1719 22.5954 37.3113 22.5946C37.4503 22.5941 37.5982 22.5939 37.755 22.5939C37.9117 22.5935 38.0792 22.5939 38.2573 22.5952C38.4358 22.5965 38.6059 22.5974 38.7675 22.5978C38.9295 22.5982 39.1128 22.5987 39.3174 22.5991C39.5224 22.5995 39.7392 22.6004 39.9681 22.6017C40.197 22.6026 40.4381 22.6042 40.6913 22.6063C40.9445 22.6081 41.1643 22.6098 41.3506 22.6115C41.5369 22.6137 41.7198 22.616 41.8992 22.6187C42.0781 22.6213 42.2723 22.6239 42.4817 22.6265C42.691 22.6287 42.8844 22.6306 43.0621 22.6323C43.2393 22.6336 43.4241 22.6365 43.6165 22.6408C43.8089 22.6456 44.0089 22.6504 44.2165 22.6552C44.4241 22.6599 44.6177 22.6647 44.7971 22.6695C44.9764 22.6742 45.1578 22.679 45.341 22.6838C45.5239 22.689 45.6406 22.6929 45.691 22.6956C45.7414 22.6982 46.0473 22.7064 46.6089 22.7203" fill="#FFBC00"/>
<path d="M33.1195 22.6141C33.2776 22.6102 33.3615 22.608 33.371 22.6076C33.381 22.6072 33.4438 22.6068 33.5593 22.6063C33.6753 22.6059 33.7902 22.6054 33.904 22.605C34.0178 22.6045 34.1502 22.6041 34.3013 22.6037C34.4525 22.6033 34.5963 22.6028 34.7327 22.6023C34.8691 22.6019 35.0288 22.6015 35.2116 22.6011C35.3945 22.6006 35.5786 22.6002 35.764 22.5998C35.9499 22.5998 36.1328 22.5995 36.3126 22.5991C36.492 22.5987 36.6685 22.598 36.8423 22.5972C37.0156 22.5963 37.1719 22.5954 37.3113 22.5946C37.4503 22.5941 37.5982 22.5939 37.755 22.5939C37.9117 22.5935 38.0792 22.5939 38.2573 22.5952C38.4358 22.5965 38.6059 22.5974 38.7675 22.5978C38.9295 22.5982 39.1128 22.5987 39.3174 22.5991C39.5224 22.5995 39.7392 22.6004 39.9681 22.6017C40.197 22.6026 40.4381 22.6042 40.6913 22.6063C40.9445 22.6081 41.1643 22.6098 41.3506 22.6115C41.5369 22.6137 41.7198 22.616 41.8992 22.6187C42.0781 22.6213 42.2723 22.6239 42.4817 22.6265C42.691 22.6287 42.8844 22.6306 43.0621 22.6323C43.2393 22.6336 43.4241 22.6365 43.6165 22.6408C43.8089 22.6456 44.0089 22.6504 44.2165 22.6552C44.4241 22.6599 44.6177 22.6647 44.7971 22.6695C44.9764 22.6742 45.1578 22.679 45.341 22.6838C45.5239 22.689 45.6406 22.6929 45.691 22.6956C45.7414 22.6982 46.0473 22.7064 46.6089 22.7203" stroke="#FFBC00" stroke-linecap="round" stroke-linejoin="round"/>
<path d="M33.0629 30.1934C33.1354 30.1942 33.245 30.1964 33.3918 30.1999C33.5386 30.2029 33.7227 30.2073 33.9438 30.2129C34.1644 30.2181 34.3685 30.2227 34.5561 30.2266C34.7433 30.2301 34.9027 30.2329 35.0343 30.2351C35.1659 30.2373 35.301 30.2395 35.4395 30.2416C35.5781 30.2434 35.7063 30.2449 35.824 30.2462C35.9417 30.2479 36.0735 30.2494 36.2194 30.2507C36.3653 30.2524 36.5234 30.254 36.6937 30.2553C36.8644 30.2566 37.052 30.2588 37.2566 30.2618C37.4612 30.2649 37.6401 30.2673 37.7934 30.269C37.9467 30.2707 38.1009 30.2718 38.256 30.2723C38.411 30.2731 38.5923 30.2735 38.7999 30.2735C39.0076 30.2731 39.1889 30.2733 39.3439 30.2742C39.499 30.275 39.6537 30.277 39.8079 30.28C39.9616 30.2827 40.0986 30.2848 40.2189 30.2866C40.3392 30.2887 40.4678 30.29 40.6046 30.2905C40.7414 30.2913 40.9067 30.292 41.1004 30.2925C41.2941 30.2929 41.4667 30.2933 41.6178 30.2937C41.769 30.2942 41.9261 30.2948 42.0894 30.2957C42.2523 30.2966 42.4304 30.2981 42.6237 30.3002C42.8174 30.302 42.9234 30.3031 42.9416 30.3035C42.9599 30.3039 43.0483 30.3045 43.2068 30.3054C43.3653 30.3063 43.5544 30.3074 43.7742 30.3087C43.9944 30.31 44.2117 30.3116 44.4263 30.3133C44.6408 30.3146 44.8136 30.3161 44.9443 30.3178C45.0751 30.3196 45.2041 30.3213 45.3313 30.3231C45.4586 30.3248 45.6058 30.3267 45.773 30.3289C45.9407 30.3315 46.0978 30.3337 46.2446 30.3354C46.3919 30.3367 46.5292 30.3378 46.6564 30.3387" fill="#FFBC00"/>
<path d="M33.0629 30.1934C33.1354 30.1942 33.245 30.1964 33.3918 30.1999C33.5386 30.2029 33.7227 30.2073 33.9438 30.2129C34.1644 30.2181 34.3685 30.2227 34.5561 30.2266C34.7433 30.2301 34.9027 30.2329 35.0343 30.2351C35.1659 30.2373 35.301 30.2395 35.4395 30.2416C35.5781 30.2434 35.7063 30.2449 35.824 30.2462C35.9417 30.2479 36.0735 30.2494 36.2194 30.2507C36.3653 30.2524 36.5234 30.254 36.6937 30.2553C36.8644 30.2566 37.052 30.2588 37.2566 30.2618C37.4612 30.2649 37.6401 30.2673 37.7934 30.269C37.9467 30.2707 38.1009 30.2718 38.256 30.2723C38.411 30.2731 38.5923 30.2735 38.7999 30.2735C39.0076 30.2731 39.1889 30.2733 39.3439 30.2742C39.499 30.275 39.6537 30.277 39.8079 30.28C39.9616 30.2827 40.0986 30.2848 40.2189 30.2866C40.3392 30.2887 40.4678 30.29 40.6046 30.2905C40.7414 30.2913 40.9067 30.292 41.1004 30.2925C41.2941 30.2929 41.4667 30.2933 41.6178 30.2937C41.769 30.2942 41.9261 30.2948 42.0894 30.2957C42.2523 30.2966 42.4304 30.2981 42.6237 30.3002C42.8174 30.302 42.9234 30.3031 42.9416 30.3035C42.9599 30.3039 43.0483 30.3045 43.2068 30.3054C43.3653 30.3063 43.5544 30.3074 43.7742 30.3087C43.9944 30.31 44.2117 30.3116 44.4263 30.3133C44.6408 30.3146 44.8136 30.3161 44.9443 30.3178C45.0751 30.3196 45.2041 30.3213 45.3313 30.3231C45.4586 30.3248 45.6058 30.3267 45.773 30.3289C45.9407 30.3315 46.0978 30.3337 46.2446 30.3354C46.3919 30.3367 46.5292 30.3378 46.6564 30.3387" stroke="#FFBC00" stroke-linecap="round" stroke-linejoin="round"/>
<path d="M46.6304 30.1263C46.6287 29.9769 46.6285 29.8275 46.6298 29.6781C46.6311 29.5287 46.6319 29.3818 46.6323 29.2376C46.6328 29.093 46.6331 28.961 46.6331 28.8415C46.6331 28.7221 46.6331 28.5909 46.6331 28.448C46.6331 28.3051 46.6331 28.1616 46.6331 28.0174C46.6327 27.8732 46.6321 27.7285 46.6317 27.5834C46.6313 27.4379 46.6309 27.2916 46.6304 27.1444C46.6296 26.9971 46.6288 26.8486 46.6279 26.6988C46.627 26.5494 46.6263 26.4168 46.6258 26.3013C46.625 26.1857 46.6244 26.0676 46.6239 25.9469C46.623 25.8262 46.6226 25.7584 46.6226 25.7436C46.6226 25.7293 46.6224 25.6628 46.622 25.5442C46.622 25.4252 46.6218 25.3069 46.6214 25.1892C46.6209 25.0711 46.6205 24.9327 46.6201 24.7742C46.6192 24.6161 46.6187 24.4693 46.6187 24.3338C46.6182 24.1983 46.6178 24.0475 46.6174 23.8816C46.617 23.7161 46.6168 23.5503 46.6168 23.3839C46.6168 23.2176 46.6168 23.0121 46.6168 22.7676" fill="#FFBC00"/>
<path d="M46.6304 30.1263C46.6287 29.9769 46.6285 29.8275 46.6298 29.6781C46.6311 29.5287 46.6319 29.3818 46.6323 29.2376C46.6328 29.093 46.6331 28.961 46.6331 28.8415C46.6331 28.7221 46.6331 28.5909 46.6331 28.448C46.6331 28.3051 46.6331 28.1616 46.6331 28.0174C46.6327 27.8732 46.6321 27.7285 46.6317 27.5834C46.6313 27.4379 46.6309 27.2916 46.6304 27.1444C46.6296 26.9971 46.6288 26.8486 46.6279 26.6988C46.627 26.5494 46.6263 26.4168 46.6258 26.3013C46.625 26.1857 46.6244 26.0676 46.6239 25.9469C46.623 25.8262 46.6226 25.7584 46.6226 25.7436C46.6226 25.7293 46.6224 25.6628 46.622 25.5442C46.622 25.4252 46.6218 25.3069 46.6214 25.1892C46.6209 25.0711 46.6205 24.9327 46.6201 24.7742C46.6192 24.6161 46.6187 24.4693 46.6187 24.3338C46.6182 24.1983 46.6178 24.0475 46.6174 23.8816C46.617 23.7161 46.6168 23.5503 46.6168 23.3839C46.6168 23.2176 46.6168 23.0121 46.6168 22.7676" stroke="#FFBC00" stroke-linecap="round" stroke-linejoin="round"/>
<path d="M33.3697 10.7422C33.55 10.7435 33.7222 10.7448 33.8863 10.7461C34.0501 10.7474 34.206 10.7485 34.3541 10.7493C34.5018 10.7506 34.6417 10.7517 34.7737 10.7526C34.9058 10.7535 35.0587 10.7544 35.2324 10.7552C35.4057 10.7565 35.576 10.7576 35.7432 10.7585C35.9104 10.7598 36.0713 10.7606 36.2259 10.761C36.3801 10.7619 36.5547 10.763 36.7497 10.7643C36.9451 10.7652 37.1352 10.7663 37.3198 10.7676C37.5043 10.7689 37.6666 10.7699 37.8065 10.7708C37.9468 10.7721 38.0649 10.7732 38.1609 10.7741C38.2564 10.7754 38.3791 10.7765 38.5289 10.7773C38.6783 10.7782 38.8158 10.7789 38.9413 10.7793C39.0669 10.7802 39.2052 10.7808 39.3563 10.7812C39.5079 10.7817 39.6613 10.7824 39.8163 10.7832C39.9714 10.7837 40.1281 10.7841 40.2867 10.7845C40.4456 10.7849 40.6061 10.7854 40.7681 10.7858C40.9306 10.7863 41.0948 10.7865 41.2607 10.7865C41.4266 10.7869 41.5949 10.7873 41.7656 10.7878C41.9358 10.7878 42.1086 10.788 42.2836 10.7885C42.4587 10.7885 42.6358 10.7885 42.8152 10.7885C42.9946 10.7889 43.1761 10.7891 43.3598 10.7891C43.5435 10.7891 43.7056 10.7891 43.8459 10.7891C43.9866 10.7891 44.1303 10.7893 44.2771 10.7897C44.4239 10.7897 44.5107 10.7895 44.5372 10.7891C44.5636 10.7891 44.6259 10.7891 44.724 10.7891C44.8222 10.7895 44.956 10.7901 45.1253 10.791C45.2943 10.7923 45.426 10.7932 45.5203 10.7936C45.6145 10.7941 45.6716 10.7943 45.6916 10.7943C45.7116 10.7943 45.7976 10.7945 45.9496 10.7949C46.1012 10.7953 46.3183 10.7962 46.6011 10.7975" fill="#FFBC00"/>
<path d="M33.3697 10.7422C33.55 10.7435 33.7222 10.7448 33.8863 10.7461C34.0501 10.7474 34.206 10.7485 34.3541 10.7493C34.5018 10.7506 34.6417 10.7517 34.7737 10.7526C34.9058 10.7535 35.0587 10.7544 35.2324 10.7552C35.4057 10.7565 35.576 10.7576 35.7432 10.7585C35.9104 10.7598 36.0713 10.7606 36.2259 10.761C36.3801 10.7619 36.5547 10.763 36.7497 10.7643C36.9451 10.7652 37.1352 10.7663 37.3198 10.7676C37.5043 10.7689 37.6666 10.7699 37.8065 10.7708C37.9468 10.7721 38.0649 10.7732 38.1609 10.7741C38.2564 10.7754 38.3791 10.7765 38.5289 10.7773C38.6783 10.7782 38.8158 10.7789 38.9413 10.7793C39.0669 10.7802 39.2052 10.7808 39.3563 10.7812C39.5079 10.7817 39.6613 10.7824 39.8163 10.7832C39.9714 10.7837 40.1281 10.7841 40.2867 10.7845C40.4456 10.7849 40.6061 10.7854 40.7681 10.7858C40.9306 10.7863 41.0948 10.7865 41.2607 10.7865C41.4266 10.7869 41.5949 10.7873 41.7656 10.7878C41.9358 10.7878 42.1086 10.788 42.2836 10.7885C42.4587 10.7885 42.6358 10.7885 42.8152 10.7885C42.9946 10.7889 43.1761 10.7891 43.3598 10.7891C43.5435 10.7891 43.7056 10.7891 43.8459 10.7891C43.9866 10.7891 44.1303 10.7893 44.2771 10.7897C44.4239 10.7897 44.5107 10.7895 44.5372 10.7891C44.5636 10.7891 44.6259 10.7891 44.724 10.7891C44.8222 10.7895 44.956 10.7901 45.1253 10.791C45.2943 10.7923 45.426 10.7932 45.5203 10.7936C45.6145 10.7941 45.6716 10.7943 45.6916 10.7943C45.7116 10.7943 45.7976 10.7945 45.9496 10.7949C46.1012 10.7953 46.3183 10.7962 46.6011 10.7975" stroke="#FFBC00" stroke-linecap="round" stroke-linejoin="round"/>
<path d="M46.6316 10.7378C46.6347 10.6109 46.6349 10.4791 46.6323 10.3423C46.6297 10.2055 46.6271 10.0074 46.6245 9.74811C46.6219 9.48881 46.6197 9.14245 46.618 8.70898" fill="#FFBC00"/>
<path d="M46.6316 10.7378C46.6347 10.6109 46.6349 10.4791 46.6323 10.3423C46.6297 10.2055 46.6271 10.0074 46.6245 9.74811C46.6219 9.48881 46.6197 9.14245 46.618 8.70898" stroke="#FFBC00" stroke-linecap="round" stroke-linejoin="round"/>
<path d="M46.6322 8.60129L46.401 8.59413C46.3623 8.59283 46.2735 8.59085 46.1346 8.58825C45.996 8.58564 45.8088 8.58266 45.5729 8.57918C45.3375 8.57527 45.0928 8.57221 44.8387 8.57003C44.5846 8.56743 44.3223 8.56525 44.0517 8.56351C43.7811 8.56221 43.5491 8.56112 43.3553 8.56025C43.1616 8.55982 43.0039 8.55913 42.8823 8.55826C42.7607 8.55696 42.6248 8.55595 42.4745 8.55508C42.3242 8.55421 42.1593 8.55353 41.98 8.5531C41.8002 8.55223 41.6399 8.55154 41.4991 8.55111C41.3584 8.55067 41.2368 8.55067 41.1343 8.55111C41.0318 8.55111 40.9022 8.55139 40.7454 8.55182C40.5886 8.55182 40.4049 8.55202 40.1942 8.55246C39.9831 8.55289 39.7753 8.5533 39.5707 8.55373C39.3662 8.5546 39.165 8.55529 38.9674 8.55572C38.7694 8.55659 38.5974 8.55719 38.4514 8.55763C38.3051 8.55806 38.1612 8.55855 38.0201 8.55898C37.8785 8.55941 37.7887 8.56022 37.7505 8.56153C37.7122 8.56239 37.6071 8.56288 37.4351 8.56288C37.2635 8.56244 37.0961 8.56156 36.9328 8.56025C36.7699 8.55938 36.6726 8.55898 36.6409 8.55898C36.6092 8.55941 36.4895 8.5605 36.2819 8.56224C36.0747 8.56398 35.8823 8.56527 35.7047 8.56614C35.5275 8.56701 35.4161 8.56761 35.3705 8.56805C35.3245 8.56848 35.2111 8.57005 35.0304 8.57266C34.8497 8.57527 34.5418 8.57894 34.1066 8.58371L33.3573 8.58499" fill="#FFBC00"/>
<path d="M46.6322 8.60129L46.401 8.59413C46.3623 8.59283 46.2735 8.59085 46.1346 8.58825C45.996 8.58564 45.8088 8.58266 45.5729 8.57918C45.3375 8.57527 45.0928 8.57221 44.8387 8.57003C44.5846 8.56743 44.3223 8.56525 44.0517 8.56351C43.7811 8.56221 43.5491 8.56112 43.3553 8.56025C43.1616 8.55982 43.0039 8.55913 42.8823 8.55826C42.7607 8.55696 42.6248 8.55595 42.4745 8.55508C42.3242 8.55421 42.1593 8.55353 41.98 8.5531C41.8002 8.55223 41.6399 8.55154 41.4991 8.55111C41.3584 8.55067 41.2368 8.55067 41.1343 8.55111C41.0318 8.55111 40.9022 8.55139 40.7454 8.55182C40.5886 8.55182 40.4049 8.55202 40.1942 8.55246C39.9831 8.55289 39.7753 8.5533 39.5707 8.55373C39.3662 8.5546 39.165 8.55529 38.9674 8.55572C38.7694 8.55659 38.5974 8.55719 38.4514 8.55763C38.3051 8.55806 38.1612 8.55855 38.0201 8.55898C37.8785 8.55941 37.7887 8.56022 37.7505 8.56153C37.7122 8.56239 37.6071 8.56288 37.4351 8.56288C37.2635 8.56244 37.0961 8.56156 36.9328 8.56025C36.7699 8.55938 36.6726 8.55898 36.6409 8.55898C36.6092 8.55941 36.4895 8.5605 36.2819 8.56224C36.0747 8.56398 35.8823 8.56527 35.7047 8.56614C35.5275 8.56701 35.4161 8.56761 35.3705 8.56805C35.3245 8.56848 35.2111 8.57005 35.0304 8.57266C34.8497 8.57527 34.5418 8.57894 34.1066 8.58371L33.3573 8.58499" stroke="#FFBC00" stroke-linecap="round" stroke-linejoin="round"/>
<path d="M33.1776 13.2676C33.3522 13.2702 33.4446 13.2717 33.4546 13.2721C33.4646 13.273 33.6893 13.273 34.1288 13.2721C34.5688 13.2717 34.9978 13.2708 35.4156 13.2695C35.8338 13.2682 36.2345 13.2685 36.6176 13.2702C37.0007 13.2719 37.603 13.2745 38.4248 13.278C39.2474 13.281 39.7614 13.283 39.9669 13.2839C40.1727 13.2848 40.3915 13.2862 40.623 13.2884C40.854 13.291 41.153 13.2936 41.5201 13.2962C41.8866 13.2984 42.079 13.2995 42.0973 13.2995C42.1151 13.2999 42.2365 13.3008 42.4615 13.3021C42.6861 13.3038 42.8876 13.3051 43.0661 13.306C43.2442 13.3073 43.6428 13.3138 44.2622 13.3256" fill="#FFBC00"/>
<path d="M33.1776 13.2676C33.3522 13.2702 33.4446 13.2717 33.4546 13.2721C33.4646 13.273 33.6893 13.273 34.1288 13.2721C34.5688 13.2717 34.9978 13.2708 35.4156 13.2695C35.8338 13.2682 36.2345 13.2685 36.6176 13.2702C37.0007 13.2719 37.603 13.2745 38.4248 13.278C39.2474 13.281 39.7614 13.283 39.9669 13.2839C40.1727 13.2848 40.3915 13.2862 40.623 13.2884C40.854 13.291 41.153 13.2936 41.5201 13.2962C41.8866 13.2984 42.079 13.2995 42.0973 13.2995C42.1151 13.2999 42.2365 13.3008 42.4615 13.3021C42.6861 13.3038 42.8876 13.3051 43.0661 13.306C43.2442 13.3073 43.6428 13.3138 44.2622 13.3256" stroke="#FFBC00" stroke-linecap="round" stroke-linejoin="round"/>
<path d="M44.4055 13.3015L44.4035 13.0813C44.3996 13.0874 44.3998 12.9975 44.4042 12.8116C44.4085 12.6257 44.4131 12.4442 44.4179 12.267C44.4226 12.0902 44.4254 11.837 44.4263 11.5073L44.4101 11.2832" fill="#FFBC00"/>
<path d="M44.4055 13.3015L44.4035 13.0813C44.3996 13.0874 44.3998 12.9975 44.4042 12.8116C44.4085 12.6257 44.4131 12.4442 44.4179 12.267C44.4226 12.0902 44.4254 11.837 44.4263 11.5073L44.4101 11.2832" stroke="#FFBC00" stroke-linecap="round" stroke-linejoin="round"/>
<path d="M44.0994 10.9239C43.8965 10.9278 43.6752 10.9293 43.4355 10.9284C43.1957 10.928 42.7747 10.9245 42.1722 10.918C41.5698 10.911 41.0685 10.9045 40.668 10.8984C40.2676 10.8928 39.9488 10.8889 39.7116 10.8867C39.4745 10.885 39.1485 10.8863 38.7337 10.8906C38.3185 10.895 38.0035 10.8961 37.7889 10.8939C37.5744 10.8913 37.3566 10.8884 37.1355 10.8854C36.9149 10.8823 36.6129 10.8796 36.2294 10.877C35.8458 10.8744 35.5546 10.8715 35.3557 10.8685C35.1563 10.8658 35.0412 10.8644 35.0103 10.8639C34.9791 10.8639 34.8535 10.8637 34.6337 10.8633C34.4139 10.8633 34.0101 10.8668 33.422 10.8737" fill="#FFBC00"/>
<path d="M44.0994 10.9239C43.8965 10.9278 43.6752 10.9293 43.4355 10.9284C43.1957 10.928 42.7747 10.9245 42.1722 10.918C41.5698 10.911 41.0685 10.9045 40.668 10.8984C40.2676 10.8928 39.9488 10.8889 39.7116 10.8867C39.4745 10.885 39.1485 10.8863 38.7337 10.8906C38.3185 10.895 38.0035 10.8961 37.7889 10.8939C37.5744 10.8913 37.3566 10.8884 37.1355 10.8854C36.9149 10.8823 36.6129 10.8796 36.2294 10.877C35.8458 10.8744 35.5546 10.8715 35.3557 10.8685C35.1563 10.8658 35.0412 10.8644 35.0103 10.8639C34.9791 10.8639 34.8535 10.8637 34.6337 10.8633C34.4139 10.8633 34.0101 10.8668 33.422 10.8737" stroke="#FFBC00" stroke-linecap="round" stroke-linejoin="round"/>
<path d="M33.2526 41.5625C33.2491 41.6528 33.2485 41.7573 33.2507 41.8758C33.2529 41.9949 33.2545 42.1703 33.2558 42.4022C33.2571 42.6337 33.258 42.7543 33.2585 42.7639C33.2589 42.7734 33.2504 42.9458 33.233 43.2811" fill="#FFBC00"/>
<path d="M33.2526 41.5625C33.2491 41.6528 33.2485 41.7573 33.2507 41.8758C33.2529 41.9949 33.2545 42.1703 33.2558 42.4022C33.2571 42.6337 33.258 42.7543 33.2585 42.7639C33.2589 42.7734 33.2504 42.9458 33.233 43.2811" stroke="#FFBC00" stroke-linecap="round" stroke-linejoin="round"/>
<path d="M33.2722 43.3406C33.2991 43.3406 33.3746 43.3395 33.4988 43.3373C33.6235 43.3352 33.7447 43.3332 33.8624 43.3314C33.9801 43.3297 34.1151 43.3275 34.2675 43.3249C34.42 43.3223 34.568 43.3197 34.7113 43.3171C34.8546 43.315 35.027 43.3124 35.2286 43.3093C35.4297 43.3063 35.6462 43.303 35.8782 43.2996C36.1101 43.2965 36.3066 43.2941 36.4678 43.2924C36.6294 43.2907 36.7558 43.2894 36.847 43.2885C36.9382 43.2876 37.0476 43.2867 37.1753 43.2859C37.3025 43.285 37.448 43.2841 37.6117 43.2832C37.775 43.2824 37.931 43.2818 38.0795 43.2813C38.2281 43.2805 38.3693 43.2798 38.5031 43.2794C38.6369 43.2789 38.7688 43.2787 38.8991 43.2787C39.0294 43.2787 39.1897 43.2791 39.38 43.28C39.5702 43.2804 39.7087 43.2811 39.7956 43.282C39.8829 43.2824 40.0071 43.2824 40.1683 43.282C40.3298 43.2811 40.4832 43.2806 40.6282 43.2806C40.7733 43.2802 40.9374 43.2798 41.1207 43.2794C41.304 43.2794 41.4625 43.2789 41.5963 43.2781C41.73 43.2768 41.8588 43.2754 41.9826 43.2741C42.1068 43.2728 42.2255 43.2715 42.3384 43.2702C42.4514 43.2689 42.5631 43.2674 42.6739 43.2657C42.7846 43.2644 42.9132 43.2626 43.0596 43.2604C43.206 43.2587 43.3506 43.2568 43.4935 43.2546C43.6364 43.2524 43.7773 43.2503 43.9163 43.2481C44.0553 43.2464 44.1862 43.2446 44.3092 43.2428C44.4325 43.2411 44.5476 43.2396 44.6545 43.2383C44.7613 43.2366 44.8782 43.235 45.005 43.2337C45.1314 43.2324 45.2678 43.2309 45.4141 43.2292C45.5605 43.2279 45.7262 43.2264 45.9112 43.2246C46.0966 43.2229 46.3015 43.2209 46.5256 43.2188" fill="#FFBC00"/>
<path d="M33.2722 43.3406C33.2991 43.3406 33.3746 43.3395 33.4988 43.3373C33.6235 43.3352 33.7447 43.3332 33.8624 43.3314C33.9801 43.3297 34.1151 43.3275 34.2675 43.3249C34.42 43.3223 34.568 43.3197 34.7113 43.3171C34.8546 43.315 35.027 43.3124 35.2286 43.3093C35.4297 43.3063 35.6462 43.303 35.8782 43.2996C36.1101 43.2965 36.3066 43.2941 36.4678 43.2924C36.6294 43.2907 36.7558 43.2894 36.847 43.2885C36.9382 43.2876 37.0476 43.2867 37.1753 43.2859C37.3025 43.285 37.448 43.2841 37.6117 43.2832C37.775 43.2824 37.931 43.2818 38.0795 43.2813C38.2281 43.2805 38.3693 43.2798 38.5031 43.2794C38.6369 43.2789 38.7688 43.2787 38.8991 43.2787C39.0294 43.2787 39.1897 43.2791 39.38 43.28C39.5702 43.2804 39.7087 43.2811 39.7956 43.282C39.8829 43.2824 40.0071 43.2824 40.1683 43.282C40.3298 43.2811 40.4832 43.2806 40.6282 43.2806C40.7733 43.2802 40.9374 43.2798 41.1207 43.2794C41.304 43.2794 41.4625 43.2789 41.5963 43.2781C41.73 43.2768 41.8588 43.2754 41.9826 43.2741C42.1068 43.2728 42.2255 43.2715 42.3384 43.2702C42.4514 43.2689 42.5631 43.2674 42.6739 43.2657C42.7846 43.2644 42.9132 43.2626 43.0596 43.2604C43.206 43.2587 43.3506 43.2568 43.4935 43.2546C43.6364 43.2524 43.7773 43.2503 43.9163 43.2481C44.0553 43.2464 44.1862 43.2446 44.3092 43.2428C44.4325 43.2411 44.5476 43.2396 44.6545 43.2383C44.7613 43.2366 44.8782 43.235 45.005 43.2337C45.1314 43.2324 45.2678 43.2309 45.4141 43.2292C45.5605 43.2279 45.7262 43.2264 45.9112 43.2246C46.0966 43.2229 46.3015 43.2209 46.5256 43.2188" stroke="#FFBC00" stroke-linecap="round" stroke-linejoin="round"/>
<path d="M46.5502 43.0323C46.5407 42.9276 46.5367 42.7476 46.538 42.4922C46.5393 42.2373 46.5405 42.1035 46.5418 42.0909C46.5431 42.0779 46.5373 41.8881 46.5243 41.5215" fill="#FFBC00"/>
<path d="M46.5502 43.0323C46.5407 42.9276 46.5367 42.7476 46.538 42.4922C46.5393 42.2373 46.5405 42.1035 46.5418 42.0909C46.5431 42.0779 46.5373 41.8881 46.5243 41.5215" stroke="#FFBC00" stroke-linecap="round" stroke-linejoin="round"/>
<path d="M46.5222 41.42L46.3469 41.4167C46.2466 41.4154 46.115 41.4141 45.9521 41.4128C45.7897 41.4115 45.6004 41.4104 45.3841 41.4096C45.1678 41.4087 44.9818 41.4082 44.8263 41.4082C44.6713 41.4086 44.5177 41.4093 44.3657 41.4102C44.2141 41.4115 44.0058 41.4135 43.7409 41.4161C43.4764 41.4187 43.2471 41.4215 43.053 41.4245C42.8593 41.4275 42.7033 41.4301 42.5852 41.4323C42.4671 41.4345 42.3083 41.4371 42.109 41.4402C41.9092 41.4428 41.6924 41.4452 41.4587 41.4473C41.2246 41.4499 41.0425 41.4514 40.9122 41.4519C40.7819 41.4527 40.6676 41.4536 40.5695 41.4545C40.4717 41.4549 40.3558 41.4556 40.2216 41.4565C40.087 41.4573 39.9177 41.4586 39.714 41.4604C39.5103 41.4621 39.3086 41.4643 39.1088 41.4669C38.909 41.4695 38.7111 41.4721 38.5152 41.4747C38.3189 41.4773 38.1503 41.4795 38.0091 41.4812C37.8675 41.4829 37.7536 41.4844 37.6676 41.4857C37.5812 41.4866 37.4696 41.4877 37.3328 41.489C37.1955 41.4903 37.0321 41.4918 36.8423 41.4935C36.6529 41.4948 36.4918 41.4959 36.3589 41.4968C36.226 41.4972 36.1037 41.4979 35.9921 41.4988C35.8805 41.4997 35.741 41.5011 35.5738 41.5033C35.4066 41.5055 35.275 41.5075 35.179 41.5092C35.083 41.5105 34.9661 41.512 34.8284 41.5137C34.6907 41.5159 34.5146 41.519 34.3 41.5229C34.0855 41.5272 33.9172 41.5307 33.7952 41.5333C33.6727 41.5363 33.5913 41.5385 33.5509 41.5398C33.5105 41.5411 33.4251 41.5442 33.2948 41.549" fill="#FFBC00"/>
<path d="M46.5222 41.42L46.3469 41.4167C46.2466 41.4154 46.115 41.4141 45.9521 41.4128C45.7897 41.4115 45.6004 41.4104 45.3841 41.4096C45.1678 41.4087 44.9818 41.4082 44.8263 41.4082C44.6713 41.4086 44.5177 41.4093 44.3657 41.4102C44.2141 41.4115 44.0058 41.4135 43.7409 41.4161C43.4764 41.4187 43.2471 41.4215 43.053 41.4245C42.8593 41.4275 42.7033 41.4301 42.5852 41.4323C42.4671 41.4345 42.3083 41.4371 42.109 41.4402C41.9092 41.4428 41.6924 41.4452 41.4587 41.4473C41.2246 41.4499 41.0425 41.4514 40.9122 41.4519C40.7819 41.4527 40.6676 41.4536 40.5695 41.4545C40.4717 41.4549 40.3558 41.4556 40.2216 41.4565C40.087 41.4573 39.9177 41.4586 39.714 41.4604C39.5103 41.4621 39.3086 41.4643 39.1088 41.4669C38.909 41.4695 38.7111 41.4721 38.5152 41.4747C38.3189 41.4773 38.1503 41.4795 38.0091 41.4812C37.8675 41.4829 37.7536 41.4844 37.6676 41.4857C37.5812 41.4866 37.4696 41.4877 37.3328 41.489C37.1955 41.4903 37.0321 41.4918 36.8423 41.4935C36.6529 41.4948 36.4918 41.4959 36.3589 41.4968C36.226 41.4972 36.1037 41.4979 35.9921 41.4988C35.8805 41.4997 35.741 41.5011 35.5738 41.5033C35.4066 41.5055 35.275 41.5075 35.179 41.5092C35.083 41.5105 34.9661 41.512 34.8284 41.5137C34.6907 41.5159 34.5146 41.519 34.3 41.5229C34.0855 41.5272 33.9172 41.5307 33.7952 41.5333C33.6727 41.5363 33.5913 41.5385 33.5509 41.5398C33.5105 41.5411 33.4251 41.5442 33.2948 41.549" stroke="#FFBC00" stroke-linecap="round" stroke-linejoin="round"/>
<path d="M33.3346 56.3945C33.3263 56.4597 33.317 56.5706 33.3066 56.7274C33.2962 56.8842 33.2857 57.0981 33.2753 57.3692C33.2648 57.6402 33.2597 57.8841 33.2597 58.1008C33.2597 58.318 33.2595 58.5108 33.259 58.6793C33.259 58.8483 33.2601 59.0044 33.2622 59.1477C33.264 59.2911 33.2645 59.4101 33.2637 59.5048C33.2624 59.5999 33.2612 59.6953 33.2603 59.7908C33.2594 59.8868 33.2588 59.9784 33.2584 60.0657C33.258 60.1535 33.2582 60.2555 33.259 60.3719C33.2599 60.4888 33.2601 60.5975 33.2597 60.6983C33.2597 60.7991 33.2581 60.9085 33.2551 61.0267C33.2525 61.1448 33.2532 61.2456 33.2571 61.329C33.2615 61.4124 33.2672 61.5001 33.2746 61.5922C33.2824 61.6843 33.2908 61.7809 33.2994 61.8821C33.3081 61.9837 33.3174 62.0839 33.3274 62.1825" fill="#FFBC00"/>
<path d="M33.3346 56.3945C33.3263 56.4597 33.317 56.5706 33.3066 56.7274C33.2962 56.8842 33.2857 57.0981 33.2753 57.3692C33.2648 57.6402 33.2597 57.8841 33.2597 58.1008C33.2597 58.318 33.2595 58.5108 33.259 58.6793C33.259 58.8483 33.2601 59.0044 33.2622 59.1477C33.264 59.2911 33.2645 59.4101 33.2637 59.5048C33.2624 59.5999 33.2612 59.6953 33.2603 59.7908C33.2594 59.8868 33.2588 59.9784 33.2584 60.0657C33.258 60.1535 33.2582 60.2555 33.259 60.3719C33.2599 60.4888 33.2601 60.5975 33.2597 60.6983C33.2597 60.7991 33.2581 60.9085 33.2551 61.0267C33.2525 61.1448 33.2532 61.2456 33.2571 61.329C33.2615 61.4124 33.2672 61.5001 33.2746 61.5922C33.2824 61.6843 33.2908 61.7809 33.2994 61.8821C33.3081 61.9837 33.3174 62.0839 33.3274 62.1825" stroke="#FFBC00" stroke-linecap="round" stroke-linejoin="round"/>
<path d="M33.416 62.3457C33.4994 62.347 33.6565 62.3485 33.8876 62.3502C34.1182 62.352 34.4614 62.3544 34.917 62.3574C35.3726 62.3604 35.6108 62.3624 35.6317 62.3633C35.6525 62.3637 35.7179 62.365 35.8278 62.3672C35.9372 62.3689 36.0413 62.3709 36.1398 62.3731C36.2384 62.3752 36.3454 62.3763 36.4605 62.3763C36.5756 62.3763 36.6404 62.3763 36.6552 62.3763C36.6704 62.3759 36.7326 62.3768 36.8416 62.3789C36.9506 62.3811 37.0602 62.3824 37.1705 62.3828C37.2809 62.3828 37.3871 62.3837 37.4891 62.3855C37.5916 62.3868 37.6457 62.3879 37.6514 62.3887C37.657 62.3896 37.7125 62.3907 37.8176 62.392C37.9227 62.3929 38.1535 62.3956 38.5101 62.4004" fill="#FFBC00"/>
<path d="M33.416 62.3457C33.4994 62.347 33.6565 62.3485 33.8876 62.3502C34.1182 62.352 34.4614 62.3544 34.917 62.3574C35.3726 62.3604 35.6108 62.3624 35.6317 62.3633C35.6525 62.3637 35.7179 62.365 35.8278 62.3672C35.9372 62.3689 36.0413 62.3709 36.1398 62.3731C36.2384 62.3752 36.3454 62.3763 36.4605 62.3763C36.5756 62.3763 36.6404 62.3763 36.6552 62.3763C36.6704 62.3759 36.7326 62.3768 36.8416 62.3789C36.9506 62.3811 37.0602 62.3824 37.1705 62.3828C37.2809 62.3828 37.3871 62.3837 37.4891 62.3855C37.5916 62.3868 37.6457 62.3879 37.6514 62.3887C37.657 62.3896 37.7125 62.3907 37.8176 62.392C37.9227 62.3929 38.1535 62.3956 38.5101 62.4004" stroke="#FFBC00" stroke-linecap="round" stroke-linejoin="round"/>
<path d="M38.7244 62.3897C38.7244 62.3436 38.7244 62.275 38.7244 62.1838C38.724 62.0921 38.7236 61.9781 38.7231 61.8417C38.7223 61.7053 38.7215 61.5803 38.7206 61.4665C38.7202 61.3518 38.7194 61.2254 38.7185 61.0873C38.7177 60.9487 38.7171 60.805 38.7166 60.656C38.7158 60.507 38.7149 60.3453 38.7141 60.1706C38.7132 59.996 38.7124 59.8475 38.712 59.725C38.7111 59.603 38.7105 59.4885 38.7101 59.3816C38.7092 59.2748 38.7077 59.1037 38.7055 58.8683C38.7033 58.6329 38.7003 58.3949 38.6964 58.1543C38.6925 57.9132 38.6877 57.6719 38.6821 57.4304C38.6765 57.1885 38.6729 57.0528 38.6716 57.0232C38.6703 56.9941 38.6643 56.7696 38.6535 56.3496" fill="#FFBC00"/>
<path d="M38.7244 62.3897C38.7244 62.3436 38.7244 62.275 38.7244 62.1838C38.724 62.0921 38.7236 61.9781 38.7231 61.8417C38.7223 61.7053 38.7215 61.5803 38.7206 61.4665C38.7202 61.3518 38.7194 61.2254 38.7185 61.0873C38.7177 60.9487 38.7171 60.805 38.7166 60.656C38.7158 60.507 38.7149 60.3453 38.7141 60.1706C38.7132 59.996 38.7124 59.8475 38.712 59.725C38.7111 59.603 38.7105 59.4885 38.7101 59.3816C38.7092 59.2748 38.7077 59.1037 38.7055 58.8683C38.7033 58.6329 38.7003 58.3949 38.6964 58.1543C38.6925 57.9132 38.6877 57.6719 38.6821 57.4304C38.6765 57.1885 38.6729 57.0528 38.6716 57.0232C38.6703 56.9941 38.6643 56.7696 38.6535 56.3496" stroke="#FFBC00" stroke-linecap="round" stroke-linejoin="round"/>
<path d="M38.6619 56.3081C38.5885 56.3055 38.4486 56.3029 38.2423 56.3003C38.036 56.2981 37.8165 56.2964 37.5837 56.2951C37.3513 56.2934 37.1484 56.2912 36.9751 56.2886C36.8014 56.286 36.6256 56.2829 36.4475 56.2794C36.2694 56.276 36.0588 56.2714 35.8156 56.2658C35.5719 56.2601 35.3708 56.2556 35.2123 56.2521C35.0533 56.2486 34.9356 56.2466 34.8592 56.2462C34.7827 56.2458 34.6524 56.2467 34.4682 56.2488C34.284 56.2514 34.0322 56.254 33.7125 56.2566L33.4192 56.2644" fill="#FFBC00"/>
<path d="M38.6619 56.3081C38.5885 56.3055 38.4486 56.3029 38.2423 56.3003C38.036 56.2981 37.8165 56.2964 37.5837 56.2951C37.3513 56.2934 37.1484 56.2912 36.9751 56.2886C36.8014 56.286 36.6256 56.2829 36.4475 56.2794C36.2694 56.276 36.0588 56.2714 35.8156 56.2658C35.5719 56.2601 35.3708 56.2556 35.2123 56.2521C35.0533 56.2486 34.9356 56.2466 34.8592 56.2462C34.7827 56.2458 34.6524 56.2467 34.4682 56.2488C34.284 56.2514 34.0322 56.254 33.7125 56.2566L33.4192 56.2644" stroke="#FFBC00" stroke-linecap="round" stroke-linejoin="round"/>
<path d="M41.0694 56.5391C41.0685 56.5968 41.0665 56.7145 41.0635 56.8922C41.0609 57.0702 41.0577 57.2351 41.0542 57.3867C41.0508 57.5383 41.0468 57.7041 41.042 57.8844C41.0372 58.0651 41.0329 58.2303 41.0289 58.3802C41.0255 58.53 41.0219 58.6981 41.0185 58.8844C41.015 59.0712 41.0122 59.2461 41.01 59.4089C41.0083 59.5722 41.0069 59.7346 41.006 59.8962C41.0052 60.0578 41.005 60.2196 41.0054 60.3816C41.0058 60.5436 41.0062 60.68 41.0067 60.7908C41.0076 60.9019 41.0085 61.0012 41.0094 61.0885C41.0098 61.1754 41.0104 61.2644 41.0113 61.3556C41.0122 61.4463 41.0137 61.5782 41.0159 61.7511C41.0181 61.9235 41.0213 62.1539 41.0256 62.4423" fill="#FFBC00"/>
<path d="M41.0694 56.5391C41.0685 56.5968 41.0665 56.7145 41.0635 56.8922C41.0609 57.0702 41.0577 57.2351 41.0542 57.3867C41.0508 57.5383 41.0468 57.7041 41.042 57.8844C41.0372 58.0651 41.0329 58.2303 41.0289 58.3802C41.0255 58.53 41.0219 58.6981 41.0185 58.8844C41.015 59.0712 41.0122 59.2461 41.01 59.4089C41.0083 59.5722 41.0069 59.7346 41.006 59.8962C41.0052 60.0578 41.005 60.2196 41.0054 60.3816C41.0058 60.5436 41.0062 60.68 41.0067 60.7908C41.0076 60.9019 41.0085 61.0012 41.0094 61.0885C41.0098 61.1754 41.0104 61.2644 41.0113 61.3556C41.0122 61.4463 41.0137 61.5782 41.0159 61.7511C41.0181 61.9235 41.0213 62.1539 41.0256 62.4423" stroke="#FFBC00" stroke-linecap="round" stroke-linejoin="round"/>
<path d="M41.1233 62.4974C41.2036 62.4987 41.3093 62.4979 41.4405 62.4948C41.5712 62.4922 41.7331 62.4915 41.9259 62.4928C42.1183 62.4941 42.317 62.4952 42.522 62.4961C42.7266 62.497 42.8838 62.4972 42.9936 62.4967C43.1035 62.4959 43.2165 62.4951 43.3324 62.4942C43.4488 62.4937 43.6046 62.4946 43.7996 62.4967C43.9946 62.4993 44.1422 62.5013 44.2426 62.5026C44.3425 62.5039 44.4449 62.5048 44.5495 62.5052C44.6542 62.5057 44.7139 62.5059 44.7286 62.5059C44.7439 62.5059 44.8001 62.5074 44.8974 62.5104C44.9947 62.5139 45.091 62.5173 45.1866 62.5208C45.2826 62.5243 45.3705 62.5268 45.4505 62.5281C45.5304 62.5294 45.5743 62.5302 45.5822 62.5306C45.5904 62.5315 45.6394 62.5337 45.7293 62.5371C45.8192 62.541 45.8701 62.5437 45.8818 62.545C45.8935 62.5463 46.0223 62.5495 46.2682 62.5547" fill="#FFBC00"/>
<path d="M41.1233 62.4974C41.2036 62.4987 41.3093 62.4979 41.4405 62.4948C41.5712 62.4922 41.7331 62.4915 41.9259 62.4928C42.1183 62.4941 42.317 62.4952 42.522 62.4961C42.7266 62.497 42.8838 62.4972 42.9936 62.4967C43.1035 62.4959 43.2165 62.4951 43.3324 62.4942C43.4488 62.4937 43.6046 62.4946 43.7996 62.4967C43.9946 62.4993 44.1422 62.5013 44.2426 62.5026C44.3425 62.5039 44.4449 62.5048 44.5495 62.5052C44.6542 62.5057 44.7139 62.5059 44.7286 62.5059C44.7439 62.5059 44.8001 62.5074 44.8974 62.5104C44.9947 62.5139 45.091 62.5173 45.1866 62.5208C45.2826 62.5243 45.3705 62.5268 45.4505 62.5281C45.5304 62.5294 45.5743 62.5302 45.5822 62.5306C45.5904 62.5315 45.6394 62.5337 45.7293 62.5371C45.8192 62.541 45.8701 62.5437 45.8818 62.545C45.8935 62.5463 46.0223 62.5495 46.2682 62.5547" stroke="#FFBC00" stroke-linecap="round" stroke-linejoin="round"/>
<path d="M46.3724 62.4762C46.3672 62.4427 46.3618 62.3815 46.3562 62.2925C46.3505 62.203 46.3485 62.0756 46.3503 61.9101C46.352 61.7442 46.3572 61.5598 46.3659 61.357C46.3746 61.1541 46.3827 60.9407 46.39 60.7165C46.3974 60.4924 46.4032 60.2917 46.4075 60.1145C46.4119 59.9369 46.4158 59.7514 46.4193 59.5581C46.4228 59.3648 46.4252 59.2037 46.4265 59.0747C46.4278 58.9457 46.4302 58.7572 46.4336 58.5092C46.4367 58.2612 46.4384 58.0732 46.4389 57.945C46.4389 57.8165 46.4389 57.6434 46.4389 57.4258C46.4393 57.2082 46.4395 57.0816 46.4395 57.046C46.4395 57.0103 46.4375 56.8284 46.4336 56.5" fill="#FFBC00"/>
<path d="M46.3724 62.4762C46.3672 62.4427 46.3618 62.3815 46.3562 62.2925C46.3505 62.203 46.3485 62.0756 46.3503 61.9101C46.352 61.7442 46.3572 61.5598 46.3659 61.357C46.3746 61.1541 46.3827 60.9407 46.39 60.7165C46.3974 60.4924 46.4032 60.2917 46.4075 60.1145C46.4119 59.9369 46.4158 59.7514 46.4193 59.5581C46.4228 59.3648 46.4252 59.2037 46.4265 59.0747C46.4278 58.9457 46.4302 58.7572 46.4336 58.5092C46.4367 58.2612 46.4384 58.0732 46.4389 57.945C46.4389 57.8165 46.4389 57.6434 46.4389 57.4258C46.4393 57.2082 46.4395 57.0816 46.4395 57.046C46.4395 57.0103 46.4375 56.8284 46.4336 56.5" stroke="#FFBC00" stroke-linecap="round" stroke-linejoin="round"/>
<path d="M46.4448 56.407C46.3496 56.4022 46.1806 56.3955 45.9378 56.3868C45.695 56.3781 45.444 56.3692 45.1847 56.3601C44.9254 56.3505 44.6823 56.3425 44.4551 56.336C44.2275 56.3295 44.049 56.324 43.9196 56.3197C43.7901 56.3153 43.6645 56.3119 43.5429 56.3093C43.4213 56.3066 43.3557 56.3054 43.3462 56.3054C43.337 56.3058 43.2643 56.3056 43.1279 56.3047C42.9911 56.3043 42.8599 56.3038 42.7344 56.3034C42.6089 56.3029 42.4908 56.3027 42.38 56.3027C42.2693 56.3027 42.1633 56.3034 42.0621 56.3047C41.9609 56.3056 41.8458 56.3071 41.7168 56.3093C41.5882 56.311 41.4703 56.3127 41.363 56.3144C41.2553 56.3157 41.1586 56.3166 41.0731 56.317" fill="#FFBC00"/>
<path d="M46.4448 56.407C46.3496 56.4022 46.1806 56.3955 45.9378 56.3868C45.695 56.3781 45.444 56.3692 45.1847 56.3601C44.9254 56.3505 44.6823 56.3425 44.4551 56.336C44.2275 56.3295 44.049 56.324 43.9196 56.3197C43.7901 56.3153 43.6645 56.3119 43.5429 56.3093C43.4213 56.3066 43.3557 56.3054 43.3462 56.3054C43.337 56.3058 43.2643 56.3056 43.1279 56.3047C42.9911 56.3043 42.8599 56.3038 42.7344 56.3034C42.6089 56.3029 42.4908 56.3027 42.38 56.3027C42.2693 56.3027 42.1633 56.3034 42.0621 56.3047C41.9609 56.3056 41.8458 56.3071 41.7168 56.3093C41.5882 56.311 41.4703 56.3127 41.363 56.3144C41.2553 56.3157 41.1586 56.3166 41.0731 56.317" stroke="#FFBC00" stroke-linecap="round" stroke-linejoin="round"/>
<path d="M33.5718 47.0313L33.7399 47.03C33.7477 47.0313 33.9386 47.0313 34.3125 47.03C34.6865 47.0291 34.9465 47.0276 35.0924 47.0254C35.2383 47.0232 35.3749 47.0204 35.5021 47.017C35.6298 47.0131 35.8218 47.0076 36.0781 47.0007C36.3348 46.9937 36.5329 46.9887 36.6723 46.9857C36.8113 46.9827 37.3215 46.9796 38.2032 46.9766" fill="#FFBC00"/>
<path d="M33.5718 47.0313L33.7399 47.03C33.7477 47.0313 33.9386 47.0313 34.3125 47.03C34.6865 47.0291 34.9465 47.0276 35.0924 47.0254C35.2383 47.0232 35.3749 47.0204 35.5021 47.017C35.6298 47.0131 35.8218 47.0076 36.0781 47.0007C36.3348 46.9937 36.5329 46.9887 36.6723 46.9857C36.8113 46.9827 37.3215 46.9796 38.2032 46.9766" stroke="#FFBC00" stroke-linecap="round" stroke-linejoin="round"/>
<path d="M33.541 49.3457L33.6837 49.3496C33.6937 49.3509 33.9249 49.3499 34.377 49.3464C34.8292 49.3433 35.2148 49.3397 35.534 49.3353C35.8532 49.331 36.0696 49.3277 36.183 49.3255C36.2963 49.3238 36.4118 49.3223 36.5295 49.321C36.6473 49.3197 36.819 49.3186 37.0449 49.3177C37.2712 49.3173 37.5117 49.3155 37.7667 49.3125L38.2111 49.319" fill="#FFBC00"/>
<path d="M33.541 49.3457L33.6837 49.3496C33.6937 49.3509 33.9249 49.3499 34.377 49.3464C34.8292 49.3433 35.2148 49.3397 35.534 49.3353C35.8532 49.331 36.0696 49.3277 36.183 49.3255C36.2963 49.3238 36.4118 49.3223 36.5295 49.321C36.6473 49.3197 36.819 49.3186 37.0449 49.3177C37.2712 49.3173 37.5117 49.3155 37.7667 49.3125L38.2111 49.319" stroke="#FFBC00" stroke-linecap="round" stroke-linejoin="round"/>
<path d="M33.5764 51.8139C33.6359 51.8117 33.8148 51.8063 34.1132 51.7976C34.4116 51.7885 34.6715 51.7811 34.893 51.7754C35.1145 51.7694 35.2957 51.7644 35.4364 51.7605C35.5767 51.757 35.6539 51.755 35.6683 51.7546C35.6826 51.7546 35.7625 51.7528 35.908 51.7494C36.0539 51.7459 36.302 51.7389 36.6521 51.7285" fill="#FFBC00"/>
<path d="M33.5764 51.8139C33.6359 51.8117 33.8148 51.8063 34.1132 51.7976C34.4116 51.7885 34.6715 51.7811 34.893 51.7754C35.1145 51.7694 35.2957 51.7644 35.4364 51.7605C35.5767 51.757 35.6539 51.755 35.6683 51.7546C35.6826 51.7546 35.7625 51.7528 35.908 51.7494C36.0539 51.7459 36.302 51.7389 36.6521 51.7285" stroke="#FFBC00" stroke-linecap="round" stroke-linejoin="round"/>
<path d="M41.7625 46.8926L41.9306 46.8933C42.153 46.8955 42.2651 46.8968 42.2673 46.8972C42.269 46.8976 42.5217 46.8991 43.0251 46.9017C43.5284 46.9043 43.963 46.9065 44.3287 46.9082C44.6948 46.91 44.9453 46.9111 45.0799 46.9115C45.215 46.9115 45.5251 46.9135 46.0102 46.9174L46.1893 46.918" fill="#FFBC00"/>
<path d="M41.7625 46.8926L41.9306 46.8933C42.153 46.8955 42.2651 46.8968 42.2673 46.8972C42.269 46.8976 42.5217 46.8991 43.0251 46.9017C43.5284 46.9043 43.963 46.9065 44.3287 46.9082C44.6948 46.91 44.9453 46.9111 45.0799 46.9115C45.215 46.9115 45.5251 46.9135 46.0102 46.9174L46.1893 46.918" stroke="#FFBC00" stroke-linecap="round" stroke-linejoin="round"/>
<path d="M41.8386 49.2715C41.9428 49.2771 42.1255 49.2839 42.3865 49.2917C42.6476 49.2995 42.9634 49.3041 43.3344 49.3054C43.7053 49.3067 43.9591 49.3069 44.0955 49.306C44.2314 49.3056 44.4258 49.3063 44.6786 49.308C44.9309 49.3093 45.1184 49.3108 45.2413 49.3125C45.3638 49.3147 45.6142 49.3242 45.9925 49.3412" fill="#FFBC00"/>
<path d="M41.8386 49.2715C41.9428 49.2771 42.1255 49.2839 42.3865 49.2917C42.6476 49.2995 42.9634 49.3041 43.3344 49.3054C43.7053 49.3067 43.9591 49.3069 44.0955 49.306C44.2314 49.3056 44.4258 49.3063 44.6786 49.308C44.9309 49.3093 45.1184 49.3108 45.2413 49.3125C45.3638 49.3147 45.6142 49.3242 45.9925 49.3412" stroke="#FFBC00" stroke-linecap="round" stroke-linejoin="round"/>
<path d="M41.7572 51.8145C41.8098 51.8171 41.8381 51.8192 41.842 51.821C41.8459 51.8223 41.9761 51.8238 42.2328 51.8255C42.4895 51.8277 42.7086 51.8293 42.8902 51.8301C43.0722 51.8306 43.2315 51.8308 43.3683 51.8308C43.5051 51.8303 43.6318 51.8305 43.7482 51.8314C43.8641 51.8323 43.9529 51.8334 44.0141 51.8347C44.0753 51.836 44.1092 51.8366 44.1157 51.8366C44.1223 51.8366 44.1561 51.839 44.2174 51.8438" fill="#FFBC00"/>
<path d="M41.7572 51.8145C41.8098 51.8171 41.8381 51.8192 41.842 51.821C41.8459 51.8223 41.9761 51.8238 42.2328 51.8255C42.4895 51.8277 42.7086 51.8293 42.8902 51.8301C43.0722 51.8306 43.2315 51.8308 43.3683 51.8308C43.5051 51.8303 43.6318 51.8305 43.7482 51.8314C43.8641 51.8323 43.9529 51.8334 44.0141 51.8347C44.0753 51.836 44.1092 51.8366 44.1157 51.8366C44.1223 51.8366 44.1561 51.839 44.2174 51.8438" stroke="#FFBC00" stroke-linecap="round" stroke-linejoin="round"/>
<path d="M13.7069 41.0117C13.7061 41.053 13.7063 41.1288 13.7076 41.2391C13.708 41.349 13.7096 41.4934 13.7122 41.6724C13.7144 41.8513 13.7167 42.0304 13.7194 42.2098C13.7215 42.3888 13.7237 42.5677 13.7259 42.7466C13.7285 42.9256 13.7309 43.1078 13.733 43.2932C13.7356 43.4791 13.7382 43.6681 13.7408 43.86C13.743 44.052 13.7458 44.251 13.7493 44.4568C13.7523 44.6627 13.7558 44.8758 13.7598 45.096C13.7637 45.3158 13.7671 45.5122 13.7701 45.6855C13.7731 45.8588 13.7767 46.0404 13.7806 46.2302C13.7845 46.4196 13.7879 46.6075 13.7909 46.7938C13.7944 46.9797 13.7975 47.1447 13.8002 47.2889C13.8028 47.4327 13.8053 47.5867 13.8079 47.7508C13.811 47.9146 13.814 48.0875 13.817 48.2694C13.8201 48.4514 13.8232 48.6425 13.8267 48.8428C13.8302 49.0426 13.8337 49.2515 13.8372 49.4695C13.8411 49.6876 13.8451 49.9144 13.849 50.1503C13.8529 50.3861 13.8567 50.622 13.8606 50.8579C13.8645 51.0937 13.8683 51.3293 13.8717 51.5647C13.8756 51.8006 13.8796 52.0362 13.8835 52.2716C13.887 52.5074 13.8906 52.7431 13.8945 52.9785C13.898 53.2139 13.9013 53.4308 13.9043 53.6293C13.9074 53.8282 13.91 54.0089 13.9121 54.1713C13.9147 54.3334 13.9171 54.4773 13.9193 54.6033C13.9215 54.7288 13.9232 54.8361 13.9245 54.9251C13.9263 55.0146 13.928 55.1156 13.9298 55.2281C13.9315 55.3406 13.9331 55.4648 13.9349 55.6007C13.937 55.7371 13.9392 55.885 13.9414 56.0444C13.944 56.2038 13.9464 56.3752 13.9486 56.5585C13.9512 56.7413 13.9535 56.9139 13.9557 57.0764C13.9583 57.2384 13.9605 57.39 13.9622 57.5311C13.9644 57.6727 13.9666 57.8161 13.9688 57.9611C13.9709 58.1066 13.9731 58.2543 13.9753 58.4042C13.9774 58.554 13.9798 58.6991 13.9824 58.8394C13.9846 58.9797 13.9868 59.1152 13.989 59.2459C13.9911 59.3767 13.9945 59.5419 13.9988 59.7417C14.0032 59.9411 14.0089 60.1788 14.0163 60.4551C14.0241 60.7309 14.0318 60.973 14.0392 61.1815C14.0462 61.3904 14.0537 61.5954 14.062 61.7965C14.0702 61.9976 14.0815 62.2678 14.0958 62.607" fill="#FFBC00"/>
<path d="M13.7069 41.0117C13.7061 41.053 13.7063 41.1288 13.7076 41.2391C13.708 41.349 13.7096 41.4934 13.7122 41.6724C13.7144 41.8513 13.7167 42.0304 13.7194 42.2098C13.7215 42.3888 13.7237 42.5677 13.7259 42.7466C13.7285 42.9256 13.7309 43.1078 13.733 43.2932C13.7356 43.4791 13.7382 43.6681 13.7408 43.86C13.743 44.052 13.7458 44.251 13.7493 44.4568C13.7523 44.6627 13.7558 44.8758 13.7598 45.096C13.7637 45.3158 13.7671 45.5122 13.7701 45.6855C13.7731 45.8588 13.7767 46.0404 13.7806 46.2302C13.7845 46.4196 13.7879 46.6075 13.7909 46.7938C13.7944 46.9797 13.7975 47.1447 13.8002 47.2889C13.8028 47.4327 13.8053 47.5867 13.8079 47.7508C13.811 47.9146 13.814 48.0875 13.817 48.2694C13.8201 48.4514 13.8232 48.6425 13.8267 48.8428C13.8302 49.0426 13.8337 49.2515 13.8372 49.4695C13.8411 49.6876 13.8451 49.9144 13.849 50.1503C13.8529 50.3861 13.8567 50.622 13.8606 50.8579C13.8645 51.0937 13.8683 51.3293 13.8717 51.5647C13.8756 51.8006 13.8796 52.0362 13.8835 52.2716C13.887 52.5074 13.8906 52.7431 13.8945 52.9785C13.898 53.2139 13.9013 53.4308 13.9043 53.6293C13.9074 53.8282 13.91 54.0089 13.9121 54.1713C13.9147 54.3334 13.9171 54.4773 13.9193 54.6033C13.9215 54.7288 13.9232 54.8361 13.9245 54.9251C13.9263 55.0146 13.928 55.1156 13.9298 55.2281C13.9315 55.3406 13.9331 55.4648 13.9349 55.6007C13.937 55.7371 13.9392 55.885 13.9414 56.0444C13.944 56.2038 13.9464 56.3752 13.9486 56.5585C13.9512 56.7413 13.9535 56.9139 13.9557 57.0764C13.9583 57.2384 13.9605 57.39 13.9622 57.5311C13.9644 57.6727 13.9666 57.8161 13.9688 57.9611C13.9709 58.1066 13.9731 58.2543 13.9753 58.4042C13.9774 58.554 13.9798 58.6991 13.9824 58.8394C13.9846 58.9797 13.9868 59.1152 13.989 59.2459C13.9911 59.3767 13.9945 59.5419 13.9988 59.7417C14.0032 59.9411 14.0089 60.1788 14.0163 60.4551C14.0241 60.7309 14.0318 60.973 14.0392 61.1815C14.0462 61.3904 14.0537 61.5954 14.062 61.7965C14.0702 61.9976 14.0815 62.2678 14.0958 62.607" stroke="#FFBC00" stroke-linecap="round" stroke-linejoin="round"/>
<path d="M13.8164 40.9052C13.9793 40.9017 14.2735 40.8995 14.6991 40.8986C15.1248 40.8982 15.5133 40.8985 15.8647 40.8994C16.2161 40.9002 16.5149 40.9013 16.7612 40.9026C17.007 40.9035 17.2589 40.9045 17.5168 40.9058C17.7748 40.9067 18.0186 40.9078 18.2479 40.9091C18.4772 40.9104 18.7419 40.9121 19.0421 40.9143C19.3417 40.916 19.6744 40.9193 20.0401 40.9241C20.4054 40.9284 20.8126 40.9319 21.2617 40.9345C21.7108 40.9371 22.0819 40.9402 22.3751 40.9437C22.6678 40.9467 22.9347 40.9482 23.1758 40.9482C23.4173 40.9486 23.6317 40.9488 23.8189 40.9488C24.0061 40.9488 24.1707 40.9488 24.3127 40.9488C24.4543 40.9484 24.6041 40.9486 24.7622 40.9495C24.9203 40.9508 25.0739 40.9516 25.2229 40.9521C25.3723 40.9525 25.527 40.9529 25.6873 40.9534C25.8476 40.9534 25.9956 40.954 26.1311 40.9553C26.2666 40.9566 26.4016 40.9573 26.5362 40.9573C26.6709 40.9573 26.7594 40.9577 26.802 40.9586C26.8441 40.9595 27.0635 40.9582 27.46 40.9547" fill="#FFBC00"/>
<path d="M13.8164 40.9052C13.9793 40.9017 14.2735 40.8995 14.6991 40.8986C15.1248 40.8982 15.5133 40.8985 15.8647 40.8994C16.2161 40.9002 16.5149 40.9013 16.7612 40.9026C17.007 40.9035 17.2589 40.9045 17.5168 40.9058C17.7748 40.9067 18.0186 40.9078 18.2479 40.9091C18.4772 40.9104 18.7419 40.9121 19.0421 40.9143C19.3417 40.916 19.6744 40.9193 20.0401 40.9241C20.4054 40.9284 20.8126 40.9319 21.2617 40.9345C21.7108 40.9371 22.0819 40.9402 22.3751 40.9437C22.6678 40.9467 22.9347 40.9482 23.1758 40.9482C23.4173 40.9486 23.6317 40.9488 23.8189 40.9488C24.0061 40.9488 24.1707 40.9488 24.3127 40.9488C24.4543 40.9484 24.6041 40.9486 24.7622 40.9495C24.9203 40.9508 25.0739 40.9516 25.2229 40.9521C25.3723 40.9525 25.527 40.9529 25.6873 40.9534C25.8476 40.9534 25.9956 40.954 26.1311 40.9553C26.2666 40.9566 26.4016 40.9573 26.5362 40.9573C26.6709 40.9573 26.7594 40.9577 26.802 40.9586C26.8441 40.9595 27.0635 40.9582 27.46 40.9547" stroke="#FFBC00" stroke-linecap="round" stroke-linejoin="round"/>
<path d="M27.5219 41.1973C27.5232 41.2311 27.5267 41.3291 27.5323 41.4911C27.538 41.6536 27.5447 41.8788 27.5525 42.1667C27.5604 42.4551 27.5671 42.7286 27.5727 42.987C27.5784 43.2454 27.5832 43.4893 27.5871 43.7186C27.591 43.948 27.5955 44.2092 27.6007 44.5024C27.6055 44.796 27.6099 45.06 27.6138 45.2946C27.6181 45.5296 27.6221 45.7837 27.6256 46.0569C27.6295 46.3296 27.6329 46.5846 27.6359 46.8217C27.6389 47.0588 27.6421 47.3285 27.6451 47.6308C27.6482 47.9331 27.6507 48.2172 27.6529 48.4831C27.6551 48.7484 27.6565 48.9812 27.6574 49.1814C27.6582 49.3821 27.6592 49.5841 27.6601 49.7873C27.6605 49.991 27.6611 50.1702 27.662 50.3248C27.6628 50.4794 27.6633 50.7253 27.6633 51.0623C27.6637 51.3994 27.6635 51.694 27.6626 51.9464C27.6617 52.1983 27.6611 52.4357 27.6607 52.6585C27.6598 52.8809 27.6592 53.131 27.6588 53.409C27.6584 53.687 27.6578 53.9316 27.6574 54.1426C27.6574 54.3537 27.6577 54.5667 27.6582 54.7817C27.6586 54.9963 27.659 55.1807 27.6594 55.3349C27.6599 55.489 27.6605 55.6561 27.6613 55.8359C27.6626 56.0157 27.6646 56.2337 27.6672 56.4899C27.6698 56.7466 27.673 57.0053 27.6769 57.2659C27.6808 57.5265 27.6856 57.7892 27.6912 58.0542C27.6969 58.3196 27.7022 58.5574 27.707 58.7676C27.7118 58.9779 27.7171 59.2026 27.7232 59.4419C27.7289 59.6812 27.7332 59.8623 27.7363 59.9852C27.7397 60.1077 27.7435 60.2456 27.7474 60.3989C27.7513 60.5518 27.7573 60.817 27.7655 61.1945C27.7738 61.5715 27.7853 62.0859 27.8 62.7379" fill="#FFBC00"/>
<path d="M27.5219 41.1973C27.5232 41.2311 27.5267 41.3291 27.5323 41.4911C27.538 41.6536 27.5447 41.8788 27.5525 42.1667C27.5604 42.4551 27.5671 42.7286 27.5727 42.987C27.5784 43.2454 27.5832 43.4893 27.5871 43.7186C27.591 43.948 27.5955 44.2092 27.6007 44.5024C27.6055 44.796 27.6099 45.06 27.6138 45.2946C27.6181 45.5296 27.6221 45.7837 27.6256 46.0569C27.6295 46.3296 27.6329 46.5846 27.6359 46.8217C27.6389 47.0588 27.6421 47.3285 27.6451 47.6308C27.6482 47.9331 27.6507 48.2172 27.6529 48.4831C27.6551 48.7484 27.6565 48.9812 27.6574 49.1814C27.6582 49.3821 27.6592 49.5841 27.6601 49.7873C27.6605 49.991 27.6611 50.1702 27.662 50.3248C27.6628 50.4794 27.6633 50.7253 27.6633 51.0623C27.6637 51.3994 27.6635 51.694 27.6626 51.9464C27.6617 52.1983 27.6611 52.4357 27.6607 52.6585C27.6598 52.8809 27.6592 53.131 27.6588 53.409C27.6584 53.687 27.6578 53.9316 27.6574 54.1426C27.6574 54.3537 27.6577 54.5667 27.6582 54.7817C27.6586 54.9963 27.659 55.1807 27.6594 55.3349C27.6599 55.489 27.6605 55.6561 27.6613 55.8359C27.6626 56.0157 27.6646 56.2337 27.6672 56.4899C27.6698 56.7466 27.673 57.0053 27.6769 57.2659C27.6808 57.5265 27.6856 57.7892 27.6912 58.0542C27.6969 58.3196 27.7022 58.5574 27.707 58.7676C27.7118 58.9779 27.7171 59.2026 27.7232 59.4419C27.7289 59.6812 27.7332 59.8623 27.7363 59.9852C27.7397 60.1077 27.7435 60.2456 27.7474 60.3989C27.7513 60.5518 27.7573 60.817 27.7655 61.1945C27.7738 61.5715 27.7853 62.0859 27.8 62.7379" stroke="#FFBC00" stroke-linecap="round" stroke-linejoin="round"/>
<path d="M14.2216 62.6427C14.3102 62.6418 14.42 62.6455 14.5512 62.6538C14.7227 62.6546 14.9986 62.6597 15.3786 62.6688C15.7586 62.6775 16.1841 62.6864 16.6549 62.6955C17.1253 62.7046 17.517 62.7118 17.8302 62.717C18.1429 62.7218 18.3438 62.725 18.4328 62.7268C18.5223 62.7289 18.7789 62.7333 19.2023 62.7398C19.6263 62.7463 20.1141 62.7522 20.6662 62.7574C21.2178 62.7626 21.7226 62.767 22.1809 62.7704C22.6391 62.7743 23.1114 62.7771 23.5979 62.7789C24.0844 62.7806 24.4141 62.7822 24.5869 62.7835C24.7598 62.7852 24.9441 62.7856 25.14 62.7847C25.3363 62.7843 25.5927 62.7843 25.9088 62.7847C26.2255 62.7856 26.4987 62.7856 26.7285 62.7847C26.9582 62.7843 27.1415 62.7841 27.2783 62.7841C27.4147 62.7841 27.5772 62.7828 27.7662 62.7802" fill="#FFBC00"/>
<path d="M14.2216 62.6427C14.3102 62.6418 14.42 62.6455 14.5512 62.6538C14.7227 62.6546 14.9986 62.6597 15.3786 62.6688C15.7586 62.6775 16.1841 62.6864 16.6549 62.6955C17.1253 62.7046 17.517 62.7118 17.8302 62.717C18.1429 62.7218 18.3438 62.725 18.4328 62.7268C18.5223 62.7289 18.7789 62.7333 19.2023 62.7398C19.6263 62.7463 20.1141 62.7522 20.6662 62.7574C21.2178 62.7626 21.7226 62.767 22.1809 62.7704C22.6391 62.7743 23.1114 62.7771 23.5979 62.7789C24.0844 62.7806 24.4141 62.7822 24.5869 62.7835C24.7598 62.7852 24.9441 62.7856 25.14 62.7847C25.3363 62.7843 25.5927 62.7843 25.9088 62.7847C26.2255 62.7856 26.4987 62.7856 26.7285 62.7847C26.9582 62.7843 27.1415 62.7841 27.2783 62.7841C27.4147 62.7841 27.5772 62.7828 27.7662 62.7802" stroke="#FFBC00" stroke-linecap="round" stroke-linejoin="round"/>
<path d="M13.673 77.2212L13.8424 77.2205L13.8508 77.2244C13.8595 77.227 13.9936 77.227 14.2534 77.2244C14.5131 77.2214 15.184 77.2083 16.2659 77.1853C16.5061 77.1831 16.6936 77.1806 16.8282 77.1775C16.9628 77.1749 17.0373 77.1729 17.0517 77.1716C17.0664 77.1699 17.3946 77.1695 18.0361 77.1704" fill="#FFBC00"/>
<path d="M13.673 77.2212L13.8424 77.2205L13.8508 77.2244C13.8595 77.227 13.9936 77.227 14.2534 77.2244C14.5131 77.2214 15.184 77.2083 16.2659 77.1853C16.5061 77.1831 16.6936 77.1806 16.8282 77.1775C16.9628 77.1749 17.0373 77.1729 17.0517 77.1716C17.0664 77.1699 17.3946 77.1695 18.0361 77.1704" stroke="#FFBC00" stroke-linecap="round" stroke-linejoin="round"/>
<path d="M13.615 79.5601C13.7301 79.5618 13.7929 79.5646 13.8033 79.5685C13.9319 79.5707 14.0807 79.5717 14.2497 79.5717C14.4182 79.5717 14.6068 79.5709 14.8157 79.5692C15.0247 79.567 15.2156 79.5651 15.3885 79.5633C15.5609 79.562 15.7486 79.5602 15.9514 79.5581C16.1543 79.5559 16.3211 79.5535 16.4523 79.5509C16.5839 79.5483 16.7192 79.5457 16.8582 79.5431C16.9972 79.5401 17.1731 79.5372 17.386 79.5346C17.5992 79.532 17.7098 79.5309 17.7176 79.5313C17.7254 79.5322 17.7811 79.5331 17.8849 79.534" fill="#FFBC00"/>
<path d="M13.615 79.5601C13.7301 79.5618 13.7929 79.5646 13.8033 79.5685C13.9319 79.5707 14.0807 79.5717 14.2497 79.5717C14.4182 79.5717 14.6068 79.5709 14.8157 79.5692C15.0247 79.567 15.2156 79.5651 15.3885 79.5633C15.5609 79.562 15.7486 79.5602 15.9514 79.5581C16.1543 79.5559 16.3211 79.5535 16.4523 79.5509C16.5839 79.5483 16.7192 79.5457 16.8582 79.5431C16.9972 79.5401 17.1731 79.5372 17.386 79.5346C17.5992 79.532 17.7098 79.5309 17.7176 79.5313C17.7254 79.5322 17.7811 79.5331 17.8849 79.534" stroke="#FFBC00" stroke-linecap="round" stroke-linejoin="round"/>
<path d="M13.5589 81.7148C13.6206 81.7135 13.7197 81.7116 13.856 81.709C13.9924 81.7059 14.1652 81.7031 14.3746 81.7005C14.5839 81.6984 14.7729 81.6973 14.9415 81.6973C15.11 81.6977 15.2911 81.6997 15.4848 81.7032C15.6781 81.7066 15.9046 81.7123 16.1643 81.7201C16.4236 81.7283 16.6199 81.7318 16.7533 81.7305C16.8866 81.7288 17.0168 81.7279 17.1441 81.7279C17.2713 81.7279 17.4955 81.7248 17.8164 81.7187" fill="#FFBC00"/>
<path d="M13.5589 81.7148C13.6206 81.7135 13.7197 81.7116 13.856 81.709C13.9924 81.7059 14.1652 81.7031 14.3746 81.7005C14.5839 81.6984 14.7729 81.6973 14.9415 81.6973C15.11 81.6977 15.2911 81.6997 15.4848 81.7032C15.6781 81.7066 15.9046 81.7123 16.1643 81.7201C16.4236 81.7283 16.6199 81.7318 16.7533 81.7305C16.8866 81.7288 17.0168 81.7279 17.1441 81.7279C17.2713 81.7279 17.4955 81.7248 17.8164 81.7187" stroke="#FFBC00" stroke-linecap="round" stroke-linejoin="round"/>
<path d="M21.8513 77.1328C21.9811 77.1359 22.4157 77.1413 23.1549 77.1491C23.8941 77.1565 24.4192 77.1613 24.7302 77.1634C25.0416 77.1656 25.3378 77.1691 25.6189 77.1738C25.8994 77.1791 26.1203 77.1825 26.2815 77.1843" fill="#FFBC00"/>
<path d="M21.8513 77.1328C21.9811 77.1359 22.4157 77.1413 23.1549 77.1491C23.8941 77.1565 24.4192 77.1613 24.7302 77.1634C25.0416 77.1656 25.3378 77.1691 25.6189 77.1738C25.8994 77.1791 26.1203 77.1825 26.2815 77.1843" stroke="#FFBC00" stroke-linecap="round" stroke-linejoin="round"/>
<path d="M21.779 79.6523C21.8936 79.6545 22.0303 79.6583 22.1889 79.6635C22.3469 79.6683 22.622 79.6741 23.0142 79.6811C23.4068 79.6876 23.6827 79.6904 23.8416 79.6895C24.001 79.6882 24.2128 79.688 24.4769 79.6888C24.7405 79.6893 24.9438 79.6911 25.0867 79.6941C25.2292 79.6971 25.4317 79.7019 25.6945 79.7084C25.9577 79.7149 26.1653 79.7206 26.3174 79.7254" fill="#FFBC00"/>
<path d="M21.779 79.6523C21.8936 79.6545 22.0303 79.6583 22.1889 79.6635C22.3469 79.6683 22.622 79.6741 23.0142 79.6811C23.4068 79.6876 23.6827 79.6904 23.8416 79.6895C24.001 79.6882 24.2128 79.688 24.4769 79.6888C24.7405 79.6893 24.9438 79.6911 25.0867 79.6941C25.2292 79.6971 25.4317 79.7019 25.6945 79.7084C25.9577 79.7149 26.1653 79.7206 26.3174 79.7254" stroke="#FFBC00" stroke-linecap="round" stroke-linejoin="round"/>
<path d="M21.7763 81.9844L21.9274 81.9889H21.947C21.9509 81.9898 22.0002 81.9928 22.0949 81.9981C22.1896 82.0033 22.3299 82.0104 22.5158 82.0195C22.7017 82.0291 22.8735 82.0369 23.0311 82.043C23.1892 82.0495 23.3658 82.0551 23.5608 82.0599C23.7563 82.0651 23.9063 82.0684 24.0109 82.0697C24.116 82.071 24.2308 82.0727 24.355 82.0749C24.4792 82.0771 24.6298 82.0799 24.807 82.0834C24.9842 82.086 25.1185 82.088 25.2098 82.0893C25.301 82.0901 25.3513 82.0905 25.3609 82.0905C25.3704 82.0905 25.4301 82.0916 25.54 82.0938C25.6498 82.0955 25.7087 82.0966 25.7165 82.0971C25.7239 82.0975 25.7316 82.0984 25.7394 82.0997C25.7468 82.101 25.9216 82.1053 26.2638 82.1127" fill="#FFBC00"/>
<path d="M21.7763 81.9844L21.9274 81.9889H21.947C21.9509 81.9898 22.0002 81.9928 22.0949 81.9981C22.1896 82.0033 22.3299 82.0104 22.5158 82.0195C22.7017 82.0291 22.8735 82.0369 23.0311 82.043C23.1892 82.0495 23.3658 82.0551 23.5608 82.0599C23.7563 82.0651 23.9063 82.0684 24.0109 82.0697C24.116 82.071 24.2308 82.0727 24.355 82.0749C24.4792 82.0771 24.6298 82.0799 24.807 82.0834C24.9842 82.086 25.1185 82.088 25.2098 82.0893C25.301 82.0901 25.3513 82.0905 25.3609 82.0905C25.3704 82.0905 25.4301 82.0916 25.54 82.0938C25.6498 82.0955 25.7087 82.0966 25.7165 82.0971C25.7239 82.0975 25.7316 82.0984 25.7394 82.0997C25.7468 82.101 25.9216 82.1053 26.2638 82.1127" stroke="#FFBC00" stroke-linecap="round" stroke-linejoin="round"/>
<path d="M33.3927 83.766C33.3914 83.6882 33.3906 83.5931 33.3906 83.4806C33.3906 83.3677 33.3916 83.2374 33.3933 83.0897C33.395 82.9425 33.3969 82.7766 33.399 82.592C33.4012 82.4074 33.4041 82.2044 33.4076 81.9829C33.4107 81.7609 33.4132 81.5587 33.4154 81.3763C33.4176 81.1943 33.4196 81.0316 33.4213 80.8883C33.4226 80.745 33.424 80.6145 33.4257 80.4968C33.427 80.3786 33.4284 80.2733 33.4297 80.1808C33.431 80.0879 33.4324 79.9817 33.4337 79.8622C33.435 79.7428 33.4364 79.6101 33.4382 79.4642C33.4395 79.3187 33.441 79.1762 33.4428 79.0368C33.4441 78.8978 33.4456 78.7618 33.4474 78.6289C33.4487 78.4964 33.4497 78.3807 33.4506 78.2817C33.4519 78.1822 33.453 78.0829 33.4539 77.9839C33.4552 77.8849 33.4564 77.7502 33.4577 77.58C33.4595 77.4102 33.4584 77.1361 33.4545 76.7578" fill="#FFBC00"/>
<path d="M33.3927 83.766C33.3914 83.6882 33.3906 83.5931 33.3906 83.4806C33.3906 83.3677 33.3916 83.2374 33.3933 83.0897C33.395 82.9425 33.3969 82.7766 33.399 82.592C33.4012 82.4074 33.4041 82.2044 33.4076 81.9829C33.4107 81.7609 33.4132 81.5587 33.4154 81.3763C33.4176 81.1943 33.4196 81.0316 33.4213 80.8883C33.4226 80.745 33.424 80.6145 33.4257 80.4968C33.427 80.3786 33.4284 80.2733 33.4297 80.1808C33.431 80.0879 33.4324 79.9817 33.4337 79.8622C33.435 79.7428 33.4364 79.6101 33.4382 79.4642C33.4395 79.3187 33.441 79.1762 33.4428 79.0368C33.4441 78.8978 33.4456 78.7618 33.4474 78.6289C33.4487 78.4964 33.4497 78.3807 33.4506 78.2817C33.4519 78.1822 33.453 78.0829 33.4539 77.9839C33.4552 77.8849 33.4564 77.7502 33.4577 77.58C33.4595 77.4102 33.4584 77.1361 33.4545 76.7578" stroke="#FFBC00" stroke-linecap="round" stroke-linejoin="round"/>
<path d="M33.5385 76.6701C33.5815 76.6701 33.6534 76.669 33.7542 76.6668C33.8545 76.6651 33.9841 76.6624 34.1431 76.6589C34.3025 76.655 34.4541 76.6515 34.5978 76.6485C34.742 76.6455 34.8787 76.6429 35.0077 76.6407C35.1367 76.6381 35.2673 76.6357 35.3998 76.6335C35.5318 76.6314 35.666 76.6294 35.8019 76.6277C35.9374 76.6255 36.0831 76.6231 36.239 76.6205C36.3945 76.6183 36.538 76.6162 36.6696 76.614C36.8016 76.6118 36.926 76.6098 37.0429 76.6081C37.1601 76.6068 37.2921 76.6055 37.4384 76.6042C37.5853 76.6033 37.7466 76.6022 37.9225 76.6009C38.0984 76.5996 38.2888 76.5986 38.4938 76.5977C38.6992 76.5968 38.8839 76.5959 39.0476 76.5951C39.2114 76.5942 39.3851 76.5936 39.5689 76.5931C39.7522 76.5923 39.9026 76.5918 40.0203 76.5918C40.138 76.5918 40.2753 76.5925 40.4321 76.5938C40.5889 76.5947 40.7535 76.5959 40.9259 76.5977C41.0984 76.5994 41.2563 76.601 41.4001 76.6023C41.5434 76.604 41.7011 76.6059 41.8731 76.6081C42.0451 76.6107 42.1949 76.6129 42.3226 76.6146C42.4508 76.6164 42.5774 76.6181 42.7025 76.6199C42.8275 76.6216 42.9565 76.6238 43.0894 76.6264C43.2219 76.629 43.3438 76.6314 43.455 76.6335C43.5661 76.6357 43.7086 76.6381 43.8823 76.6407C44.0565 76.6437 44.2129 76.6463 44.3514 76.6485C44.49 76.6507 44.7063 76.6552 45.0004 76.6622C45.1745 76.6661 45.276 76.6692 45.3046 76.6713C45.3333 76.6735 45.3702 76.6752 45.4153 76.6765C45.4601 76.6778 45.6632 76.6815 46.0245 76.6876" fill="#FFBC00"/>
<path d="M33.5385 76.6701C33.5815 76.6701 33.6534 76.669 33.7542 76.6668C33.8545 76.6651 33.9841 76.6624 34.1431 76.6589C34.3025 76.655 34.4541 76.6515 34.5978 76.6485C34.742 76.6455 34.8787 76.6429 35.0077 76.6407C35.1367 76.6381 35.2673 76.6357 35.3998 76.6335C35.5318 76.6314 35.666 76.6294 35.8019 76.6277C35.9374 76.6255 36.0831 76.6231 36.239 76.6205C36.3945 76.6183 36.538 76.6162 36.6696 76.614C36.8016 76.6118 36.926 76.6098 37.0429 76.6081C37.1601 76.6068 37.2921 76.6055 37.4384 76.6042C37.5853 76.6033 37.7466 76.6022 37.9225 76.6009C38.0984 76.5996 38.2888 76.5986 38.4938 76.5977C38.6992 76.5968 38.8839 76.5959 39.0476 76.5951C39.2114 76.5942 39.3851 76.5936 39.5689 76.5931C39.7522 76.5923 39.9026 76.5918 40.0203 76.5918C40.138 76.5918 40.2753 76.5925 40.4321 76.5938C40.5889 76.5947 40.7535 76.5959 40.9259 76.5977C41.0984 76.5994 41.2563 76.601 41.4001 76.6023C41.5434 76.604 41.7011 76.6059 41.8731 76.6081C42.0451 76.6107 42.1949 76.6129 42.3226 76.6146C42.4508 76.6164 42.5774 76.6181 42.7025 76.6199C42.8275 76.6216 42.9565 76.6238 43.0894 76.6264C43.2219 76.629 43.3438 76.6314 43.455 76.6335C43.5661 76.6357 43.7086 76.6381 43.8823 76.6407C44.0565 76.6437 44.2129 76.6463 44.3514 76.6485C44.49 76.6507 44.7063 76.6552 45.0004 76.6622C45.1745 76.6661 45.276 76.6692 45.3046 76.6713C45.3333 76.6735 45.3702 76.6752 45.4153 76.6765C45.4601 76.6778 45.6632 76.6815 46.0245 76.6876" stroke="#FFBC00" stroke-linecap="round" stroke-linejoin="round"/>
<path d="M46.009 76.8477C46.0072 76.9701 46.0048 77.2664 46.0018 77.7363C45.9988 78.2063 45.9968 78.5972 45.9959 78.909C45.9951 79.2205 45.9941 79.4522 45.9932 79.6042C45.9919 79.7562 45.9905 79.9032 45.9888 80.0452C45.9866 80.1868 45.9852 80.2596 45.9848 80.2635C45.9844 80.2674 45.9828 80.3543 45.9802 80.5241C45.9776 80.6939 45.976 80.8531 45.9751 81.0016C45.9746 81.1497 45.9737 81.3723 45.9724 81.6694C45.9715 81.9661 45.9697 82.2614 45.9671 82.5554C45.965 82.849 45.9631 83.0791 45.9614 83.2454C45.9601 83.4113 45.9587 83.5744 45.9574 83.7347" fill="#FFBC00"/>
<path d="M46.009 76.8477C46.0072 76.9701 46.0048 77.2664 46.0018 77.7363C45.9988 78.2063 45.9968 78.5972 45.9959 78.909C45.9951 79.2205 45.9941 79.4522 45.9932 79.6042C45.9919 79.7562 45.9905 79.9032 45.9888 80.0452C45.9866 80.1868 45.9852 80.2596 45.9848 80.2635C45.9844 80.2674 45.9828 80.3543 45.9802 80.5241C45.9776 80.6939 45.976 80.8531 45.9751 81.0016C45.9746 81.1497 45.9737 81.3723 45.9724 81.6694C45.9715 81.9661 45.9697 82.2614 45.9671 82.5554C45.965 82.849 45.9631 83.0791 45.9614 83.2454C45.9601 83.4113 45.9587 83.5744 45.9574 83.7347" stroke="#FFBC00" stroke-linecap="round" stroke-linejoin="round"/>
<path d="M33.1529 8.68555C33.1503 8.73332 33.1491 8.76503 33.1491 8.78066C33.1491 8.79673 33.1497 8.8217 33.151 8.85558C33.1523 8.88902 33.1539 8.95045 33.1556 9.03993C33.1569 9.1294 33.1581 9.19934 33.1594 9.24972C33.1607 9.30011 33.1623 9.42503 33.164 9.62438C33.1658 9.82374 33.1654 9.99961 33.1628 10.1521C33.1606 10.3045 33.1576 10.4353 33.1542 10.5443C33.1503 10.6533 33.1473 10.7506 33.1451 10.8362C33.1425 10.9217 33.1403 11.0841 33.1386 11.3234C33.1373 11.5632 33.1384 11.7834 33.1419 11.9841C33.145 12.1847 33.1507 12.3824 33.1594 12.577C33.1681 12.7716 33.1746 12.8912 33.179 12.936C33.1838 12.9807 33.1949 13.0573 33.2122 13.1659L33.2278 13.2604" fill="#FFBC00"/>
<path d="M33.1529 8.68555C33.1503 8.73332 33.1491 8.76503 33.1491 8.78066C33.1491 8.79673 33.1497 8.8217 33.151 8.85558C33.1523 8.88902 33.1539 8.95045 33.1556 9.03993C33.1569 9.1294 33.1581 9.19934 33.1594 9.24972C33.1607 9.30011 33.1623 9.42503 33.164 9.62438C33.1658 9.82374 33.1654 9.99961 33.1628 10.1521C33.1606 10.3045 33.1576 10.4353 33.1542 10.5443C33.1503 10.6533 33.1473 10.7506 33.1451 10.8362C33.1425 10.9217 33.1403 11.0841 33.1386 11.3234C33.1373 11.5632 33.1384 11.7834 33.1419 11.9841C33.145 12.1847 33.1507 12.3824 33.1594 12.577C33.1681 12.7716 33.1746 12.8912 33.179 12.936C33.1838 12.9807 33.1949 13.0573 33.2122 13.1659L33.2278 13.2604" stroke="#FFBC00" stroke-linecap="round" stroke-linejoin="round"/>
<script xmlns=""/></svg>